<svg width="491" height="260" viewBox="0 0 491 260" fill="none" xmlns="http://www.w3.org/2000/svg">
<mask id="path-1-outside-1_2026_62" maskUnits="userSpaceOnUse" x="18" y="41" width="454" height="190" fill="black">
<rect fill="white" x="18" y="41" width="454" height="190"/>
<path d="M98.2129 226V198H19.9629V166.25L76.7129 46H115.713L58.9629 166.25H98.2129V121.25H132.713V166.25H148.713V198H132.713V226H98.2129ZM245.521 229.75C232.188 229.75 220.521 226.958 210.521 221.375C200.521 215.792 192.73 208 187.146 198C181.563 188 178.771 176.333 178.771 163V109C178.771 95.6667 181.563 84 187.146 74C192.73 64 200.521 56.2083 210.521 50.625C220.521 45.0417 232.188 42.25 245.521 42.25C258.855 42.25 270.521 45.0417 280.521 50.625C290.521 56.2083 298.313 64 303.896 74C309.48 84 312.271 95.6667 312.271 109V163C312.271 176.333 309.48 188 303.896 198C298.313 208 290.521 215.792 280.521 221.375C270.521 226.958 258.855 229.75 245.521 229.75ZM245.521 197.5C251.521 197.5 256.938 196.083 261.771 193.25C266.605 190.417 270.438 186.583 273.271 181.75C276.105 176.917 277.521 171.5 277.521 165.5V106.25C277.521 100.25 276.105 94.8333 273.271 90C270.438 85.1667 266.605 81.3333 261.771 78.5C256.938 75.6667 251.521 74.25 245.521 74.25C239.521 74.25 234.105 75.6667 229.271 78.5C224.438 81.3333 220.605 85.1667 217.771 90C214.938 94.8333 213.521 100.25 213.521 106.25V165.5C213.521 171.5 214.938 176.917 217.771 181.75C220.605 186.583 224.438 190.417 229.271 193.25C234.105 196.083 239.521 197.5 245.521 197.5ZM420.479 226V198H342.229V166.25L398.979 46H437.979L381.229 166.25H420.479V121.25H454.979V166.25H470.979V198H454.979V226H420.479Z"/>
</mask>
<path d="M98.2129 226H97.2129V227H98.2129V226ZM98.2129 198H99.2129V197H98.2129V198ZM19.9629 198H18.9629V199H19.9629V198ZM19.9629 166.25L19.0585 165.823L18.9629 166.026V166.25H19.9629ZM76.7129 46V45H76.0791L75.8085 45.5732L76.7129 46ZM115.713 46L116.617 46.4268L117.291 45H115.713V46ZM58.9629 166.25L58.0585 165.823L57.3852 167.25H58.9629V166.25ZM98.2129 166.25V167.25H99.2129V166.25H98.2129ZM98.2129 121.25V120.25H97.2129V121.25H98.2129ZM132.713 121.25H133.713V120.25H132.713V121.25ZM132.713 166.25H131.713V167.25H132.713V166.25ZM148.713 166.25H149.713V165.25H148.713V166.25ZM148.713 198V199H149.713V198H148.713ZM132.713 198V197H131.713V198H132.713ZM132.713 226V227H133.713V226H132.713ZM98.2129 226H99.2129V198H98.2129H97.2129V226H98.2129ZM98.2129 198V197H19.9629V198V199H98.2129V198ZM19.9629 198H20.9629V166.25H19.9629H18.9629V198H19.9629ZM19.9629 166.25L20.8672 166.677L77.6172 46.4268L76.7129 46L75.8085 45.5732L19.0585 165.823L19.9629 166.25ZM76.7129 46V47H115.713V46V45H76.7129V46ZM115.713 46L114.809 45.5732L58.0585 165.823L58.9629 166.25L59.8672 166.677L116.617 46.4268L115.713 46ZM58.9629 166.25V167.25H98.2129V166.25V165.25H58.9629V166.25ZM98.2129 166.25H99.2129V121.25H98.2129H97.2129V166.25H98.2129ZM98.2129 121.25V122.25H132.713V121.25V120.25H98.2129V121.25ZM132.713 121.25H131.713V166.25H132.713H133.713V121.25H132.713ZM132.713 166.25V167.25H148.713V166.25V165.25H132.713V166.25ZM148.713 166.25H147.713V198H148.713H149.713V166.25H148.713ZM148.713 198V197H132.713V198V199H148.713V198ZM132.713 198H131.713V226H132.713H133.713V198H132.713ZM132.713 226V225H98.2129V226V227H132.713V226ZM210.521 221.375L211.009 220.502L211.009 220.502L210.521 221.375ZM187.146 198L188.02 197.513L188.02 197.513L187.146 198ZM187.146 74L188.02 74.4875L188.02 74.4875L187.146 74ZM210.521 50.625L210.034 49.7519L210.034 49.7519L210.521 50.625ZM280.521 50.625L281.009 49.7519L281.009 49.7519L280.521 50.625ZM303.896 198L303.023 197.513L303.896 198ZM280.521 221.375L281.009 222.248L281.009 222.248L280.521 221.375ZM261.771 193.25L261.266 192.387L261.266 192.387L261.771 193.25ZM273.271 181.75L272.409 181.244L272.409 181.244L273.271 181.75ZM273.271 90L272.409 90.5057L272.409 90.5057L273.271 90ZM261.771 78.5L261.266 79.3627L261.266 79.3627L261.771 78.5ZM229.271 78.5L228.766 77.6373L228.766 77.6373L229.271 78.5ZM217.771 181.75L216.909 182.256L216.909 182.256L217.771 181.75ZM229.271 193.25L229.777 192.387L229.777 192.387L229.271 193.25ZM245.521 229.75V228.75C232.331 228.75 220.837 225.989 211.009 220.502L210.521 221.375L210.034 222.248C220.206 227.927 232.046 230.75 245.521 230.75V229.75ZM210.521 221.375L211.009 220.502C201.171 215.009 193.513 207.351 188.02 197.513L187.146 198L186.273 198.487C191.947 208.649 199.872 216.574 210.034 222.248L210.521 221.375ZM187.146 198L188.02 197.513C182.532 187.684 179.771 176.191 179.771 163H178.771H177.771C177.771 176.476 180.594 188.316 186.273 198.487L187.146 198ZM178.771 163H179.771V109H178.771H177.771V163H178.771ZM178.771 109H179.771C179.771 95.8091 182.532 84.3156 188.02 74.4875L187.146 74L186.273 73.5125C180.594 83.6843 177.771 95.5242 177.771 109H178.771ZM187.146 74L188.02 74.4875C193.513 64.6493 201.171 56.9911 211.009 51.4981L210.521 50.625L210.034 49.7519C199.872 55.4255 191.947 63.3507 186.273 73.5125L187.146 74ZM210.521 50.625L211.009 51.4981C220.837 46.0107 232.331 43.25 245.521 43.25V42.25V41.25C232.046 41.25 220.206 44.0726 210.034 49.7519L210.521 50.625ZM245.521 42.25V43.25C258.712 43.25 270.206 46.0107 280.034 51.4981L280.521 50.625L281.009 49.7519C270.837 44.0726 258.997 41.25 245.521 41.25V42.25ZM280.521 50.625L280.034 51.4981C289.872 56.9911 297.53 64.6493 303.023 74.4875L303.896 74L304.77 73.5125C299.096 63.3507 291.171 55.4255 281.009 49.7519L280.521 50.625ZM303.896 74L303.023 74.4875C308.511 84.3156 311.271 95.8091 311.271 109H312.271H313.271C313.271 95.5242 310.449 83.6843 304.77 73.5125L303.896 74ZM312.271 109H311.271V163H312.271H313.271V109H312.271ZM312.271 163H311.271C311.271 176.191 308.511 187.684 303.023 197.513L303.896 198L304.77 198.487C310.449 188.316 313.271 176.476 313.271 163H312.271ZM303.896 198L303.023 197.513C297.53 207.351 289.872 215.009 280.034 220.502L280.521 221.375L281.009 222.248C291.171 216.574 299.096 208.649 304.77 198.487L303.896 198ZM280.521 221.375L280.034 220.502C270.206 225.989 258.712 228.75 245.521 228.75V229.75V230.75C258.997 230.75 270.837 227.927 281.009 222.248L280.521 221.375ZM245.521 197.5V198.5C251.686 198.5 257.28 197.042 262.277 194.113L261.771 193.25L261.266 192.387C256.597 195.124 251.357 196.5 245.521 196.5V197.5ZM261.771 193.25L262.277 194.113C267.258 191.193 271.214 187.237 274.134 182.256L273.271 181.75L272.409 181.244C269.662 185.93 265.952 189.64 261.266 192.387L261.771 193.25ZM273.271 181.75L274.134 182.256C277.064 177.258 278.521 171.665 278.521 165.5H277.521H276.521C276.521 171.335 275.146 176.575 272.409 181.244L273.271 181.75ZM277.521 165.5H278.521V106.25H277.521H276.521V165.5H277.521ZM277.521 106.25H278.521C278.521 100.085 277.064 94.4919 274.134 89.4943L273.271 90L272.409 90.5057C275.146 95.1748 276.521 100.415 276.521 106.25H277.521ZM273.271 90L274.134 89.4943C271.214 84.5134 267.258 80.5571 262.277 77.6373L261.771 78.5L261.266 79.3627C265.952 82.1095 269.662 85.8199 272.409 90.5057L273.271 90ZM261.771 78.5L262.277 77.6373C257.28 74.7077 251.686 73.25 245.521 73.25V74.25V75.25C251.357 75.25 256.597 76.6256 261.266 79.3627L261.771 78.5ZM245.521 74.25V73.25C239.357 73.25 233.763 74.7077 228.766 77.6373L229.271 78.5L229.777 79.3627C234.446 76.6256 239.686 75.25 245.521 75.25V74.25ZM229.271 78.5L228.766 77.6373C223.785 80.5571 219.829 84.5134 216.909 89.4943L217.771 90L218.634 90.5057C221.381 85.8199 225.091 82.1095 229.777 79.3627L229.271 78.5ZM217.771 90L216.909 89.4943C213.979 94.4919 212.521 100.085 212.521 106.25H213.521H214.521C214.521 100.415 215.897 95.1748 218.634 90.5057L217.771 90ZM213.521 106.25H212.521V165.5H213.521H214.521V106.25H213.521ZM213.521 165.5H212.521C212.521 171.665 213.979 177.258 216.909 182.256L217.771 181.75L218.634 181.244C215.897 176.575 214.521 171.335 214.521 165.5H213.521ZM217.771 181.75L216.909 182.256C219.829 187.237 223.785 191.193 228.766 194.113L229.271 193.25L229.777 192.387C225.091 189.64 221.381 185.93 218.634 181.244L217.771 181.75ZM229.271 193.25L228.766 194.113C233.763 197.042 239.357 198.5 245.521 198.5V197.5V196.5C239.686 196.5 234.446 195.124 229.777 192.387L229.271 193.25ZM420.479 226H419.479V227H420.479V226ZM420.479 198H421.479V197H420.479V198ZM342.229 198H341.229V199H342.229V198ZM342.229 166.25L341.324 165.823L341.229 166.026V166.25H342.229ZM398.979 46V45H398.345L398.074 45.5732L398.979 46ZM437.979 46L438.883 46.4268L439.556 45H437.979V46ZM381.229 166.25L380.324 165.823L379.651 167.25H381.229V166.25ZM420.479 166.25V167.25H421.479V166.25H420.479ZM420.479 121.25V120.25H419.479V121.25H420.479ZM454.979 121.25H455.979V120.25H454.979V121.25ZM454.979 166.25H453.979V167.25H454.979V166.25ZM470.979 166.25H471.979V165.25H470.979V166.25ZM470.979 198V199H471.979V198H470.979ZM454.979 198V197H453.979V198H454.979ZM454.979 226V227H455.979V226H454.979ZM420.479 226H421.479V198H420.479H419.479V226H420.479ZM420.479 198V197H342.229V198V199H420.479V198ZM342.229 198H343.229V166.25H342.229H341.229V198H342.229ZM342.229 166.25L343.133 166.677L399.883 46.4268L398.979 46L398.074 45.5732L341.324 165.823L342.229 166.25ZM398.979 46V47H437.979V46V45H398.979V46ZM437.979 46L437.074 45.5732L380.324 165.823L381.229 166.25L382.133 166.677L438.883 46.4268L437.979 46ZM381.229 166.25V167.25H420.479V166.25V165.25H381.229V166.25ZM420.479 166.25H421.479V121.25H420.479H419.479V166.25H420.479ZM420.479 121.25V122.25H454.979V121.25V120.25H420.479V121.25ZM454.979 121.25H453.979V166.25H454.979H455.979V121.25H454.979ZM454.979 166.25V167.25H470.979V166.25V165.25H454.979V166.25ZM470.979 166.25H469.979V198H470.979H471.979V166.25H470.979ZM470.979 198V197H454.979V198V199H470.979V198ZM454.979 198H453.979V226H454.979H455.979V198H454.979ZM454.979 226V225H420.479V226V227H454.979V226Z" fill="url(#paint0_linear_2026_62)" mask="url(#path-1-outside-1_2026_62)"/>
<g filter="url(#filter0_f_2026_62)">
<mask id="path-3-outside-2_2026_62" maskUnits="userSpaceOnUse" x="18" y="41" width="454" height="190" fill="black">
<rect fill="white" x="18" y="41" width="454" height="190"/>
<path d="M98.2129 226V198H19.9629V166.25L76.7129 46H115.713L58.9629 166.25H98.2129V121.25H132.713V166.25H148.713V198H132.713V226H98.2129ZM245.521 229.75C232.188 229.75 220.521 226.958 210.521 221.375C200.521 215.792 192.73 208 187.146 198C181.563 188 178.771 176.333 178.771 163V109C178.771 95.6667 181.563 84 187.146 74C192.73 64 200.521 56.2083 210.521 50.625C220.521 45.0417 232.188 42.25 245.521 42.25C258.855 42.25 270.521 45.0417 280.521 50.625C290.521 56.2083 298.313 64 303.896 74C309.48 84 312.271 95.6667 312.271 109V163C312.271 176.333 309.48 188 303.896 198C298.313 208 290.521 215.792 280.521 221.375C270.521 226.958 258.855 229.75 245.521 229.75ZM245.521 197.5C251.521 197.5 256.938 196.083 261.771 193.25C266.605 190.417 270.438 186.583 273.271 181.75C276.105 176.917 277.521 171.5 277.521 165.5V106.25C277.521 100.25 276.105 94.8333 273.271 90C270.438 85.1667 266.605 81.3333 261.771 78.5C256.938 75.6667 251.521 74.25 245.521 74.25C239.521 74.25 234.105 75.6667 229.271 78.5C224.438 81.3333 220.605 85.1667 217.771 90C214.938 94.8333 213.521 100.25 213.521 106.25V165.5C213.521 171.5 214.938 176.917 217.771 181.75C220.605 186.583 224.438 190.417 229.271 193.25C234.105 196.083 239.521 197.5 245.521 197.5ZM420.479 226V198H342.229V166.25L398.979 46H437.979L381.229 166.25H420.479V121.25H454.979V166.25H470.979V198H454.979V226H420.479Z"/>
</mask>
<path d="M98.2129 226H97.2129V227H98.2129V226ZM98.2129 198H99.2129V197H98.2129V198ZM19.9629 198H18.9629V199H19.9629V198ZM19.9629 166.25L19.0585 165.823L18.9629 166.026V166.25H19.9629ZM76.7129 46V45H76.0791L75.8085 45.5732L76.7129 46ZM115.713 46L116.617 46.4268L117.291 45H115.713V46ZM58.9629 166.25L58.0585 165.823L57.3852 167.25H58.9629V166.25ZM98.2129 166.25V167.25H99.2129V166.25H98.2129ZM98.2129 121.25V120.25H97.2129V121.25H98.2129ZM132.713 121.25H133.713V120.25H132.713V121.25ZM132.713 166.25H131.713V167.25H132.713V166.25ZM148.713 166.25H149.713V165.25H148.713V166.25ZM148.713 198V199H149.713V198H148.713ZM132.713 198V197H131.713V198H132.713ZM132.713 226V227H133.713V226H132.713ZM98.2129 226H99.2129V198H98.2129H97.2129V226H98.2129ZM98.2129 198V197H19.9629V198V199H98.2129V198ZM19.9629 198H20.9629V166.25H19.9629H18.9629V198H19.9629ZM19.9629 166.25L20.8672 166.677L77.6172 46.4268L76.7129 46L75.8085 45.5732L19.0585 165.823L19.9629 166.25ZM76.7129 46V47H115.713V46V45H76.7129V46ZM115.713 46L114.809 45.5732L58.0585 165.823L58.9629 166.25L59.8672 166.677L116.617 46.4268L115.713 46ZM58.9629 166.25V167.25H98.2129V166.25V165.25H58.9629V166.25ZM98.2129 166.25H99.2129V121.25H98.2129H97.2129V166.25H98.2129ZM98.2129 121.25V122.25H132.713V121.25V120.25H98.2129V121.25ZM132.713 121.25H131.713V166.25H132.713H133.713V121.25H132.713ZM132.713 166.25V167.25H148.713V166.25V165.25H132.713V166.25ZM148.713 166.25H147.713V198H148.713H149.713V166.25H148.713ZM148.713 198V197H132.713V198V199H148.713V198ZM132.713 198H131.713V226H132.713H133.713V198H132.713ZM132.713 226V225H98.2129V226V227H132.713V226ZM210.521 221.375L211.009 220.502L211.009 220.502L210.521 221.375ZM187.146 198L188.02 197.513L188.02 197.513L187.146 198ZM187.146 74L188.02 74.4875L188.02 74.4875L187.146 74ZM210.521 50.625L210.034 49.7519L210.034 49.7519L210.521 50.625ZM280.521 50.625L281.009 49.7519L281.009 49.7519L280.521 50.625ZM303.896 198L303.023 197.513L303.896 198ZM280.521 221.375L281.009 222.248L281.009 222.248L280.521 221.375ZM261.771 193.25L261.266 192.387L261.266 192.387L261.771 193.25ZM273.271 181.75L272.409 181.244L272.409 181.244L273.271 181.75ZM273.271 90L272.409 90.5057L272.409 90.5057L273.271 90ZM261.771 78.5L261.266 79.3627L261.266 79.3627L261.771 78.5ZM229.271 78.5L228.766 77.6373L228.766 77.6373L229.271 78.5ZM217.771 181.75L216.909 182.256L216.909 182.256L217.771 181.75ZM229.271 193.25L229.777 192.387L229.777 192.387L229.271 193.25ZM245.521 229.75V228.75C232.331 228.75 220.837 225.989 211.009 220.502L210.521 221.375L210.034 222.248C220.206 227.927 232.046 230.75 245.521 230.75V229.75ZM210.521 221.375L211.009 220.502C201.171 215.009 193.513 207.351 188.02 197.513L187.146 198L186.273 198.487C191.947 208.649 199.872 216.574 210.034 222.248L210.521 221.375ZM187.146 198L188.02 197.513C182.532 187.684 179.771 176.191 179.771 163H178.771H177.771C177.771 176.476 180.594 188.316 186.273 198.487L187.146 198ZM178.771 163H179.771V109H178.771H177.771V163H178.771ZM178.771 109H179.771C179.771 95.8091 182.532 84.3156 188.02 74.4875L187.146 74L186.273 73.5125C180.594 83.6843 177.771 95.5242 177.771 109H178.771ZM187.146 74L188.02 74.4875C193.513 64.6493 201.171 56.9911 211.009 51.4981L210.521 50.625L210.034 49.7519C199.872 55.4255 191.947 63.3507 186.273 73.5125L187.146 74ZM210.521 50.625L211.009 51.4981C220.837 46.0107 232.331 43.25 245.521 43.25V42.25V41.25C232.046 41.25 220.206 44.0726 210.034 49.7519L210.521 50.625ZM245.521 42.25V43.25C258.712 43.25 270.206 46.0107 280.034 51.4981L280.521 50.625L281.009 49.7519C270.837 44.0726 258.997 41.25 245.521 41.25V42.25ZM280.521 50.625L280.034 51.4981C289.872 56.9911 297.53 64.6493 303.023 74.4875L303.896 74L304.77 73.5125C299.096 63.3507 291.171 55.4255 281.009 49.7519L280.521 50.625ZM303.896 74L303.023 74.4875C308.511 84.3156 311.271 95.8091 311.271 109H312.271H313.271C313.271 95.5242 310.449 83.6843 304.77 73.5125L303.896 74ZM312.271 109H311.271V163H312.271H313.271V109H312.271ZM312.271 163H311.271C311.271 176.191 308.511 187.684 303.023 197.513L303.896 198L304.77 198.487C310.449 188.316 313.271 176.476 313.271 163H312.271ZM303.896 198L303.023 197.513C297.53 207.351 289.872 215.009 280.034 220.502L280.521 221.375L281.009 222.248C291.171 216.574 299.096 208.649 304.77 198.487L303.896 198ZM280.521 221.375L280.034 220.502C270.206 225.989 258.712 228.75 245.521 228.75V229.75V230.75C258.997 230.75 270.837 227.927 281.009 222.248L280.521 221.375ZM245.521 197.5V198.5C251.686 198.5 257.28 197.042 262.277 194.113L261.771 193.25L261.266 192.387C256.597 195.124 251.357 196.5 245.521 196.5V197.5ZM261.771 193.25L262.277 194.113C267.258 191.193 271.214 187.237 274.134 182.256L273.271 181.75L272.409 181.244C269.662 185.93 265.952 189.64 261.266 192.387L261.771 193.25ZM273.271 181.75L274.134 182.256C277.064 177.258 278.521 171.665 278.521 165.5H277.521H276.521C276.521 171.335 275.146 176.575 272.409 181.244L273.271 181.75ZM277.521 165.5H278.521V106.25H277.521H276.521V165.5H277.521ZM277.521 106.25H278.521C278.521 100.085 277.064 94.4919 274.134 89.4943L273.271 90L272.409 90.5057C275.146 95.1748 276.521 100.415 276.521 106.25H277.521ZM273.271 90L274.134 89.4943C271.214 84.5134 267.258 80.5571 262.277 77.6373L261.771 78.5L261.266 79.3627C265.952 82.1095 269.662 85.8199 272.409 90.5057L273.271 90ZM261.771 78.5L262.277 77.6373C257.28 74.7077 251.686 73.25 245.521 73.25V74.25V75.25C251.357 75.25 256.597 76.6256 261.266 79.3627L261.771 78.5ZM245.521 74.25V73.25C239.357 73.25 233.763 74.7077 228.766 77.6373L229.271 78.5L229.777 79.3627C234.446 76.6256 239.686 75.25 245.521 75.25V74.25ZM229.271 78.5L228.766 77.6373C223.785 80.5571 219.829 84.5134 216.909 89.4943L217.771 90L218.634 90.5057C221.381 85.8199 225.091 82.1095 229.777 79.3627L229.271 78.5ZM217.771 90L216.909 89.4943C213.979 94.4919 212.521 100.085 212.521 106.25H213.521H214.521C214.521 100.415 215.897 95.1748 218.634 90.5057L217.771 90ZM213.521 106.25H212.521V165.5H213.521H214.521V106.25H213.521ZM213.521 165.5H212.521C212.521 171.665 213.979 177.258 216.909 182.256L217.771 181.75L218.634 181.244C215.897 176.575 214.521 171.335 214.521 165.5H213.521ZM217.771 181.75L216.909 182.256C219.829 187.237 223.785 191.193 228.766 194.113L229.271 193.25L229.777 192.387C225.091 189.64 221.381 185.93 218.634 181.244L217.771 181.75ZM229.271 193.25L228.766 194.113C233.763 197.042 239.357 198.5 245.521 198.5V197.5V196.5C239.686 196.5 234.446 195.124 229.777 192.387L229.271 193.25ZM420.479 226H419.479V227H420.479V226ZM420.479 198H421.479V197H420.479V198ZM342.229 198H341.229V199H342.229V198ZM342.229 166.25L341.324 165.823L341.229 166.026V166.25H342.229ZM398.979 46V45H398.345L398.074 45.5732L398.979 46ZM437.979 46L438.883 46.4268L439.556 45H437.979V46ZM381.229 166.25L380.324 165.823L379.651 167.25H381.229V166.25ZM420.479 166.25V167.25H421.479V166.25H420.479ZM420.479 121.25V120.25H419.479V121.25H420.479ZM454.979 121.25H455.979V120.25H454.979V121.25ZM454.979 166.25H453.979V167.25H454.979V166.25ZM470.979 166.25H471.979V165.25H470.979V166.25ZM470.979 198V199H471.979V198H470.979ZM454.979 198V197H453.979V198H454.979ZM454.979 226V227H455.979V226H454.979ZM420.479 226H421.479V198H420.479H419.479V226H420.479ZM420.479 198V197H342.229V198V199H420.479V198ZM342.229 198H343.229V166.25H342.229H341.229V198H342.229ZM342.229 166.25L343.133 166.677L399.883 46.4268L398.979 46L398.074 45.5732L341.324 165.823L342.229 166.25ZM398.979 46V47H437.979V46V45H398.979V46ZM437.979 46L437.074 45.5732L380.324 165.823L381.229 166.25L382.133 166.677L438.883 46.4268L437.979 46ZM381.229 166.25V167.25H420.479V166.25V165.25H381.229V166.25ZM420.479 166.25H421.479V121.25H420.479H419.479V166.25H420.479ZM420.479 121.25V122.25H454.979V121.25V120.25H420.479V121.25ZM454.979 121.25H453.979V166.25H454.979H455.979V121.25H454.979ZM454.979 166.25V167.25H470.979V166.25V165.25H454.979V166.25ZM470.979 166.25H469.979V198H470.979H471.979V166.25H470.979ZM470.979 198V197H454.979V198V199H470.979V198ZM454.979 198H453.979V226H454.979H455.979V198H454.979ZM454.979 226V225H420.479V226V227H454.979V226Z" fill="url(#paint1_linear_2026_62)" mask="url(#path-3-outside-2_2026_62)"/>
</g>
<path d="M98.2129 226V198H19.9629V166.25L76.7129 46H115.713L58.9629 166.25H98.2129V121.25H132.713V166.25H148.713V198H132.713V226H98.2129ZM245.521 229.75C232.188 229.75 220.521 226.958 210.521 221.375C200.521 215.792 192.73 208 187.146 198C181.563 188 178.771 176.333 178.771 163V109C178.771 95.6667 181.563 84 187.146 74C192.73 64 200.521 56.2083 210.521 50.625C220.521 45.0417 232.188 42.25 245.521 42.25C258.855 42.25 270.521 45.0417 280.521 50.625C290.521 56.2083 298.313 64 303.896 74C309.48 84 312.271 95.6667 312.271 109V163C312.271 176.333 309.48 188 303.896 198C298.313 208 290.521 215.792 280.521 221.375C270.521 226.958 258.855 229.75 245.521 229.75ZM245.521 197.5C251.521 197.5 256.938 196.083 261.771 193.25C266.605 190.417 270.438 186.583 273.271 181.75C276.105 176.917 277.521 171.5 277.521 165.5V106.25C277.521 100.25 276.105 94.8333 273.271 90C270.438 85.1667 266.605 81.3333 261.771 78.5C256.938 75.6667 251.521 74.25 245.521 74.25C239.521 74.25 234.105 75.6667 229.271 78.5C224.438 81.3333 220.605 85.1667 217.771 90C214.938 94.8333 213.521 100.25 213.521 106.25V165.5C213.521 171.5 214.938 176.917 217.771 181.75C220.605 186.583 224.438 190.417 229.271 193.25C234.105 196.083 239.521 197.5 245.521 197.5ZM420.479 226V198H342.229V166.25L398.979 46H437.979L381.229 166.25H420.479V121.25H454.979V166.25H470.979V198H454.979V226H420.479Z" fill="url(#paint2_linear_2026_62)" fill-opacity="0.62"/>
<defs>
<filter id="filter0_f_2026_62" x="0.062891" y="22.35" width="490.816" height="227.3" filterUnits="userSpaceOnUse" color-interpolation-filters="sRGB">
<feFlood flood-opacity="0" result="BackgroundImageFix"/>
<feBlend mode="normal" in="SourceGraphic" in2="BackgroundImageFix" result="shape"/>
<feGaussianBlur stdDeviation="9.45" result="effect1_foregroundBlur_2026_62"/>
</filter>
<linearGradient id="paint0_linear_2026_62" x1="245.5" y1="-57.5" x2="245.5" y2="266" gradientUnits="userSpaceOnUse">
<stop stop-color="#17E2DC"/>
<stop offset="1" stop-color="#060C1A" stop-opacity="0"/>
</linearGradient>
<linearGradient id="paint1_linear_2026_62" x1="245.5" y1="-57.5" x2="245.5" y2="266" gradientUnits="userSpaceOnUse">
<stop stop-color="#17E2DC"/>
<stop offset="1" stop-color="#060C1A" stop-opacity="0"/>
</linearGradient>
<linearGradient id="paint2_linear_2026_62" x1="245.704" y1="-156.5" x2="301.366" y2="232.026" gradientUnits="userSpaceOnUse">
<stop stop-color="#4ED0B2" stop-opacity="0.35"/>
<stop offset="1" stop-color="#060E1B" stop-opacity="0"/>
</linearGradient>
</defs>
</svg>
