<svg width="1919" height="418" viewBox="0 0 1919 418" fill="none" xmlns="http://www.w3.org/2000/svg">
<g opacity="0.49">
<g style="mix-blend-mode:screen">
<path d="M1918.99 56.7329C1901.7 74.4004 1873.83 83.1165 1848.83 81.3682C1816.71 79.1275 1786.9 64.3142 1758.08 49.9882C1753.97 47.9483 1749.87 45.913 1745.78 43.9172C1713.72 28.2819 1675.96 13.306 1639.07 20.7971C1592.54 30.2399 1560.5 72.182 1532.22 109.188L1528.08 114.599C1501.72 148.978 1460.67 194.213 1408.87 190.194C1358.38 186.273 1325.11 138.282 1297.88 93.6069C1270 47.8543 1234.59 0.956039 1183.36 0.0138136C1153.92 -0.535018 1123.51 15.273 1093.21 46.9844C1085.81 54.7301 1078.64 62.9888 1071.72 70.975C1056.25 88.8076 1040.25 107.248 1020.71 120.964C971.597 155.443 900.487 155.18 851.625 120.342C838.595 111.051 826.456 99.2635 814.717 87.8653C790.516 64.3672 765.492 40.0702 732.086 37.6376C694.469 34.9094 665.878 59.5423 635.6 85.6329C620.96 98.249 605.821 111.294 589.687 120.783C525.964 158.26 445.019 139.667 388.339 117.472C368.697 109.78 349.028 100.899 330.008 92.3097C286.145 72.5018 240.788 52.0198 192.572 44.7033C157.321 39.3532 119.082 43.685 87.6684 56.5851C52.3628 71.0844 27.4376 94.894 15.5859 125.438L17.0796 126.016C42.6565 60.0924 124.603 36.0045 192.331 46.2833C240.328 53.5672 285.583 74.0032 329.348 93.7662C348.387 102.363 368.074 111.253 387.754 118.96C421.09 132.015 462.771 143.822 504.501 143.82C534.139 143.819 563.806 137.86 590.5 122.16C606.758 112.599 621.953 99.5053 636.646 86.8431C666.664 60.9751 695.012 36.5457 731.968 39.2323C764.792 41.6227 788.499 64.6416 813.599 89.0116C825.38 100.453 837.564 112.282 850.693 121.643C900.089 156.863 971.979 157.128 1021.63 122.273C1041.33 108.443 1057.39 89.9282 1072.93 72.0221C1079.84 64.05 1086.99 55.806 1094.37 48.0884C1124.35 16.7136 1154.32 1.08653 1183.33 1.61297C1233.78 2.54049 1268.86 49.0575 1296.51 94.4379C1323.95 139.452 1357.51 187.809 1408.75 191.79C1410.97 191.961 1413.16 192.046 1415.34 192.046C1464.82 192.044 1503.89 148.784 1529.35 115.57L1533.49 110.157C1562.97 71.5788 1593.45 31.6862 1639.39 22.3643C1675.81 14.9724 1713.26 29.8382 1745.08 45.3539C1749.17 47.3483 1753.26 49.3812 1757.36 51.4205C1786.33 65.8148 1816.28 80.7004 1848.72 82.9629C1873.59 84.6996 1901.28 76.2247 1918.99 58.9787V56.7322L1918.99 56.7329Z" fill="white"/>
</g>
<g style="mix-blend-mode:screen">
<path d="M1918.99 68.9141C1913.67 73.6585 1907.36 77.7505 1900.18 81.0486C1884.31 88.2915 1864.81 90.9084 1845.28 88.4156C1813.03 84.3 1782.95 68.7984 1753.87 53.8072C1750.4 52.0181 1746.93 50.2315 1743.47 48.466C1736.34 44.8302 1729.92 41.7489 1723.85 39.047C1689.82 23.8908 1662.24 18.9122 1637.05 23.3829C1599.39 30.0699 1571.66 56.9153 1549.5 82.2934C1541.79 91.108 1534.34 100.305 1527.13 109.198L1524.03 113.023C1496.59 146.764 1454.29 191.395 1403.8 189.318C1354.66 187.308 1322.65 145.032 1294.07 101.9C1267.94 62.657 1234.89 21.8259 1187.96 16.5295C1185 16.1937 1181.97 16.0062 1178.98 15.9704C1149.49 15.6352 1118.96 30.4294 1088.05 59.9793C1080.54 67.1737 1073.28 74.817 1066.26 82.2083C1059.19 89.654 1051.88 97.3549 1044.39 104.508C1033.93 114.485 1024.62 121.96 1015.1 128.033C976.476 152.657 924.421 156.677 879.244 138.527C867.976 134.001 857.413 128.175 847.845 121.212C835.128 111.953 823.19 100.384 811.646 89.196C787.044 65.3538 761.604 40.7005 727.758 38.0011C691.051 35.0894 663.03 58.7972 633.353 83.9105C619.068 95.9995 604.297 108.5 588.581 117.593C526.471 153.526 447.531 135.998 392.244 114.964C372.834 107.584 353.452 98.6963 334.708 90.0998C292.359 70.6796 248.569 50.598 201.789 46.7485C186.861 45.5223 172.002 48.1519 158.891 50.4733C132.003 55.2535 104.558 62.4171 81.6117 70.6445C70.5423 74.6129 61.1418 78.8756 52.8703 83.6763C43.0451 89.4077 34.9118 95.7513 28.0066 103.068C20.0006 111.516 13.9781 121.317 10.5879 131.411L12.1071 131.919C15.4225 122.044 21.3234 112.448 29.1714 104.167C35.971 96.9609 43.9873 90.7107 53.6776 85.058C61.8621 80.3072 71.1756 76.0848 82.1522 72.1496C105.017 63.9517 132.37 56.8124 159.17 52.0469C172.185 49.7422 186.933 47.1317 201.657 48.3419C248.154 52.169 291.816 72.1905 334.039 91.5525C352.806 100.16 372.213 109.059 391.672 116.458C447.285 137.614 526.727 155.224 589.383 118.977C605.223 109.811 620.05 97.2641 634.388 85.1303C663.805 60.2358 691.576 36.7141 727.628 39.5952C760.901 42.2479 785.008 65.6096 810.528 90.3429C822.113 101.57 834.092 113.18 846.901 122.503C856.574 129.545 867.254 135.435 878.645 140.011C924.294 158.351 976.908 154.28 1015.96 129.38C1025.57 123.25 1034.96 115.715 1045.49 105.664C1053.01 98.4833 1060.34 90.7689 1067.42 83.3085C1074.43 75.9306 1081.68 68.3014 1089.15 61.1339C1119.75 31.8827 1149.95 17.2286 1178.96 17.5696C1181.9 17.6048 1184.87 17.789 1187.78 18.1184C1234.06 23.3413 1266.81 63.8493 1292.74 102.784C1321.54 146.259 1353.84 188.876 1403.73 190.917C1404.89 190.964 1406.03 190.988 1407.18 190.988C1456.84 190.984 1498.24 147.272 1525.28 114.03L1528.38 110.203C1535.57 101.321 1543.02 92.1372 1550.71 83.345C1572.68 58.1761 1600.16 31.5571 1637.33 24.9571C1662.18 20.5498 1689.47 25.4854 1723.2 40.5067C1729.24 43.1984 1735.63 46.2675 1742.74 49.8899C1746.2 51.6548 1749.67 53.4407 1753.13 55.2279C1782.34 70.2824 1812.54 85.8499 1845.08 90.002C1864.9 92.5325 1884.71 89.8689 1900.85 82.5013C1907.71 79.349 1913.78 75.4707 1918.99 71.0097V68.9135L1918.99 68.9141Z" fill="#F5F6F7"/>
</g>
<g style="mix-blend-mode:screen">
<path d="M1918.99 81.0627C1913.18 85.6555 1906.37 89.4717 1898.77 92.3099C1882.5 98.3835 1863.3 99.4479 1841.73 95.4737C1809.35 89.5113 1778.93 73.2313 1749.51 57.4885C1746.72 55.9961 1743.94 54.5051 1741.15 53.023C1734.1 49.2726 1727.73 46.0775 1721.66 43.2559C1687.98 27.6014 1660.46 22.1093 1635.03 25.9767C1597.07 31.7567 1568.83 57.3797 1546.22 81.6825C1537.8 90.7069 1529.66 100.189 1521.78 109.358L1519.98 111.456C1489.05 147.318 1447.37 188.453 1398.99 188.453H1398.72C1351.18 188.3 1320.29 151.35 1290.26 110.201C1265.62 76.4302 1231.23 37.0678 1183.6 32.4021C1180.63 32.1091 1177.6 31.9524 1174.59 31.9352C1174.43 31.9345 1174.27 31.9333 1174.1 31.9333C1144.94 31.9333 1114.25 45.7423 1082.88 72.9824C1075.32 79.5895 1068 86.5785 1060.93 93.3365C1053.74 100.203 1046.31 107.302 1038.75 113.859C1028.25 122.937 1018.96 129.689 1009.48 135.11C971.04 157.114 919.601 158.976 875.241 139.965C864.09 135.189 853.601 129.175 844.064 122.091C831.673 112.884 819.955 101.547 808.624 90.5828C783.607 66.3785 757.738 41.3491 723.426 38.374C687.649 35.264 660.176 58.0667 631.099 82.2012C617.171 93.7613 602.77 105.715 587.473 114.413C526.983 148.803 450.041 132.334 396.145 112.464C377.114 105.458 358.131 96.6839 339.774 88.1988C298.721 69.2244 256.27 49.604 211.008 48.8076C198.767 48.6016 187.79 52.0053 176.161 55.6175C173.394 56.4772 170.592 57.3477 167.726 58.1831C139.806 66.3632 107.08 74.9507 84.5436 80.7141C74.4075 83.306 63.617 86.2925 53.3798 90.5553C42.0866 95.2574 33.2042 100.626 25.4297 107.448C15.8488 115.794 8.80419 126.426 5.5918 137.386L7.12955 137.835C10.2569 127.165 17.1294 116.801 26.4845 108.651C34.1259 101.946 42.8682 96.6647 53.9958 92.031C64.1403 87.8073 74.8636 84.8399 84.9409 82.2633C107.49 76.4967 140.235 67.9041 168.176 59.7184C171.05 58.8804 173.861 58.0066 176.636 57.1443C188.139 53.5712 199.015 50.1874 210.98 50.4068C255.904 51.1967 298.199 70.7455 339.1 89.6501C357.486 98.1481 376.5 106.936 395.59 113.964C449.805 133.952 527.241 150.496 588.266 115.803C603.685 107.034 618.142 95.0349 632.123 83.4313C660.94 59.513 688.175 36.9316 723.287 39.9668C757.032 42.8926 782.692 67.7205 807.509 91.731C818.878 102.73 830.633 114.105 843.107 123.373C852.745 130.532 863.345 136.609 874.609 141.434C919.425 160.64 971.41 158.749 1010.28 136.497C1019.84 131.024 1029.22 124.215 1039.8 115.067C1047.39 108.484 1054.84 101.371 1062.04 94.4911C1069.1 87.7452 1076.4 80.769 1083.94 74.1869C1115 47.2078 1145.33 33.5324 1174.1 33.5324C1174.26 33.5324 1174.42 33.533 1174.59 33.5343C1177.54 33.5516 1180.52 33.7051 1183.45 33.9936C1230.43 38.5973 1264.52 77.6417 1288.97 111.142C1319.25 152.637 1350.43 189.895 1398.71 190.052H1399C1448.01 190.049 1490.04 148.619 1521.2 112.498L1523 110.398C1530.86 101.241 1538.99 91.7719 1547.39 82.7706C1569.82 58.6693 1597.8 33.2612 1635.27 27.556C1660.36 23.743 1687.6 29.1897 1720.99 44.7041C1727.03 47.5135 1733.38 50.6965 1740.4 54.4334C1743.18 55.9149 1745.97 57.4053 1748.75 58.897C1778.28 74.6986 1808.81 91.0382 1841.44 97.046C1863.3 101.072 1882.78 99.9826 1899.33 93.8067C1906.67 91.067 1913.27 87.4197 1918.99 83.0629V81.0614V81.0627Z" fill="#EBEDF0"/>
</g>
<g style="mix-blend-mode:screen">
<path d="M1919 93.2737C1912.72 97.6547 1905.45 101.155 1897.36 103.571C1880.94 108.471 1861.58 108.131 1838.17 102.53C1805.69 94.7558 1774.88 77.6211 1745.09 61.0506L1738.83 57.5759C1731.88 53.7149 1725.55 50.4066 1719.48 47.4609C1686.61 31.5397 1658.33 25.3592 1633.01 28.5659C1594.51 33.4568 1564.65 59.1943 1542.94 81.0682C1533.71 90.3299 1524.79 100.144 1516.16 109.636L1515.94 109.884C1481.66 147.38 1440.32 185.934 1393.64 187.583C1392.56 187.622 1391.48 187.64 1390.42 187.64C1342.41 187.64 1311.44 149.372 1286.45 118.493C1261.69 87.8922 1227.12 52.2559 1179.25 48.2714C1176.28 48.0213 1173.26 47.8959 1170.26 47.8959H1170.21C1140.65 47.9285 1110.39 60.386 1077.73 85.9815C1070.16 91.9592 1062.85 98.2496 1055.78 104.332C1048.42 110.662 1040.81 117.209 1033.12 123.204C1022.59 131.382 1013.3 137.412 1003.88 142.184C965.628 161.56 914.803 161.26 871.241 141.399C860.209 136.374 849.794 130.171 840.284 122.966C828.238 113.831 816.761 102.742 805.662 92.0187C780.215 67.4306 753.9 42.0065 719.099 38.743C684.236 35.4775 657.323 57.3418 628.841 80.4932C615.273 91.5216 601.243 102.927 586.368 111.23C527.504 144.074 452.557 128.67 400.049 109.961C381.476 103.358 362.946 94.7961 345.026 86.5176C305.137 68.0876 263.891 49.032 220.232 50.8665C208.546 51.3584 198.747 55.8904 188.374 60.6879C184.581 62.4419 180.66 64.2547 176.574 65.8973C150.72 76.3315 116.578 85.8696 87.4711 90.7879L83.7073 91.4212C73.2021 93.1828 63.2803 94.8479 53.8894 97.4456C41.3302 100.919 31.4666 105.492 22.8477 111.837C11.7617 119.999 3.65205 131.487 0.597656 143.356L2.14948 143.754C5.11305 132.235 13.0039 121.071 23.7983 113.124C32.254 106.898 41.9513 102.406 54.3154 98.9865C63.627 96.4106 73.5098 94.7526 83.9715 92.9973L87.7372 92.3647C116.95 87.4272 151.22 77.854 177.172 67.3795C181.294 65.7227 185.235 63.901 189.045 62.1387C199.272 57.4097 208.93 52.9429 220.298 52.4638C263.576 50.6311 304.635 69.617 344.352 87.9677C362.305 96.2628 380.868 104.84 399.51 111.468C452.332 130.288 527.763 145.763 587.149 112.626C602.146 104.254 616.231 92.8048 629.852 81.7329C658.072 58.7939 684.73 37.1233 718.948 40.3357C753.189 43.5456 779.299 68.7726 804.547 93.1681C815.68 103.924 827.192 115.047 839.315 124.239C848.919 131.517 859.436 137.779 870.576 142.853C914.569 162.912 965.925 163.201 1004.6 143.61C1014.12 138.792 1023.49 132.709 1034.1 124.466C1041.82 118.444 1049.45 111.886 1056.82 105.543C1063.88 99.4714 1071.18 93.1925 1078.72 87.2378C1111.09 61.8726 1141.02 49.527 1170.21 49.4951H1170.26C1173.21 49.4951 1176.19 49.6192 1179.12 49.8642C1226.38 53.7987 1260.64 89.1447 1285.2 119.499C1309.1 149.027 1341.64 189.238 1390.52 189.238C1391.57 189.238 1392.63 189.219 1393.7 189.182C1440.97 187.511 1482.62 148.703 1517.12 110.96L1517.35 110.71C1525.96 101.232 1534.87 91.4308 1544.08 82.1941C1565.61 60.5005 1595.19 34.9811 1633.21 30.1516C1658.22 26.9834 1686.2 33.1171 1718.78 48.8983C1724.82 51.8305 1731.13 55.1254 1738.06 58.9723L1744.31 62.4463C1774.2 79.0699 1805.11 96.2584 1837.8 104.084C1861.49 109.755 1881.12 110.087 1897.82 105.102C1905.69 102.752 1912.79 99.3838 1919 95.1984V93.2724V93.2737Z" fill="#E2E4E8"/>
</g>
<g style="mix-blend-mode:screen">
<path d="M1919 105.365C1912.22 109.62 1904.45 112.866 1895.94 114.843C1874.59 119.804 1852.96 114.972 1834.62 109.593C1802.11 100.055 1770.92 82.0205 1740.75 64.5801L1736.52 62.134C1729.66 58.1649 1723.37 54.7427 1717.29 51.6704C1684.78 35.2777 1656.55 28.5708 1630.99 31.1614C1592.14 35.121 1561.77 59.5868 1539.67 80.4578C1530.35 89.2007 1521.58 98.2494 1511.89 108.318C1474.36 147.053 1433.44 183.36 1388.57 186.719C1340.34 190.363 1309.67 156.575 1282.63 126.788C1257.73 99.3573 1222.98 67.4464 1174.9 64.1438C1171.89 63.9353 1168.84 63.8438 1165.83 63.8617C1136.29 64.0837 1105.79 75.572 1072.58 98.9831C1064.94 104.365 1057.59 110.017 1050.47 115.483C1042.65 121.493 1035.26 127.169 1027.49 132.553C1016.94 139.828 1007.65 145.137 998.274 149.263C959.651 166.254 910.671 163.85 867.24 142.837C856.33 137.564 845.989 131.174 836.506 123.845C824.817 114.805 813.604 103.981 802.76 93.5146C776.864 68.5223 750.087 42.6786 714.77 39.1157C680.806 35.6839 654.464 56.6239 626.577 78.7896C613.37 89.2865 599.714 100.14 585.263 108.049C539.318 133.179 478.315 132.984 403.951 107.461C387.273 101.755 370.61 95.2308 354.495 88.9218C314.412 73.2296 272.965 57.0019 229.613 52.9305L229.459 52.9158L229.311 52.9593C217.369 56.4838 207.518 61.8103 197.088 67.4477C193.356 69.4652 189.497 71.5518 185.432 73.6153C158.738 87.2287 121.432 97.927 90.3917 100.87C86.0528 101.282 81.8771 101.608 77.8229 101.925C69.6589 102.563 61.9477 103.165 54.3926 104.351C40.3674 106.554 29.8417 110.218 20.264 116.235C11.5927 121.685 4.51098 129.292 0.00390625 137.721V141.359C4.21801 132.038 11.6963 123.51 21.1179 117.59C30.5012 111.693 40.8407 108.098 54.6408 105.932C62.1339 104.755 69.8156 104.155 77.947 103.52C82.0095 103.202 86.1942 102.875 90.542 102.462C121.768 99.5013 159.3 88.7376 186.158 75.0411C190.241 72.968 194.109 70.8769 197.85 68.8543C208.16 63.2809 217.901 58.0146 229.616 54.5367C272.686 58.6126 313.979 74.7776 353.909 90.411C370.04 96.7264 386.72 103.257 403.429 108.974C478.237 134.648 539.674 134.808 586.031 109.452C600.603 101.477 614.314 90.5798 627.573 80.0414C655.198 58.0849 681.286 37.3489 714.607 40.7071C749.373 44.215 775.946 69.8618 801.645 94.6647C812.52 105.161 823.766 116.014 835.524 125.109C845.095 132.506 855.531 138.954 866.542 144.276C910.388 165.492 959.878 167.905 998.917 150.726C1008.39 146.559 1017.76 141.204 1028.4 133.869C1036.21 128.461 1043.61 122.773 1051.45 116.75C1058.55 111.295 1065.89 105.654 1073.5 100.291C1106.44 77.0734 1136.64 65.6803 1165.84 65.4621C1168.8 65.4494 1171.82 65.5344 1174.79 65.7411C1222.29 69.004 1256.74 100.655 1281.44 127.864C1306.13 155.057 1336.57 188.579 1381.72 188.579C1384 188.579 1386.33 188.493 1388.69 188.317C1434.1 184.916 1475.29 148.393 1513.04 109.429C1522.72 99.3746 1531.48 90.3419 1540.77 81.6226C1562.69 60.9244 1592.78 36.6645 1631.16 32.7536C1656.39 30.1885 1684.34 36.8461 1716.57 53.0981C1722.62 56.155 1728.88 59.5632 1735.72 63.5176L1739.95 65.9636C1770.19 83.4514 1801.47 101.534 1834.17 111.126C1852.7 116.565 1874.58 121.442 1896.3 116.4C1904.64 114.464 1912.27 111.322 1919 107.231V105.365Z" fill="#D8DAE1"/>
</g>
<g style="mix-blend-mode:screen">
<path d="M1919 117.37C1910.97 121.891 1902.39 124.754 1894.52 126.115C1872.28 129.964 1850.1 123.25 1831.05 116.653C1798.64 105.427 1767.15 86.4971 1736.7 68.1905L1734.2 66.6898C1727.41 62.5986 1721.16 59.0619 1715.1 55.8783C1682.95 39.0225 1654.78 31.7917 1628.97 33.7554C1589.74 36.7708 1558.88 59.9727 1536.39 79.8477C1526.26 88.734 1516.48 98.3065 1507.84 106.752C1469.87 143.899 1428.99 180.605 1383.49 185.857C1336.82 191.253 1306.58 161.962 1279.89 136.127L1278.8 135.08C1253.73 110.818 1218.77 82.6335 1170.54 80.016C1167.52 79.8503 1164.46 79.787 1161.44 79.8253C1132.12 80.2315 1101.37 90.7508 1067.42 111.986C1059.93 116.674 1052.71 121.569 1045.72 126.303C1037.58 131.819 1029.89 137.028 1021.86 141.902C1011.29 148.273 1002.01 152.862 992.666 156.34C954.281 170.64 905.894 166.132 863.236 144.275C852.443 138.752 842.176 132.173 832.722 124.721C821.411 115.799 810.485 105.262 799.919 95.0724C773.559 69.6508 746.301 43.3638 710.437 39.4875C677.382 35.9137 651.598 55.9147 624.301 77.0889C611.459 87.0516 598.18 97.3534 584.154 104.866C539.529 128.758 480.212 128.789 407.849 104.96C391.961 99.7483 376.094 93.8097 360.751 88.0655C321.566 73.3974 281.045 58.2303 238.867 54.9884L238.685 54.9744L238.516 55.0396C227.066 59.4763 217.991 65.6235 208.383 72.1315C203.919 75.1545 199.303 78.2818 194.296 81.3343C167.02 98.0353 126.434 109.939 93.3015 110.956C86.8415 111.154 80.75 111.097 74.8593 111.043C67.9433 110.98 61.4116 110.917 54.8845 111.266C44.6006 111.816 31.0775 113.378 17.674 120.64C11.7366 123.857 5.23633 128.953 0.00195312 135.587V138.237C5.27279 130.978 12.176 125.439 18.439 122.046C31.5604 114.937 44.8546 113.404 54.9709 112.864C61.4449 112.517 67.9528 112.579 74.8446 112.642C80.7512 112.696 86.86 112.754 93.3507 112.555C126.737 111.53 167.64 99.5315 195.132 82.6981C200.17 79.6264 204.803 76.4888 209.283 73.4536C218.765 67.0308 227.724 60.9623 238.925 56.5959C280.806 59.848 319.368 74.2827 360.189 89.5623C375.548 95.3116 391.43 101.257 407.347 106.478C480.143 130.45 539.884 130.383 584.912 106.275C599.056 98.6973 612.39 88.3533 625.285 78.3509C652.319 57.3802 677.855 37.5717 710.265 41.0757C745.582 44.8933 772.64 70.9865 798.806 96.2212C809.4 106.438 820.355 117.003 831.729 125.975C841.265 133.491 851.62 140.127 862.505 145.696C905.556 167.754 954.423 172.288 993.226 157.838C1002.67 154.323 1012.03 149.694 1022.69 143.269C1030.76 138.373 1038.46 133.152 1046.62 127.625C1053.59 122.899 1060.8 118.013 1068.27 113.34C1101.96 92.2643 1132.45 81.8243 1161.46 81.4232C1164.44 81.3836 1167.47 81.4475 1170.45 81.6119C1218.15 84.1994 1252.82 112.158 1277.69 136.225L1278.77 137.274C1303.51 161.223 1331.28 188.106 1372.37 188.106C1376.03 188.106 1379.8 187.891 1383.67 187.445C1429.68 182.134 1470.79 145.233 1508.96 107.893C1517.58 99.4611 1527.35 89.9033 1537.45 81.0452C1559.76 61.3346 1590.34 38.3271 1629.1 35.3482C1654.59 33.4087 1682.48 40.58 1714.36 57.2925C1720.38 60.4608 1726.61 63.9828 1733.37 68.0581L1735.87 69.5587C1766.4 87.9075 1797.96 106.883 1830.53 118.163C1849.76 124.825 1872.18 131.601 1894.79 127.69C1902.56 126.346 1911.03 123.566 1919 119.201V117.37L1919 117.37Z" fill="#CED1D9"/>
</g>
<g style="mix-blend-mode:screen">
<path d="M1919 129.594C1910.47 133.905 1901.39 136.408 1893.1 137.401C1870.88 140.057 1849.39 132.45 1827.49 123.727C1795.39 110.933 1763.79 91.1889 1733.23 72.0955L1731.88 71.2563C1725.16 67.046 1718.95 63.3954 1712.91 60.0973C1681.13 42.788 1653.04 35.0334 1626.96 36.36C1587.32 38.4178 1555.99 60.3615 1533.11 79.247C1523.08 87.466 1513.52 96.2122 1503.79 105.198C1470.71 135.765 1425.4 177.629 1378.41 185.006C1333.26 192.104 1303.61 167.317 1277.45 145.452L1274.97 143.378C1249.69 122.287 1214.48 97.8305 1166.19 95.9C1163.15 95.7759 1160.08 95.7414 1157.06 95.8008C1127.64 96.3925 1097.52 105.671 1062.27 125.001C1055.06 128.957 1048.1 133.061 1041.36 137.03C1032.77 142.092 1024.66 146.874 1016.24 151.263C1005.66 156.73 996.391 160.597 987.069 163.431C948.937 175.039 901.148 168.417 859.236 145.723C848.563 139.952 838.372 133.185 828.944 125.61C818.03 116.832 807.418 106.603 797.156 96.7111C770.311 70.8335 742.552 44.0744 706.109 39.8699C673.957 36.1521 648.73 55.2224 622.021 75.4026C609.546 84.8293 596.646 94.5765 583.05 101.696C539.751 124.348 482.118 124.606 411.749 102.47C396.679 97.7518 381.635 92.394 367.086 87.2127C327.007 72.9399 289.15 59.4583 248.125 57.0583L247.919 57.0455L247.734 57.1338C236.451 62.4756 227.838 69.5164 218.719 76.971C213.839 80.9606 208.793 85.0858 203.172 89.0645C175.416 108.792 131.428 121.956 96.2081 121.057C88.1272 120.852 80.615 120.172 73.351 119.514C67.1501 118.952 61.2927 118.421 55.3713 118.202C44.2738 117.794 29.66 118.199 15.0814 125.062C10.2366 127.342 4.86084 130.915 0.00195312 135.598V137.839C4.99965 132.748 10.6837 128.9 15.7646 126.509C30.0304 119.794 44.3921 119.397 55.3118 119.8C61.1903 120.018 67.0266 120.547 73.2058 121.107C80.4954 121.767 88.0332 122.45 96.1665 122.656C131.711 123.569 176.088 110.28 204.099 90.3688C209.764 86.3588 214.832 82.2156 219.734 78.2094C228.724 70.8597 237.218 63.9155 248.235 58.6671C288.954 61.0863 326.644 74.5096 366.547 88.7191C381.109 93.9055 396.168 99.2684 411.268 103.996C482.058 126.265 540.103 125.969 583.792 103.112C597.505 95.9307 610.459 86.1438 622.986 76.6774C649.432 56.695 674.42 37.8242 705.924 41.4575C741.828 45.6006 769.388 72.1678 796.041 97.8605C806.329 107.777 816.967 118.032 827.936 126.855C837.44 134.49 847.714 141.311 858.47 147.127C900.75 170.021 948.998 176.69 987.533 164.961C996.95 162.098 1006.31 158.194 1016.98 152.681C1025.43 148.271 1033.57 143.479 1042.17 138.406C1048.9 134.444 1055.85 130.347 1063.04 126.402C1098.06 107.202 1127.94 97.9853 1157.09 97.3987C1160.07 97.3392 1163.11 97.3725 1166.12 97.4959C1213.93 99.4073 1248.85 123.675 1273.94 144.604L1276.42 146.677C1299.68 166.121 1325.67 187.848 1362.87 187.847C1367.92 187.847 1373.18 187.446 1378.66 186.585C1426.13 179.131 1471.64 137.076 1504.88 106.369C1514.59 97.4019 1524.13 88.6737 1534.13 80.4802C1556.81 61.7496 1587.87 39.9889 1627.04 37.9566C1652.78 36.6332 1680.63 44.3347 1712.14 61.4995C1718.15 64.7822 1724.33 68.4162 1731.03 72.6104L1732.38 73.4497C1763 92.582 1794.66 112.365 1826.9 125.211C1848.99 134.014 1870.68 141.688 1893.29 138.988C1901.51 138.004 1910.5 135.553 1918.99 131.373V129.594H1919Z" fill="#C4C8D2"/>
</g>
<g style="mix-blend-mode:screen">
<path d="M1918.99 141.652C1910.72 145.508 1901.46 147.972 1891.67 148.671C1867.52 150.393 1845.36 140.424 1823.93 130.781C1792.49 116.638 1761.13 96.2899 1730.81 76.6132L1729.56 75.804C1722.92 71.485 1716.76 67.7219 1710.72 64.2978C1679.32 46.542 1651.2 38.2564 1624.94 38.946C1593.84 39.7871 1564.51 52.0258 1529.84 78.6301C1519.34 86.6841 1509.17 95.4021 1499.75 103.622L1496.64 106.332C1459.63 138.652 1417.67 175.284 1373.33 184.137C1329.59 192.872 1300.55 172.397 1274.92 154.33L1271.12 151.656C1245.57 133.738 1210.06 113.01 1161.83 111.762C1158.77 111.68 1155.69 111.678 1152.67 111.755C1114.61 112.758 1079.91 127.213 1057.13 137.997C1050.44 141.164 1043.96 144.427 1037.7 147.585C1028.42 152.264 1019.66 156.685 1010.63 160.604C1000.33 165.075 990.795 168.312 981.472 170.505C943.619 179.419 896.429 170.686 855.232 147.152C844.682 141.134 834.565 134.178 825.161 126.478C814.668 117.875 804.401 107.979 794.471 98.4085C767.119 72.0441 738.836 44.7829 701.78 40.2329C670.533 36.3943 645.855 54.516 619.729 73.6995C607.625 82.5883 595.108 91.7796 581.945 98.5044C539.984 119.918 484.035 120.407 415.648 99.959C401.425 95.7321 387.231 90.9519 373.505 86.329C334.304 73.1251 297.277 60.6542 257.379 59.1094L257.155 59.1005L256.959 59.2086C245.67 65.4613 237.355 73.4424 228.552 81.8917C223.42 86.8171 218.114 91.9101 212.055 96.7735C183.884 119.47 136.387 133.92 99.1097 131.139C89.7028 130.437 81.05 129.009 72.6826 127.629C66.8917 126.674 61.4226 125.772 55.8498 125.121C43.9546 123.733 28.2771 122.97 12.4863 129.467C8.32722 131.178 4.04339 133.649 0.00390625 136.749V138.779C4.20522 135.411 8.72061 132.746 13.0966 130.946C28.5464 124.587 43.9623 125.342 55.6637 126.709C61.1987 127.356 66.6499 128.255 72.4216 129.207C80.8242 130.593 89.5121 132.027 98.9913 132.734C136.626 135.544 184.606 120.944 213.061 98.0189C219.175 93.1114 224.506 87.9941 229.663 83.045C238.338 74.7179 246.534 66.8519 257.542 60.7156C297.124 62.2898 333.98 74.7032 372.994 87.8444C386.733 92.4718 400.941 97.2571 415.191 101.492C483.985 122.061 540.335 121.535 582.675 99.9283C595.953 93.1453 608.524 83.915 620.678 74.9884C646.54 55.9975 670.975 38.0709 701.585 41.82C738.11 46.3053 766.197 73.3772 793.359 99.5593C803.311 109.152 813.602 119.072 824.146 127.715C833.619 135.472 843.811 142.479 854.439 148.54C895.978 172.273 943.608 181.061 981.84 172.061C991.257 169.848 1000.88 166.581 1011.27 162.072C1020.34 158.134 1029.12 153.703 1038.43 149.014C1044.68 145.861 1051.15 142.601 1057.81 139.443C1080.47 128.721 1114.96 114.35 1152.72 113.356C1155.7 113.278 1158.76 113.281 1161.79 113.363C1209.59 114.598 1244.84 135.177 1270.21 152.966L1274 155.637C1295.63 170.884 1319.66 187.828 1352.87 187.827C1359.42 187.825 1366.33 187.166 1373.65 185.706C1418.41 176.769 1460.53 139.988 1497.7 107.537L1500.8 104.828C1510.21 96.6238 1520.35 87.9269 1530.81 79.8991C1565.21 53.5136 1594.25 41.3773 1624.98 40.5464C1651 39.8677 1678.79 48.0829 1709.93 65.689C1715.94 69.0965 1722.08 72.8443 1728.69 77.1454L1729.94 77.9546C1760.31 97.6652 1791.72 118.046 1823.27 132.24C1844.88 141.966 1867.22 152.021 1891.79 150.267C1901.51 149.573 1910.72 147.161 1919 143.401V141.654L1918.99 141.652Z" fill="#BABFCA"/>
</g>
<g style="mix-blend-mode:screen">
<path d="M1919 153.769C1909.27 157.809 1899.11 159.707 1890.24 159.952C1865.78 160.671 1843.52 149.455 1821.96 138.651L1820.36 137.848C1790.05 122.666 1759.43 102.043 1729.83 82.0995L1727.25 80.3622C1720.68 75.9254 1714.55 72.0478 1708.53 68.5079C1678.01 50.6158 1649.27 41.5435 1623.1 41.5435H1622.92C1591.49 41.6145 1561.77 52.8655 1526.56 78.0223C1515.39 86.004 1504.7 94.6516 1495.7 102.058C1492.73 104.502 1489.73 106.989 1486.7 109.505C1450.7 139.333 1409.9 173.139 1368.26 183.279C1325.85 193.6 1297.39 177.243 1272.28 162.812C1270.6 161.846 1268.93 160.889 1267.27 159.945C1239.74 144.286 1205.17 128.203 1157.48 127.637C1154.4 127.598 1151.31 127.626 1148.29 127.721C1111.5 128.917 1077.5 140.794 1051.98 151.007C1046.01 153.399 1040.19 155.847 1034.57 158.214C1024.41 162.492 1014.81 166.533 1005.02 169.96C994.752 173.55 985.221 176.047 975.879 177.592C937.778 183.903 892.346 173.335 851.229 148.592C840.797 142.325 830.754 135.18 821.379 127.357C811.332 118.964 801.44 109.427 791.876 100.204C763.993 73.3194 735.16 45.5209 697.45 40.6051C667.08 36.6462 642.967 53.825 617.423 72.0101C605.694 80.3602 593.566 88.9944 580.839 95.3239C540.229 115.495 485.964 116.214 419.546 97.4591C406.203 93.7196 392.895 89.5093 380.024 85.4385C341.663 73.3041 305.43 61.8419 266.631 61.1697L266.392 61.1658L266.191 61.2931C254.792 68.465 246.684 77.4165 238.1 86.8938C232.81 92.7339 227.341 98.7717 220.942 104.492C191.941 130.511 141.914 145.964 102.004 141.234C91.4522 139.984 81.822 137.744 72.5092 135.579C66.9486 134.286 61.6969 133.065 56.3161 132.055C43.643 129.677 26.9094 127.736 9.88477 133.887C6.64551 135.057 3.29303 136.71 0.00195312 138.75V140.62C3.46062 138.396 7.01075 136.626 10.4291 135.391C27.0924 129.372 43.5477 131.286 56.0205 133.626C61.3675 134.63 66.6025 135.847 72.1452 137.136C81.5016 139.31 91.1752 141.56 101.815 142.822C142.143 147.595 192.698 131.98 222.012 105.682C228.471 99.9071 233.97 93.8367 239.287 87.9665C247.745 78.6293 255.735 69.807 266.842 62.7726C305.317 63.4846 341.372 74.8898 379.539 86.9622C392.422 91.0382 405.744 95.2523 419.109 98.9981C485.922 117.864 540.575 117.111 581.552 96.7548C594.391 90.3697 606.571 81.6978 618.351 73.3124C643.633 55.3148 667.511 38.3234 697.24 42.1902C734.427 47.0375 763.065 74.6506 790.761 101.354C800.346 110.596 810.258 120.153 820.35 128.583C829.788 136.459 839.898 143.652 850.4 149.961C891.838 174.896 937.666 185.542 976.139 179.169C985.574 177.609 995.191 175.09 1005.54 171.468C1015.38 168.026 1025 163.975 1035.19 159.687C1040.81 157.323 1046.61 154.879 1052.58 152.491C1077.97 142.326 1111.8 130.508 1148.34 129.319C1151.34 129.224 1154.4 129.197 1157.45 129.236C1204.78 129.798 1239.12 145.777 1266.48 161.335C1268.13 162.278 1269.8 163.234 1271.48 164.197C1291.27 175.574 1313.12 188.135 1342.21 188.133C1350.4 188.133 1359.17 187.135 1368.63 184.831C1410.64 174.606 1451.59 140.674 1487.72 110.736C1490.75 108.221 1493.75 105.734 1496.72 103.292C1505.69 95.9021 1516.36 87.2757 1527.49 79.3227C1562.42 54.372 1591.85 43.2136 1622.92 43.1426H1623.1C1648.98 43.1426 1677.45 52.1401 1707.72 69.8857C1713.71 73.409 1719.81 77.2687 1726.35 81.6875L1728.93 83.4255C1758.58 103.397 1789.23 124.049 1819.64 139.277L1821.24 140.08C1842.98 150.973 1865.47 162.257 1890.28 161.552C1899.14 161.307 1909.26 159.436 1918.99 155.486V153.769H1919Z" fill="#B1B6C3"/>
</g>
<g style="mix-blend-mode:screen">
<path d="M1918.99 165.795C1909.04 169.608 1898.5 171.367 1888.81 171.24C1863.84 170.932 1841.57 158.615 1820.02 146.704L1816.79 144.918C1788.17 129.135 1758.93 108.696 1730.66 88.9294L1724.93 84.9245C1718.44 80.3784 1712.36 76.3869 1706.34 72.7217C1676.13 54.3723 1647.38 44.7574 1620.9 44.1446C1589.51 43.4602 1558.52 54.0166 1523.29 77.4194C1511.44 85.2872 1500.16 93.8862 1491.65 100.498C1486.56 104.457 1481.39 108.549 1476.13 112.702C1441.42 140.124 1402.08 171.205 1363.18 182.425C1322.03 194.291 1295.33 182.418 1269.51 170.941C1267.46 170.029 1265.43 169.125 1263.4 168.241C1235.39 156.007 1200.45 143.514 1153.64 143.514C1153.47 143.514 1153.29 143.515 1153.12 143.515C1150.02 143.517 1146.92 143.577 1143.9 143.69C1108.75 145.049 1076.48 154.265 1046.84 164.022C1041.92 165.642 1037.13 167.276 1032.43 168.879C1021.03 172.763 1010.27 176.432 999.407 179.323C989.19 182.043 979.666 183.797 970.286 184.685C932.549 188.283 887.694 175.647 847.225 150.037C836.919 143.525 826.951 136.192 817.597 128.241C808.026 120.094 798.548 110.949 789.382 102.105C760.94 74.6618 731.53 46.2837 693.119 40.9834C663.666 36.9177 640.074 53.146 615.104 70.3274C603.755 78.137 592.018 86.2128 579.734 92.147C540.492 111.078 487.91 112.027 423.442 94.9641C411.023 91.7062 398.637 88.0576 386.659 84.5298C349.485 73.5801 314.359 63.2322 277.064 63.2322C276.673 63.2322 276.276 63.2329 275.884 63.2354L275.634 63.2367L275.429 63.3806C263.859 71.4788 255.902 81.4236 247.477 91.9519C242.086 98.6901 236.511 105.657 229.837 112.212C200.503 141.118 146.787 157.936 104.895 151.334C93.3162 149.508 82.8135 146.421 72.6569 143.437C67.2115 141.837 62.0679 140.325 56.7773 138.997C43.3386 135.623 25.5693 132.499 7.28005 138.314C4.88835 139.075 2.44163 140.066 0.00195312 141.266V143.1C2.583 141.77 5.19219 140.657 7.76684 139.838C25.671 134.145 43.1543 137.227 56.3864 140.548C61.6464 141.868 66.7752 143.375 72.2041 144.971C82.4105 147.971 92.9637 151.072 104.645 152.913C146.998 159.592 201.3 142.58 230.96 113.352C237.702 106.731 243.307 99.7245 248.729 92.951C257.029 82.577 264.872 72.7748 276.144 64.834C313.523 64.6804 348.844 75.0584 386.206 86.0644C398.196 89.596 410.594 93.2478 423.035 96.5114C487.878 113.674 540.834 112.69 580.433 93.5881C592.827 87.5996 604.615 79.4893 616.014 71.6451C640.72 54.6447 664.063 38.5911 692.901 42.5679C730.794 47.7971 760.013 75.991 788.27 103.255C797.453 112.116 806.949 121.279 816.56 129.459C825.97 137.458 836 144.837 846.369 151.388C887.132 177.184 932.368 189.901 970.438 186.278C979.905 185.381 989.516 183.613 999.82 180.87C1010.73 177.965 1021.52 174.286 1032.95 170.393C1037.64 168.792 1042.43 167.16 1047.34 165.541C1076.87 155.822 1109.01 146.641 1143.96 145.29C1146.96 145.176 1150.04 145.118 1153.12 145.116H1153.64C1200.15 145.116 1234.9 157.541 1262.76 169.708C1264.78 170.592 1266.81 171.494 1268.86 172.403C1286.54 180.263 1305.89 188.868 1330.58 188.866C1340.63 188.866 1351.56 187.442 1363.62 183.964C1402.83 172.656 1442.3 141.471 1477.12 113.958C1482.38 109.807 1487.55 105.717 1492.64 101.762C1501.12 95.1662 1512.37 86.5908 1524.18 78.7511C1559.13 55.5364 1589.86 45.0485 1620.86 45.7451C1647.06 46.3508 1675.54 55.8876 1705.51 74.0886C1711.49 77.7353 1717.55 81.7077 1724.01 86.2352L1729.74 90.2408C1758.05 110.031 1787.32 130.495 1816.01 146.32L1819.25 148.105C1840.96 160.113 1863.42 172.528 1888.79 172.84C1898.48 172.948 1909.01 171.217 1918.99 167.476V165.797V165.795Z" fill="#A7ADBB"/>
</g>
<g style="mix-blend-mode:screen">
<path d="M1919 177.928C1908.54 181.559 1897.5 183.011 1887.37 182.517C1861.66 181.257 1839.2 167.681 1817.48 154.552L1813.22 151.978C1786.84 136.102 1760.86 117.235 1733.34 97.2601C1729.77 94.6669 1726.19 92.0693 1722.61 89.4761C1716.18 84.8052 1710.14 80.6993 1704.15 76.9246C1674.32 58.1703 1645.64 48.013 1618.88 46.735C1587.15 45.2427 1555.74 54.7999 1520.02 76.8063C1510.45 82.7014 1500.15 89.7313 1487.61 98.929C1480.17 104.384 1472.74 110.014 1464.87 115.974C1430.12 142.284 1394.19 169.49 1358.1 181.565C1318.12 194.941 1291.93 186.698 1266.59 178.73C1264.22 177.986 1261.87 177.245 1259.53 176.53C1231.04 167.841 1196.59 158.653 1148.77 159.382C1145.64 159.428 1142.53 159.517 1139.52 159.648C1102.13 161.321 1067.2 170.4 1041.7 177.028C1038.33 177.907 1035.01 178.783 1031.74 179.649C1018.58 183.128 1006.15 186.415 993.804 188.678C983.644 190.54 974.124 191.552 964.699 191.772C927.342 192.637 883.087 177.968 843.222 151.468C833.039 144.711 823.145 137.189 813.816 129.112C804.753 121.254 795.73 112.537 787.002 104.106C757.971 76.0604 727.952 47.0593 688.79 41.349C660.212 37.1739 637.168 52.4594 612.768 68.6358C601.805 75.9043 590.468 83.4197 578.631 88.9586C540.235 106.894 490.747 108.039 427.339 92.4569C415.892 89.6744 404.477 86.5765 393.437 83.5803C356.616 73.5868 321.841 64.1358 285.134 65.2904L284.875 65.2981L284.67 65.4548C272.887 74.4855 265.045 85.4411 256.742 97.0395C251.286 104.661 245.644 112.543 238.734 119.919C209.106 151.637 151.587 169.874 107.783 161.422C95.2588 159.007 83.9547 155.053 73.0235 151.229C67.6132 149.337 62.5035 147.55 57.2308 145.926C43.0354 141.555 24.2344 137.241 4.67406 142.731C3.12415 143.166 1.56273 143.693 0.00195312 144.298V146.015C1.70602 145.333 3.41328 144.746 5.10711 144.271C24.267 138.893 42.7744 143.149 56.7581 147.454C62.0014 149.07 67.0983 150.851 72.4932 152.739C83.4794 156.582 94.8392 160.555 107.479 162.993C151.775 171.529 209.939 153.091 239.904 121.01C246.885 113.559 252.559 105.634 258.044 97.9702C266.226 86.5394 273.959 75.738 285.441 66.8812C321.82 65.8021 356.402 75.1866 393.016 85.1232C404.066 88.1225 415.492 91.223 426.957 94.01C490.736 109.686 540.57 108.505 579.31 90.4068C591.254 84.8174 602.64 77.2687 613.654 69.9683C637.791 53.9677 660.586 38.855 688.558 42.9316C727.207 48.5676 757.038 77.3858 785.887 105.256C794.629 113.701 803.668 122.435 812.765 130.321C822.145 138.443 832.094 146.007 842.333 152.801C881.319 178.716 924.532 193.409 961.491 193.409C962.578 193.409 963.659 193.397 964.735 193.372C974.244 193.15 983.848 192.129 994.091 190.253C1006.5 187.977 1018.96 184.682 1032.15 181.195C1035.41 180.331 1038.73 179.454 1042.11 178.577C1067.54 171.965 1102.36 162.911 1139.59 161.248C1142.59 161.117 1145.68 161.028 1148.79 160.982C1196.43 160.252 1230.69 169.406 1259.06 178.061C1261.4 178.774 1263.75 179.513 1266.11 180.256C1290.5 187.929 1318.13 196.626 1358.61 183.079C1394.95 170.921 1430.98 143.636 1465.83 117.248C1473.7 111.291 1481.13 105.665 1488.56 100.217C1501.06 91.0465 1511.33 84.0389 1520.86 78.1662C1556.29 56.337 1587.43 46.8508 1618.8 48.3329C1645.28 49.5975 1673.71 59.6728 1703.3 78.2781C1709.25 82.0329 1715.26 86.1191 1721.67 90.7701C1725.25 93.3639 1728.83 95.961 1732.4 98.5542C1758.73 117.669 1785.95 137.436 1812.39 153.347L1816.65 155.92C1838.54 169.152 1861.18 182.834 1887.29 184.113C1897.45 184.611 1908.49 183.19 1919 179.621V177.928Z" fill="#9DA3B4"/>
</g>
<g style="mix-blend-mode:screen">
<path d="M1919 190.07C1908.03 193.527 1896.49 194.674 1885.93 193.807C1859.3 191.603 1836.5 176.655 1814.46 162.198L1809.65 159.047C1785.93 143.582 1762.42 125.82 1737.52 107.014C1731.8 102.693 1726.05 98.3568 1720.29 94.0371C1713.92 89.2448 1707.92 85.0268 1701.96 81.1402C1672.53 61.9919 1643.89 51.2916 1616.86 49.338C1584.74 47.0404 1552.93 55.5761 1516.74 76.2046C1506.74 81.911 1496.19 88.6364 1483.57 97.3698C1473.5 104.329 1463.43 111.683 1452.76 119.468C1420.02 143.353 1386.17 168.051 1353.02 180.715C1314.1 195.582 1288.37 190.841 1263.49 186.261C1260.86 185.775 1258.25 185.294 1255.64 184.841L1253.55 184.476C1227.8 179.994 1192.55 173.858 1144.41 175.259C1141.35 175.347 1138.26 175.462 1135.14 175.618C1102.2 177.289 1071.66 183.228 1044.72 188.469C1041.95 189.007 1039.23 189.536 1036.57 190.048L1033.23 190.692C1017.51 193.726 1002.66 196.592 988.204 198.05C978.105 199.067 968.586 199.335 959.113 198.875C921.702 197.059 879.123 180.736 839.22 152.913C829.174 145.922 819.356 138.21 810.036 129.995C801.519 122.476 792.996 114.227 784.753 106.25C755.098 77.5511 724.432 47.8745 684.463 41.7261C656.773 37.4672 634.253 51.7912 610.413 66.9582C599.843 73.683 588.912 80.6368 577.53 85.781C540.564 102.456 492.711 103.825 431.236 89.9593C420.82 87.6418 410.432 85.078 400.384 82.5999C364.243 73.683 330.102 65.2567 294.385 67.3561L294.122 67.3715L293.921 67.5384C281.894 77.5095 274.145 89.4859 265.94 102.167C260.442 110.665 254.757 119.45 247.637 127.635C217.25 162.671 157.092 181.947 110.67 171.521C97.2578 168.509 85.2027 163.677 73.5448 159.005C68.3546 156.925 62.9865 154.775 57.6818 152.867C42.7405 147.496 22.9173 141.993 2.06618 147.161C1.38174 147.33 0.694104 147.522 0.00390625 147.725V149.398C0.823316 149.148 1.64017 148.914 2.45254 148.713C22.8841 143.647 42.4104 149.078 57.1387 154.372C62.4166 156.269 67.532 158.318 72.9474 160.489C84.6647 165.184 96.7806 170.039 110.318 173.082C157.261 183.618 218.107 164.12 248.846 128.682C256.04 120.413 261.756 111.578 267.284 103.034C275.374 90.5311 283.018 78.7178 294.74 68.9361C330.124 66.907 364.066 75.2854 399.999 84.1505C410.055 86.6311 420.453 89.1974 430.884 91.5188C492.709 105.462 540.892 104.059 578.189 87.2362C589.675 82.0453 600.654 75.0602 611.272 68.3047C634.851 53.3033 657.125 39.1367 684.218 43.3047C723.682 49.3758 754.162 78.872 783.637 107.397C791.892 115.386 800.429 123.648 808.974 131.191C818.339 139.448 828.207 147.197 838.301 154.223C878.447 182.216 921.324 198.639 959.033 200.469C962.044 200.617 965.057 200.691 968.093 200.691C974.693 200.691 981.391 200.341 988.363 199.638C1002.89 198.173 1017.77 195.301 1033.53 192.261L1036.87 191.617C1039.53 191.104 1042.25 190.575 1045.02 190.037C1071.91 184.807 1102.39 178.878 1135.22 177.212C1138.33 177.059 1141.41 176.943 1144.46 176.856C1192.41 175.45 1227.59 181.578 1253.27 186.049L1255.36 186.413C1257.97 186.866 1260.57 187.347 1263.2 187.829C1288.3 192.455 1314.25 197.237 1353.59 182.206C1386.94 169.466 1420.88 144.704 1453.7 120.757C1464.36 112.979 1474.43 105.631 1484.48 98.683C1497.06 89.9759 1507.57 83.2742 1517.54 77.5907C1553.43 57.1279 1584.96 48.6574 1616.74 50.9308C1643.5 52.8658 1671.88 63.4797 1701.09 82.4777C1707.02 86.3445 1712.98 90.5433 1719.33 95.3139C1725.09 99.6329 1730.83 103.968 1736.55 108.288C1761.47 127.11 1785.01 144.889 1808.77 160.385L1813.58 163.533C1835.79 178.099 1858.76 193.161 1885.8 195.398C1896.4 196.275 1907.96 195.157 1918.99 191.75V190.067L1919 190.07Z" fill="#939AAC"/>
</g>
<g style="mix-blend-mode:screen">
<path d="M1918.99 202.017C1907.36 205.405 1895.25 206.309 1884.49 205.086C1856.78 201.933 1833.52 185.498 1811.02 169.604L1806.07 166.109C1785.22 151.457 1764.46 135.109 1742.49 117.801C1734.48 111.494 1726.2 104.974 1717.97 98.5899C1711.68 93.6939 1705.73 89.3621 1699.77 85.345C1670.73 65.8147 1642.15 54.5727 1614.84 51.9302C1582.3 48.8054 1550.09 56.3279 1513.47 75.5927C1503.05 81.0746 1492.26 87.4968 1479.52 95.8016C1466.48 104.303 1452.82 113.965 1439.62 123.308C1409.31 144.751 1377.97 166.923 1347.94 179.856C1309.94 196.226 1284.63 194.878 1260.15 193.57C1257.33 193.421 1254.54 193.27 1251.75 193.15C1246.82 192.94 1241.52 192.658 1235.84 192.357C1211.08 191.045 1180.27 189.416 1140.06 191.126C1136.98 191.254 1133.88 191.403 1130.75 191.576C1103.54 193.121 1077.37 196.76 1054.28 199.973C1046.26 201.088 1038.68 202.143 1031.43 203.062C1014.71 205.183 998.392 207.11 982.6 207.415C972.597 207.612 963.082 207.135 953.523 205.968C916.657 201.485 874.641 183.152 835.214 154.346C825.293 147.111 815.55 139.211 806.254 130.865C798.328 123.741 790.358 116.01 782.65 108.533C752.33 79.123 720.978 48.7108 680.133 42.0922C653.314 37.745 631.315 51.1153 608.028 65.2711C597.86 71.4515 587.345 77.843 576.427 82.5918C540.918 98.0033 494.698 99.5928 435.128 87.4527C425.815 85.5848 416.523 83.536 407.535 81.555C371.994 73.7191 338.422 66.3195 303.629 69.4122L303.365 69.4359L303.167 69.6118C290.88 80.527 283.206 93.5378 275.081 107.311C269.558 116.675 263.847 126.356 256.539 135.339C225.917 173.08 161.776 193.837 113.55 181.612C99.2836 177.995 86.5076 172.279 74.1525 166.751C68.9111 164.405 63.4912 161.981 58.1231 159.799C42.5352 153.465 21.8746 146.833 0.00195312 151.479V153.106C21.5772 148.413 42.0663 155.001 57.5193 161.28C62.8611 163.451 68.2682 165.87 73.4968 168.21C85.9153 173.765 98.7546 179.511 113.156 183.16C162.75 195.731 226.28 175.172 257.783 136.347C265.166 127.271 270.908 117.536 276.46 108.123C284.475 94.5338 292.048 81.6951 304.034 70.982C338.491 67.9704 371.861 75.3278 407.188 83.117C416.182 85.0994 425.484 87.1501 434.809 89.0198C494.714 101.23 541.245 99.6057 577.065 84.0586C588.083 79.2662 598.645 72.8459 608.86 66.6374C631.887 52.639 653.636 39.4164 679.874 43.6715C720.22 50.2095 751.389 80.4432 781.532 109.681C789.25 117.168 797.232 124.91 805.181 132.055C814.517 140.436 824.303 148.371 834.266 155.638C873.911 184.602 916.194 203.041 953.327 207.555C961.57 208.561 969.778 209.056 978.292 209.056C979.728 209.056 981.174 209.042 982.631 209.014C998.501 208.707 1014.86 206.774 1031.63 204.649C1038.89 203.727 1046.47 202.673 1054.5 201.557C1077.56 198.349 1103.7 194.713 1130.84 193.172C1133.96 192.999 1137.06 192.852 1140.12 192.723C1180.26 191.015 1211.03 192.642 1235.75 193.954C1241.44 194.255 1246.74 194.536 1251.68 194.749C1254.46 194.868 1257.25 195.016 1260.06 195.166C1284.73 196.485 1310.23 197.843 1348.58 181.323C1378.75 168.323 1410.16 146.102 1440.54 124.611C1453.74 115.277 1467.38 105.625 1480.39 97.1391C1493.09 88.8618 1503.84 82.4646 1514.22 77.0057C1550.55 57.8919 1582.47 50.4302 1614.68 53.5198C1641.73 56.136 1670.05 67.2892 1698.87 86.6678C1704.8 90.6638 1710.72 94.9751 1716.99 99.8487C1725.21 106.23 1733.49 112.749 1741.49 119.053C1763.49 136.375 1784.26 152.736 1805.15 167.415L1810.1 170.905C1832.76 186.917 1856.19 203.472 1884.31 206.673C1895.12 207.898 1907.28 207.013 1918.99 203.666V202.013L1918.99 202.017Z" fill="#8991A5"/>
</g>
<g style="mix-blend-mode:screen">
<path d="M1919 214.154C1906.84 217.369 1894.23 217.966 1883.05 216.373C1854.11 212.249 1830.27 194.202 1807.22 176.749L1802.49 173.177C1784.45 159.58 1766.46 144.767 1747.42 129.085C1737.07 120.561 1726.36 111.746 1715.65 103.15C1709.42 98.1308 1703.51 93.6852 1697.58 89.5568C1668.93 69.6568 1640.42 57.8723 1612.82 54.5307C1580.31 50.6255 1546.74 57.3126 1510.2 74.9916C1499.52 80.1601 1488.16 86.4576 1475.48 94.2436C1458.99 104.362 1441.81 116.237 1425.18 127.722C1397.81 146.638 1369.5 166.198 1342.87 179.007C1305.6 196.93 1280.62 198.889 1256.46 200.785C1253.58 201.011 1250.72 201.234 1247.85 201.486C1233.39 202.749 1216.24 203.435 1194.52 204.302C1177.36 204.986 1157.91 205.762 1135.7 207.005C1132.61 207.174 1129.5 207.352 1126.37 207.545C1106.93 208.762 1088.34 210.558 1070.36 212.293C1054.67 213.808 1039.84 215.24 1026.29 216.089C1011.39 217.021 993.89 217.838 976.999 216.795C967.066 216.182 957.558 214.965 947.932 213.079C911.703 205.992 870.25 185.646 831.207 155.79C821.421 148.32 811.752 140.23 802.47 131.747C795.187 125.084 787.832 117.928 780.721 111.008C749.689 80.8145 717.6 49.5931 675.801 42.4679C649.845 38.0414 628.356 50.4541 605.609 63.5954C595.854 69.2315 585.766 75.0588 575.324 79.4117C530.021 98.2498 475.835 91.5979 439.018 84.955C430.895 83.5177 422.782 81.9556 414.935 80.4454C379.895 73.7008 346.801 67.331 312.871 71.478L312.61 71.5093L312.418 71.6903C299.853 83.5548 292.244 97.6057 284.187 112.482C278.652 122.704 272.927 133.274 265.444 143.049C234.09 184.102 167.241 205.932 116.428 191.709C101.229 187.455 87.6653 180.802 74.5484 174.369C69.323 171.805 63.9204 169.157 58.56 166.738C42.8019 159.696 22.0978 152.225 0 155.499V157.119C21.7806 153.814 42.294 161.223 57.903 168.197C63.2366 170.604 68.6277 173.248 73.8416 175.804C87.0231 182.27 100.654 188.955 115.995 193.25C167.389 207.632 234.999 185.547 266.717 144.02C274.277 134.146 280.032 123.52 285.597 113.243C293.549 98.5581 301.061 84.6851 313.327 73.0342C346.916 68.9801 379.811 75.314 414.631 82.0164C422.483 83.5279 430.603 85.0907 438.735 86.5299C475.749 93.208 530.245 99.888 575.94 80.8887C586.479 76.4955 596.611 70.6419 606.41 64.9802C628.897 51.9867 650.136 39.7161 675.531 44.0447C716.838 51.0861 748.744 82.1315 779.601 112.154C786.722 119.082 794.085 126.247 801.387 132.927C810.704 141.442 820.409 149.561 830.232 157.059C869.467 187.062 911.157 207.514 947.623 214.646C957.318 216.549 966.893 217.773 976.897 218.392C982.55 218.741 988.265 218.883 993.929 218.883C1005.28 218.883 1016.42 218.31 1026.39 217.685C1039.97 216.833 1054.81 215.401 1070.51 213.885C1088.48 212.151 1107.06 210.357 1126.46 209.141C1129.6 208.948 1132.7 208.77 1135.79 208.601C1157.99 207.359 1177.43 206.583 1194.58 205.899C1216.32 205.031 1233.49 204.346 1247.99 203.079C1250.85 202.829 1253.71 202.604 1256.58 202.379C1280.89 200.472 1306.02 198.499 1343.56 180.447C1370.31 167.585 1398.67 147.988 1426.09 129.037C1442.7 117.564 1459.87 105.701 1476.31 95.6048C1488.95 87.847 1500.26 81.5757 1510.89 76.4296C1547.15 58.8887 1580.43 52.2458 1612.63 56.1183C1639.96 59.4273 1668.23 71.1198 1696.66 90.8688C1702.56 94.9741 1708.44 99.3993 1714.65 104.395C1725.35 112.985 1736.05 121.797 1746.4 130.318C1765.45 146.012 1783.46 160.836 1801.53 174.454L1806.25 178.022C1829.47 195.598 1853.47 213.772 1882.82 217.955C1894.07 219.559 1906.74 218.979 1918.99 215.798V214.153L1919 214.154Z" fill="#80889D"/>
</g>
<g style="mix-blend-mode:screen">
<path d="M1919 226.279C1906.32 229.325 1893.21 229.618 1881.61 227.653C1851.3 222.525 1826.78 202.733 1803.08 183.595L1798.92 180.239C1783.39 167.743 1767.92 154.391 1751.54 140.255C1739.13 129.536 1726.29 118.454 1713.34 107.703C1707.17 102.575 1701.3 98.0144 1695.39 93.7619C1667.15 73.5044 1638.69 61.1774 1610.8 57.1258C1577.84 52.3609 1543.87 58.0066 1506.93 74.3833C1495.86 79.2914 1484.24 85.2755 1471.43 92.6777C1450.89 104.541 1429.65 119.007 1409.1 132.996C1385.28 149.21 1360.66 165.976 1337.79 178.15C1300.93 197.783 1276.13 203.018 1252.14 208.08C1249.41 208.656 1246.69 209.231 1243.96 209.825C1219.41 215.166 1184.67 219.19 1131.35 222.874L1121.98 223.504C1114.35 224.028 1106.81 224.574 1099.38 225.113C1071.06 227.165 1044.32 229.103 1021.15 229.11H1020.99C1001.26 229.11 985.493 228.176 971.396 226.172C961.571 224.776 952.068 222.818 942.344 220.182C906.353 210.448 866.538 188.68 827.205 157.228C817.565 149.532 807.971 141.253 798.69 132.621C792.113 126.497 785.446 119.984 778.999 113.687C747.2 82.6292 714.318 50.5123 671.476 42.8363C646.351 38.335 625.372 49.7888 603.153 61.9143C593.825 67.0048 584.18 72.2686 574.226 76.2249C530.996 93.3609 478.58 87.9857 442.911 82.4507C436.085 81.417 429.256 80.3059 422.654 79.2313C387.997 73.5914 355.264 68.2655 322.116 73.5389L321.859 73.5792L321.676 73.7622C308.824 86.5791 301.271 101.677 293.274 117.662C287.734 128.737 282.004 140.191 274.355 150.752C242.276 195.138 172.725 218.045 119.31 201.801C103.324 196.94 89.0983 189.401 75.3391 182.111C70.0017 179.283 64.4833 176.358 59.0001 173.67C43.1224 165.952 22.4011 157.675 0.00390625 159.709V161.312C22.071 159.259 42.5806 167.467 58.2972 175.107C63.7548 177.782 69.2623 180.701 74.5888 183.523C88.4138 190.85 102.711 198.426 118.845 203.331C130.631 206.914 143.184 208.613 155.962 208.611C201.746 208.608 250.287 186.79 275.654 151.689C283.38 141.022 289.139 129.51 294.709 118.376C302.607 102.588 310.068 87.671 322.625 75.0773C355.426 69.9133 387.96 75.2072 422.397 80.8094C429.004 81.8846 435.837 82.9964 442.669 84.0314C478.518 89.5939 531.221 94.9939 574.819 77.7115C584.864 73.7187 594.553 68.4312 603.923 63.3184C625.887 51.3336 646.635 40.0122 671.193 44.4112C713.551 52.0001 746.254 83.9412 777.88 114.831C784.333 121.135 791.007 127.653 797.599 133.791C806.91 142.45 816.534 150.756 826.205 158.477C865.708 190.063 905.724 211.935 941.926 221.725C951.714 224.378 961.281 226.35 971.172 227.756C985.348 229.771 1001.18 230.71 1020.99 230.71H1021.15C1044.38 230.703 1071.15 228.764 1099.49 226.708C1106.92 226.171 1114.47 225.625 1122.09 225.102L1131.46 224.471C1184.87 220.781 1219.67 216.745 1244.3 211.387C1247.03 210.796 1249.74 210.222 1252.47 209.646C1276.57 204.561 1301.48 199.303 1338.55 179.563C1361.49 167.346 1386.15 150.556 1410 134.319C1430.53 120.346 1451.75 105.898 1472.23 94.0626C1485 86.6898 1496.56 80.7313 1507.58 75.8462C1544.24 59.5955 1577.93 53.9921 1610.57 58.709C1638.2 62.7241 1666.42 74.9552 1694.46 95.0617C1700.34 99.2912 1706.18 103.828 1712.31 108.934C1725.25 119.675 1738.09 130.752 1750.5 141.466C1766.88 155.611 1782.36 168.972 1797.91 181.487L1802.07 184.84C1825.94 204.108 1850.62 224.031 1881.34 229.232C1893.03 231.209 1906.22 230.934 1919 227.919V226.281L1919 226.279Z" fill="#767F95"/>
</g>
<g style="mix-blend-mode:screen">
<path d="M1919 238.216C1905.94 241.152 1892.37 241.31 1880.16 238.941C1848.33 232.761 1823.05 211.075 1798.6 190.103L1795.34 187.305C1781.92 175.82 1768.59 163.736 1754.48 150.944C1740.41 138.179 1725.85 124.981 1711.02 112.262C1705 107.087 1699 102.279 1693.2 97.9726C1665.75 77.6581 1636.56 64.4324 1608.78 59.7245C1575.38 54.091 1540.98 58.6844 1503.65 73.7812C1492.2 78.4123 1480.34 84.0829 1467.39 91.1167C1441.95 104.928 1415.97 122.551 1390.84 139.594C1370.49 153.396 1351.27 166.435 1332.72 177.3C1295.56 199.065 1270.59 207.664 1246.45 215.98C1244.32 216.71 1242.2 217.441 1240.08 218.179C1211.83 227.984 1173.78 234.905 1126.99 238.749C1123.88 239.001 1120.75 239.239 1117.6 239.47C1085.27 241.876 1047.91 244.07 1016.01 242.14C996.969 240.986 980.542 238.834 965.791 235.559C956.058 233.399 946.559 230.697 936.751 227.295C901.668 215.148 862.402 191.417 823.199 158.668C813.718 150.761 804.2 142.292 794.908 133.5C789.111 128.007 783.216 122.222 777.516 116.628C744.886 84.603 711.146 51.4876 667.147 43.2097C642.857 38.6412 622.354 49.131 600.644 60.2375C591.76 64.783 582.574 69.482 573.126 73.0417C532.535 88.2926 484.294 84.745 446.798 79.9507C441.402 79.2822 436.06 78.5818 430.765 77.8878C396.331 73.3737 363.805 69.1084 331.354 75.6055L331.106 75.6554L330.932 75.837C317.783 89.6096 310.281 105.761 302.338 122.859C296.798 134.784 291.071 147.114 283.264 158.457C251.024 205.391 177.259 229.863 122.186 211.894C105.429 206.43 90.5522 198.003 76.1655 189.856C70.7021 186.761 65.0526 183.561 59.4325 180.604C43.4313 172.248 22.6755 163.212 0.00195312 164.102V165.705C22.3339 164.817 42.8582 173.754 58.6879 182.021C64.2831 184.964 69.9224 188.158 75.3742 191.245C89.83 199.433 104.778 207.899 121.688 213.415C148.819 222.266 180.85 221.462 211.881 211.158C242.896 200.857 268.715 182.462 284.584 159.362C292.467 147.909 298.224 135.516 303.791 123.532C311.641 106.631 319.058 90.6651 331.917 77.1234C364.027 70.7479 396.344 74.9863 430.555 79.4722C435.854 80.1676 441.201 80.868 446.598 81.5364C484.271 86.3525 532.765 89.9109 573.691 74.5379C583.224 70.9455 592.451 66.2254 601.374 61.6601C622.833 50.6816 643.102 40.3101 666.849 44.7801C710.37 52.9684 743.933 85.9105 776.392 117.767C782.098 123.366 787.997 129.156 793.805 134.659C803.121 143.476 812.665 151.965 822.171 159.895C861.521 192.766 900.96 216.595 936.225 228.806C946.092 232.227 955.649 234.946 965.443 237.12C980.277 240.412 996.785 242.576 1015.91 243.735C1024.5 244.256 1033.48 244.479 1042.64 244.479C1067.63 244.479 1094.02 242.827 1117.72 241.065C1120.87 240.834 1124.01 240.593 1127.12 240.342C1174.05 236.487 1212.23 229.538 1240.6 219.69C1242.73 218.952 1244.85 218.222 1246.97 217.491C1271.19 209.151 1296.23 200.525 1333.53 178.68C1352.13 167.787 1371.37 154.735 1391.75 140.916C1416.84 123.896 1442.79 106.296 1468.15 92.5227C1481.05 85.517 1492.86 79.8714 1504.25 75.2639C1541.3 60.2823 1575.4 55.7138 1608.51 61.3026C1636.04 65.967 1664.99 79.0923 1692.25 99.2577C1698.02 103.54 1703.98 108.324 1709.97 113.475C1724.79 126.18 1739.34 139.372 1753.41 152.128C1767.53 164.928 1780.86 177.02 1794.3 188.52L1797.56 191.316C1822.16 212.423 1847.6 234.249 1879.85 240.512C1892.16 242.897 1905.82 242.761 1919 239.849V238.216Z" fill="#6C768E"/>
</g>
<g style="mix-blend-mode:screen">
<path d="M1918.99 250.334C1905.43 253.106 1891.35 252.969 1878.71 250.223C1845.2 242.939 1819.07 219.191 1793.8 196.226L1791.76 194.368C1780.04 183.721 1768.42 172.655 1756.13 160.937C1740.82 146.343 1724.99 131.252 1708.69 116.816C1702.64 111.44 1696.85 106.652 1691.01 102.179C1663.96 81.5347 1634.83 67.7518 1606.76 62.3204C1572.88 55.7869 1538.08 59.337 1500.38 73.1749C1488.57 77.5112 1476.45 82.8684 1463.34 89.5529C1431.78 105.644 1400.18 127.319 1369.61 148.279C1354.93 158.344 1341.07 167.85 1327.65 176.446C1287.84 201.937 1262.76 213.886 1236.2 226.536C1206.13 240.866 1167.92 250.315 1122.64 254.618C1119.52 254.911 1116.37 255.18 1113.21 255.429C1073.36 258.624 1038.93 258.534 1010.87 255.165C992.146 252.918 975.565 249.574 960.182 244.944C950.56 242.049 941.066 238.6 931.155 234.405C896.681 219.824 859.012 194.826 819.192 160.102C809.89 152.003 800.447 143.345 791.126 134.371C786.2 129.623 781.179 124.666 776.324 119.872C742.785 86.7594 708.105 52.5182 662.818 43.5757C639.34 38.9439 619.292 48.4672 598.066 58.5541C589.65 62.5533 580.947 66.6887 572.028 69.8525C534.291 83.1933 489.513 81.1764 450.686 77.4446C447.249 77.1146 443.836 76.7762 440.445 76.4404C405.654 72.9913 372.794 69.7348 340.589 77.6673L340.353 77.7248L340.189 77.9046C326.74 92.6354 318.936 110.644 311.389 128.059C305.856 140.83 300.134 154.035 292.174 166.157C259.236 216.403 182.708 241.976 125.06 221.983C107.551 215.913 92.04 206.606 77.0406 197.604C71.4339 194.24 65.6379 190.761 59.8643 187.534C43.7352 178.57 22.9352 168.832 0.00195312 168.643V170.239C22.5821 170.424 43.1345 180.066 59.0833 188.93C64.8332 192.144 70.619 195.616 76.2141 198.974C91.2846 208.017 106.868 217.369 124.534 223.494C138.038 228.176 152.557 230.385 167.326 230.385C216.302 230.38 267.922 206.072 293.514 167.032C301.55 154.796 307.299 141.526 312.86 128.693C320.668 110.676 328.042 93.6544 341.21 79.1609C373.071 71.3711 405.722 74.6058 440.287 78.03C443.68 78.3664 447.095 78.7048 450.533 79.0349C489.533 82.7846 534.531 84.8027 572.564 71.3583C581.561 68.167 590.302 64.013 598.755 59.9965C619.733 50.0267 639.55 40.6083 662.506 45.1435C707.321 53.9933 741.826 88.0618 775.197 121.008C780.056 125.806 785.08 130.766 790.014 135.521C799.354 144.513 808.817 153.189 818.139 161.307C858.085 196.141 895.9 221.23 930.529 235.875C940.494 240.095 950.042 243.56 959.719 246.473C975.193 251.132 991.862 254.493 1010.68 256.751C1025.15 258.489 1041.3 259.357 1059 259.357C1075.76 259.357 1093.91 258.58 1113.34 257.021C1116.51 256.771 1119.66 256.503 1122.79 256.209C1168.26 251.888 1206.65 242.388 1236.9 227.977C1263.49 215.305 1288.62 203.335 1328.51 177.791C1341.96 169.181 1355.83 159.667 1370.52 149.595C1401.04 128.663 1432.6 107.018 1464.07 90.9748C1477.12 84.3198 1489.18 78.9875 1500.94 74.673C1538.35 60.9394 1572.86 57.411 1606.46 63.8876C1634.28 69.2723 1663.18 82.9515 1690.03 103.446C1695.85 107.895 1701.61 112.659 1707.63 118.009C1723.91 132.426 1739.73 147.506 1755.03 162.091C1767.33 173.815 1778.94 184.888 1790.68 195.55L1792.72 197.407C1818.15 220.515 1844.44 244.409 1878.37 251.783C1891.11 254.552 1905.3 254.714 1918.99 251.96V250.332L1918.99 250.334Z" fill="#626D86"/>
</g>
<g style="mix-blend-mode:screen">
<path d="M1919 262.453C1904.92 265.064 1890.33 264.63 1877.26 261.507C1841.9 253.054 1814.84 227.054 1788.67 201.909L1788.18 201.432C1777.75 191.414 1767.46 181.097 1756.57 170.175C1740.43 153.991 1723.75 137.255 1706.38 121.372C1700.47 115.962 1694.57 110.92 1688.82 106.388C1662.17 85.4251 1633.1 71.0857 1604.74 64.9181C1570.37 57.4686 1535.17 59.9716 1497.11 72.5729C1484.93 76.6054 1472.56 81.6485 1459.3 87.9927C1419.68 106.938 1379.49 135.384 1344.04 160.483C1336.7 165.673 1329.54 170.745 1322.58 175.596C1285.69 201.293 1260.39 217.921 1232.35 234.901C1201.28 253.706 1162.9 265.68 1118.28 270.49C1115.15 270.825 1112 271.123 1108.83 271.392C1071.24 274.62 1035.59 273.516 1005.73 268.198C987.173 264.896 970.44 260.36 954.57 254.335C945.04 250.72 935.549 246.529 925.556 241.52C892.446 224.947 855.312 198.039 815.188 161.542C806.083 153.271 796.715 144.425 787.346 135.248C783.404 131.385 779.458 127.461 775.493 123.516C740.951 89.1601 705.233 53.6338 658.49 43.9486C635.788 39.2388 616.169 47.8071 595.398 56.8724C587.48 60.3291 579.293 63.9023 570.934 66.6682C534.13 78.8007 491.571 77.3007 454.572 74.9442L449.88 74.6435C414.785 72.3842 381.638 70.2529 349.825 79.7366L349.603 79.8024L349.452 79.9764C335.694 95.6668 327.935 114.786 320.431 133.276C314.907 146.888 309.196 160.962 301.089 173.857C267.457 227.436 188.164 254.104 127.935 232.078C109.682 225.403 93.5439 215.213 77.9368 205.359C72.1811 201.723 66.2296 197.966 60.2955 194.468C44.0339 184.927 23.1757 174.502 0.00390625 173.311V174.919C22.8086 176.119 43.4102 186.418 59.4824 195.846C65.3949 199.331 71.3361 203.083 77.0815 206.711C92.7591 216.61 108.971 226.847 127.385 233.581C141.933 238.9 157.574 241.41 173.432 241.408C223.938 241.405 276.566 215.937 302.446 174.707C310.627 161.694 316.366 147.553 321.916 133.878C329.684 114.737 337.022 96.6538 350.505 81.204C381.979 71.8764 414.913 73.9975 449.777 76.2395L454.471 76.5408C491.621 78.9075 534.362 80.4082 571.436 68.1874C579.867 65.3985 588.089 61.8093 596.04 58.3385C616.571 49.3794 635.967 40.9153 658.165 45.5152C704.441 55.1031 739.987 90.4586 774.363 124.65C778.33 128.597 782.279 132.523 786.223 136.39C795.607 145.58 804.99 154.441 814.109 162.726C854.342 199.319 891.597 226.311 924.838 242.951C934.881 247.982 944.42 252.196 954.002 255.83C969.965 261.891 986.792 266.452 1005.45 269.772C1024.22 273.116 1045.26 274.801 1067.62 274.801C1081 274.801 1094.85 274.198 1108.97 272.985C1112.15 272.716 1115.31 272.416 1118.46 272.079C1163.31 267.244 1201.91 255.196 1233.18 236.268C1261.26 219.269 1286.58 202.625 1323.49 176.907C1330.46 172.055 1337.63 166.98 1344.96 161.787C1380.37 136.726 1420.49 108.321 1459.99 89.4339C1473.2 83.1204 1485.5 78.1009 1497.62 74.0902C1535.4 61.581 1570.32 59.0927 1604.4 66.4808C1632.52 72.596 1661.37 86.8304 1687.83 107.643C1693.54 112.15 1699.42 117.166 1705.3 122.55C1722.64 138.41 1739.31 155.133 1755.44 171.304C1766.34 182.231 1776.63 192.553 1787.07 202.584L1787.56 203.06C1813.89 228.353 1841.11 254.506 1876.89 263.061C1890.08 266.213 1904.78 266.671 1919 264.076V262.452L1919 262.453Z" fill="#58637F"/>
</g>
<g style="mix-blend-mode:screen">
<path d="M1918.99 274.544C1904.4 276.997 1889.32 276.283 1875.82 272.808C1838.34 263.014 1809.79 234.057 1784.59 208.51C1775.13 198.912 1765.83 189.1 1755.98 178.713C1739.35 161.168 1722.16 143.024 1704.06 125.941C1698.21 120.416 1692.35 115.258 1686.63 110.61C1660.38 89.343 1631.37 74.4465 1602.72 67.5317C1568.34 59.2564 1531.72 60.7558 1493.84 71.9851C1481.48 75.6478 1468.5 80.5131 1455.25 86.4466C1408.2 107.511 1361.41 141.625 1317.5 174.763C1299.17 188.599 1283.93 200.541 1270.48 211.076C1255.4 222.89 1242.38 233.091 1228.49 243.281C1196.81 266.536 1158.26 281.037 1113.93 286.378C1110.88 286.742 1107.7 287.075 1104.45 287.371C1067.85 290.724 1031.93 288.606 1000.58 281.249C982.361 276.973 964.991 271.084 948.952 263.748C939.497 259.421 930.011 254.485 919.951 248.654C888.093 230.203 852.513 202.184 811.179 162.996C802.4 154.685 793.108 145.649 783.561 136.14C780.751 133.339 777.937 130.514 775.112 127.678C739.447 91.8767 702.569 54.8562 654.161 44.335C632.19 39.558 612.962 47.1578 592.602 55.201C585.224 58.1159 577.595 61.13 569.837 63.4974C533.389 74.5808 490.076 73.354 458.452 72.4585C423.59 71.4721 390.656 70.5382 359.052 81.8238L358.849 81.8967L358.71 82.0617C344.642 98.7148 336.925 118.947 329.462 138.513C323.95 152.964 318.251 167.906 310 181.572C276.21 237.619 192.471 265.942 130.804 242.185C111.826 234.95 95.0932 223.882 78.9109 213.179C72.9793 209.256 66.8456 205.198 60.7214 201.415C45.5486 192.079 23.9471 180.46 0.00195312 178.179V179.79C23.5582 182.082 44.8891 193.551 59.8796 202.775C65.9814 206.547 72.1049 210.596 78.0263 214.513C94.2808 225.263 111.089 236.383 130.23 243.679C160.195 255.223 197.11 255.156 231.513 243.499C265.875 231.852 294.983 209.581 311.372 182.397C319.697 168.609 325.422 153.599 330.958 139.083C338.689 118.815 345.993 99.6659 359.795 83.2573C391.055 72.1534 423.774 73.0776 458.406 74.0582C490.138 74.9551 533.601 76.1883 570.304 65.0275C578.124 62.6402 585.783 59.6146 593.191 56.6882C613.317 48.7378 632.328 41.2294 653.819 45.897C701.766 56.3191 738.475 93.1689 773.975 128.806C776.802 131.643 779.618 134.47 782.428 137.272C791.986 146.791 801.288 155.835 810.076 164.156C851.503 203.431 887.18 231.522 919.147 250.038C929.252 255.894 938.783 260.854 948.284 265.201C964.42 272.582 981.892 278.506 1000.21 282.805C1022.01 287.921 1046 290.518 1070.89 290.518C1081.98 290.518 1093.26 290.003 1104.59 288.964C1107.85 288.668 1111.06 288.332 1114.12 287.965C1158.73 282.591 1197.53 267.99 1229.44 244.57C1243.34 234.366 1256.38 224.156 1271.47 212.336C1284.91 201.804 1300.15 189.868 1318.47 176.037C1362.3 142.956 1409.01 108.901 1455.91 87.9057C1469.09 82.0022 1482.01 77.1619 1494.29 73.5197C1531.89 62.369 1568.24 60.8786 1602.34 69.0868C1630.76 75.9465 1659.56 90.735 1685.62 111.852C1691.31 116.474 1697.14 121.606 1702.95 127.105C1721.02 144.157 1738.2 162.284 1754.82 179.813C1764.67 190.207 1773.98 200.024 1783.45 209.633C1808.79 235.329 1837.51 264.451 1875.41 274.357C1889.04 277.864 1904.25 278.602 1918.99 276.161V274.546V274.544Z" fill="#4E5A77"/>
</g>
<g style="mix-blend-mode:screen">
<path d="M1918.99 286.39C1903.72 288.789 1888.05 287.874 1874.37 284.085C1837.77 273.831 1810.43 246.989 1781.01 215.568C1772.24 206.204 1763.66 196.685 1754.58 186.605C1737.72 167.9 1720.29 148.557 1701.73 130.493C1695.95 124.85 1690.13 119.574 1684.43 114.813C1658.6 93.2521 1629.64 77.799 1600.7 70.1244C1565.83 60.901 1528.78 61.3226 1490.57 71.3787C1477.87 74.721 1464.63 79.2639 1451.21 84.8801C1410.39 101.965 1365 131.086 1312.43 173.906C1289.19 192.848 1271.74 208.902 1254.87 224.426C1244.58 233.896 1234.86 242.841 1224.65 251.64C1192.53 279.335 1153.81 296.36 1109.58 302.243C1106.47 302.654 1103.27 303.018 1100.06 303.327C1064.08 306.83 1027.9 303.694 995.43 294.277C977.383 289.044 959.855 281.93 943.332 273.137C933.739 267.981 924.257 262.299 914.345 255.766C875.271 230.028 836.545 193.434 807.173 164.429C798.945 156.313 789.984 147.345 779.779 137.01L775.31 132.474C738.374 94.967 700.181 56.1822 649.834 44.7002C628.545 39.8426 609.64 46.4779 589.626 53.4995C582.849 55.8778 575.841 58.3366 568.745 60.3061C536.426 69.2378 499.997 69.5889 467.858 69.8985L462.331 69.9535C427.983 70.3156 397.196 71.6141 368.279 83.8938L368.097 83.9712L367.971 84.124C353.589 101.742 345.911 123.092 338.486 143.739C332.989 159.024 327.305 174.83 318.914 189.265C284.459 248.604 197.906 278.048 133.676 252.271C113.968 244.43 96.6188 232.484 79.8417 220.932C73.7469 216.736 67.4443 212.398 61.1475 208.339C45.8403 198.509 24.1825 186.294 0.00195312 183.096V184.713C23.7981 187.916 45.1591 199.974 60.2801 209.684C66.5552 213.727 72.8476 218.059 78.932 222.249C95.7827 233.85 113.207 245.849 133.082 253.756C197.991 279.803 285.475 250.044 320.3 190.068C328.764 175.508 334.473 159.632 339.993 144.28C347.69 122.878 354.961 102.66 369.088 85.2876C397.683 73.1954 428.246 71.9122 462.347 71.5527L467.874 71.4977C500.111 71.1868 536.65 70.835 569.172 61.8465C576.32 59.8635 583.354 57.395 590.156 55.0091C609.946 48.0649 628.637 41.5045 649.476 46.2591C699.365 57.6375 737.392 96.2527 774.167 133.595L778.637 138.132C788.847 148.472 797.812 157.446 806.045 165.566C835.47 194.623 874.271 231.285 913.462 257.1C923.414 263.66 932.936 269.366 942.575 274.547C959.197 283.394 976.83 290.55 994.982 295.814C1018.97 302.772 1044.97 306.318 1071.42 306.318C1080.98 306.318 1090.61 305.854 1100.22 304.92C1103.45 304.608 1106.67 304.241 1109.79 303.83C1154.34 297.905 1193.34 280.753 1225.7 252.851C1235.92 244.035 1245.65 235.082 1255.96 225.602C1272.81 210.093 1290.23 194.057 1313.45 175.146C1365.89 132.423 1411.15 103.379 1451.82 86.3552C1465.17 80.7671 1478.35 76.2479 1490.97 72.9248C1528.91 62.9403 1565.68 62.5181 1600.29 71.671C1629 79.2856 1657.75 94.6286 1683.4 116.04C1689.07 120.775 1694.86 126.022 1700.62 131.638C1719.14 149.667 1736.55 168.989 1753.39 187.676C1762.48 197.76 1771.06 207.286 1779.84 216.663C1809.43 248.26 1836.93 275.26 1873.93 285.627C1887.75 289.454 1903.56 290.392 1918.99 288.001V286.392L1918.99 286.39Z" fill="#455170"/>
</g>
<g style="mix-blend-mode:screen">
<path d="M1918.99 298.507C1903.2 300.747 1887.02 299.538 1872.91 295.373C1834.33 283.881 1805.73 254.41 1777.43 222.636C1769.15 213.338 1760.7 203.491 1752.54 193.968C1735.66 174.279 1718.21 153.918 1699.41 135.054C1693.68 129.287 1687.9 123.894 1682.24 119.026C1656.81 97.1825 1627.91 81.173 1598.67 72.7275C1563.17 62.4916 1525.69 61.8379 1487.29 70.7823C1474.41 73.7369 1460.9 77.9568 1447.16 83.3248C1391.38 105.109 1340.35 144.149 1307.37 173.061C1283.23 194.22 1265.36 213.26 1248.07 231.674C1238.84 241.516 1230.11 250.812 1220.82 260.007C1188.37 292.134 1149.48 311.686 1105.22 318.121C1102.11 318.572 1098.9 318.966 1095.68 319.295C1060.13 322.948 1023.68 318.81 990.279 307.32C972.143 301.079 954.454 292.742 937.705 282.537C928.184 276.693 918.708 270.265 908.735 262.888C871.955 235.698 834.956 198.553 803.165 165.872C797.442 159.996 791.655 154.029 785.819 148.013L775.997 137.889C737.729 98.4554 698.159 57.6788 645.507 45.0755C624.804 40.1219 606.137 45.7906 586.373 51.7951C580.287 53.6438 573.995 55.5551 567.654 57.1255C539.808 63.9859 508.601 65.4455 481.069 66.7332C476.023 66.9692 471.058 67.2008 466.207 67.4592C430.375 69.3712 403.037 73.1369 377.504 85.9781L377.236 86.1963C362.536 104.78 354.897 127.25 347.509 148.98C342.028 165.099 336.361 181.767 327.832 196.968C292.716 259.611 203.331 290.175 136.55 262.369C116.118 253.922 98.1585 241.102 80.791 228.703C74.5274 224.231 68.0514 219.609 61.5742 215.275C46.1275 204.972 24.4161 192.2 0.00390625 188.125V189.739C24.0156 193.808 45.4303 206.429 60.6831 216.604C67.1392 220.924 73.6056 225.54 79.859 230.003C97.3 242.454 115.335 255.331 135.934 263.846C152.978 270.941 171.472 274.275 190.177 274.274C245.537 274.27 302.705 245.065 329.228 197.748C337.83 182.42 343.522 165.68 349.025 149.494C356.351 127.947 363.925 105.668 378.383 87.3259C403.622 74.674 430.742 70.9531 466.293 69.0565C471.142 68.7974 476.102 68.5652 481.144 68.3291C508.75 67.0383 540.04 65.576 568.039 58.6773C574.422 57.0973 580.735 55.179 586.839 53.3246C606.389 47.3853 624.855 41.7767 645.133 46.6305C697.333 59.1257 736.739 99.7322 774.847 139.002L784.669 149.125C790.506 155.141 796.294 161.109 802.016 166.986C833.852 199.713 870.904 236.911 907.782 264.173C917.792 271.579 927.306 278.03 936.87 283.9C953.718 294.167 971.513 302.555 989.757 308.831C1015.44 317.668 1042.92 322.185 1070.41 322.185C1078.9 322.185 1087.4 321.753 1095.84 320.885C1099.09 320.555 1102.32 320.157 1105.45 319.704C1150.06 313.218 1189.25 293.516 1221.95 261.144C1231.26 251.927 1240 242.62 1249.24 232.766C1266.5 214.382 1284.34 195.37 1308.43 174.263C1341.32 145.434 1392.18 106.514 1447.74 84.8146C1461.41 79.474 1474.84 75.2772 1487.65 72.3399C1525.79 63.4588 1562.99 64.1035 1598.23 74.264C1627.25 82.6461 1655.94 98.5431 1681.2 120.237C1686.82 125.079 1692.57 130.443 1698.28 136.18C1717.03 155.004 1734.47 175.34 1751.32 195.008C1759.49 204.536 1767.94 214.389 1776.23 223.698C1804.69 255.652 1833.47 285.294 1872.46 296.906C1886.7 301.109 1903.03 302.341 1918.99 300.107V298.507Z" fill="#3B4868"/>
</g>
<g style="mix-blend-mode:screen">
<path d="M1918.99 310.61C1902.68 312.694 1885.99 311.192 1871.46 306.657C1830.82 293.872 1800.95 261.629 1773.84 229.699C1765.89 220.329 1757.82 210.444 1750.02 200.883C1733.28 180.355 1715.96 159.128 1697.09 139.609C1691.42 133.732 1685.69 128.221 1680.05 123.233C1655.02 101.12 1626.19 84.5542 1596.65 75.3258C1560.67 64.0991 1522.77 62.3662 1484.02 70.1822C1470.62 72.8407 1456.86 76.7382 1443.12 81.7646C1396.35 98.6761 1346.34 130.797 1302.3 172.21C1278.18 194.889 1260.41 216.488 1243.23 237.376C1234.37 248.136 1226.01 258.299 1217 268.369C1184.29 304.92 1145.22 326.999 1100.87 333.992C1097.76 334.481 1094.54 334.905 1091.3 335.255C1056.04 339.08 1019.32 333.926 985.125 320.357C966.858 313.108 949.008 303.544 932.075 291.933C922.61 285.405 913.139 278.234 903.12 270.007C868.951 241.959 836.122 206.848 801.365 169.674L799.157 167.311C791.828 159.481 782.144 149.158 772.214 138.765C732.242 96.8991 692.144 58.2589 641.18 45.4464C620.929 40.3554 602.351 45.0684 582.683 50.0597C577.434 51.3915 572.006 52.7687 566.565 53.9386C543.697 58.8289 519.356 60.8028 495.815 62.7116C486.847 63.4389 478.375 64.1253 470.078 64.9619C442.244 67.7681 412.881 72.5087 386.724 88.0622L386.499 88.263C371.477 107.814 363.875 131.406 356.522 154.221C351.059 171.171 345.411 188.699 336.744 204.664C300.974 270.623 208.767 302.303 139.417 272.459C118.269 263.409 99.7058 249.717 81.7542 236.474C75.316 231.724 68.659 226.815 61.9963 222.205C46.4109 211.444 24.6252 198.126 0.00195312 193.227V194.868C24.2203 199.766 45.697 212.896 61.0854 223.519C67.727 228.115 74.3751 233.019 80.8024 237.76C98.8282 251.056 117.467 264.805 138.785 273.929C172.021 288.231 212.98 288.899 251.162 275.768C289.32 262.643 321.026 237.003 338.153 205.426C346.889 189.33 352.561 171.73 358.047 154.711C365.343 132.072 372.885 108.667 387.676 89.3581C413.532 74.0266 442.636 69.3366 470.24 66.5535C478.52 65.7187 486.984 65.0323 495.945 64.305C519.537 62.3931 543.931 60.4146 566.901 55.5019C572.374 54.325 577.815 52.9446 583.078 51.6096C602.545 46.6688 620.929 42.0051 640.789 46.997C691.338 59.7052 731.251 98.1791 771.054 139.869C780.979 150.257 790.661 160.574 797.986 168.403L800.194 170.764C834.988 207.979 867.853 243.128 902.103 271.242C912.155 279.497 921.662 286.695 931.166 293.249C948.2 304.929 966.154 314.549 984.533 321.843C1011.59 332.578 1040.21 338.081 1068.46 338.081C1076.17 338.081 1083.85 337.671 1091.47 336.846C1094.73 336.492 1097.98 336.064 1101.12 335.573C1145.84 328.518 1185.23 306.266 1218.19 269.434C1227.23 259.341 1235.6 249.165 1244.46 238.391C1261.62 217.542 1279.36 195.983 1303.4 173.375C1347.29 132.108 1397.1 100.107 1443.66 83.2666C1457.33 78.2676 1471.02 74.3932 1484.33 71.7501C1522.82 63.9877 1560.45 65.7052 1596.17 76.852C1625.49 86.0133 1654.13 102.465 1678.99 124.43C1684.59 129.39 1690.3 134.87 1695.94 140.719C1714.76 160.189 1732.06 181.39 1748.78 201.891C1756.59 211.458 1764.66 221.351 1772.62 230.732C1799.88 262.84 1829.93 295.269 1870.98 308.182C1885.66 312.766 1902.5 314.294 1919 312.215V310.61L1918.99 310.61Z" fill="#313F61"/>
</g>
<g style="mix-blend-mode:screen">
<path d="M1919 322.714C1902.15 324.642 1884.96 322.847 1870.01 317.935C1827.21 303.796 1796.08 268.617 1770.26 236.754C1762.52 227.201 1754.71 217.154 1747.16 207.438C1730.66 186.192 1713.59 164.22 1694.77 144.159C1689.16 138.161 1683.46 132.534 1677.86 127.435C1653.24 105.062 1624.46 87.9397 1594.63 77.9181C1558.16 65.6794 1519.84 62.8738 1480.75 69.5762C1467.04 71.8918 1453.02 75.4662 1439.07 80.1985C1389.45 96.879 1339.08 129.252 1297.24 171.353C1273.49 195.252 1256.02 219.181 1239.12 242.321C1230.4 254.263 1222.16 265.541 1213.18 276.721C1180.26 317.694 1141.01 342.301 1096.52 349.858C1093.39 350.387 1090.16 350.842 1086.91 351.21C1051.85 355.204 1014.88 349.041 979.972 333.388C961.541 325.125 943.531 314.337 926.443 301.323C916.993 294.094 907.527 286.177 897.505 277.118C868.589 250.994 841.3 220.412 812.408 188.034C806.703 181.64 800.958 175.201 795.152 168.744C785.441 157.951 776.7 148.428 768.433 139.633C731.093 99.8867 690.175 59.9019 636.856 45.8114C616.816 40.5163 598.071 44.2845 578.227 48.2754C574.069 49.1114 569.768 49.9769 565.481 50.7458C548.545 53.7669 530.692 55.7134 513.429 57.5953C499.584 59.1056 486.506 60.5307 473.949 62.4606L471.286 62.8693C443.695 67.0943 415.165 71.4632 395.848 90.2278C376.549 108.976 369.644 135.718 362.966 161.579C358.509 178.845 353.899 196.697 345.662 212.352C309.876 280.419 212.943 313.874 142.289 282.544C120.425 272.89 101.26 258.324 82.724 244.239C76.1099 239.212 69.2706 234.015 62.4211 229.126C46.6968 217.925 24.8331 204.096 0.00390625 198.407V200.052C24.4269 205.733 45.9663 219.37 61.4904 230.429C68.3201 235.301 75.1497 240.491 81.7536 245.51C100.363 259.652 119.605 274.276 141.64 284.006C175.963 299.226 218.271 300.141 257.712 286.517C297.136 272.899 329.709 246.137 347.081 213.096C355.403 197.277 360.037 179.333 364.518 161.98C371.444 135.151 377.988 109.809 396.965 91.3747C415.914 72.9671 442.929 68.8304 471.529 64.4506L474.193 64.0425C486.716 62.1177 499.776 60.6945 513.603 59.1868C530.894 57.3017 548.773 55.3526 565.763 52.3213C570.068 51.5492 574.376 50.6825 578.544 49.8445C598.197 45.8901 616.762 42.1558 636.446 47.3581C689.355 61.3406 730.083 101.151 767.265 140.729C775.525 149.515 784.257 159.03 793.96 169.814C799.765 176.27 805.51 182.707 811.213 189.099C840.133 221.51 867.451 252.124 896.431 278.307C906.486 287.395 915.985 295.339 925.47 302.594C942.658 315.684 960.773 326.536 979.315 334.849C1007.52 347.499 1037.08 353.996 1065.91 353.994C1073.02 353.994 1080.1 353.599 1087.09 352.802C1090.37 352.431 1093.63 351.971 1096.79 351.437C1141.67 343.811 1181.26 319.011 1214.43 277.723C1223.44 266.515 1231.68 255.222 1240.41 243.264C1257.28 220.173 1274.71 196.295 1298.38 172.483C1340.04 130.554 1390.19 98.3195 1439.59 81.7164C1453.45 77.0097 1467.39 73.4564 1481.02 71.1549C1519.85 64.496 1557.9 67.2818 1594.12 79.4367C1623.74 89.3866 1652.32 106.395 1676.78 128.618C1682.35 133.689 1688.02 139.286 1693.6 145.253C1712.37 165.26 1729.42 187.202 1745.9 208.42C1753.45 218.142 1761.26 228.196 1769.01 237.761C1794.98 269.801 1826.3 305.177 1869.51 319.454C1884.61 324.415 1901.97 326.239 1919 324.316V322.716V322.714Z" fill="#273659"/>
</g>
<g style="mix-blend-mode:screen">
<path d="M1919 334.823C1901.63 336.593 1883.93 334.505 1868.55 329.22C1825.69 314.423 1794.26 279.429 1766.67 243.819C1759.06 233.99 1751.43 223.685 1744.06 213.719C1727.87 191.847 1711.13 169.229 1692.45 148.715C1686.88 142.588 1681.23 136.845 1675.67 131.645C1651.45 109.023 1622.73 91.3438 1592.61 80.52C1556.17 67.437 1516.35 63.4474 1477.47 68.9811C1463.45 70.9487 1449.17 74.2002 1435.02 78.6445C1383.69 94.6432 1331.62 128.126 1292.17 170.508C1268.95 195.464 1251.87 221.56 1235.35 246.795C1226.66 260.083 1218.44 272.636 1209.37 285.08C1176.26 330.471 1136.83 357.607 1092.16 365.733C1089.02 366.303 1085.78 366.79 1082.53 367.179C1047.52 371.35 1010.27 364.184 974.809 346.432C956.288 337.228 938.118 325.212 920.803 310.722C911.372 302.806 901.912 294.144 891.883 284.242C866.837 259.517 843.56 231.968 818.918 202.8C809.894 192.122 800.563 181.077 791.141 170.186C781.75 159.339 773.085 149.633 764.648 140.513C727.43 100.258 685.664 60.9687 632.528 46.1873C612.214 40.5346 592.79 43.3984 572.226 46.4292C569.628 46.8129 567.019 47.1967 564.396 47.5652C555.401 48.8196 546.06 49.9646 537.027 51.0718C517.049 53.5198 496.391 56.0509 477.81 59.9734C449.816 65.9856 423.189 72.9835 405.088 92.3174C386.154 112.54 379.156 140.066 372.39 166.686C367.788 184.786 363.031 203.503 354.577 220.053C318.151 291.396 218.334 325.993 145.155 292.638C122.581 282.38 102.814 266.944 83.6995 252.016C76.9062 246.711 69.8821 241.225 62.8419 236.059C46.9725 224.429 25.0442 210.11 0.00195312 203.669V205.32C24.6233 211.745 46.2298 225.87 61.8933 237.347C68.9136 242.499 75.9295 247.978 82.7125 253.277C101.902 268.261 121.744 283.757 144.492 294.094C179.905 310.232 223.559 311.395 264.261 297.279C304.948 283.166 338.388 255.283 356.004 220.78C364.541 204.07 369.322 185.266 373.944 167.08C380.97 139.44 387.606 113.333 406.26 93.4093C424.045 74.4145 450.413 67.4939 478.146 61.5374C496.656 57.6303 517.28 55.1024 537.224 52.6595C546.263 51.5516 555.61 50.4059 564.62 49.149C567.247 48.7805 569.859 48.3948 572.46 48.0123C592.852 45.0059 612.11 42.1677 632.099 47.7276C684.849 62.4015 726.414 101.515 763.472 141.598C771.896 150.705 780.551 160.397 789.93 171.232C799.345 182.115 808.673 193.155 817.694 203.832C842.361 233.028 865.66 260.604 890.757 285.378C900.817 295.31 910.309 304.001 919.774 311.945C937.186 326.519 955.462 338.603 974.094 347.863C1003.21 362.438 1033.53 369.936 1062.87 369.936C1069.55 369.936 1076.17 369.548 1082.72 368.766C1086 368.373 1089.28 367.883 1092.45 367.307C1137.53 359.103 1177.31 331.756 1210.66 286.021C1219.76 273.546 1227.99 260.978 1236.69 247.67C1253.17 222.491 1270.21 196.453 1293.35 171.597C1332.61 129.413 1384.42 96.0901 1435.5 80.1714C1449.57 75.7533 1463.76 72.5217 1477.7 70.5656C1516.33 65.0677 1555.87 69.031 1592.07 82.0258C1621.98 92.7773 1650.51 110.339 1674.57 132.814C1680.1 137.984 1685.72 143.696 1691.27 149.792C1709.89 170.245 1726.6 192.83 1742.77 214.67C1750.15 224.643 1757.78 234.957 1765.4 244.798C1793.14 280.604 1824.77 315.798 1868.03 330.732C1884.01 336.23 1901.88 338.129 1919 336.355V334.824V334.823Z" fill="#1D2C52"/>
</g>
<g style="mix-blend-mode:screen">
<path d="M1919 346.662C1901.17 348.386 1882.96 346.197 1867.1 340.508C1821.98 324.297 1789.2 286.105 1763.08 250.885C1755.54 240.708 1748.03 230.068 1740.77 219.776C1724.96 197.357 1708.61 174.174 1690.13 153.277C1684.62 147.046 1679.02 141.186 1673.47 135.859C1649.66 112.998 1620.99 94.764 1590.58 83.1259C1553.68 69.0085 1513.43 63.9124 1474.2 68.3881C1459.87 70.0045 1445.33 72.9329 1430.98 77.0913C1377.47 92.504 1325.04 126.245 1287.11 169.665C1264.48 195.576 1247.84 223.711 1231.75 250.919C1223.41 265.027 1214.79 279.616 1205.56 293.437C1172.3 343.245 1132.68 372.911 1087.81 381.61C1084.64 382.224 1081.38 382.74 1078.15 383.145C1043.28 387.501 1005.76 379.314 969.65 359.475C950.878 349.21 932.546 335.97 915.163 320.121C905.719 311.496 896.265 302.088 886.261 291.364C864.085 267.594 843.75 242.06 822.221 215.029C810.868 200.772 799.127 186.031 787.133 171.631C777.989 160.653 769.397 150.763 760.867 141.392C728.546 105.878 684.26 63.0034 628.205 46.564C606.431 40.1795 584.514 42.3166 563.319 44.3853C535.775 47.0553 506.82 50.4902 481.672 57.4901C458.261 64.0748 431.953 73.6103 414.334 94.4096C395.958 116.103 388.835 144.319 381.948 171.606C377.154 190.598 372.197 210.236 363.496 227.751C326.434 302.375 223.736 338.12 148.025 302.734C124.745 291.874 104.385 275.572 84.6942 259.805C77.7167 254.218 70.5013 248.439 63.2641 242.992C47.2572 230.952 25.2252 216.165 0.00390625 209.002V210.659C24.8158 217.796 46.4973 232.383 62.3008 244.27C69.5175 249.703 76.7233 255.471 83.6925 261.053C103.456 276.878 123.893 293.242 147.347 304.184C167.579 313.638 189.708 318.064 212.025 318.062C274.034 318.058 337.409 283.876 364.93 228.461C373.709 210.793 378.687 191.069 383.502 171.997C390.345 144.886 397.421 116.853 415.559 95.4421C432.898 74.9722 458.93 65.548 482.105 59.0298C507.131 52.0632 536.003 48.6391 563.475 45.9761C584.518 43.9222 606.278 41.7985 627.753 48.0973C683.426 64.4254 727.502 107.107 759.682 142.468C768.196 151.821 776.773 161.694 785.903 172.651C797.885 187.039 809.62 201.775 820.968 216.023C842.517 243.081 862.871 268.636 885.09 292.454C895.123 303.209 904.607 312.646 914.084 321.3C931.56 337.236 949.997 350.551 968.88 360.876C998.921 377.38 1029.94 385.882 1059.65 385.882C1065.95 385.881 1072.19 385.5 1078.34 384.731C1081.62 384.322 1084.91 383.801 1088.12 383.18C1133.42 374.396 1173.39 344.5 1206.89 294.324C1216.15 280.467 1224.78 265.859 1233.14 251.731C1249.19 224.586 1265.78 196.516 1288.32 170.714C1326.05 127.522 1378.21 93.9574 1431.43 78.6272C1445.69 74.4937 1460.14 71.5832 1474.38 69.9776C1513.36 65.5262 1553.34 70.593 1590.01 84.6183C1620.22 96.1802 1648.7 114.297 1672.36 137.01C1677.88 142.308 1683.45 148.136 1688.93 154.335C1707.35 175.165 1723.68 198.312 1739.46 220.697C1746.73 230.995 1754.24 241.643 1761.8 251.836C1788.06 287.249 1821.04 325.655 1866.56 342.012C1882.95 347.89 1901.33 350.062 1919 348.416V346.661L1919 346.662Z" fill="#14234A"/>
</g>
<g style="mix-blend-mode:screen">
<path d="M1919 358.76C1900.65 360.333 1881.93 357.857 1865.64 351.794C1818.08 334.067 1783.93 292.33 1759.49 257.949C1751.97 247.356 1744.54 236.314 1737.36 225.633C1721.96 202.735 1706.04 179.056 1687.81 157.836C1682.35 151.475 1676.78 145.497 1671.28 140.069C1647.87 116.983 1619.26 98.1917 1588.56 85.7272C1551.18 70.5576 1510.51 64.3541 1470.92 67.7943C1456.3 69.0544 1441.49 71.6591 1426.93 75.5361C1371.29 90.3015 1318.48 124.301 1282.05 168.815C1260.06 195.501 1243.96 225.495 1228.38 254.5C1219.95 270.197 1211.24 286.427 1201.75 301.789C1178.85 339.055 1139.74 385.908 1083.46 397.486C1080.27 398.141 1077.01 398.686 1073.76 399.109C1039 403.637 1001.21 394.441 964.486 372.517C945.448 361.176 926.954 346.71 909.52 329.517C900.038 320.158 890.589 310.007 880.636 298.482C860.618 275.305 841.634 249.962 823.276 225.455C810.331 208.173 796.946 190.305 783.124 173.07C774.17 161.907 765.652 151.832 757.084 142.269C711.349 91.2188 669.023 60.9256 623.881 46.938C602.276 40.2433 580.6 40.2836 562.244 41.2028C533.046 42.6574 507.236 47.302 485.53 55.0087C457.503 65.0073 437.239 78.5796 423.579 96.5011C405.967 119.608 398.695 148.4 391.663 176.244C386.618 196.218 381.402 216.871 372.412 235.448C334.715 313.365 229.134 350.245 150.892 312.826C126.907 301.366 105.951 284.194 85.685 267.589C78.522 261.72 71.116 255.652 63.6837 249.923C47.5354 237.48 25.4139 222.223 0.00195312 214.371V216.039C19.4855 222.165 40.0206 233.711 62.7044 251.189C70.1181 256.903 77.5145 262.964 84.6679 268.825C105.008 285.492 126.039 302.726 150.2 314.27C229.196 352.046 335.794 314.81 373.854 236.145C382.914 217.422 388.15 196.688 393.215 176.636C400.208 148.948 407.439 120.318 424.853 97.4702C438.318 79.8027 458.343 66.4068 486.067 56.5157C507.624 48.8621 533.28 44.2482 562.323 42.8013C580.534 41.884 602.039 41.845 623.405 48.4662C668.257 62.3641 710.355 92.5102 755.889 143.337C764.437 152.877 772.936 162.93 781.873 174.07C795.678 191.285 809.055 209.142 821.992 226.412C840.367 250.944 859.367 276.308 879.421 299.525C889.403 311.084 898.88 321.266 908.392 330.655C925.918 347.938 944.515 362.485 963.664 373.89C994.545 392.325 1026.19 401.835 1056.22 401.833C1062.21 401.833 1068.13 401.455 1073.97 400.696C1077.26 400.268 1080.56 399.715 1083.78 399.051C1140.62 387.359 1180.05 340.162 1203.12 302.628C1212.62 287.225 1221.35 270.973 1229.79 255.256C1245.33 226.318 1261.4 196.395 1283.29 169.829C1319.51 125.568 1372.02 91.7631 1427.34 77.0815C1441.82 73.2282 1456.53 70.6395 1471.06 69.387C1510.39 65.9718 1550.81 72.1331 1587.96 87.2087C1618.47 99.5939 1646.89 118.266 1670.15 141.205C1675.63 146.603 1681.16 152.548 1686.59 158.875C1704.76 180.023 1720.66 203.662 1736.03 226.522C1743.22 237.212 1750.65 248.263 1758.19 258.872C1782.76 293.44 1817.11 335.411 1865.08 353.292C1881.54 359.418 1900.44 361.927 1918.99 360.352V358.759L1919 358.76Z" fill="#0A1A43"/>
</g>
<g style="mix-blend-mode:screen">
<path d="M1919 370.862C1900.12 372.284 1880.9 369.521 1864.18 363.079C1813.85 343.679 1778.28 297.82 1755.91 265.012C1748.37 253.963 1741.01 242.477 1733.88 231.369C1714.57 201.257 1694.61 170.12 1669.09 144.279C1617 91.5399 1541.69 62.7275 1467.65 67.2C1393.6 71.6732 1322.32 109.344 1276.99 167.968C1255.63 195.588 1239.95 227.472 1224.79 258.306C1216.33 275.503 1207.58 293.287 1197.95 310.141C1174.9 350.452 1135.57 401.082 1079.1 413.361C1000.47 430.447 930.367 366.99 903.873 338.913C873.577 306.805 847.7 270.043 822.675 234.49C808.681 214.609 794.212 194.051 779.114 174.51C726.275 106.12 675.575 65.7026 619.558 47.3135C586.421 36.436 549.712 35.0429 516.192 43.3854C480.167 52.3528 451.339 71.4442 432.825 98.5961C416.183 123.001 408.752 152.226 401.565 180.487C396.203 201.572 390.659 223.375 381.329 243.144C363.156 281.652 327.453 312.598 283.378 328.049C239.302 343.502 192.059 341.631 153.759 322.919C129.07 310.857 107.52 292.818 86.6803 275.374C79.3318 269.222 71.7333 262.863 64.1033 256.852C41.0032 238.656 19.9972 226.455 0.00195312 219.771V221.476C19.664 228.137 40.3616 240.188 63.1119 258.108C70.7226 264.103 78.3122 270.456 85.6511 276.6C106.564 294.106 128.19 312.207 153.055 324.356C191.737 343.254 239.432 345.149 283.907 329.558C328.386 313.966 364.423 282.717 382.778 243.825C392.173 223.918 397.737 202.039 403.116 180.88C410.269 152.753 417.666 123.668 434.148 99.4954C474.882 39.7566 558.004 28.7895 619.056 48.8327C674.755 67.1163 725.21 107.361 777.845 175.488C792.92 195 807.38 215.543 821.363 235.409C846.42 271.008 872.331 307.818 902.706 340.009C926.291 365.005 984.214 417.842 1052.2 417.838C1061.12 417.838 1070.23 416.926 1079.44 414.923C1136.49 402.518 1176.13 351.526 1199.34 310.934C1209 294.036 1217.76 276.23 1226.22 259.01C1241.35 228.248 1257 196.438 1278.26 168.946C1323.31 110.683 1394.15 73.2436 1467.74 68.7967C1541.33 64.358 1616.18 92.9881 1667.94 145.403C1693.35 171.124 1713.27 202.189 1732.53 232.232C1739.66 243.349 1747.03 254.845 1754.58 265.913C1777.07 298.897 1812.85 345.011 1863.61 364.574C1880.49 371.08 1899.91 373.876 1918.99 372.453V370.863L1919 370.862Z" fill="#070E1B"/>
</g>
</g>
</svg>
