<svg width="1159" height="182" viewBox="0 0 1159 182" fill="none" xmlns="http://www.w3.org/2000/svg">
<path d="M84.7524 181.615C67.3992 181.615 52.4161 177.839 39.8029 170.287C27.2701 162.736 17.5893 152.171 10.7605 138.594C4.01205 125.017 0.637825 109.23 0.637825 91.2343C0.637825 73.2384 4.01205 57.4519 10.7605 43.8747C17.5893 30.2974 27.2701 19.7329 39.8029 12.1811C52.4161 4.62925 67.3992 0.853333 84.7524 0.853333C104.676 0.853333 121.387 5.79415 134.884 15.6758C148.461 25.5575 158.021 38.9338 163.565 55.8049L130.545 64.9636C127.332 54.4392 121.909 46.2848 114.277 40.5004C106.645 34.6357 96.8032 31.7034 84.7524 31.7034C73.746 31.7034 64.5472 34.1537 57.1561 39.0544C49.8452 43.955 44.342 50.8641 40.6465 59.7817C36.9509 68.6993 35.1031 79.1835 35.1031 91.2343C35.1031 103.285 36.9509 113.769 40.6465 122.687C44.342 131.604 49.8452 138.514 57.1561 143.414C64.5472 148.315 73.746 150.765 84.7524 150.765C96.8032 150.765 106.645 147.833 114.277 141.968C121.909 136.103 127.332 127.949 130.545 117.505L163.565 126.664C158.021 143.535 148.461 156.911 134.884 166.793C121.387 176.674 104.676 181.615 84.7524 181.615ZM264.573 181.615C247.22 181.615 232.237 177.839 219.623 170.287C207.091 162.736 197.41 152.171 190.581 138.594C183.832 125.017 180.458 109.23 180.458 91.2343C180.458 73.2384 183.832 57.4519 190.581 43.8747C197.41 30.2974 207.091 19.7329 219.623 12.1811C232.237 4.62925 247.22 0.853333 264.573 0.853333C281.926 0.853333 296.869 4.62925 309.402 12.1811C322.015 19.7329 331.696 30.2974 338.444 43.8747C345.273 57.4519 348.687 73.2384 348.687 91.2343C348.687 109.23 345.273 125.017 338.444 138.594C331.696 152.171 322.015 162.736 309.402 170.287C296.869 177.839 281.926 181.615 264.573 181.615ZM264.573 150.765C275.579 150.926 284.738 148.556 292.049 143.655C299.359 138.755 304.822 131.805 308.438 122.807C312.133 113.809 313.981 103.285 313.981 91.2343C313.981 79.1835 312.133 68.7395 308.438 59.9022C304.822 51.065 299.359 44.196 292.049 39.2954C284.738 34.3947 275.579 31.864 264.573 31.7034C253.566 31.5427 244.408 33.9127 237.097 38.8133C229.786 43.714 224.283 50.6633 220.587 59.6612C216.972 68.6591 215.165 79.1835 215.165 91.2343C215.165 103.285 216.972 113.729 220.587 122.566C224.283 131.404 229.786 138.273 237.097 143.173C244.408 148.074 253.566 150.605 264.573 150.765ZM372.744 178V4.46857H406.004L481.442 120.156V4.46857H514.702V178H481.442L406.004 62.3124V178H372.744ZM588.577 178V35.0776H533.867V4.46857H676.066V35.0776H621.355V178H588.577ZM678.674 178L731.697 4.46857H780.624L833.647 178H799.905L752.666 24.9549H758.932L712.416 178H678.674ZM710.488 141.848V111.239H802.074V141.848H710.488ZM925.013 181.615C907.66 181.615 892.676 177.839 880.063 170.287C867.53 162.736 857.85 152.171 851.021 138.594C844.272 125.017 840.898 109.23 840.898 91.2343C840.898 73.2384 844.272 57.4519 851.021 43.8747C857.85 30.2974 867.53 19.7329 880.063 12.1811C892.676 4.62925 907.66 0.853333 925.013 0.853333C944.937 0.853333 961.647 5.79415 975.144 15.6758C988.721 25.5575 998.282 38.9338 1003.82 55.8049L970.806 64.9636C967.592 54.4392 962.169 46.2848 954.537 40.5004C946.905 34.6357 937.064 31.7034 925.013 31.7034C914.006 31.7034 904.808 34.1537 897.416 39.0544C890.106 43.955 884.602 50.8641 880.907 59.7817C877.211 68.6993 875.363 79.1835 875.363 91.2343C875.363 103.285 877.211 113.769 880.907 122.687C884.602 131.604 890.106 138.514 897.416 143.414C904.808 148.315 914.006 150.765 925.013 150.765C937.064 150.765 946.905 147.833 954.537 141.968C962.169 136.103 967.592 127.949 970.806 117.505L1003.82 126.664C998.282 143.535 988.721 156.911 975.144 166.793C961.647 176.674 944.937 181.615 925.013 181.615ZM1070.61 178V35.0776H1015.9V4.46857H1158.1V35.0776H1103.39V178H1070.61Z" fill="url(#paint0_linear_579_279)" fill-opacity="0.62"/>
<defs>
<linearGradient id="paint0_linear_579_279" x1="577.5" y1="-234.5" x2="609.395" y2="330.198" gradientUnits="userSpaceOnUse">
<stop stop-color="#4E9BD0"/>
<stop offset="1" stop-color="#060E1B" stop-opacity="0"/>
</linearGradient>
</defs>
</svg>
