<svg width="164" height="93" viewBox="0 0 164 93" fill="none" xmlns="http://www.w3.org/2000/svg">
<g clip-path="url(#clip0_2241_32)">
<path d="M52.4389 37.5063L50.8418 36.5859C51.3523 36.9345 51.886 37.2421 52.4389 37.5063Z" fill="#2A97E2"/>
<path d="M118.5 26.3913C118.5 28.2081 118.1 30.0031 117.335 31.6406C116.316 33.8259 114.647 35.7305 112.416 37.0299L102.234 42.96L87.9819 51.261C86.2158 52.2892 84.2482 52.8117 82.2765 52.827C80.2753 52.8428 78.2705 52.336 76.4702 51.3061L72.2388 48.8853L72.2115 48.8701C71.8904 48.6879 71.5564 48.4981 71.2115 48.3018C69.4111 47.2777 67.3175 46.0773 65.2013 44.8599L65.1856 44.8505C64.1193 44.2371 63.0478 43.6191 62.0048 43.0174L61.5384 42.7485L52.4392 37.505L50.8422 36.5847C50.51 36.3585 50.1876 36.1142 49.877 35.8535L53.3121 31.9552L63.5188 30.9335L67.7659 31.3588L70.5773 31.6406L72.6535 31.8486L73.0106 31.6406L77.4987 29.0271L82.2765 26.2443L82.8271 25.9238L87.469 23.2201V23.2195L100.251 15.775C103.797 13.7099 107.945 13.6501 111.405 15.2472C113.622 16.2701 115.557 17.9743 116.868 20.2668C117.975 22.1995 118.5 24.3092 118.5 26.3913Z" fill="url(#paint0_linear_2241_32)"/>
<path d="M82.2765 26.2461V52.8288C80.2753 52.8446 78.2705 52.3378 76.4702 51.3079L72.2388 48.8871L72.2115 48.8719C71.8904 48.6897 71.5564 48.4999 71.2115 48.3036C69.4111 47.2795 67.3175 46.0791 65.2013 44.8617L65.1856 44.8523C64.1193 44.2389 63.0478 43.6209 62.0048 43.0192L61.5385 42.7503L52.4392 37.5069L50.8422 36.5865C50.51 36.3603 50.1876 36.116 49.877 35.8553L53.3121 31.957L63.5188 30.9353L72.6535 31.8504L82.2765 26.2461Z" fill="url(#paint1_linear_2241_32)"/>
<path d="M105.403 11.7793C105.297 11.7178 105.19 11.6563 105.082 11.5936L104.302 11.1425C102.581 10.1477 100.689 9.05627 98.8148 7.97711L98.7991 7.96774C96.6829 6.75033 94.5893 5.54991 92.7889 4.52583C92.444 4.32957 92.11 4.13975 91.7889 3.95755L91.7616 3.94232L87.5302 1.52156C83.9563 -0.52308 79.5768 -0.506095 76.0185 1.56667L67.7655 6.37363L61.7663 9.86768L51.5845 15.7977C47.6819 18.0708 45.5 22.1953 45.5 26.4363C45.5 28.5184 46.0256 30.6281 47.1319 32.5609C47.8701 33.8503 48.8051 34.9541 49.8766 35.8551C50.1873 36.1158 50.5096 36.3601 50.8418 36.5863L52.4388 37.5067C55.7648 39.1002 59.7534 39.1482 63.2362 37.335C63.4087 37.2454 63.5794 37.1516 63.749 37.0526L72.6775 31.8526L73.0387 31.6422L76.5313 29.6081V29.6076L82.2761 26.2617L82.8296 25.9395L82.8267 25.9254L87.4686 23.2217V23.2211L100.251 15.7766C103.797 13.7115 107.945 13.6517 111.404 15.2488L105.403 11.7793Z" fill="url(#paint2_linear_2241_32)"/>
<path d="M111.405 15.2488C107.945 13.6517 103.797 13.7115 100.251 15.7766L87.4688 23.2211V23.2217L82.8268 25.9254L82.8298 25.9395L82.2763 26.2617L76.5315 29.6075V29.6081L73.0389 31.6422H67.7656V6.37363L76.0187 1.56667C79.577 -0.506094 83.9564 -0.523079 87.5304 1.52156L91.7617 3.94232L91.789 3.95755C92.1102 4.13975 92.4441 4.32957 92.7891 4.52583C94.5894 5.54991 96.683 6.75033 98.7993 7.96774L98.815 7.97711C100.69 9.05627 102.581 10.1477 104.302 11.1425L105.082 11.5936C105.19 11.6563 105.297 11.7178 105.403 11.7793L111.405 15.2488Z" fill="url(#paint3_linear_2241_32)"/>
</g>
<path d="M1.20318 76.8281V64.5881H6.05668C6.88402 64.5881 7.56118 64.7553 8.08818 65.0896C8.62085 65.4183 9.01468 65.8405 9.26968 66.3561C9.53035 66.8718 9.66068 67.4045 9.66068 67.9541C9.66068 68.6285 9.49918 69.2008 9.17618 69.6711C8.85885 70.1415 8.42535 70.4588 7.87568 70.6231V70.1981C8.64635 70.3738 9.23002 70.7393 9.62668 71.2946C10.029 71.85 10.2302 72.4818 10.2302 73.1901C10.2302 73.9155 10.0914 74.5501 9.81368 75.0941C9.53602 75.6381 9.12235 76.0631 8.57268 76.3691C8.02868 76.6751 7.35435 76.8281 6.54968 76.8281H1.20318ZM3.27718 74.8986H6.29468C6.65168 74.8986 6.97185 74.8278 7.25518 74.6861C7.53852 74.5388 7.75952 74.3348 7.91818 74.0741C8.08252 73.8078 8.16468 73.4933 8.16468 73.1306C8.16468 72.802 8.09385 72.5073 7.95218 72.2466C7.81052 71.986 7.60368 71.7791 7.33168 71.6261C7.05968 71.4675 6.73385 71.3881 6.35418 71.3881H3.27718V74.8986ZM3.27718 69.4756H6.03118C6.32585 69.4756 6.58935 69.419 6.82168 69.3056C7.05402 69.1923 7.23818 69.0251 7.37418 68.8041C7.51018 68.5831 7.57818 68.3111 7.57818 67.9881C7.57818 67.5631 7.44218 67.209 7.17018 66.9256C6.89818 66.6423 6.51852 66.5006 6.03118 66.5006H3.27718V69.4756ZM12.0978 76.8281V64.3331H14.1463V76.8281H12.0978ZM20.1349 77.0916C19.4549 77.0916 18.8939 76.9783 18.4519 76.7516C18.0099 76.525 17.6586 76.236 17.3979 75.8846C17.1373 75.5333 16.9446 75.1593 16.8199 74.7626C16.6953 74.366 16.6131 73.992 16.5734 73.6406C16.5394 73.2836 16.5224 72.9946 16.5224 72.7736V67.6481H18.5964V72.0681C18.5964 72.3515 18.6163 72.6716 18.6559 73.0286C18.6956 73.38 18.7863 73.72 18.9279 74.0486C19.0753 74.3716 19.2906 74.638 19.5739 74.8476C19.8629 75.0573 20.2511 75.1621 20.7384 75.1621C20.9991 75.1621 21.2569 75.1196 21.5119 75.0346C21.7669 74.9496 21.9964 74.8051 22.2004 74.6011C22.4101 74.3915 22.5773 74.1053 22.7019 73.7426C22.8266 73.38 22.8889 72.921 22.8889 72.3656L24.1044 72.8841C24.1044 73.6661 23.9514 74.3745 23.6454 75.0091C23.3451 75.6438 22.9003 76.151 22.3109 76.5306C21.7216 76.9046 20.9963 77.0916 20.1349 77.0916ZM23.1354 76.8281V73.9806H22.8889V67.6481H24.9459V76.8281H23.1354ZM31.5075 77.0831C30.5782 77.0831 29.7622 76.882 29.0595 76.4796C28.3569 76.0773 27.8072 75.5191 27.4105 74.8051C27.0195 74.0911 26.824 73.2695 26.824 72.3401C26.824 71.3371 27.0167 70.4673 27.402 69.7306C27.7874 68.9883 28.3229 68.4131 29.0085 68.0051C29.6942 67.5971 30.4875 67.3931 31.3885 67.3931C32.3405 67.3931 33.148 67.617 33.811 68.0646C34.4797 68.5066 34.9755 69.1328 35.2985 69.9431C35.6215 70.7535 35.7434 71.7083 35.664 72.8076H33.6325V72.0596C33.6269 71.0623 33.4512 70.3341 33.1055 69.8751C32.7599 69.4161 32.2159 69.1866 31.4735 69.1866C30.6349 69.1866 30.0115 69.4473 29.6035 69.9686C29.1955 70.4843 28.9915 71.2408 28.9915 72.2381C28.9915 73.1675 29.1955 73.8871 29.6035 74.3971C30.0115 74.9071 30.6065 75.1621 31.3885 75.1621C31.8929 75.1621 32.3264 75.0516 32.689 74.8306C33.0574 74.604 33.3407 74.2781 33.539 73.8531L35.562 74.4651C35.2107 75.2925 34.6667 75.9356 33.93 76.3946C33.199 76.8536 32.3915 77.0831 31.5075 77.0831ZM28.3455 72.8076V71.2606H34.661V72.8076H28.3455ZM41.1339 76.8281V64.5881H43.1824V76.8281H41.1339ZM49.2731 77.0831C48.1397 77.0831 47.2189 76.8281 46.5106 76.3181C45.8022 75.8081 45.3716 75.0913 45.2186 74.1676L47.3096 73.8446C47.4172 74.298 47.6552 74.655 48.0236 74.9156C48.3919 75.1763 48.8566 75.3066 49.4176 75.3066C49.9106 75.3066 50.2902 75.2103 50.5566 75.0176C50.8286 74.8193 50.9646 74.5501 50.9646 74.2101C50.9646 74.0005 50.9136 73.8333 50.8116 73.7086C50.7152 73.5783 50.4999 73.4536 50.1656 73.3346C49.8312 73.2156 49.3184 73.0655 48.6271 72.8841C47.8564 72.6801 47.2444 72.462 46.7911 72.2296C46.3377 71.9916 46.0119 71.7111 45.8136 71.3881C45.6152 71.0651 45.5161 70.6741 45.5161 70.2151C45.5161 69.6428 45.6662 69.1441 45.9666 68.7191C46.2669 68.2941 46.6862 67.9683 47.2246 67.7416C47.7629 67.5093 48.3976 67.3931 49.1286 67.3931C49.8426 67.3931 50.4744 67.5036 51.0241 67.7246C51.5794 67.9456 52.0271 68.2601 52.3671 68.6681C52.7071 69.0761 52.9167 69.555 52.9961 70.1046L50.9051 70.4786C50.8541 70.0876 50.6756 69.7788 50.3696 69.5521C50.0692 69.3255 49.6669 69.198 49.1626 69.1696C48.6809 69.1413 48.2927 69.215 47.9981 69.3906C47.7034 69.5606 47.5561 69.8015 47.5561 70.1131C47.5561 70.2888 47.6156 70.439 47.7346 70.5636C47.8536 70.6883 48.0916 70.813 48.4486 70.9376C48.8112 71.0623 49.3496 71.2153 50.0636 71.3966C50.7946 71.5836 51.3782 71.799 51.8146 72.0426C52.2566 72.2806 52.5739 72.5668 52.7666 72.9011C52.9649 73.2355 53.0641 73.6406 53.0641 74.1166C53.0641 75.0403 52.7269 75.7656 52.0526 76.2926C51.3839 76.8196 50.4574 77.0831 49.2731 77.0831ZM55.0958 76.8281V64.3331H57.1443V76.8281H55.0958ZM62.2575 77.0831C61.5945 77.0831 61.0335 76.9585 60.5745 76.7091C60.1155 76.4541 59.767 76.117 59.529 75.6976C59.2967 75.2783 59.1805 74.8165 59.1805 74.3121C59.1805 73.8701 59.2542 73.4735 59.4015 73.1221C59.5488 72.7651 59.7755 72.4591 60.0815 72.2041C60.3875 71.9435 60.7842 71.731 61.2715 71.5666C61.6398 71.4476 62.0705 71.34 62.5635 71.2436C63.0622 71.1473 63.6005 71.0595 64.1785 70.9801C64.7622 70.8951 65.3713 70.8045 66.006 70.7081L65.275 71.1246C65.2807 70.49 65.139 70.0225 64.85 69.7221C64.561 69.4218 64.0737 69.2716 63.388 69.2716C62.9743 69.2716 62.5748 69.368 62.1895 69.5606C61.8042 69.7533 61.535 70.0848 61.382 70.5551L59.512 69.9686C59.7387 69.1923 60.1693 68.569 60.804 68.0986C61.4443 67.6283 62.3057 67.3931 63.388 67.3931C64.204 67.3931 64.9208 67.5263 65.5385 67.7926C66.1618 68.059 66.6237 68.4953 66.924 69.1016C67.0883 69.4246 67.1875 69.7561 67.2215 70.0961C67.2555 70.4305 67.2725 70.796 67.2725 71.1926V76.8281H65.479V74.8391L65.7765 75.1621C65.3628 75.8251 64.8783 76.3125 64.323 76.6241C63.7733 76.9301 63.0848 77.0831 62.2575 77.0831ZM62.6655 75.4511C63.1302 75.4511 63.5268 75.369 63.8555 75.2046C64.1842 75.0403 64.4448 74.8391 64.6375 74.6011C64.8358 74.3631 64.969 74.1393 65.037 73.9296C65.1447 73.669 65.2042 73.3715 65.2155 73.0371C65.2325 72.6971 65.241 72.4223 65.241 72.2126L65.87 72.3996C65.2523 72.496 64.7225 72.581 64.2805 72.6546C63.8385 72.7283 63.4588 72.7991 63.1415 72.8671C62.8242 72.9295 62.5437 73.0003 62.3 73.0796C62.062 73.1646 61.8608 73.2638 61.6965 73.3771C61.5322 73.4905 61.4047 73.6208 61.314 73.7681C61.229 73.9155 61.1865 74.0883 61.1865 74.2866C61.1865 74.5133 61.2432 74.7145 61.3565 74.8901C61.4698 75.0601 61.6342 75.1961 61.8495 75.2981C62.0705 75.4001 62.3425 75.4511 62.6655 75.4511ZM75.8349 76.8281V72.4081C75.8349 72.1191 75.8151 71.799 75.7754 71.4476C75.7357 71.0963 75.6422 70.7591 75.4949 70.4361C75.3532 70.1075 75.1379 69.8383 74.8489 69.6286C74.5656 69.419 74.1802 69.3141 73.6929 69.3141C73.4322 69.3141 73.1744 69.3566 72.9194 69.4416C72.6644 69.5266 72.4321 69.674 72.2224 69.8836C72.0184 70.0876 71.8541 70.371 71.7294 70.7336C71.6047 71.0906 71.5424 71.5496 71.5424 72.1106L70.3269 71.5921C70.3269 70.8101 70.4771 70.1018 70.7774 69.4671C71.0834 68.8325 71.5311 68.3281 72.1204 67.9541C72.7097 67.5745 73.4351 67.3846 74.2964 67.3846C74.9764 67.3846 75.5374 67.498 75.9794 67.7246C76.4214 67.9513 76.7727 68.2403 77.0334 68.5916C77.2941 68.943 77.4867 69.317 77.6114 69.7136C77.7361 70.1103 77.8154 70.4871 77.8494 70.8441C77.8891 71.1955 77.9089 71.4816 77.9089 71.7026V76.8281H75.8349ZM69.4684 76.8281V67.6481H71.2959V70.4956H71.5424V76.8281H69.4684ZM83.6581 77.0831C82.8138 77.0831 82.0771 76.8706 81.4481 76.4456C80.8191 76.0206 80.3318 75.4426 79.9861 74.7116C79.6404 73.9806 79.4676 73.1561 79.4676 72.2381C79.4676 71.3088 79.6404 70.4815 79.9861 69.7561C80.3374 69.0251 80.8333 68.45 81.4736 68.0306C82.1139 67.6056 82.8676 67.3931 83.7346 67.3931C84.6073 67.3931 85.3383 67.6056 85.9276 68.0306C86.5226 68.45 86.9731 69.0251 87.2791 69.7561C87.5851 70.4871 87.7381 71.3145 87.7381 72.2381C87.7381 73.1505 87.5851 73.975 87.2791 74.7116C86.9731 75.4426 86.5169 76.0206 85.9106 76.4456C85.3043 76.8706 84.5534 77.0831 83.6581 77.0831ZM83.9726 75.2471C84.5223 75.2471 84.9643 75.1225 85.2986 74.8731C85.6386 74.6181 85.8851 74.264 86.0381 73.8106C86.1968 73.3573 86.2761 72.8331 86.2761 72.2381C86.2761 71.6375 86.1968 71.1133 86.0381 70.6656C85.8851 70.2123 85.6443 69.861 85.3156 69.6116C84.9869 69.3566 84.5619 69.2291 84.0406 69.2291C83.4909 69.2291 83.0376 69.3651 82.6806 69.6371C82.3236 69.9035 82.0601 70.2661 81.8901 70.7251C81.7201 71.1785 81.6351 71.6828 81.6351 72.2381C81.6351 72.7991 81.7173 73.3091 81.8816 73.7681C82.0516 74.2215 82.3094 74.5813 82.6551 74.8476C83.0008 75.114 83.4399 75.2471 83.9726 75.2471ZM86.2761 76.8281V70.3851H86.0211V64.5881H88.0866V76.8281H86.2761ZM98.4036 77.0831C97.5083 77.0831 96.7008 76.9273 95.9811 76.6156C95.2671 76.304 94.6778 75.8591 94.2131 75.2811C93.7541 74.6975 93.4623 74.0061 93.3376 73.2071L95.4626 72.8841C95.6439 73.6095 96.0151 74.1705 96.5761 74.5671C97.1428 74.9638 97.7944 75.1621 98.5311 75.1621C98.9674 75.1621 99.3783 75.0941 99.7636 74.9581C100.149 74.8221 100.461 74.6238 100.699 74.3631C100.942 74.1025 101.064 73.7823 101.064 73.4026C101.064 73.2326 101.036 73.0768 100.979 72.9351C100.922 72.7878 100.837 72.6575 100.724 72.5441C100.616 72.4308 100.475 72.3288 100.299 72.2381C100.129 72.1418 99.9308 72.0596 99.7041 71.9916L96.5421 71.0566C96.2701 70.9773 95.9754 70.8725 95.6581 70.7421C95.3464 70.6061 95.0489 70.422 94.7656 70.1896C94.4879 69.9516 94.2584 69.6513 94.0771 69.2886C93.9014 68.9203 93.8136 68.467 93.8136 67.9286C93.8136 67.141 94.0119 66.4808 94.4086 65.9481C94.8109 65.4098 95.3493 65.0075 96.0236 64.7411C96.7036 64.4748 97.4573 64.3445 98.2846 64.3501C99.1233 64.3558 99.8713 64.5003 100.529 64.7836C101.186 65.0613 101.736 65.4665 102.178 65.9991C102.62 66.5318 102.931 67.175 103.113 67.9286L100.911 68.3111C100.82 67.8805 100.645 67.515 100.384 67.2146C100.129 66.9086 99.8146 66.6763 99.4406 66.5176C99.0723 66.359 98.6784 66.274 98.2591 66.2626C97.8511 66.257 97.4714 66.3193 97.1201 66.4496C96.7744 66.5743 96.4939 66.7556 96.2786 66.9936C96.0689 67.2316 95.9641 67.5093 95.9641 67.8266C95.9641 68.127 96.0548 68.3735 96.2361 68.5661C96.4174 68.7531 96.6413 68.9033 96.9076 69.0166C97.1796 69.1243 97.4544 69.215 97.7321 69.2886L99.9251 69.9006C100.225 69.98 100.563 70.0876 100.937 70.2236C101.311 70.3596 101.67 70.5495 102.016 70.7931C102.362 71.0368 102.645 71.357 102.866 71.7536C103.093 72.1503 103.206 72.6546 103.206 73.2666C103.206 73.9013 103.073 74.4595 102.807 74.9411C102.546 75.4171 102.192 75.8138 101.744 76.1311C101.296 76.4485 100.784 76.6865 100.206 76.8451C99.6333 77.0038 99.0326 77.0831 98.4036 77.0831ZM109.219 77.0831C108.29 77.0831 107.474 76.882 106.771 76.4796C106.069 76.0773 105.519 75.5191 105.122 74.8051C104.731 74.0911 104.536 73.2695 104.536 72.3401C104.536 71.3371 104.729 70.4673 105.114 69.7306C105.499 68.9883 106.035 68.4131 106.72 68.0051C107.406 67.5971 108.199 67.3931 109.1 67.3931C110.052 67.3931 110.86 67.617 111.523 68.0646C112.192 68.5066 112.687 69.1328 113.01 69.9431C113.333 70.7535 113.455 71.7083 113.376 72.8076H111.344V72.0596C111.339 71.0623 111.163 70.3341 110.817 69.8751C110.472 69.4161 109.928 69.1866 109.185 69.1866C108.347 69.1866 107.723 69.4473 107.315 69.9686C106.907 70.4843 106.703 71.2408 106.703 72.2381C106.703 73.1675 106.907 73.8871 107.315 74.3971C107.723 74.9071 108.318 75.1621 109.1 75.1621C109.605 75.1621 110.038 75.0516 110.401 74.8306C110.769 74.604 111.053 74.2781 111.251 73.8531L113.274 74.4651C112.923 75.2925 112.379 75.9356 111.642 76.3946C110.911 76.8536 110.103 77.0831 109.219 77.0831ZM106.057 72.8076V71.2606H112.373V72.8076H106.057ZM115.273 76.8281V67.6481H117.083V69.8836L116.862 69.5946C116.975 69.2886 117.126 69.011 117.313 68.7616C117.505 68.5066 117.735 68.297 118.001 68.1326C118.228 67.9796 118.477 67.8606 118.749 67.7756C119.027 67.685 119.31 67.6311 119.599 67.6141C119.888 67.5915 120.169 67.6028 120.441 67.6481V69.5606C120.169 69.4813 119.854 69.4558 119.497 69.4841C119.146 69.5125 118.828 69.6116 118.545 69.7816C118.262 69.9346 118.029 70.1301 117.848 70.3681C117.672 70.6061 117.542 70.8781 117.457 71.1841C117.372 71.4845 117.33 71.8103 117.33 72.1616V76.8281H115.273ZM124.545 76.8281L121.213 67.6481H123.261L125.573 74.3036L127.877 67.6481H129.934L126.602 76.8281H124.545ZM131.629 66.2541V64.3756H133.678V66.2541H131.629ZM131.629 76.8281V67.6481H133.678V76.8281H131.629ZM140.21 77.0831C139.264 77.0831 138.456 76.8735 137.788 76.4541C137.119 76.0291 136.606 75.4511 136.249 74.7201C135.898 73.9891 135.719 73.1618 135.714 72.2381C135.719 71.2975 135.904 70.4645 136.266 69.7391C136.635 69.0081 137.156 68.4358 137.83 68.0221C138.505 67.6028 139.306 67.3931 140.236 67.3931C141.278 67.3931 142.16 67.6566 142.879 68.1836C143.605 68.705 144.078 69.419 144.299 70.3256L142.259 70.8781C142.1 70.3851 141.837 70.0026 141.468 69.7306C141.1 69.453 140.681 69.3141 140.21 69.3141C139.678 69.3141 139.238 69.4416 138.893 69.6966C138.547 69.946 138.292 70.2916 138.128 70.7336C137.963 71.1756 137.881 71.6771 137.881 72.2381C137.881 73.1108 138.077 73.8163 138.468 74.3546C138.859 74.893 139.44 75.1621 140.21 75.1621C140.754 75.1621 141.182 75.0375 141.494 74.7881C141.811 74.5388 142.049 74.179 142.208 73.7086L144.299 74.1761C144.015 75.1111 143.52 75.8308 142.811 76.3351C142.103 76.8338 141.236 77.0831 140.21 77.0831ZM149.926 77.0831C148.997 77.0831 148.181 76.882 147.478 76.4796C146.776 76.0773 146.226 75.5191 145.829 74.8051C145.438 74.0911 145.243 73.2695 145.243 72.3401C145.243 71.3371 145.436 70.4673 145.821 69.7306C146.206 68.9883 146.742 68.4131 147.427 68.0051C148.113 67.5971 148.906 67.3931 149.807 67.3931C150.759 67.3931 151.567 67.617 152.23 68.0646C152.899 68.5066 153.394 69.1328 153.717 69.9431C154.04 70.7535 154.162 71.7083 154.083 72.8076H152.051V72.0596C152.046 71.0623 151.87 70.3341 151.524 69.8751C151.179 69.4161 150.635 69.1866 149.892 69.1866C149.054 69.1866 148.43 69.4473 148.022 69.9686C147.614 70.4843 147.41 71.2408 147.41 72.2381C147.41 73.1675 147.614 73.8871 148.022 74.3971C148.43 74.9071 149.025 75.1621 149.807 75.1621C150.312 75.1621 150.745 75.0516 151.108 74.8306C151.476 74.604 151.76 74.2781 151.958 73.8531L153.981 74.4651C153.63 75.2925 153.086 75.9356 152.349 76.3946C151.618 76.8536 150.81 77.0831 149.926 77.0831ZM146.764 72.8076V71.2606H153.08V72.8076H146.764ZM159.524 77.0831C158.391 77.0831 157.47 76.8281 156.762 76.3181C156.053 75.8081 155.623 75.0913 155.47 74.1676L157.561 73.8446C157.668 74.298 157.906 74.655 158.275 74.9156C158.643 75.1763 159.108 75.3066 159.669 75.3066C160.162 75.3066 160.541 75.2103 160.808 75.0176C161.08 74.8193 161.216 74.5501 161.216 74.2101C161.216 74.0005 161.165 73.8333 161.063 73.7086C160.966 73.5783 160.751 73.4536 160.417 73.3346C160.082 73.2156 159.569 73.0655 158.878 72.8841C158.107 72.6801 157.495 72.462 157.042 72.2296C156.589 71.9916 156.263 71.7111 156.065 71.3881C155.866 71.0651 155.767 70.6741 155.767 70.2151C155.767 69.6428 155.917 69.1441 156.218 68.7191C156.518 68.2941 156.937 67.9683 157.476 67.7416C158.014 67.5093 158.649 67.3931 159.38 67.3931C160.094 67.3931 160.725 67.5036 161.275 67.7246C161.83 67.9456 162.278 68.2601 162.618 68.6681C162.958 69.0761 163.168 69.555 163.247 70.1046L161.156 70.4786C161.105 70.0876 160.927 69.7788 160.621 69.5521C160.32 69.3255 159.918 69.198 159.414 69.1696C158.932 69.1413 158.544 69.215 158.249 69.3906C157.954 69.5606 157.807 69.8015 157.807 70.1131C157.807 70.2888 157.867 70.439 157.986 70.5636C158.105 70.6883 158.343 70.813 158.7 70.9376C159.062 71.0623 159.601 71.2153 160.315 71.3966C161.046 71.5836 161.629 71.799 162.066 72.0426C162.508 72.2806 162.825 72.5668 163.018 72.9011C163.216 73.2355 163.315 73.6406 163.315 74.1166C163.315 75.0403 162.978 75.7656 162.304 76.2926C161.635 76.8196 160.708 77.0831 159.524 77.0831Z" fill="white"/>
<path d="M15.9999 90.8281V85.8561H14.0839V85.0681H18.7519V85.8561H16.8359V90.8281H15.9999ZM20.992 90.8281V85.0681H24.672V85.8561H21.828V87.4721H24.192V88.2601H21.828V90.0401H24.672V90.8281H20.992ZM29.4335 90.9481C28.8575 90.9481 28.3669 90.8228 27.9615 90.5721C27.5562 90.3188 27.2455 89.9668 27.0295 89.5161C26.8162 89.0655 26.7095 88.5428 26.7095 87.9481C26.7095 87.3535 26.8162 86.8308 27.0295 86.3801C27.2455 85.9295 27.5562 85.5788 27.9615 85.3281C28.3669 85.0748 28.8575 84.9481 29.4335 84.9481C30.0975 84.9481 30.6469 85.1161 31.0815 85.4521C31.5189 85.7881 31.8229 86.2401 31.9935 86.8081L31.1455 87.0361C31.0335 86.6335 30.8335 86.3175 30.5455 86.0881C30.2602 85.8588 29.8895 85.7441 29.4335 85.7441C29.0255 85.7441 28.6855 85.8361 28.4135 86.0201C28.1415 86.2041 27.9362 86.4615 27.7975 86.7921C27.6615 87.1228 27.5935 87.5081 27.5935 87.9481C27.5909 88.3881 27.6575 88.7735 27.7935 89.1041C27.9322 89.4348 28.1375 89.6921 28.4095 89.8761C28.6842 90.0601 29.0255 90.1521 29.4335 90.1521C29.8895 90.1521 30.2602 90.0375 30.5455 89.8081C30.8335 89.5761 31.0335 89.2601 31.1455 88.8601L31.9935 89.0881C31.8229 89.6561 31.5189 90.1081 31.0815 90.4441C30.6469 90.7801 30.0975 90.9481 29.4335 90.9481ZM34.4733 90.8281V85.0681H35.3093V87.5521H38.1893V85.0681H39.0293V90.8281H38.1893V88.3401H35.3093V90.8281H34.4733ZM41.753 90.8281V85.0681H42.601L45.437 89.3481V85.0681H46.285V90.8281H45.437L42.601 86.5441V90.8281H41.753ZM51.4054 90.9481C50.8294 90.9481 50.3387 90.8228 49.9334 90.5721C49.5281 90.3188 49.2174 89.9668 49.0014 89.5161C48.7881 89.0655 48.6814 88.5428 48.6814 87.9481C48.6814 87.3535 48.7881 86.8308 49.0014 86.3801C49.2174 85.9295 49.5281 85.5788 49.9334 85.3281C50.3387 85.0748 50.8294 84.9481 51.4054 84.9481C51.9787 84.9481 52.4681 85.0748 52.8734 85.3281C53.2814 85.5788 53.5921 85.9295 53.8054 86.3801C54.0187 86.8308 54.1254 87.3535 54.1254 87.9481C54.1254 88.5428 54.0187 89.0655 53.8054 89.5161C53.5921 89.9668 53.2814 90.3188 52.8734 90.5721C52.4681 90.8228 51.9787 90.9481 51.4054 90.9481ZM51.4054 90.1521C51.8134 90.1575 52.1521 90.0681 52.4214 89.8841C52.6934 89.6975 52.8974 89.4388 53.0334 89.1081C53.1694 88.7748 53.2374 88.3881 53.2374 87.9481C53.2374 87.5081 53.1694 87.1241 53.0334 86.7961C52.8974 86.4655 52.6934 86.2081 52.4214 86.0241C52.1521 85.8401 51.8134 85.7468 51.4054 85.7441C50.9974 85.7388 50.6574 85.8281 50.3854 86.0121C50.1161 86.1961 49.9134 86.4548 49.7774 86.7881C49.6414 87.1215 49.5721 87.5081 49.5694 87.9481C49.5667 88.3881 49.6334 88.7735 49.7694 89.1041C49.9054 89.4321 50.1094 89.6881 50.3814 89.8721C50.6561 90.0561 50.9974 90.1495 51.4054 90.1521ZM56.6033 90.8281V85.0681H57.4393V90.0401H60.0473V90.8281H56.6033ZM64.5742 90.9481C63.9982 90.9481 63.5075 90.8228 63.1022 90.5721C62.6968 90.3188 62.3862 89.9668 62.1702 89.5161C61.9568 89.0655 61.8502 88.5428 61.8502 87.9481C61.8502 87.3535 61.9568 86.8308 62.1702 86.3801C62.3862 85.9295 62.6968 85.5788 63.1022 85.3281C63.5075 85.0748 63.9982 84.9481 64.5742 84.9481C65.1475 84.9481 65.6368 85.0748 66.0422 85.3281C66.4502 85.5788 66.7608 85.9295 66.9742 86.3801C67.1875 86.8308 67.2942 87.3535 67.2942 87.9481C67.2942 88.5428 67.1875 89.0655 66.9742 89.5161C66.7608 89.9668 66.4502 90.3188 66.0422 90.5721C65.6368 90.8228 65.1475 90.9481 64.5742 90.9481ZM64.5742 90.1521C64.9822 90.1575 65.3208 90.0681 65.5902 89.8841C65.8622 89.6975 66.0662 89.4388 66.2022 89.1081C66.3382 88.7748 66.4062 88.3881 66.4062 87.9481C66.4062 87.5081 66.3382 87.1241 66.2022 86.7961C66.0662 86.4655 65.8622 86.2081 65.5902 86.0241C65.3208 85.8401 64.9822 85.7468 64.5742 85.7441C64.1662 85.7388 63.8262 85.8281 63.5542 86.0121C63.2848 86.1961 63.0822 86.4548 62.9462 86.7881C62.8102 87.1215 62.7408 87.5081 62.7382 87.9481C62.7355 88.3881 62.8022 88.7735 62.9382 89.1041C63.0742 89.4321 63.2782 89.6881 63.5502 89.8721C63.8248 90.0561 64.1662 90.1495 64.5742 90.1521ZM72.048 90.9481C71.6614 90.9481 71.3054 90.8815 70.98 90.7481C70.6547 90.6121 70.372 90.4148 70.132 90.1561C69.892 89.8975 69.7054 89.5828 69.572 89.2121C69.4387 88.8415 69.372 88.4201 69.372 87.9481C69.372 87.3268 69.4854 86.7935 69.712 86.3481C69.9387 85.9001 70.2534 85.5561 70.656 85.3161C71.0587 85.0735 71.5227 84.9521 72.048 84.9521C72.7254 84.9521 73.2654 85.1095 73.668 85.4241C74.0734 85.7388 74.3494 86.1735 74.496 86.7281L73.648 86.8801C73.5307 86.5361 73.3414 86.2615 73.08 86.0561C72.8187 85.8508 72.4907 85.7468 72.096 85.7441C71.688 85.7415 71.348 85.8321 71.076 86.0161C70.8067 86.2001 70.604 86.4588 70.468 86.7921C70.332 87.1228 70.2627 87.5081 70.26 87.9481C70.2574 88.3881 70.324 88.7735 70.46 89.1041C70.596 89.4321 70.8 89.6881 71.072 89.8721C71.3467 90.0561 71.688 90.1495 72.096 90.1521C72.424 90.1575 72.7054 90.0975 72.94 89.9721C73.1774 89.8441 73.3654 89.6575 73.504 89.4121C73.6427 89.1668 73.732 88.8655 73.772 88.5081H72.652V87.8361H74.66C74.6654 87.8841 74.6694 87.9481 74.672 88.0281C74.6747 88.1055 74.676 88.1548 74.676 88.1761C74.676 88.7095 74.5734 89.1855 74.368 89.6041C74.1627 90.0228 73.864 90.3521 73.472 90.5921C73.08 90.8295 72.6054 90.9481 72.048 90.9481ZM78.2191 90.8281V88.4481L76.2711 85.0681H77.2471L78.6431 87.4881L80.0391 85.0681H81.0151L79.0671 88.4481V90.8281H78.2191ZM87.4905 90.8281V85.8561H85.5745V85.0681H90.2425V85.8561H88.3265V90.8281H87.4905ZM92.4827 90.8281V85.0681H93.3187V87.5521H96.1987V85.0681H97.0387V90.8281H96.1987V88.3401H93.3187V90.8281H92.4827ZM99.3623 90.8281L101.234 85.0681H102.438L104.31 90.8281H103.442L101.718 85.5721H101.934L100.23 90.8281H99.3623ZM100.334 89.5281V88.7441H103.342V89.5281H100.334ZM107.587 90.8281V85.8561H105.671V85.0681H110.339V85.8561H108.423V90.8281H107.587ZM116.759 90.8281L115.087 85.0681H115.963L117.175 89.4241L118.387 85.0721L119.267 85.0681L120.479 89.4241L121.691 85.0681H122.571L120.895 90.8281H120.063L118.827 86.5201L117.591 90.8281H116.759ZM127.09 90.9481C126.514 90.9481 126.023 90.8228 125.618 90.5721C125.212 90.3188 124.902 89.9668 124.686 89.5161C124.472 89.0655 124.366 88.5428 124.366 87.9481C124.366 87.3535 124.472 86.8308 124.686 86.3801C124.902 85.9295 125.212 85.5788 125.618 85.3281C126.023 85.0748 126.514 84.9481 127.09 84.9481C127.663 84.9481 128.152 85.0748 128.558 85.3281C128.966 85.5788 129.276 85.9295 129.49 86.3801C129.703 86.8308 129.81 87.3535 129.81 87.9481C129.81 88.5428 129.703 89.0655 129.49 89.5161C129.276 89.9668 128.966 90.3188 128.558 90.5721C128.152 90.8228 127.663 90.9481 127.09 90.9481ZM127.09 90.1521C127.498 90.1575 127.836 90.0681 128.106 89.8841C128.378 89.6975 128.582 89.4388 128.718 89.1081C128.854 88.7748 128.922 88.3881 128.922 87.9481C128.922 87.5081 128.854 87.1241 128.718 86.7961C128.582 86.4655 128.378 86.2081 128.106 86.0241C127.836 85.8401 127.498 85.7468 127.09 85.7441C126.682 85.7388 126.342 85.8281 126.07 86.0121C125.8 86.1961 125.598 86.4548 125.462 86.7881C125.326 87.1215 125.256 87.5081 125.254 87.9481C125.251 88.3881 125.318 88.7735 125.454 89.1041C125.59 89.4321 125.794 89.6881 126.066 89.8721C126.34 90.0561 126.682 90.1495 127.09 90.1521ZM132.208 90.8281V85.0681H134.536C134.592 85.0681 134.661 85.0708 134.744 85.0761C134.826 85.0788 134.905 85.0868 134.98 85.1001C135.3 85.1508 135.566 85.2601 135.78 85.4281C135.996 85.5961 136.157 85.8081 136.264 86.0641C136.37 86.3201 136.424 86.6028 136.424 86.9121C136.424 87.3708 136.306 87.7668 136.072 88.1001C135.837 88.4308 135.485 88.6375 135.016 88.7201L134.676 88.7601H133.044V90.8281H132.208ZM135.576 90.8281L134.44 88.4841L135.284 88.2681L136.532 90.8281H135.576ZM133.044 87.9681H134.504C134.557 87.9681 134.616 87.9655 134.68 87.9601C134.746 87.9548 134.809 87.9455 134.868 87.9321C135.038 87.8921 135.176 87.8188 135.28 87.7121C135.384 87.6028 135.458 87.4775 135.504 87.3361C135.549 87.1948 135.572 87.0535 135.572 86.9121C135.572 86.7708 135.549 86.6308 135.504 86.4921C135.458 86.3508 135.384 86.2268 135.28 86.1201C135.176 86.0108 135.038 85.9361 134.868 85.8961C134.809 85.8801 134.746 85.8695 134.68 85.8641C134.616 85.8588 134.557 85.8561 134.504 85.8561H133.044V87.9681ZM139.011 90.8281V85.0681H139.847V87.7561L142.259 85.0681H143.299L140.751 87.8801L143.487 90.8281H142.415L139.847 88.0761V90.8281H139.011ZM147.496 90.9481C147.082 90.9481 146.709 90.8775 146.376 90.7361C146.045 90.5921 145.772 90.3881 145.556 90.1241C145.342 89.8575 145.204 89.5415 145.14 89.1761L146.012 89.0441C146.1 89.3961 146.284 89.6708 146.564 89.8681C146.844 90.0628 147.17 90.1601 147.544 90.1601C147.776 90.1601 147.989 90.1241 148.184 90.0521C148.378 89.9775 148.534 89.8721 148.652 89.7361C148.772 89.5975 148.832 89.4321 148.832 89.2401C148.832 89.1361 148.813 89.0441 148.776 88.9641C148.741 88.8841 148.692 88.8148 148.628 88.7561C148.566 88.6948 148.49 88.6428 148.4 88.6001C148.312 88.5548 148.214 88.5161 148.108 88.4841L146.632 88.0481C146.488 88.0055 146.341 87.9508 146.192 87.8841C146.042 87.8148 145.905 87.7255 145.78 87.6161C145.657 87.5041 145.557 87.3668 145.48 87.2041C145.402 87.0388 145.364 86.8388 145.364 86.6041C145.364 86.2495 145.454 85.9495 145.636 85.7041C145.82 85.4561 146.068 85.2695 146.38 85.1441C146.692 85.0161 147.041 84.9521 147.428 84.9521C147.817 84.9575 148.165 85.0268 148.472 85.1601C148.781 85.2935 149.037 85.4855 149.24 85.7361C149.445 85.9841 149.586 86.2855 149.664 86.6401L148.768 86.7921C148.728 86.5761 148.642 86.3908 148.512 86.2361C148.381 86.0788 148.221 85.9588 148.032 85.8761C147.842 85.7908 147.637 85.7468 147.416 85.7441C147.202 85.7388 147.006 85.7708 146.828 85.8401C146.652 85.9095 146.51 86.0068 146.404 86.1321C146.3 86.2575 146.248 86.4015 146.248 86.5641C146.248 86.7241 146.294 86.8535 146.388 86.9521C146.481 87.0508 146.596 87.1295 146.732 87.1881C146.87 87.2441 147.008 87.2908 147.144 87.3281L148.208 87.6281C148.341 87.6655 148.492 87.7161 148.66 87.7801C148.83 87.8415 148.994 87.9281 149.152 88.0401C149.312 88.1521 149.444 88.3015 149.548 88.4881C149.652 88.6721 149.704 88.9041 149.704 89.1841C149.704 89.4748 149.645 89.7308 149.528 89.9521C149.41 90.1708 149.249 90.3548 149.044 90.5041C148.841 90.6508 148.606 90.7615 148.34 90.8361C148.073 90.9108 147.792 90.9481 147.496 90.9481Z" fill="white"/>
<defs>
<linearGradient id="paint0_linear_2241_32" x1="72.4138" y1="41.1505" x2="116.341" y2="13.6732" gradientUnits="userSpaceOnUse">
<stop stop-color="#2B98E3"/>
<stop offset="0.463247" stop-color="#31B6CB"/>
<stop offset="1" stop-color="#3CD4C7"/>
</linearGradient>
<linearGradient id="paint1_linear_2241_32" x1="48.9054" y1="25.4692" x2="80.9385" y2="39.2551" gradientUnits="userSpaceOnUse">
<stop stop-color="#05101F"/>
<stop offset="0.999999" stop-color="#2B98E3" stop-opacity="0"/>
</linearGradient>
<linearGradient id="paint2_linear_2241_32" x1="80.8646" y1="14.9222" x2="47.3215" y2="31.6639" gradientUnits="userSpaceOnUse">
<stop stop-color="#2B98E3"/>
<stop offset="0.463247" stop-color="#31B6CB"/>
<stop offset="1" stop-color="#3CD4C7"/>
</linearGradient>
<linearGradient id="paint3_linear_2241_32" x1="117.782" y1="32.4135" x2="75.6103" y2="16.0015" gradientUnits="userSpaceOnUse">
<stop stop-color="#05101F"/>
<stop offset="0.999999" stop-color="#2B98E3" stop-opacity="0"/>
</linearGradient>
<clipPath id="clip0_2241_32">
<rect width="73" height="52.8289" fill="white" transform="translate(45.5)"/>
</clipPath>
</defs>
</svg>
