<svg width="164" height="93" viewBox="0 0 164 93" fill="none" xmlns="http://www.w3.org/2000/svg">
<g clip-path="url(#clip0_2241_33)">
<path d="M52.4389 37.5063L50.8418 36.5859C51.3523 36.9345 51.886 37.2421 52.4389 37.5063Z" fill="#2A97E2"/>
<path d="M118.5 26.3913C118.5 28.2081 118.1 30.0031 117.335 31.6406C116.316 33.8259 114.647 35.7305 112.416 37.0299L102.234 42.96L87.9819 51.261C86.2158 52.2892 84.2482 52.8117 82.2765 52.827C80.2753 52.8428 78.2705 52.336 76.4702 51.3061L72.2388 48.8853L72.2115 48.8701C71.8904 48.6879 71.5564 48.4981 71.2115 48.3018C69.4111 47.2777 67.3175 46.0773 65.2013 44.8599L65.1856 44.8505C64.1193 44.2371 63.0478 43.6191 62.0048 43.0174L61.5384 42.7485L52.4392 37.505L50.8422 36.5847C50.51 36.3585 50.1876 36.1142 49.877 35.8535L53.3121 31.9552L63.5188 30.9335L67.7659 31.3588L70.5773 31.6406L72.6535 31.8486L73.0106 31.6406L77.4987 29.0271L82.2765 26.2443L82.8271 25.9238L87.469 23.2201V23.2195L100.251 15.775C103.797 13.7099 107.945 13.6501 111.405 15.2472C113.622 16.2701 115.557 17.9743 116.868 20.2668C117.975 22.1995 118.5 24.3092 118.5 26.3913Z" fill="url(#paint0_linear_2241_33)"/>
<path d="M82.2765 26.2461V52.8288C80.2753 52.8446 78.2705 52.3378 76.4702 51.3079L72.2388 48.8871L72.2115 48.8719C71.8904 48.6897 71.5564 48.4999 71.2115 48.3036C69.4111 47.2795 67.3175 46.0791 65.2013 44.8617L65.1856 44.8523C64.1193 44.2389 63.0478 43.6209 62.0048 43.0192L61.5385 42.7503L52.4392 37.5069L50.8422 36.5865C50.51 36.3603 50.1876 36.116 49.877 35.8553L53.3121 31.957L63.5188 30.9353L72.6535 31.8504L82.2765 26.2461Z" fill="url(#paint1_linear_2241_33)"/>
<path d="M105.403 11.7793C105.297 11.7178 105.19 11.6563 105.082 11.5936L104.302 11.1425C102.581 10.1477 100.689 9.05627 98.8148 7.97711L98.7991 7.96774C96.6829 6.75033 94.5893 5.54991 92.7889 4.52583C92.444 4.32957 92.11 4.13975 91.7889 3.95755L91.7616 3.94232L87.5302 1.52156C83.9563 -0.52308 79.5768 -0.506095 76.0185 1.56667L67.7655 6.37363L61.7663 9.86768L51.5845 15.7977C47.6819 18.0708 45.5 22.1953 45.5 26.4363C45.5 28.5184 46.0256 30.6281 47.1319 32.5609C47.8701 33.8503 48.8051 34.9541 49.8766 35.8551C50.1873 36.1158 50.5096 36.3601 50.8418 36.5863L52.4388 37.5067C55.7648 39.1002 59.7534 39.1482 63.2362 37.335C63.4087 37.2454 63.5794 37.1516 63.749 37.0526L72.6775 31.8526L73.0387 31.6422L76.5313 29.6081V29.6076L82.2761 26.2617L82.8296 25.9395L82.8267 25.9254L87.4686 23.2217V23.2211L100.251 15.7766C103.797 13.7115 107.945 13.6517 111.404 15.2488L105.403 11.7793Z" fill="url(#paint2_linear_2241_33)"/>
<path d="M111.405 15.2488C107.945 13.6517 103.797 13.7115 100.251 15.7766L87.4688 23.2211V23.2217L82.8268 25.9254L82.8298 25.9395L82.2763 26.2617L76.5315 29.6075V29.6081L73.0389 31.6422H67.7656V6.37363L76.0187 1.56667C79.577 -0.506094 83.9564 -0.523079 87.5304 1.52156L91.7617 3.94232L91.789 3.95755C92.1102 4.13975 92.4441 4.32957 92.7891 4.52583C94.5894 5.54991 96.683 6.75033 98.7993 7.96774L98.815 7.97711C100.69 9.05627 102.581 10.1477 104.302 11.1425L105.082 11.5936C105.19 11.6563 105.297 11.7178 105.403 11.7793L111.405 15.2488Z" fill="url(#paint3_linear_2241_33)"/>
</g>
<path d="M1.85895 76.8281V64.5881H6.71245C7.53978 64.5881 8.21695 64.7553 8.74395 65.0896C9.27661 65.4183 9.67045 65.8405 9.92545 66.3561C10.1861 66.8718 10.3164 67.4045 10.3164 67.9541C10.3164 68.6285 10.1549 69.2008 9.83195 69.6711C9.51461 70.1415 9.08111 70.4588 8.53145 70.6231V70.1981C9.30211 70.3738 9.88578 70.7393 10.2824 71.2946C10.6848 71.85 10.8859 72.4818 10.8859 73.1901C10.8859 73.9155 10.7471 74.5501 10.4694 75.0941C10.1918 75.6381 9.77811 76.0631 9.22845 76.3691C8.68445 76.6751 8.01011 76.8281 7.20545 76.8281H1.85895ZM3.93295 74.8986H6.95045C7.30745 74.8986 7.62761 74.8278 7.91095 74.6861C8.19428 74.5388 8.41528 74.3348 8.57395 74.0741C8.73828 73.8078 8.82045 73.4933 8.82045 73.1306C8.82045 72.802 8.74961 72.5073 8.60795 72.2466C8.46628 71.986 8.25945 71.7791 7.98745 71.6261C7.71545 71.4675 7.38961 71.3881 7.00995 71.3881H3.93295V74.8986ZM3.93295 69.4756H6.68695C6.98161 69.4756 7.24511 69.419 7.47745 69.3056C7.70978 69.1923 7.89395 69.0251 8.02995 68.8041C8.16595 68.5831 8.23395 68.3111 8.23395 67.9881C8.23395 67.5631 8.09795 67.209 7.82595 66.9256C7.55395 66.6423 7.17428 66.5006 6.68695 66.5006H3.93295V69.4756ZM12.7536 76.8281V64.3331H14.8021V76.8281H12.7536ZM20.7907 77.0916C20.1107 77.0916 19.5497 76.9783 19.1077 76.7516C18.6657 76.525 18.3144 76.236 18.0537 75.8846C17.793 75.5333 17.6004 75.1593 17.4757 74.7626C17.351 74.366 17.2689 73.992 17.2292 73.6406C17.1952 73.2836 17.1782 72.9946 17.1782 72.7736V67.6481H19.2522V72.0681C19.2522 72.3515 19.272 72.6716 19.3117 73.0286C19.3514 73.38 19.442 73.72 19.5837 74.0486C19.731 74.3716 19.9464 74.638 20.2297 74.8476C20.5187 75.0573 20.9069 75.1621 21.3942 75.1621C21.6549 75.1621 21.9127 75.1196 22.1677 75.0346C22.4227 74.9496 22.6522 74.8051 22.8562 74.6011C23.0659 74.3915 23.233 74.1053 23.3577 73.7426C23.4824 73.38 23.5447 72.921 23.5447 72.3656L24.7602 72.8841C24.7602 73.6661 24.6072 74.3745 24.3012 75.0091C24.0009 75.6438 23.556 76.151 22.9667 76.5306C22.3774 76.9046 21.652 77.0916 20.7907 77.0916ZM23.7912 76.8281V73.9806H23.5447V67.6481H25.6017V76.8281H23.7912ZM32.1633 77.0831C31.234 77.0831 30.418 76.882 29.7153 76.4796C29.0126 76.0773 28.463 75.5191 28.0663 74.8051C27.6753 74.0911 27.4798 73.2695 27.4798 72.3401C27.4798 71.3371 27.6725 70.4673 28.0578 69.7306C28.4431 68.9883 28.9786 68.4131 29.6643 68.0051C30.35 67.5971 31.1433 67.3931 32.0443 67.3931C32.9963 67.3931 33.8038 67.617 34.4668 68.0646C35.1355 68.5066 35.6313 69.1328 35.9543 69.9431C36.2773 70.7535 36.3991 71.7083 36.3198 72.8076H34.2883V72.0596C34.2826 71.0623 34.107 70.3341 33.7613 69.8751C33.4156 69.4161 32.8716 69.1866 32.1293 69.1866C31.2906 69.1866 30.6673 69.4473 30.2593 69.9686C29.8513 70.4843 29.6473 71.2408 29.6473 72.2381C29.6473 73.1675 29.8513 73.8871 30.2593 74.3971C30.6673 74.9071 31.2623 75.1621 32.0443 75.1621C32.5486 75.1621 32.9821 75.0516 33.3448 74.8306C33.7131 74.604 33.9965 74.2781 34.1948 73.8531L36.2178 74.4651C35.8665 75.2925 35.3225 75.9356 34.5858 76.3946C33.8548 76.8536 33.0473 77.0831 32.1633 77.0831ZM29.0013 72.8076V71.2606H35.3168V72.8076H29.0013ZM41.7897 76.8281V64.5881H43.8382V76.8281H41.7897ZM49.9288 77.0831C48.7955 77.0831 47.8747 76.8281 47.1663 76.3181C46.458 75.8081 46.0273 75.0913 45.8743 74.1676L47.9653 73.8446C48.073 74.298 48.311 74.655 48.6793 74.9156C49.0477 75.1763 49.5123 75.3066 50.0733 75.3066C50.5663 75.3066 50.946 75.2103 51.2123 75.0176C51.4843 74.8193 51.6203 74.5501 51.6203 74.2101C51.6203 74.0005 51.5693 73.8333 51.4673 73.7086C51.371 73.5783 51.1557 73.4536 50.8213 73.3346C50.487 73.2156 49.9742 73.0655 49.2828 72.8841C48.5122 72.6801 47.9002 72.462 47.4468 72.2296C46.9935 71.9916 46.6677 71.7111 46.4693 71.3881C46.271 71.0651 46.1718 70.6741 46.1718 70.2151C46.1718 69.6428 46.322 69.1441 46.6223 68.7191C46.9227 68.2941 47.342 67.9683 47.8803 67.7416C48.4187 67.5093 49.0533 67.3931 49.7843 67.3931C50.4983 67.3931 51.1302 67.5036 51.6798 67.7246C52.2352 67.9456 52.6828 68.2601 53.0228 68.6681C53.3628 69.0761 53.5725 69.555 53.6518 70.1046L51.5608 70.4786C51.5098 70.0876 51.3313 69.7788 51.0253 69.5521C50.725 69.3255 50.3227 69.198 49.8183 69.1696C49.3367 69.1413 48.9485 69.215 48.6538 69.3906C48.3592 69.5606 48.2118 69.8015 48.2118 70.1131C48.2118 70.2888 48.2713 70.439 48.3903 70.5636C48.5093 70.6883 48.7473 70.813 49.1043 70.9376C49.467 71.0623 50.0053 71.2153 50.7193 71.3966C51.4503 71.5836 52.034 71.799 52.4703 72.0426C52.9123 72.2806 53.2297 72.5668 53.4223 72.9011C53.6207 73.2355 53.7198 73.6406 53.7198 74.1166C53.7198 75.0403 53.3827 75.7656 52.7083 76.2926C52.0397 76.8196 51.1132 77.0831 49.9288 77.0831ZM55.7516 76.8281V64.3331H57.8001V76.8281H55.7516ZM62.9133 77.0831C62.2503 77.0831 61.6893 76.9585 61.2303 76.7091C60.7713 76.4541 60.4228 76.117 60.1848 75.6976C59.9524 75.2783 59.8363 74.8165 59.8363 74.3121C59.8363 73.8701 59.9099 73.4735 60.0573 73.1221C60.2046 72.7651 60.4313 72.4591 60.7373 72.2041C61.0433 71.9435 61.4399 71.731 61.9273 71.5666C62.2956 71.4476 62.7263 71.34 63.2193 71.2436C63.7179 71.1473 64.2563 71.0595 64.8343 70.9801C65.4179 70.8951 66.0271 70.8045 66.6618 70.7081L65.9308 71.1246C65.9364 70.49 65.7948 70.0225 65.5058 69.7221C65.2168 69.4218 64.7294 69.2716 64.0438 69.2716C63.6301 69.2716 63.2306 69.368 62.8453 69.5606C62.4599 69.7533 62.1908 70.0848 62.0378 70.5551L60.1678 69.9686C60.3944 69.1923 60.8251 68.569 61.4598 68.0986C62.1001 67.6283 62.9614 67.3931 64.0438 67.3931C64.8598 67.3931 65.5766 67.5263 66.1943 67.7926C66.8176 68.059 67.2794 68.4953 67.5798 69.1016C67.7441 69.4246 67.8433 69.7561 67.8773 70.0961C67.9113 70.4305 67.9283 70.796 67.9283 71.1926V76.8281H66.1348V74.8391L66.4323 75.1621C66.0186 75.8251 65.5341 76.3125 64.9788 76.6241C64.4291 76.9301 63.7406 77.0831 62.9133 77.0831ZM63.3213 75.4511C63.7859 75.4511 64.1826 75.369 64.5113 75.2046C64.8399 75.0403 65.1006 74.8391 65.2933 74.6011C65.4916 74.3631 65.6248 74.1393 65.6928 73.9296C65.8004 73.669 65.8599 73.3715 65.8713 73.0371C65.8883 72.6971 65.8968 72.4223 65.8968 72.2126L66.5258 72.3996C65.9081 72.496 65.3783 72.581 64.9363 72.6546C64.4943 72.7283 64.1146 72.7991 63.7973 72.8671C63.4799 72.9295 63.1994 73.0003 62.9558 73.0796C62.7178 73.1646 62.5166 73.2638 62.3523 73.3771C62.1879 73.4905 62.0604 73.6208 61.9698 73.7681C61.8848 73.9155 61.8423 74.0883 61.8423 74.2866C61.8423 74.5133 61.8989 74.7145 62.0123 74.8901C62.1256 75.0601 62.2899 75.1961 62.5053 75.2981C62.7263 75.4001 62.9983 75.4511 63.3213 75.4511ZM76.4907 76.8281V72.4081C76.4907 72.1191 76.4708 71.799 76.4312 71.4476C76.3915 71.0963 76.298 70.7591 76.1507 70.4361C76.009 70.1075 75.7937 69.8383 75.5047 69.6286C75.2213 69.419 74.836 69.3141 74.3487 69.3141C74.088 69.3141 73.8302 69.3566 73.5752 69.4416C73.3202 69.5266 73.0878 69.674 72.8782 69.8836C72.6742 70.0876 72.5098 70.371 72.3852 70.7336C72.2605 71.0906 72.1982 71.5496 72.1982 72.1106L70.9827 71.5921C70.9827 70.8101 71.1328 70.1018 71.4332 69.4671C71.7392 68.8325 72.1868 68.3281 72.7762 67.9541C73.3655 67.5745 74.0908 67.3846 74.9522 67.3846C75.6322 67.3846 76.1932 67.498 76.6352 67.7246C77.0772 67.9513 77.4285 68.2403 77.6892 68.5916C77.9498 68.943 78.1425 69.317 78.2672 69.7136C78.3918 70.1103 78.4712 70.4871 78.5052 70.8441C78.5448 71.1955 78.5647 71.4816 78.5647 71.7026V76.8281H76.4907ZM70.1242 76.8281V67.6481H71.9517V70.4956H72.1982V76.8281H70.1242ZM84.3139 77.0831C83.4695 77.0831 82.7329 76.8706 82.1039 76.4456C81.4749 76.0206 80.9875 75.4426 80.6419 74.7116C80.2962 73.9806 80.1234 73.1561 80.1234 72.2381C80.1234 71.3088 80.2962 70.4815 80.6419 69.7561C80.9932 69.0251 81.489 68.45 82.1294 68.0306C82.7697 67.6056 83.5234 67.3931 84.3904 67.3931C85.263 67.3931 85.994 67.6056 86.5834 68.0306C87.1784 68.45 87.6289 69.0251 87.9349 69.7561C88.2409 70.4871 88.3939 71.3145 88.3939 72.2381C88.3939 73.1505 88.2409 73.975 87.9349 74.7116C87.6289 75.4426 87.1727 76.0206 86.5664 76.4456C85.96 76.8706 85.2092 77.0831 84.3139 77.0831ZM84.6284 75.2471C85.178 75.2471 85.62 75.1225 85.9544 74.8731C86.2944 74.6181 86.5409 74.264 86.6939 73.8106C86.8525 73.3573 86.9319 72.8331 86.9319 72.2381C86.9319 71.6375 86.8525 71.1133 86.6939 70.6656C86.5409 70.2123 86.3 69.861 85.9714 69.6116C85.6427 69.3566 85.2177 69.2291 84.6964 69.2291C84.1467 69.2291 83.6934 69.3651 83.3364 69.6371C82.9794 69.9035 82.7159 70.2661 82.5459 70.7251C82.3759 71.1785 82.2909 71.6828 82.2909 72.2381C82.2909 72.7991 82.373 73.3091 82.5374 73.7681C82.7074 74.2215 82.9652 74.5813 83.3109 74.8476C83.6565 75.114 84.0957 75.2471 84.6284 75.2471ZM86.9319 76.8281V70.3851H86.6769V64.5881H88.7424V76.8281H86.9319ZM99.0594 77.0831C98.164 77.0831 97.3565 76.9273 96.6369 76.6156C95.9229 76.304 95.3335 75.8591 94.8689 75.2811C94.4099 74.6975 94.118 74.0061 93.9934 73.2071L96.1184 72.8841C96.2997 73.6095 96.6709 74.1705 97.2319 74.5671C97.7985 74.9638 98.4502 75.1621 99.1869 75.1621C99.6232 75.1621 100.034 75.0941 100.419 74.9581C100.805 74.8221 101.116 74.6238 101.354 74.3631C101.598 74.1025 101.72 73.7823 101.72 73.4026C101.72 73.2326 101.692 73.0768 101.635 72.9351C101.578 72.7878 101.493 72.6575 101.38 72.5441C101.272 72.4308 101.131 72.3288 100.955 72.2381C100.785 72.1418 100.587 72.0596 100.36 71.9916L97.1979 71.0566C96.9259 70.9773 96.6312 70.8725 96.3139 70.7421C96.0022 70.6061 95.7047 70.422 95.4214 70.1896C95.1437 69.9516 94.9142 69.6513 94.7329 69.2886C94.5572 68.9203 94.4694 68.467 94.4694 67.9286C94.4694 67.141 94.6677 66.4808 95.0644 65.9481C95.4667 65.4098 96.005 65.0075 96.6794 64.7411C97.3594 64.4748 98.113 64.3445 98.9404 64.3501C99.779 64.3558 100.527 64.5003 101.184 64.7836C101.842 65.0613 102.391 65.4665 102.833 65.9991C103.275 66.5318 103.587 67.175 103.768 67.9286L101.567 68.3111C101.476 67.8805 101.301 67.515 101.04 67.2146C100.785 66.9086 100.47 66.6763 100.096 66.5176C99.728 66.359 99.3342 66.274 98.9149 66.2626C98.5069 66.257 98.1272 66.3193 97.7759 66.4496C97.4302 66.5743 97.1497 66.7556 96.9344 66.9936C96.7247 67.2316 96.6199 67.5093 96.6199 67.8266C96.6199 68.127 96.7105 68.3735 96.8919 68.5661C97.0732 68.7531 97.297 68.9033 97.5634 69.0166C97.8354 69.1243 98.1102 69.215 98.3879 69.2886L100.581 69.9006C100.881 69.98 101.218 70.0876 101.592 70.2236C101.966 70.3596 102.326 70.5495 102.672 70.7931C103.018 71.0368 103.301 71.357 103.522 71.7536C103.749 72.1503 103.862 72.6546 103.862 73.2666C103.862 73.9013 103.729 74.4595 103.462 74.9411C103.202 75.4171 102.848 75.8138 102.4 76.1311C101.952 76.4485 101.439 76.6865 100.861 76.8451C100.289 77.0038 99.6884 77.0831 99.0594 77.0831ZM109.875 77.0831C108.946 77.0831 108.13 76.882 107.427 76.4796C106.725 76.0773 106.175 75.5191 105.778 74.8051C105.387 74.0911 105.192 73.2695 105.192 72.3401C105.192 71.3371 105.384 70.4673 105.77 69.7306C106.155 68.9883 106.691 68.4131 107.376 68.0051C108.062 67.5971 108.855 67.3931 109.756 67.3931C110.708 67.3931 111.516 67.617 112.179 68.0646C112.847 68.5066 113.343 69.1328 113.666 69.9431C113.989 70.7535 114.111 71.7083 114.032 72.8076H112V72.0596C111.995 71.0623 111.819 70.3341 111.473 69.8751C111.128 69.4161 110.584 69.1866 109.841 69.1866C109.003 69.1866 108.379 69.4473 107.971 69.9686C107.563 70.4843 107.359 71.2408 107.359 72.2381C107.359 73.1675 107.563 73.8871 107.971 74.3971C108.379 74.9071 108.974 75.1621 109.756 75.1621C110.261 75.1621 110.694 75.0516 111.057 74.8306C111.425 74.604 111.708 74.2781 111.907 73.8531L113.93 74.4651C113.578 75.2925 113.034 75.9356 112.298 76.3946C111.567 76.8536 110.759 77.0831 109.875 77.0831ZM106.713 72.8076V71.2606H113.029V72.8076H106.713ZM119.915 77.0831C118.968 77.0831 118.161 76.8735 117.492 76.4541C116.824 76.0291 116.311 75.4511 115.954 74.7201C115.602 73.9891 115.424 73.1618 115.418 72.2381C115.424 71.2975 115.608 70.4645 115.971 69.7391C116.339 69.0081 116.86 68.4358 117.535 68.0221C118.209 67.6028 119.011 67.3931 119.94 67.3931C120.983 67.3931 121.864 67.6566 122.584 68.1836C123.309 68.705 123.782 69.419 124.003 70.3256L121.963 70.8781C121.805 70.3851 121.541 70.0026 121.173 69.7306C120.804 69.453 120.385 69.3141 119.915 69.3141C119.382 69.3141 118.943 69.4416 118.597 69.6966C118.252 69.946 117.997 70.2916 117.832 70.7336C117.668 71.1756 117.586 71.6771 117.586 72.2381C117.586 73.1108 117.781 73.8163 118.172 74.3546C118.563 74.893 119.144 75.1621 119.915 75.1621C120.459 75.1621 120.887 75.0375 121.198 74.7881C121.516 74.5388 121.754 74.179 121.912 73.7086L124.003 74.1761C123.72 75.1111 123.224 75.8308 122.516 76.3351C121.807 76.8338 120.94 77.0831 119.915 77.0831ZM129.149 77.0916C128.469 77.0916 127.908 76.9783 127.466 76.7516C127.024 76.525 126.673 76.236 126.412 75.8846C126.151 75.5333 125.959 75.1593 125.834 74.7626C125.709 74.366 125.627 73.992 125.588 73.6406C125.554 73.2836 125.537 72.9946 125.537 72.7736V67.6481H127.611V72.0681C127.611 72.3515 127.63 72.6716 127.67 73.0286C127.71 73.38 127.8 73.72 127.942 74.0486C128.089 74.3716 128.305 74.638 128.588 74.8476C128.877 75.0573 129.265 75.1621 129.753 75.1621C130.013 75.1621 130.271 75.1196 130.526 75.0346C130.781 74.9496 131.011 74.8051 131.215 74.6011C131.424 74.3915 131.591 74.1053 131.716 73.7426C131.841 73.38 131.903 72.921 131.903 72.3656L133.119 72.8841C133.119 73.6661 132.966 74.3745 132.66 75.0091C132.359 75.6438 131.914 76.151 131.325 76.5306C130.736 76.9046 130.01 77.0916 129.149 77.0916ZM132.15 76.8281V73.9806H131.903V67.6481H133.96V76.8281H132.15ZM136.348 76.8281V67.6481H138.159V69.8836L137.938 69.5946C138.051 69.2886 138.201 69.011 138.388 68.7616C138.581 68.5066 138.81 68.297 139.077 68.1326C139.303 67.9796 139.553 67.8606 139.825 67.7756C140.102 67.685 140.386 67.6311 140.675 67.6141C140.964 67.5915 141.244 67.6028 141.516 67.6481V69.5606C141.244 69.4813 140.93 69.4558 140.573 69.4841C140.221 69.5125 139.904 69.6116 139.621 69.7816C139.337 69.9346 139.105 70.1301 138.924 70.3681C138.748 70.6061 138.618 70.8781 138.533 71.1841C138.448 71.4845 138.405 71.8103 138.405 72.1616V76.8281H136.348ZM143.308 66.2541V64.3756H145.357V66.2541H143.308ZM143.308 76.8281V67.6481H145.357V76.8281H143.308ZM153.283 76.8281C152.677 76.9415 152.082 76.9896 151.498 76.9726C150.92 76.9613 150.402 76.8565 149.943 76.6581C149.484 76.4541 149.135 76.134 148.897 75.6976C148.688 75.301 148.577 74.8958 148.566 74.4821C148.555 74.0685 148.549 73.601 148.549 73.0796V65.0981H150.589V72.9606C150.589 73.329 150.592 73.652 150.597 73.9296C150.609 74.2073 150.668 74.434 150.776 74.6096C150.98 74.9496 151.306 75.1395 151.753 75.1791C152.201 75.2188 152.711 75.1961 153.283 75.1111V76.8281ZM146.883 69.2546V67.6481H153.283V69.2546H146.883ZM156.215 80.9081L157.983 76.0546L158.017 77.4826L154.014 67.6481H156.147L158.986 74.9241H158.442L161.205 67.6481H163.253L158.136 80.9081H156.215Z" fill="white"/>
<path d="M26.5194 90.8281V85.0681H27.3674L30.2034 89.3481V85.0681H31.0514V90.8281H30.2034L27.3674 86.5441V90.8281H26.5194ZM33.3678 90.8281L35.2398 85.0681H36.4438L38.3158 90.8281H37.4478L35.7238 85.5721H35.9398L34.2358 90.8281H33.3678ZM34.3398 89.5281V88.7441H37.3478V89.5281H34.3398ZM41.4229 90.8281L39.5509 85.0681H40.4189L42.0149 89.9841L43.6309 85.0681H44.4989L42.6269 90.8281H41.4229ZM46.7822 90.8281V85.0681H47.6182V90.8281H46.7822ZM52.7754 90.9481C52.3887 90.9481 52.0327 90.8815 51.7074 90.7481C51.382 90.6121 51.0994 90.4148 50.8594 90.1561C50.6194 89.8975 50.4327 89.5828 50.2994 89.2121C50.166 88.8415 50.0994 88.4201 50.0994 87.9481C50.0994 87.3268 50.2127 86.7935 50.4394 86.3481C50.666 85.9001 50.9807 85.5561 51.3834 85.3161C51.786 85.0735 52.25 84.9521 52.7754 84.9521C53.4527 84.9521 53.9927 85.1095 54.3954 85.4241C54.8007 85.7388 55.0767 86.1735 55.2234 86.7281L54.3754 86.8801C54.258 86.5361 54.0687 86.2615 53.8074 86.0561C53.546 85.8508 53.218 85.7468 52.8234 85.7441C52.4154 85.7415 52.0754 85.8321 51.8034 86.0161C51.534 86.2001 51.3314 86.4588 51.1954 86.7921C51.0594 87.1228 50.99 87.5081 50.9874 87.9481C50.9847 88.3881 51.0514 88.7735 51.1874 89.1041C51.3234 89.4321 51.5274 89.6881 51.7994 89.8721C52.074 90.0561 52.4154 90.1495 52.8234 90.1521C53.1514 90.1575 53.4327 90.0975 53.6674 89.9721C53.9047 89.8441 54.0927 89.6575 54.2314 89.4121C54.37 89.1668 54.4594 88.8655 54.4994 88.5081H53.3794V87.8361H55.3874C55.3927 87.8841 55.3967 87.9481 55.3994 88.0281C55.402 88.1055 55.4034 88.1548 55.4034 88.1761C55.4034 88.7095 55.3007 89.1855 55.0954 89.6041C54.89 90.0228 54.5914 90.3521 54.1994 90.5921C53.8074 90.8295 53.3327 90.9481 52.7754 90.9481ZM57.2444 90.8281L59.1164 85.0681H60.3204L62.1924 90.8281H61.3244L59.6004 85.5721H59.8164L58.1124 90.8281H57.2444ZM58.2164 89.5281V88.7441H61.2244V89.5281H58.2164ZM65.4694 90.8281V85.8561H63.5534V85.0681H68.2214V85.8561H66.3054V90.8281H65.4694ZM70.4616 90.8281V85.0681H74.1416V85.8561H71.2976V87.4721H73.6616V88.2601H71.2976V90.0401H74.1416V90.8281H70.4616ZM82.3078 90.9481C81.7318 90.9481 81.2411 90.8228 80.8358 90.5721C80.4304 90.3188 80.1198 89.9668 79.9038 89.5161C79.6904 89.0655 79.5838 88.5428 79.5838 87.9481C79.5838 87.3535 79.6904 86.8308 79.9038 86.3801C80.1198 85.9295 80.4304 85.5788 80.8358 85.3281C81.2411 85.0748 81.7318 84.9481 82.3078 84.9481C82.9718 84.9481 83.5211 85.1161 83.9557 85.4521C84.3931 85.7881 84.6971 86.2401 84.8678 86.8081L84.0198 87.0361C83.9078 86.6335 83.7078 86.3175 83.4198 86.0881C83.1344 85.8588 82.7638 85.7441 82.3078 85.7441C81.8998 85.7441 81.5598 85.8361 81.2878 86.0201C81.0158 86.2041 80.8104 86.4615 80.6718 86.7921C80.5358 87.1228 80.4678 87.5081 80.4678 87.9481C80.4651 88.3881 80.5318 88.7735 80.6678 89.1041C80.8064 89.4348 81.0118 89.6921 81.2838 89.8761C81.5584 90.0601 81.8998 90.1521 82.3078 90.1521C82.7638 90.1521 83.1344 90.0375 83.4198 89.8081C83.7078 89.5761 83.9078 89.2601 84.0198 88.8601L84.8678 89.0881C84.6971 89.6561 84.3931 90.1081 83.9557 90.4441C83.5211 90.7801 82.9718 90.9481 82.3078 90.9481ZM88.4933 90.8281V88.4481L86.5453 85.0681H87.5213L88.9173 87.4881L90.3133 85.0681H91.2893L89.3413 88.4481V90.8281H88.4933ZM93.4475 90.8281V85.0681H95.7115C96.0768 85.0681 96.3835 85.1428 96.6315 85.2921C96.8795 85.4415 97.0662 85.6348 97.1915 85.8721C97.3168 86.1068 97.3795 86.3548 97.3795 86.6161C97.3795 86.9335 97.3008 87.2055 97.1435 87.4321C96.9888 87.6588 96.7795 87.8135 96.5155 87.8961L96.5075 87.7001C96.8755 87.7908 97.1582 87.9681 97.3555 88.2321C97.5528 88.4935 97.6515 88.7988 97.6515 89.1481C97.6515 89.4868 97.5835 89.7815 97.4475 90.0321C97.3142 90.2828 97.1182 90.4788 96.8595 90.6201C96.6035 90.7588 96.2928 90.8281 95.9275 90.8281H93.4475ZM94.2955 90.0321H95.7995C95.9888 90.0321 96.1582 89.9961 96.3075 89.9241C96.4595 89.8521 96.5782 89.7495 96.6635 89.6161C96.7515 89.4801 96.7955 89.3188 96.7955 89.1321C96.7955 88.9588 96.7568 88.8028 96.6795 88.6641C96.6048 88.5228 96.4955 88.4121 96.3515 88.3321C96.2102 88.2495 96.0435 88.2081 95.8515 88.2081H94.2955V90.0321ZM94.2955 87.4201H95.6995C95.8542 87.4201 95.9928 87.3895 96.1155 87.3281C96.2408 87.2641 96.3395 87.1735 96.4115 87.0561C96.4862 86.9361 96.5235 86.7921 96.5235 86.6241C96.5235 86.4001 96.4488 86.2161 96.2995 86.0721C96.1502 85.9281 95.9502 85.8561 95.6995 85.8561H94.2955V87.4201ZM100.047 90.8281V85.0681H103.727V85.8561H100.883V87.4721H103.247V88.2601H100.883V90.0401H103.727V90.8281H100.047ZM106.288 90.8281V85.0681H108.616C108.672 85.0681 108.741 85.0708 108.824 85.0761C108.907 85.0788 108.985 85.0868 109.06 85.1001C109.38 85.1508 109.647 85.2601 109.86 85.4281C110.076 85.5961 110.237 85.8081 110.344 86.0641C110.451 86.3201 110.504 86.6028 110.504 86.9121C110.504 87.3708 110.387 87.7668 110.152 88.1001C109.917 88.4308 109.565 88.6375 109.096 88.7201L108.756 88.7601H107.124V90.8281H106.288ZM109.656 90.8281L108.52 88.4841L109.364 88.2681L110.612 90.8281H109.656ZM107.124 87.9681H108.584C108.637 87.9681 108.696 87.9655 108.76 87.9601C108.827 87.9548 108.889 87.9455 108.948 87.9321C109.119 87.8921 109.256 87.8188 109.36 87.7121C109.464 87.6028 109.539 87.4775 109.584 87.3361C109.629 87.1948 109.652 87.0535 109.652 86.9121C109.652 86.7708 109.629 86.6308 109.584 86.4921C109.539 86.3508 109.464 86.2268 109.36 86.1201C109.256 86.0108 109.119 85.9361 108.948 85.8961C108.889 85.8801 108.827 85.8695 108.76 85.8641C108.696 85.8588 108.637 85.8561 108.584 85.8561H107.124V87.9681ZM116.293 90.8281V85.0681H118.621C118.677 85.0681 118.746 85.0708 118.829 85.0761C118.911 85.0788 118.99 85.0868 119.065 85.1001C119.385 85.1508 119.651 85.2601 119.865 85.4281C120.081 85.5961 120.242 85.8081 120.349 86.0641C120.455 86.3201 120.509 86.6028 120.509 86.9121C120.509 87.3708 120.391 87.7668 120.157 88.1001C119.922 88.4308 119.57 88.6375 119.101 88.7201L118.761 88.7601H117.129V90.8281H116.293ZM119.661 90.8281L118.525 88.4841L119.369 88.2681L120.617 90.8281H119.661ZM117.129 87.9681H118.589C118.642 87.9681 118.701 87.9655 118.765 87.9601C118.831 87.9548 118.894 87.9455 118.953 87.9321C119.123 87.8921 119.261 87.8188 119.365 87.7121C119.469 87.6028 119.543 87.4775 119.589 87.3361C119.634 87.1948 119.657 87.0535 119.657 86.9121C119.657 86.7708 119.634 86.6308 119.589 86.4921C119.543 86.3508 119.469 86.2268 119.365 86.1201C119.261 86.0108 119.123 85.9361 118.953 85.8961C118.894 85.8801 118.831 85.8695 118.765 85.8641C118.701 85.8588 118.642 85.8561 118.589 85.8561H117.129V87.9681ZM123.176 90.8281V85.0681H124.012V90.8281H123.176ZM128.901 90.9481C128.488 90.9481 128.114 90.8775 127.781 90.7361C127.45 90.5921 127.177 90.3881 126.961 90.1241C126.748 89.8575 126.609 89.5415 126.545 89.1761L127.417 89.0441C127.505 89.3961 127.689 89.6708 127.969 89.8681C128.249 90.0628 128.576 90.1601 128.949 90.1601C129.181 90.1601 129.394 90.1241 129.589 90.0521C129.784 89.9775 129.94 89.8721 130.057 89.7361C130.177 89.5975 130.237 89.4321 130.237 89.2401C130.237 89.1361 130.218 89.0441 130.181 88.9641C130.146 88.8841 130.097 88.8148 130.033 88.7561C129.972 88.6948 129.896 88.6428 129.805 88.6001C129.717 88.5548 129.62 88.5161 129.513 88.4841L128.037 88.0481C127.893 88.0055 127.746 87.9508 127.597 87.8841C127.448 87.8148 127.31 87.7255 127.185 87.6161C127.062 87.5041 126.962 87.3668 126.885 87.2041C126.808 87.0388 126.769 86.8388 126.769 86.6041C126.769 86.2495 126.86 85.9495 127.041 85.7041C127.225 85.4561 127.473 85.2695 127.785 85.1441C128.097 85.0161 128.446 84.9521 128.833 84.9521C129.222 84.9575 129.57 85.0268 129.877 85.1601C130.186 85.2935 130.442 85.4855 130.645 85.7361C130.85 85.9841 130.992 86.2855 131.069 86.6401L130.173 86.7921C130.133 86.5761 130.048 86.3908 129.917 86.2361C129.786 86.0788 129.626 85.9588 129.437 85.8761C129.248 85.7908 129.042 85.7468 128.821 85.7441C128.608 85.7388 128.412 85.7708 128.233 85.8401C128.057 85.9095 127.916 86.0068 127.809 86.1321C127.705 86.2575 127.653 86.4015 127.653 86.5641C127.653 86.7241 127.7 86.8535 127.793 86.9521C127.886 87.0508 128.001 87.1295 128.137 87.1881C128.276 87.2441 128.413 87.2908 128.549 87.3281L129.613 87.6281C129.746 87.6655 129.897 87.7161 130.065 87.7801C130.236 87.8415 130.4 87.9281 130.557 88.0401C130.717 88.1521 130.849 88.3015 130.953 88.4881C131.057 88.6721 131.109 88.9041 131.109 89.1841C131.109 89.4748 131.05 89.7308 130.933 89.9521C130.816 90.1708 130.654 90.3548 130.449 90.5041C130.246 90.6508 130.012 90.7615 129.745 90.8361C129.478 90.9108 129.197 90.9481 128.901 90.9481ZM133.562 90.8281V85.0681H134.398V87.7561L136.81 85.0681H137.85L135.302 87.8801L138.038 90.8281H136.966L134.398 88.0761V90.8281H133.562Z" fill="white"/>
<defs>
<linearGradient id="paint0_linear_2241_33" x1="72.4138" y1="41.1505" x2="116.341" y2="13.6732" gradientUnits="userSpaceOnUse">
<stop stop-color="#2B98E3"/>
<stop offset="0.463247" stop-color="#31B6CB"/>
<stop offset="1" stop-color="#3CD4C7"/>
</linearGradient>
<linearGradient id="paint1_linear_2241_33" x1="48.9054" y1="25.4692" x2="80.9385" y2="39.2551" gradientUnits="userSpaceOnUse">
<stop stop-color="#05101F"/>
<stop offset="0.999999" stop-color="#2B98E3" stop-opacity="0"/>
</linearGradient>
<linearGradient id="paint2_linear_2241_33" x1="80.8646" y1="14.9222" x2="47.3215" y2="31.6639" gradientUnits="userSpaceOnUse">
<stop stop-color="#2B98E3"/>
<stop offset="0.463247" stop-color="#31B6CB"/>
<stop offset="1" stop-color="#3CD4C7"/>
</linearGradient>
<linearGradient id="paint3_linear_2241_33" x1="117.782" y1="32.4135" x2="75.6103" y2="16.0015" gradientUnits="userSpaceOnUse">
<stop stop-color="#05101F"/>
<stop offset="0.999999" stop-color="#2B98E3" stop-opacity="0"/>
</linearGradient>
<clipPath id="clip0_2241_33">
<rect width="73" height="52.8289" fill="white" transform="translate(45.5)"/>
</clipPath>
</defs>
</svg>
