<svg width="164" height="93" viewBox="0 0 164 93" fill="none" xmlns="http://www.w3.org/2000/svg">
<g clip-path="url(#clip0_2241_44)">
<path d="M52.4389 37.5063L50.8418 36.5859C51.3523 36.9345 51.886 37.2421 52.4389 37.5063Z" fill="#2A97E2"/>
<path d="M118.5 26.3913C118.5 28.2081 118.1 30.0031 117.335 31.6406C116.316 33.8259 114.647 35.7305 112.416 37.0299L102.234 42.96L87.9819 51.261C86.2158 52.2892 84.2482 52.8117 82.2765 52.827C80.2753 52.8428 78.2705 52.336 76.4702 51.3061L72.2388 48.8853L72.2115 48.8701C71.8904 48.6879 71.5564 48.4981 71.2115 48.3018C69.4111 47.2777 67.3175 46.0773 65.2013 44.8599L65.1856 44.8505C64.1193 44.2371 63.0478 43.6191 62.0048 43.0174L61.5384 42.7485L52.4392 37.505L50.8422 36.5847C50.51 36.3585 50.1876 36.1142 49.877 35.8535L53.3121 31.9552L63.5188 30.9335L67.7659 31.3588L70.5773 31.6406L72.6535 31.8486L73.0106 31.6406L77.4987 29.0271L82.2765 26.2443L82.8271 25.9238L87.469 23.2201V23.2195L100.251 15.775C103.797 13.7099 107.945 13.6501 111.405 15.2472C113.622 16.2701 115.557 17.9743 116.868 20.2668C117.975 22.1995 118.5 24.3092 118.5 26.3913Z" fill="url(#paint0_linear_2241_44)"/>
<path d="M82.2765 26.2461V52.8288C80.2753 52.8446 78.2705 52.3378 76.4702 51.3079L72.2388 48.8871L72.2115 48.8719C71.8904 48.6897 71.5564 48.4999 71.2115 48.3036C69.4111 47.2795 67.3175 46.0791 65.2013 44.8617L65.1856 44.8523C64.1193 44.2389 63.0478 43.6209 62.0048 43.0192L61.5385 42.7503L52.4392 37.5069L50.8422 36.5865C50.51 36.3603 50.1876 36.116 49.877 35.8553L53.3121 31.957L63.5188 30.9353L72.6535 31.8504L82.2765 26.2461Z" fill="url(#paint1_linear_2241_44)"/>
<path d="M105.403 11.7793C105.297 11.7178 105.19 11.6563 105.082 11.5936L104.302 11.1425C102.581 10.1477 100.689 9.05627 98.8148 7.97711L98.7991 7.96774C96.6829 6.75033 94.5893 5.54991 92.7889 4.52583C92.444 4.32957 92.11 4.13975 91.7889 3.95755L91.7616 3.94232L87.5302 1.52156C83.9563 -0.52308 79.5768 -0.506095 76.0185 1.56667L67.7655 6.37363L61.7663 9.86768L51.5845 15.7977C47.6819 18.0708 45.5 22.1953 45.5 26.4363C45.5 28.5184 46.0256 30.6281 47.1319 32.5609C47.8701 33.8503 48.8051 34.9541 49.8766 35.8551C50.1873 36.1158 50.5096 36.3601 50.8418 36.5863L52.4388 37.5067C55.7648 39.1002 59.7534 39.1482 63.2362 37.335C63.4087 37.2454 63.5794 37.1516 63.749 37.0526L72.6775 31.8526L73.0387 31.6422L76.5313 29.6081V29.6076L82.2761 26.2617L82.8296 25.9395L82.8267 25.9254L87.4686 23.2217V23.2211L100.251 15.7766C103.797 13.7115 107.945 13.6517 111.404 15.2488L105.403 11.7793Z" fill="url(#paint2_linear_2241_44)"/>
<path d="M111.405 15.2488C107.945 13.6517 103.797 13.7115 100.251 15.7766L87.4688 23.2211V23.2217L82.8268 25.9254L82.8298 25.9395L82.2763 26.2617L76.5315 29.6075V29.6081L73.0389 31.6422H67.7656V6.37363L76.0187 1.56667C79.577 -0.506094 83.9564 -0.523079 87.5304 1.52156L91.7617 3.94232L91.789 3.95755C92.1102 4.13975 92.4441 4.32957 92.7891 4.52583C94.5894 5.54991 96.683 6.75033 98.7993 7.96774L98.815 7.97711C100.69 9.05627 102.581 10.1477 104.302 11.1425L105.082 11.5936C105.19 11.6563 105.297 11.7178 105.403 11.7793L111.405 15.2488Z" fill="url(#paint3_linear_2241_44)"/>
</g>
<path d="M7.81891 76.8281V64.5881H12.6724C13.4997 64.5881 14.1769 64.7553 14.7039 65.0896C15.2366 65.4183 15.6304 65.8405 15.8854 66.3561C16.1461 66.8718 16.2764 67.4045 16.2764 67.9541C16.2764 68.6285 16.1149 69.2008 15.7919 69.6711C15.4746 70.1415 15.0411 70.4588 14.4914 70.6231V70.1981C15.2621 70.3738 15.8457 70.7393 16.2424 71.2946C16.6447 71.85 16.8459 72.4818 16.8459 73.1901C16.8459 73.9155 16.7071 74.5501 16.4294 75.0941C16.1517 75.6381 15.7381 76.0631 15.1884 76.3691C14.6444 76.6751 13.9701 76.8281 13.1654 76.8281H7.81891ZM9.89291 74.8986H12.9104C13.2674 74.8986 13.5876 74.8278 13.8709 74.6861C14.1542 74.5388 14.3752 74.3348 14.5339 74.0741C14.6982 73.8078 14.7804 73.4933 14.7804 73.1306C14.7804 72.802 14.7096 72.5073 14.5679 72.2466C14.4262 71.986 14.2194 71.7791 13.9474 71.6261C13.6754 71.4675 13.3496 71.3881 12.9699 71.3881H9.89291V74.8986ZM9.89291 69.4756H12.6469C12.9416 69.4756 13.2051 69.419 13.4374 69.3056C13.6697 69.1923 13.8539 69.0251 13.9899 68.8041C14.1259 68.5831 14.1939 68.3111 14.1939 67.9881C14.1939 67.5631 14.0579 67.209 13.7859 66.9256C13.5139 66.6423 13.1342 66.5006 12.6469 66.5006H9.89291V69.4756ZM18.7135 76.8281V64.3331H20.762V76.8281H18.7135ZM26.7507 77.0916C26.0707 77.0916 25.5097 76.9783 25.0677 76.7516C24.6257 76.525 24.2743 76.236 24.0137 75.8846C23.753 75.5333 23.5603 75.1593 23.4357 74.7626C23.311 74.366 23.2288 73.992 23.1892 73.6406C23.1552 73.2836 23.1382 72.9946 23.1382 72.7736V67.6481H25.2122V72.0681C25.2122 72.3515 25.232 72.6716 25.2717 73.0286C25.3113 73.38 25.402 73.72 25.5437 74.0486C25.691 74.3716 25.9063 74.638 26.1897 74.8476C26.4787 75.0573 26.8668 75.1621 27.3542 75.1621C27.6148 75.1621 27.8727 75.1196 28.1277 75.0346C28.3827 74.9496 28.6122 74.8051 28.8162 74.6011C29.0258 74.3915 29.193 74.1053 29.3177 73.7426C29.4423 73.38 29.5047 72.921 29.5047 72.3656L30.7202 72.8841C30.7202 73.6661 30.5672 74.3745 30.2612 75.0091C29.9608 75.6438 29.516 76.151 28.9267 76.5306C28.3373 76.9046 27.612 77.0916 26.7507 77.0916ZM29.7512 76.8281V73.9806H29.5047V67.6481H31.5617V76.8281H29.7512ZM38.1233 77.0831C37.1939 77.0831 36.3779 76.882 35.6753 76.4796C34.9726 76.0773 34.4229 75.5191 34.0263 74.8051C33.6353 74.0911 33.4398 73.2695 33.4398 72.3401C33.4398 71.3371 33.6324 70.4673 34.0178 69.7306C34.4031 68.9883 34.9386 68.4131 35.6243 68.0051C36.3099 67.5971 37.1033 67.3931 38.0043 67.3931C38.9563 67.3931 39.7638 67.617 40.4268 68.0646C41.0954 68.5066 41.5913 69.1328 41.9143 69.9431C42.2373 70.7535 42.3591 71.7083 42.2798 72.8076H40.2483V72.0596C40.2426 71.0623 40.0669 70.3341 39.7213 69.8751C39.3756 69.4161 38.8316 69.1866 38.0893 69.1866C37.2506 69.1866 36.6273 69.4473 36.2193 69.9686C35.8113 70.4843 35.6073 71.2408 35.6073 72.2381C35.6073 73.1675 35.8113 73.8871 36.2193 74.3971C36.6273 74.9071 37.2223 75.1621 38.0043 75.1621C38.5086 75.1621 38.9421 75.0516 39.3048 74.8306C39.6731 74.604 39.9564 74.2781 40.1548 73.8531L42.1778 74.4651C41.8264 75.2925 41.2824 75.9356 40.5458 76.3946C39.8148 76.8536 39.0073 77.0831 38.1233 77.0831ZM34.9613 72.8076V71.2606H41.2768V72.8076H34.9613ZM47.7496 76.8281V64.5881H49.7981V76.8281H47.7496ZM55.8888 77.0831C54.7555 77.0831 53.8346 76.8281 53.1263 76.3181C52.418 75.8081 51.9873 75.0913 51.8343 74.1676L53.9253 73.8446C54.033 74.298 54.271 74.655 54.6393 74.9156C55.0076 75.1763 55.4723 75.3066 56.0333 75.3066C56.5263 75.3066 56.906 75.2103 57.1723 75.0176C57.4443 74.8193 57.5803 74.5501 57.5803 74.2101C57.5803 74.0005 57.5293 73.8333 57.4273 73.7086C57.331 73.5783 57.1156 73.4536 56.7813 73.3346C56.447 73.2156 55.9341 73.0655 55.2428 72.8841C54.4721 72.6801 53.8601 72.462 53.4068 72.2296C52.9535 71.9916 52.6276 71.7111 52.4293 71.3881C52.231 71.0651 52.1318 70.6741 52.1318 70.2151C52.1318 69.6428 52.282 69.1441 52.5823 68.7191C52.8826 68.2941 53.302 67.9683 53.8403 67.7416C54.3786 67.5093 55.0133 67.3931 55.7443 67.3931C56.4583 67.3931 57.0901 67.5036 57.6398 67.7246C58.1951 67.9456 58.6428 68.2601 58.9828 68.6681C59.3228 69.0761 59.5325 69.555 59.6118 70.1046L57.5208 70.4786C57.4698 70.0876 57.2913 69.7788 56.9853 69.5521C56.685 69.3255 56.2826 69.198 55.7783 69.1696C55.2966 69.1413 54.9085 69.215 54.6138 69.3906C54.3191 69.5606 54.1718 69.8015 54.1718 70.1131C54.1718 70.2888 54.2313 70.439 54.3503 70.5636C54.4693 70.6883 54.7073 70.813 55.0643 70.9376C55.427 71.0623 55.9653 71.2153 56.6793 71.3966C57.4103 71.5836 57.994 71.799 58.4303 72.0426C58.8723 72.2806 59.1896 72.5668 59.3823 72.9011C59.5806 73.2355 59.6798 73.6406 59.6798 74.1166C59.6798 75.0403 59.3426 75.7656 58.6683 76.2926C57.9996 76.8196 57.0731 77.0831 55.8888 77.0831ZM61.7116 76.8281V64.3331H63.7601V76.8281H61.7116ZM68.8732 77.0831C68.2102 77.0831 67.6492 76.9585 67.1902 76.7091C66.7312 76.4541 66.3827 76.117 66.1447 75.6976C65.9124 75.2783 65.7962 74.8165 65.7962 74.3121C65.7962 73.8701 65.8699 73.4735 66.0172 73.1221C66.1645 72.7651 66.3912 72.4591 66.6972 72.2041C67.0032 71.9435 67.3999 71.731 67.8872 71.5666C68.2555 71.4476 68.6862 71.34 69.1792 71.2436C69.6779 71.1473 70.2162 71.0595 70.7942 70.9801C71.3779 70.8951 71.987 70.8045 72.6217 70.7081L71.8907 71.1246C71.8964 70.49 71.7547 70.0225 71.4657 69.7221C71.1767 69.4218 70.6894 69.2716 70.0037 69.2716C69.59 69.2716 69.1905 69.368 68.8052 69.5606C68.4199 69.7533 68.1507 70.0848 67.9977 70.5551L66.1277 69.9686C66.3544 69.1923 66.785 68.569 67.4197 68.0986C68.06 67.6283 68.9214 67.3931 70.0037 67.3931C70.8197 67.3931 71.5365 67.5263 72.1542 67.7926C72.7775 68.059 73.2394 68.4953 73.5397 69.1016C73.704 69.4246 73.8032 69.7561 73.8372 70.0961C73.8712 70.4305 73.8882 70.796 73.8882 71.1926V76.8281H72.0947V74.8391L72.3922 75.1621C71.9785 75.8251 71.494 76.3125 70.9387 76.6241C70.389 76.9301 69.7005 77.0831 68.8732 77.0831ZM69.2812 75.4511C69.7459 75.4511 70.1425 75.369 70.4712 75.2046C70.7999 75.0403 71.0605 74.8391 71.2532 74.6011C71.4515 74.3631 71.5847 74.1393 71.6527 73.9296C71.7604 73.669 71.8199 73.3715 71.8312 73.0371C71.8482 72.6971 71.8567 72.4223 71.8567 72.2126L72.4857 72.3996C71.868 72.496 71.3382 72.581 70.8962 72.6546C70.4542 72.7283 70.0745 72.7991 69.7572 72.8671C69.4399 72.9295 69.1594 73.0003 68.9157 73.0796C68.6777 73.1646 68.4765 73.2638 68.3122 73.3771C68.1479 73.4905 68.0204 73.6208 67.9297 73.7681C67.8447 73.9155 67.8022 74.0883 67.8022 74.2866C67.8022 74.5133 67.8589 74.7145 67.9722 74.8901C68.0855 75.0601 68.2499 75.1961 68.4652 75.2981C68.6862 75.4001 68.9582 75.4511 69.2812 75.4511ZM82.4506 76.8281V72.4081C82.4506 72.1191 82.4308 71.799 82.3911 71.4476C82.3515 71.0963 82.258 70.7591 82.1106 70.4361C81.969 70.1075 81.7536 69.8383 81.4646 69.6286C81.1813 69.419 80.796 69.3141 80.3086 69.3141C80.048 69.3141 79.7901 69.3566 79.5351 69.4416C79.2801 69.5266 79.0478 69.674 78.8381 69.8836C78.6341 70.0876 78.4698 70.371 78.3451 70.7336C78.2205 71.0906 78.1581 71.5496 78.1581 72.1106L76.9426 71.5921C76.9426 70.8101 77.0928 70.1018 77.3931 69.4671C77.6991 68.8325 78.1468 68.3281 78.7361 67.9541C79.3255 67.5745 80.0508 67.3846 80.9121 67.3846C81.5921 67.3846 82.1531 67.498 82.5951 67.7246C83.0371 67.9513 83.3885 68.2403 83.6491 68.5916C83.9098 68.943 84.1025 69.317 84.2271 69.7136C84.3518 70.1103 84.4311 70.4871 84.4651 70.8441C84.5048 71.1955 84.5246 71.4816 84.5246 71.7026V76.8281H82.4506ZM76.0841 76.8281V67.6481H77.9116V70.4956H78.1581V76.8281H76.0841ZM90.2738 77.0831C89.4295 77.0831 88.6928 76.8706 88.0638 76.4456C87.4348 76.0206 86.9475 75.4426 86.6018 74.7116C86.2562 73.9806 86.0833 73.1561 86.0833 72.2381C86.0833 71.3088 86.2562 70.4815 86.6018 69.7561C86.9532 69.0251 87.449 68.45 88.0893 68.0306C88.7297 67.6056 89.4833 67.3931 90.3503 67.3931C91.223 67.3931 91.954 67.6056 92.5433 68.0306C93.1383 68.45 93.5888 69.0251 93.8948 69.7561C94.2008 70.4871 94.3538 71.3145 94.3538 72.2381C94.3538 73.1505 94.2008 73.975 93.8948 74.7116C93.5888 75.4426 93.1327 76.0206 92.5263 76.4456C91.92 76.8706 91.1692 77.0831 90.2738 77.0831ZM90.5883 75.2471C91.138 75.2471 91.58 75.1225 91.9143 74.8731C92.2543 74.6181 92.5008 74.264 92.6538 73.8106C92.8125 73.3573 92.8918 72.8331 92.8918 72.2381C92.8918 71.6375 92.8125 71.1133 92.6538 70.6656C92.5008 70.2123 92.26 69.861 91.9313 69.6116C91.6027 69.3566 91.1777 69.2291 90.6563 69.2291C90.1067 69.2291 89.6533 69.3651 89.2963 69.6371C88.9393 69.9035 88.6758 70.2661 88.5058 70.7251C88.3358 71.1785 88.2508 71.6828 88.2508 72.2381C88.2508 72.7991 88.333 73.3091 88.4973 73.7681C88.6673 74.2215 88.9252 74.5813 89.2708 74.8476C89.6165 75.114 90.0557 75.2471 90.5883 75.2471ZM92.8918 76.8281V70.3851H92.6368V64.5881H94.7023V76.8281H92.8918ZM105.019 77.0831C104.124 77.0831 103.316 76.9273 102.597 76.6156C101.883 76.304 101.293 75.8591 100.829 75.2811C100.37 74.6975 100.078 74.0061 99.9533 73.2071L102.078 72.8841C102.26 73.6095 102.631 74.1705 103.192 74.5671C103.758 74.9638 104.41 75.1621 105.147 75.1621C105.583 75.1621 105.994 75.0941 106.379 74.9581C106.765 74.8221 107.076 74.6238 107.314 74.3631C107.558 74.1025 107.68 73.7823 107.68 73.4026C107.68 73.2326 107.651 73.0768 107.595 72.9351C107.538 72.7878 107.453 72.6575 107.34 72.5441C107.232 72.4308 107.09 72.3288 106.915 72.2381C106.745 72.1418 106.546 72.0596 106.32 71.9916L103.158 71.0566C102.886 70.9773 102.591 70.8725 102.274 70.7421C101.962 70.6061 101.665 70.422 101.381 70.1896C101.104 69.9516 100.874 69.6513 100.693 69.2886C100.517 68.9203 100.429 68.467 100.429 67.9286C100.429 67.141 100.628 66.4808 101.024 65.9481C101.427 65.4098 101.965 65.0075 102.639 64.7411C103.319 64.4748 104.073 64.3445 104.9 64.3501C105.739 64.3558 106.487 64.5003 107.144 64.7836C107.802 65.0613 108.351 65.4665 108.793 65.9991C109.235 66.5318 109.547 67.175 109.728 67.9286L107.527 68.3111C107.436 67.8805 107.26 67.515 107 67.2146C106.745 66.9086 106.43 66.6763 106.056 66.5176C105.688 66.359 105.294 66.274 104.875 66.2626C104.467 66.257 104.087 66.3193 103.736 66.4496C103.39 66.5743 103.11 66.7556 102.894 66.9936C102.685 67.2316 102.58 67.5093 102.58 67.8266C102.58 68.127 102.67 68.3735 102.852 68.5661C103.033 68.7531 103.257 68.9033 103.523 69.0166C103.795 69.1243 104.07 69.215 104.348 69.2886L106.541 69.9006C106.841 69.98 107.178 70.0876 107.552 70.2236C107.926 70.3596 108.286 70.5495 108.632 70.7931C108.977 71.0368 109.261 71.357 109.482 71.7536C109.708 72.1503 109.822 72.6546 109.822 73.2666C109.822 73.9013 109.689 74.4595 109.422 74.9411C109.162 75.4171 108.807 75.8138 108.36 76.1311C107.912 76.4485 107.399 76.6865 106.821 76.8451C106.249 77.0038 105.648 77.0831 105.019 77.0831ZM115.835 77.0831C114.906 77.0831 114.09 76.882 113.387 76.4796C112.685 76.0773 112.135 75.5191 111.738 74.8051C111.347 74.0911 111.152 73.2695 111.152 72.3401C111.152 71.3371 111.344 70.4673 111.73 69.7306C112.115 68.9883 112.651 68.4131 113.336 68.0051C114.022 67.5971 114.815 67.3931 115.716 67.3931C116.668 67.3931 117.476 67.617 118.139 68.0646C118.807 68.5066 119.303 69.1328 119.626 69.9431C119.949 70.7535 120.071 71.7083 119.992 72.8076H117.96V72.0596C117.955 71.0623 117.779 70.3341 117.433 69.8751C117.088 69.4161 116.544 69.1866 115.801 69.1866C114.963 69.1866 114.339 69.4473 113.931 69.9686C113.523 70.4843 113.319 71.2408 113.319 72.2381C113.319 73.1675 113.523 73.8871 113.931 74.3971C114.339 74.9071 114.934 75.1621 115.716 75.1621C116.221 75.1621 116.654 75.0516 117.017 74.8306C117.385 74.604 117.668 74.2781 117.867 73.8531L119.89 74.4651C119.538 75.2925 118.994 75.9356 118.258 76.3946C117.527 76.8536 116.719 77.0831 115.835 77.0831ZM112.673 72.8076V71.2606H118.989V72.8076H112.673ZM124.289 77.0831C123.626 77.0831 123.065 76.9585 122.606 76.7091C122.147 76.4541 121.799 76.117 121.561 75.6976C121.328 75.2783 121.212 74.8165 121.212 74.3121C121.212 73.8701 121.286 73.4735 121.433 73.1221C121.581 72.7651 121.807 72.4591 122.113 72.2041C122.419 71.9435 122.816 71.731 123.303 71.5666C123.672 71.4476 124.102 71.34 124.595 71.2436C125.094 71.1473 125.632 71.0595 126.21 70.9801C126.794 70.8951 127.403 70.8045 128.038 70.7081L127.307 71.1246C127.312 70.49 127.171 70.0225 126.882 69.7221C126.593 69.4218 126.105 69.2716 125.42 69.2716C125.006 69.2716 124.607 69.368 124.221 69.5606C123.836 69.7533 123.567 70.0848 123.414 70.5551L121.544 69.9686C121.77 69.1923 122.201 68.569 122.836 68.0986C123.476 67.6283 124.337 67.3931 125.42 67.3931C126.236 67.3931 126.953 67.5263 127.57 67.7926C128.194 68.059 128.655 68.4953 128.956 69.1016C129.12 69.4246 129.219 69.7561 129.253 70.0961C129.287 70.4305 129.304 70.796 129.304 71.1926V76.8281H127.511V74.8391L127.808 75.1621C127.395 75.8251 126.91 76.3125 126.355 76.6241C125.805 76.9301 125.117 77.0831 124.289 77.0831ZM124.697 75.4511C125.162 75.4511 125.559 75.369 125.887 75.2046C126.216 75.0403 126.477 74.8391 126.669 74.6011C126.868 74.3631 127.001 74.1393 127.069 73.9296C127.176 73.669 127.236 73.3715 127.247 73.0371C127.264 72.6971 127.273 72.4223 127.273 72.2126L127.902 72.3996C127.284 72.496 126.754 72.581 126.312 72.6546C125.87 72.7283 125.491 72.7991 125.173 72.8671C124.856 72.9295 124.575 73.0003 124.332 73.0796C124.094 73.1646 123.893 73.2638 123.728 73.3771C123.564 73.4905 123.436 73.6208 123.346 73.7681C123.261 73.9155 123.218 74.0883 123.218 74.2866C123.218 74.5133 123.275 74.7145 123.388 74.8901C123.502 75.0601 123.666 75.1961 123.881 75.2981C124.102 75.4001 124.374 75.4511 124.697 75.4511ZM131.517 76.8281V67.6481H133.328V69.8836L133.107 69.5946C133.22 69.2886 133.37 69.011 133.557 68.7616C133.75 68.5066 133.979 68.297 134.246 68.1326C134.472 67.9796 134.722 67.8606 134.994 67.7756C135.271 67.685 135.555 67.6311 135.844 67.6141C136.133 67.5915 136.413 67.6028 136.685 67.6481V69.5606C136.413 69.4813 136.099 69.4558 135.742 69.4841C135.39 69.5125 135.073 69.6116 134.79 69.7816C134.506 69.9346 134.274 70.1301 134.093 70.3681C133.917 70.6061 133.787 70.8781 133.702 71.1841C133.617 71.4845 133.574 71.8103 133.574 72.1616V76.8281H131.517ZM142.128 77.0831C141.181 77.0831 140.374 76.8735 139.705 76.4541C139.037 76.0291 138.524 75.4511 138.167 74.7201C137.815 73.9891 137.637 73.1618 137.631 72.2381C137.637 71.2975 137.821 70.4645 138.184 69.7391C138.552 69.0081 139.073 68.4358 139.748 68.0221C140.422 67.6028 141.224 67.3931 142.153 67.3931C143.196 67.3931 144.077 67.6566 144.797 68.1836C145.522 68.705 145.995 69.419 146.216 70.3256L144.176 70.8781C144.018 70.3851 143.754 70.0026 143.386 69.7306C143.017 69.453 142.598 69.3141 142.128 69.3141C141.595 69.3141 141.156 69.4416 140.81 69.6966C140.465 69.946 140.21 70.2916 140.045 70.7336C139.881 71.1756 139.799 71.6771 139.799 72.2381C139.799 73.1108 139.994 73.8163 140.385 74.3546C140.776 74.893 141.357 75.1621 142.128 75.1621C142.672 75.1621 143.1 75.0375 143.411 74.7881C143.729 74.5388 143.967 74.179 144.125 73.7086L146.216 74.1761C145.933 75.1111 145.437 75.8308 144.729 76.3351C144.02 76.8338 143.153 77.0831 142.128 77.0831ZM154.269 76.8281V72.4081C154.269 72.1191 154.249 71.799 154.209 71.4476C154.17 71.0963 154.076 70.7591 153.929 70.4361C153.787 70.1075 153.572 69.8383 153.283 69.6286C153 69.419 152.614 69.3141 152.127 69.3141C151.866 69.3141 151.608 69.3566 151.353 69.4416C151.098 69.5266 150.866 69.674 150.656 69.8836C150.452 70.0876 150.288 70.371 150.163 70.7336C150.039 71.0906 149.976 71.5496 149.976 72.1106L148.761 71.5921C148.761 70.8101 148.911 70.1018 149.211 69.4671C149.517 68.8325 149.965 68.3281 150.554 67.9541C151.144 67.5745 151.869 67.3846 152.73 67.3846C153.41 67.3846 153.971 67.498 154.413 67.7246C154.855 67.9513 155.207 68.2403 155.467 68.5916C155.728 68.943 155.921 69.317 156.045 69.7136C156.17 70.1103 156.249 70.4871 156.283 70.8441C156.323 71.1955 156.343 71.4816 156.343 71.7026V76.8281H154.269ZM147.902 76.8281V64.5881H149.73V71.0311H149.976V76.8281H147.902Z" fill="white"/>
<path d="M14.4929 90.8281V85.8561H12.5769V85.0681H17.2449V85.8561H15.3289V90.8281H14.4929ZM18.9287 90.8281L20.8007 85.0681H22.0047L23.8767 90.8281H23.0087L21.2847 85.5721H21.5007L19.7967 90.8281H18.9287ZM19.9007 89.5281V88.7441H22.9087V89.5281H19.9007ZM26.2744 90.8281V85.0681H27.1104V90.0401H29.7184V90.8281H26.2744ZM31.9975 90.8281V85.0681H35.6775V85.8561H32.8335V87.4721H35.1975V88.2601H32.8335V90.0401H35.6775V90.8281H31.9975ZM38.2381 90.8281V85.0681H39.0861L41.9221 89.3481V85.0681H42.7701V90.8281H41.9221L39.0861 86.5441V90.8281H38.2381ZM46.9226 90.8281V85.8561H45.0066V85.0681H49.6746V85.8561H47.7586V90.8281H46.9226ZM56.3101 90.8281V85.8561H54.3941V85.0681H59.0621V85.8561H57.1461V90.8281H56.3101ZM61.3022 90.8281V85.0681H62.1382V87.5521H65.0182V85.0681H65.8582V90.8281H65.0182V88.3401H62.1382V90.8281H61.3022ZM68.1819 90.8281L70.0539 85.0681H71.2579L73.1299 90.8281H72.2619L70.5379 85.5721H70.7539L69.0499 90.8281H68.1819ZM69.1539 89.5281V88.7441H72.1619V89.5281H69.1539ZM76.4069 90.8281V85.8561H74.4909V85.0681H79.1589V85.8561H77.2429V90.8281H76.4069ZM85.7944 90.8281V85.8561H83.8784V85.0681H88.5464V85.8561H86.6304V90.8281H85.7944ZM90.7866 90.8281V85.0681H93.1146C93.1706 85.0681 93.2399 85.0708 93.3226 85.0761C93.4052 85.0788 93.4839 85.0868 93.5586 85.1001C93.8786 85.1508 94.1452 85.2601 94.3586 85.4281C94.5746 85.5961 94.7359 85.8081 94.8426 86.0641C94.9492 86.3201 95.0026 86.6028 95.0026 86.9121C95.0026 87.3708 94.8852 87.7668 94.6506 88.1001C94.4159 88.4308 94.0639 88.6375 93.5946 88.7201L93.2546 88.7601H91.6226V90.8281H90.7866ZM94.1546 90.8281L93.0186 88.4841L93.8626 88.2681L95.1106 90.8281H94.1546ZM91.6226 87.9681H93.0826C93.1359 87.9681 93.1946 87.9655 93.2586 87.9601C93.3252 87.9548 93.3879 87.9455 93.4466 87.9321C93.6172 87.8921 93.7546 87.8188 93.8586 87.7121C93.9626 87.6028 94.0372 87.4775 94.0826 87.3361C94.1279 87.1948 94.1506 87.0535 94.1506 86.9121C94.1506 86.7708 94.1279 86.6308 94.0826 86.4921C94.0372 86.3508 93.9626 86.2268 93.8586 86.1201C93.7546 86.0108 93.6172 85.9361 93.4466 85.8961C93.3879 85.8801 93.3252 85.8695 93.2586 85.8641C93.1946 85.8588 93.1359 85.8561 93.0826 85.8561H91.6226V87.9681ZM97.1897 90.8281L99.0617 85.0681H100.266L102.138 90.8281H101.27L99.5457 85.5721H99.7617L98.0577 90.8281H97.1897ZM98.1617 89.5281V88.7441H101.17V89.5281H98.1617ZM104.455 90.8281V85.0681H105.303L108.139 89.3481V85.0681H108.987V90.8281H108.139L105.303 86.5441V90.8281H104.455ZM113.792 90.9481C113.378 90.9481 113.005 90.8775 112.672 90.7361C112.341 90.5921 112.068 90.3881 111.852 90.1241C111.638 89.8575 111.5 89.5415 111.436 89.1761L112.308 89.0441C112.396 89.3961 112.58 89.6708 112.86 89.8681C113.14 90.0628 113.466 90.1601 113.84 90.1601C114.072 90.1601 114.285 90.1241 114.48 90.0521C114.674 89.9775 114.83 89.8721 114.948 89.7361C115.068 89.5975 115.128 89.4321 115.128 89.2401C115.128 89.1361 115.109 89.0441 115.072 88.9641C115.037 88.8841 114.988 88.8148 114.924 88.7561C114.862 88.6948 114.786 88.6428 114.696 88.6001C114.608 88.5548 114.51 88.5161 114.404 88.4841L112.928 88.0481C112.784 88.0055 112.637 87.9508 112.488 87.8841C112.338 87.8148 112.201 87.7255 112.076 87.6161C111.953 87.5041 111.853 87.3668 111.776 87.2041C111.698 87.0388 111.66 86.8388 111.66 86.6041C111.66 86.2495 111.75 85.9495 111.932 85.7041C112.116 85.4561 112.364 85.2695 112.676 85.1441C112.988 85.0161 113.337 84.9521 113.724 84.9521C114.113 84.9575 114.461 85.0268 114.768 85.1601C115.077 85.2935 115.333 85.4855 115.536 85.7361C115.741 85.9841 115.882 86.2855 115.96 86.6401L115.064 86.7921C115.024 86.5761 114.938 86.3908 114.808 86.2361C114.677 86.0788 114.517 85.9588 114.328 85.8761C114.138 85.7908 113.933 85.7468 113.712 85.7441C113.498 85.7388 113.302 85.7708 113.124 85.8401C112.948 85.9095 112.806 86.0068 112.7 86.1321C112.596 86.2575 112.544 86.4015 112.544 86.5641C112.544 86.7241 112.59 86.8535 112.684 86.9521C112.777 87.0508 112.892 87.1295 113.028 87.1881C113.166 87.2441 113.304 87.2908 113.44 87.3281L114.504 87.6281C114.637 87.6655 114.788 87.7161 114.956 87.7801C115.126 87.8415 115.29 87.9281 115.448 88.0401C115.608 88.1521 115.74 88.3015 115.844 88.4881C115.948 88.6721 116 88.9041 116 89.1841C116 89.4748 115.941 89.7308 115.824 89.9521C115.706 90.1708 115.545 90.3548 115.34 90.5041C115.137 90.6508 114.902 90.7615 114.636 90.8361C114.369 90.9108 114.088 90.9481 113.792 90.9481ZM118.452 90.8281V85.0681H121.864V85.9041H119.288V87.5281H121.384V88.3681H119.288V90.8281H118.452ZM126.589 90.9481C126.013 90.9481 125.522 90.8228 125.117 90.5721C124.712 90.3188 124.401 89.9668 124.185 89.5161C123.972 89.0655 123.865 88.5428 123.865 87.9481C123.865 87.3535 123.972 86.8308 124.185 86.3801C124.401 85.9295 124.712 85.5788 125.117 85.3281C125.522 85.0748 126.013 84.9481 126.589 84.9481C127.162 84.9481 127.652 85.0748 128.057 85.3281C128.465 85.5788 128.776 85.9295 128.989 86.3801C129.202 86.8308 129.309 87.3535 129.309 87.9481C129.309 88.5428 129.202 89.0655 128.989 89.5161C128.776 89.9668 128.465 90.3188 128.057 90.5721C127.652 90.8228 127.162 90.9481 126.589 90.9481ZM126.589 90.1521C126.997 90.1575 127.336 90.0681 127.605 89.8841C127.877 89.6975 128.081 89.4388 128.217 89.1081C128.353 88.7748 128.421 88.3881 128.421 87.9481C128.421 87.5081 128.353 87.1241 128.217 86.7961C128.081 86.4655 127.877 86.2081 127.605 86.0241C127.336 85.8401 126.997 85.7468 126.589 85.7441C126.181 85.7388 125.841 85.8281 125.569 86.0121C125.3 86.1961 125.097 86.4548 124.961 86.7881C124.825 87.1215 124.756 87.5081 124.753 87.9481C124.75 88.3881 124.817 88.7735 124.953 89.1041C125.089 89.4321 125.293 89.6881 125.565 89.8721C125.84 90.0561 126.181 90.1495 126.589 90.1521ZM131.707 90.8281V85.0681H134.035C134.091 85.0681 134.16 85.0708 134.243 85.0761C134.326 85.0788 134.404 85.0868 134.479 85.1001C134.799 85.1508 135.066 85.2601 135.279 85.4281C135.495 85.5961 135.656 85.8081 135.763 86.0641C135.87 86.3201 135.923 86.6028 135.923 86.9121C135.923 87.3708 135.806 87.7668 135.571 88.1001C135.336 88.4308 134.984 88.6375 134.515 88.7201L134.175 88.7601H132.543V90.8281H131.707ZM135.075 90.8281L133.939 88.4841L134.783 88.2681L136.031 90.8281H135.075ZM132.543 87.9681H134.003C134.056 87.9681 134.115 87.9655 134.179 87.9601C134.246 87.9548 134.308 87.9455 134.367 87.9321C134.538 87.8921 134.675 87.8188 134.779 87.7121C134.883 87.6028 134.958 87.4775 135.003 87.3361C135.048 87.1948 135.071 87.0535 135.071 86.9121C135.071 86.7708 135.048 86.6308 135.003 86.4921C134.958 86.3508 134.883 86.2268 134.779 86.1201C134.675 86.0108 134.538 85.9361 134.367 85.8961C134.308 85.8801 134.246 85.8695 134.179 85.8641C134.115 85.8588 134.056 85.8561 134.003 85.8561H132.543V87.9681ZM138.51 90.8281V85.0681H139.266L141.354 89.4001L143.43 85.0681H144.194V90.8241H143.402V86.8841L141.542 90.8281H141.162L139.298 86.8841V90.8281H138.51ZM149.003 90.9481C148.589 90.9481 148.216 90.8775 147.883 90.7361C147.552 90.5921 147.279 90.3881 147.063 90.1241C146.849 89.8575 146.711 89.5415 146.647 89.1761L147.519 89.0441C147.607 89.3961 147.791 89.6708 148.071 89.8681C148.351 90.0628 148.677 90.1601 149.051 90.1601C149.283 90.1601 149.496 90.1241 149.691 90.0521C149.885 89.9775 150.041 89.8721 150.159 89.7361C150.279 89.5975 150.339 89.4321 150.339 89.2401C150.339 89.1361 150.32 89.0441 150.283 88.9641C150.248 88.8841 150.199 88.8148 150.135 88.7561C150.073 88.6948 149.997 88.6428 149.907 88.6001C149.819 88.5548 149.721 88.5161 149.615 88.4841L148.139 88.0481C147.995 88.0055 147.848 87.9508 147.699 87.8841C147.549 87.8148 147.412 87.7255 147.287 87.6161C147.164 87.5041 147.064 87.3668 146.987 87.2041C146.909 87.0388 146.871 86.8388 146.871 86.6041C146.871 86.2495 146.961 85.9495 147.143 85.7041C147.327 85.4561 147.575 85.2695 147.887 85.1441C148.199 85.0161 148.548 84.9521 148.935 84.9521C149.324 84.9575 149.672 85.0268 149.979 85.1601C150.288 85.2935 150.544 85.4855 150.747 85.7361C150.952 85.9841 151.093 86.2855 151.171 86.6401L150.275 86.7921C150.235 86.5761 150.149 86.3908 150.019 86.2361C149.888 86.0788 149.728 85.9588 149.539 85.8761C149.349 85.7908 149.144 85.7468 148.923 85.7441C148.709 85.7388 148.513 85.7708 148.335 85.8401C148.159 85.9095 148.017 86.0068 147.911 86.1321C147.807 86.2575 147.755 86.4015 147.755 86.5641C147.755 86.7241 147.801 86.8535 147.895 86.9521C147.988 87.0508 148.103 87.1295 148.239 87.1881C148.377 87.2441 148.515 87.2908 148.651 87.3281L149.715 87.6281C149.848 87.6655 149.999 87.7161 150.167 87.7801C150.337 87.8415 150.501 87.9281 150.659 88.0401C150.819 88.1521 150.951 88.3015 151.055 88.4881C151.159 88.6721 151.211 88.9041 151.211 89.1841C151.211 89.4748 151.152 89.7308 151.035 89.9521C150.917 90.1708 150.756 90.3548 150.551 90.5041C150.348 90.6508 150.113 90.7615 149.847 90.8361C149.58 90.9108 149.299 90.9481 149.003 90.9481Z" fill="white"/>
<defs>
<linearGradient id="paint0_linear_2241_44" x1="72.4138" y1="41.1505" x2="116.341" y2="13.6732" gradientUnits="userSpaceOnUse">
<stop stop-color="#2B98E3"/>
<stop offset="0.463247" stop-color="#31B6CB"/>
<stop offset="1" stop-color="#3CD4C7"/>
</linearGradient>
<linearGradient id="paint1_linear_2241_44" x1="48.9054" y1="25.4692" x2="80.9385" y2="39.2551" gradientUnits="userSpaceOnUse">
<stop stop-color="#05101F"/>
<stop offset="0.999999" stop-color="#2B98E3" stop-opacity="0"/>
</linearGradient>
<linearGradient id="paint2_linear_2241_44" x1="80.8646" y1="14.9222" x2="47.3215" y2="31.6639" gradientUnits="userSpaceOnUse">
<stop stop-color="#2B98E3"/>
<stop offset="0.463247" stop-color="#31B6CB"/>
<stop offset="1" stop-color="#3CD4C7"/>
</linearGradient>
<linearGradient id="paint3_linear_2241_44" x1="117.782" y1="32.4135" x2="75.6103" y2="16.0015" gradientUnits="userSpaceOnUse">
<stop stop-color="#05101F"/>
<stop offset="0.999999" stop-color="#2B98E3" stop-opacity="0"/>
</linearGradient>
<clipPath id="clip0_2241_44">
<rect width="73" height="52.8289" fill="white" transform="translate(45.5)"/>
</clipPath>
</defs>
</svg>
