<svg width="282" height="170" viewBox="0 0 282 170" fill="none" xmlns="http://www.w3.org/2000/svg">
<g filter="url(#filter0_f_2242_318)">
<g clip-path="url(#clip0_2242_318)">
<path d="M89.9424 74.3326L87.2031 72.7539C88.0787 73.3518 88.9941 73.8794 89.9424 74.3326Z" fill="#2A97E2"/>
<path d="M203.251 55.2709C203.251 58.387 202.564 61.4659 201.252 64.2745C199.503 68.0227 196.64 71.2895 192.814 73.5183L175.35 83.6896L150.905 97.9276C147.876 99.6911 144.501 100.587 141.119 100.614C137.686 100.641 134.248 99.7715 131.16 98.005L123.902 93.8528L123.855 93.8267C123.305 93.5142 122.732 93.1886 122.14 92.852C119.052 91.0955 115.461 89.0365 111.831 86.9484L111.804 86.9323C109.976 85.8802 108.138 84.8201 106.349 83.7881L105.549 83.3268L89.9417 74.3333L87.2024 72.7546C86.6326 72.3667 86.0798 71.9477 85.5469 71.5006L91.4389 64.8142L108.946 63.0617L116.23 63.7912L121.052 64.2745L124.613 64.6313L125.226 64.2745L132.924 59.7918L141.119 55.0187L142.063 54.469L150.025 49.8316V49.8306L171.95 37.0617C178.031 33.5196 185.146 33.4171 191.08 36.1563C194.883 37.9108 198.201 40.834 200.451 44.766C202.349 48.0811 203.251 51.6996 203.251 55.2709Z" fill="url(#paint0_linear_2242_318)"/>
<path d="M141.119 55.0195V100.614C137.686 100.642 134.248 99.7723 131.16 98.0058L123.902 93.8537L123.855 93.8275C123.305 93.515 122.732 93.1894 122.14 92.8528C119.052 91.0963 115.461 89.0373 111.831 86.9492L111.804 86.9331C109.976 85.881 108.138 84.8209 106.349 83.7889L105.549 83.3277L89.9417 74.3341L87.2024 72.7555C86.6326 72.3676 86.0798 71.9485 85.5469 71.5014L91.4389 64.815L108.946 63.0625L124.613 64.6321L141.119 55.0195Z" fill="url(#paint1_linear_2242_318)"/>
<path d="M180.789 30.204C180.608 30.0985 180.424 29.993 180.239 29.8855L178.9 29.1117C175.949 27.4055 172.705 25.5334 169.489 23.6824L169.462 23.6664C165.832 21.5782 162.241 19.5193 159.153 17.7628C158.562 17.4261 157.989 17.1005 157.438 16.788L157.391 16.7619L150.134 12.6098C144.004 9.10281 136.492 9.13194 130.389 12.6872L116.233 20.9321L105.943 26.9251L88.4792 37.0964C81.7854 40.9953 78.043 48.0696 78.043 55.3438C78.043 58.9151 78.9445 62.5337 80.8421 65.8487C82.1081 68.0604 83.7118 69.9536 85.5497 71.4991C86.0826 71.9463 86.6354 72.3653 87.2052 72.7532L89.9445 74.3318C95.6493 77.065 102.491 77.1475 108.464 74.0374C108.76 73.8836 109.053 73.7229 109.344 73.553L124.658 64.6338L125.278 64.2731L131.268 60.7842V60.7832L141.122 55.0444L142.071 54.4917L142.066 54.4676L150.028 49.8301V49.8291L171.952 37.0603C178.034 33.5181 185.149 33.4156 191.083 36.1549L180.789 30.204Z" fill="url(#paint2_linear_2242_318)"/>
<path d="M191.082 36.1549C185.148 33.4156 178.033 33.5181 171.952 37.0602L150.028 49.8291V49.8301L142.066 54.4676L142.071 54.4917L141.121 55.0444L131.268 60.7832V60.7842L125.277 64.2731H116.232V20.9321L130.388 12.6872C136.491 9.13194 144.003 9.10281 150.133 12.6098L157.391 16.7619L157.438 16.788C157.988 17.1005 158.561 17.4261 159.153 17.7628C162.241 19.5193 165.832 21.5782 169.462 23.6664L169.489 23.6824C172.704 25.5334 175.948 27.4055 178.9 29.1117L180.239 29.8855C180.424 29.993 180.607 30.0985 180.788 30.204L191.082 36.1549Z" fill="url(#paint3_linear_2242_318)"/>
</g>
</g>
<path d="M13.4103 141.902V120.908H21.7351C23.1541 120.908 24.3156 121.195 25.2195 121.768C26.1332 122.332 26.8087 123.056 27.246 123.941C27.6931 124.825 27.9167 125.739 27.9167 126.682C27.9167 127.838 27.6397 128.82 27.0857 129.627C26.5414 130.433 25.7978 130.978 24.855 131.259V130.53C26.1769 130.832 27.178 131.459 27.8584 132.411C28.5485 133.364 28.8935 134.447 28.8935 135.662C28.8935 136.907 28.6554 137.995 28.1791 138.928C27.7029 139.861 26.9933 140.59 26.0505 141.115C25.1175 141.64 23.9608 141.902 22.5807 141.902H13.4103ZM16.9676 138.593H22.1433C22.7556 138.593 23.3048 138.471 23.7908 138.228C24.2767 137.976 24.6558 137.626 24.9279 137.179C25.2098 136.722 25.3507 136.182 25.3507 135.56C25.3507 134.997 25.2292 134.491 24.9863 134.044C24.7433 133.597 24.3885 133.242 23.922 132.98C23.4554 132.708 22.8966 132.572 22.2454 132.572H16.9676V138.593ZM16.9676 129.291H21.6913C22.1968 129.291 22.6487 129.194 23.0472 129C23.4457 128.805 23.7616 128.519 23.9949 128.139C24.2281 127.76 24.3448 127.294 24.3448 126.74C24.3448 126.011 24.1115 125.403 23.645 124.917C23.1784 124.431 22.5272 124.189 21.6913 124.189H16.9676V129.291ZM32.0969 141.902V120.471H35.6105V141.902H32.0969ZM45.8823 142.354C44.7159 142.354 43.7537 142.16 42.9956 141.771C42.2374 141.382 41.6348 140.887 41.1877 140.284C40.7406 139.681 40.4102 139.04 40.1963 138.36C39.9825 137.679 39.8416 137.038 39.7735 136.435C39.7152 135.823 39.6861 135.327 39.6861 134.948V126.157H43.2434V133.738C43.2434 134.224 43.2774 134.773 43.3455 135.385C43.4135 135.988 43.569 136.571 43.812 137.135C44.0647 137.689 44.434 138.146 44.92 138.505C45.4157 138.865 46.0815 139.045 46.9174 139.045C47.3645 139.045 47.8067 138.972 48.2441 138.826C48.6815 138.68 49.0751 138.432 49.425 138.083C49.7846 137.723 50.0714 137.232 50.2852 136.61C50.499 135.988 50.6059 135.201 50.6059 134.248L52.6908 135.138C52.6908 136.479 52.4284 137.694 51.9035 138.782C51.3884 139.871 50.6254 140.741 49.6145 141.392C48.6037 142.034 47.3596 142.354 45.8823 142.354ZM51.0287 141.902V137.018H50.6059V126.157H54.1341V141.902H51.0287ZM65.3887 142.34C63.7947 142.34 62.395 141.995 61.1898 141.305C59.9846 140.615 59.0418 139.657 58.3614 138.432C57.6908 137.208 57.3555 135.798 57.3555 134.204C57.3555 132.484 57.6859 130.992 58.3469 129.729C59.0078 128.455 59.9263 127.469 61.1023 126.769C62.2784 126.069 63.6391 125.719 65.1845 125.719C66.8174 125.719 68.2025 126.103 69.3396 126.871C70.4865 127.629 71.337 128.703 71.891 130.093C72.445 131.483 72.654 133.121 72.5179 135.006H69.0335V133.723C69.0238 132.013 68.7225 130.764 68.1296 129.976C67.5367 129.189 66.6036 128.796 65.3303 128.796C63.8918 128.796 62.8227 129.243 62.1229 130.137C61.4231 131.021 61.0732 132.319 61.0732 134.03C61.0732 135.624 61.4231 136.858 62.1229 137.733C62.8227 138.607 63.8433 139.045 65.1845 139.045C66.0496 139.045 66.7931 138.855 67.4152 138.476C68.0469 138.087 68.5329 137.529 68.8731 136.8L72.343 137.849C71.7404 139.268 70.8073 140.372 69.5438 141.159C68.2899 141.946 66.9049 142.34 65.3887 142.34ZM59.9652 135.006V132.353H70.7976V135.006H59.9652ZM81.8999 141.902V120.908H85.4135V141.902H81.8999ZM95.8603 142.34C93.9164 142.34 92.337 141.902 91.122 141.028C89.9071 140.153 89.1684 138.923 88.906 137.339L92.4925 136.785C92.6771 137.563 93.0854 138.175 93.7171 138.622C94.3489 139.069 95.1459 139.293 96.1081 139.293C96.9537 139.293 97.6049 139.127 98.0618 138.797C98.5283 138.457 98.7616 137.995 98.7616 137.412C98.7616 137.052 98.6741 136.766 98.4991 136.552C98.3339 136.328 97.9646 136.114 97.3911 135.91C96.8177 135.706 95.938 135.449 94.7523 135.138C93.4304 134.788 92.3807 134.413 91.6031 134.015C90.8256 133.607 90.2667 133.126 89.9265 132.572C89.5863 132.018 89.4162 131.347 89.4162 130.56C89.4162 129.578 89.6738 128.723 90.1889 127.994C90.7041 127.265 91.4233 126.706 92.3467 126.317C93.27 125.919 94.3586 125.719 95.6124 125.719C96.8371 125.719 97.9208 125.909 98.8636 126.288C99.8161 126.667 100.584 127.206 101.167 127.906C101.75 128.606 102.11 129.427 102.246 130.37L98.6595 131.012C98.572 130.341 98.2659 129.811 97.741 129.422C97.2259 129.034 96.5358 128.815 95.6707 128.766C94.8446 128.718 94.1788 128.844 93.6734 129.145C93.168 129.437 92.9153 129.85 92.9153 130.385C92.9153 130.686 93.0173 130.944 93.2214 131.157C93.4255 131.371 93.8338 131.585 94.4461 131.799C95.0681 132.013 95.9915 132.275 97.2162 132.586C98.47 132.907 99.4711 133.276 100.219 133.694C100.978 134.102 101.522 134.593 101.852 135.167C102.193 135.74 102.363 136.435 102.363 137.252C102.363 138.836 101.784 140.08 100.628 140.984C99.4808 141.888 97.8917 142.34 95.8603 142.34ZM105.848 141.902V120.471H109.361V141.902H105.848ZM118.131 142.34C116.994 142.34 116.032 142.126 115.245 141.698C114.457 141.261 113.86 140.683 113.451 139.963C113.053 139.244 112.854 138.452 112.854 137.587C112.854 136.829 112.98 136.148 113.233 135.546C113.485 134.933 113.874 134.409 114.399 133.971C114.924 133.524 115.604 133.16 116.44 132.878C117.072 132.674 117.811 132.489 118.656 132.324C119.511 132.159 120.435 132.008 121.426 131.872C122.427 131.726 123.472 131.57 124.561 131.405L123.307 132.12C123.317 131.031 123.074 130.229 122.578 129.714C122.082 129.199 121.246 128.941 120.07 128.941C119.361 128.941 118.676 129.107 118.015 129.437C117.354 129.768 116.892 130.336 116.63 131.143L113.422 130.137C113.811 128.805 114.55 127.736 115.638 126.929C116.737 126.123 118.214 125.719 120.07 125.719C121.47 125.719 122.699 125.948 123.759 126.405C124.828 126.861 125.62 127.61 126.135 128.65C126.417 129.204 126.587 129.772 126.646 130.356C126.704 130.929 126.733 131.556 126.733 132.236V141.902H123.657V138.491L124.167 139.045C123.458 140.182 122.627 141.018 121.674 141.552C120.731 142.077 119.55 142.34 118.131 142.34ZM118.831 139.54C119.628 139.54 120.308 139.4 120.872 139.118C121.436 138.836 121.883 138.491 122.213 138.083C122.554 137.674 122.782 137.29 122.899 136.931C123.083 136.484 123.185 135.973 123.205 135.4C123.234 134.817 123.249 134.345 123.249 133.986L124.327 134.307C123.268 134.472 122.359 134.618 121.601 134.744C120.843 134.87 120.192 134.992 119.648 135.108C119.103 135.215 118.622 135.337 118.204 135.473C117.796 135.619 117.451 135.789 117.169 135.983C116.887 136.178 116.668 136.401 116.513 136.654C116.367 136.907 116.294 137.203 116.294 137.543C116.294 137.932 116.391 138.277 116.586 138.578C116.78 138.87 117.062 139.103 117.431 139.278C117.811 139.453 118.277 139.54 118.831 139.54ZM141.419 141.902V134.321C141.419 133.825 141.385 133.276 141.317 132.674C141.249 132.071 141.089 131.493 140.836 130.939C140.593 130.375 140.224 129.913 139.728 129.554C139.242 129.194 138.581 129.014 137.745 129.014C137.298 129.014 136.856 129.087 136.419 129.233C135.981 129.379 135.583 129.631 135.223 129.991C134.873 130.341 134.591 130.827 134.378 131.449C134.164 132.061 134.057 132.849 134.057 133.811L131.972 132.922C131.972 131.58 132.23 130.365 132.745 129.277C133.27 128.188 134.037 127.323 135.048 126.682C136.059 126.03 137.303 125.705 138.781 125.705C139.947 125.705 140.909 125.899 141.667 126.288C142.425 126.677 143.028 127.172 143.475 127.775C143.922 128.378 144.253 129.019 144.466 129.699C144.68 130.38 144.816 131.026 144.875 131.639C144.943 132.241 144.977 132.732 144.977 133.111V141.902H141.419ZM130.5 141.902V126.157H133.634V131.041H134.057V141.902H130.5ZM154.838 142.34C153.39 142.34 152.126 141.975 151.047 141.246C149.968 140.517 149.132 139.526 148.54 138.272C147.947 137.018 147.65 135.604 147.65 134.03C147.65 132.436 147.947 131.016 148.54 129.772C149.142 128.519 149.993 127.532 151.091 126.813C152.189 126.084 153.482 125.719 154.969 125.719C156.466 125.719 157.72 126.084 158.731 126.813C159.751 127.532 160.524 128.519 161.049 129.772C161.573 131.026 161.836 132.445 161.836 134.03C161.836 135.594 161.573 137.009 161.049 138.272C160.524 139.526 159.741 140.517 158.701 141.246C157.661 141.975 156.374 142.34 154.838 142.34ZM155.377 139.191C156.32 139.191 157.078 138.977 157.652 138.549C158.235 138.112 158.658 137.504 158.92 136.727C159.192 135.949 159.328 135.05 159.328 134.03C159.328 132.999 159.192 132.1 158.92 131.332C158.658 130.555 158.245 129.952 157.681 129.525C157.117 129.087 156.388 128.868 155.494 128.868C154.551 128.868 153.774 129.102 153.161 129.568C152.549 130.025 152.097 130.647 151.805 131.434C151.514 132.212 151.368 133.077 151.368 134.03C151.368 134.992 151.509 135.867 151.791 136.654C152.082 137.431 152.525 138.049 153.117 138.505C153.71 138.962 154.464 139.191 155.377 139.191ZM159.328 141.902V130.851H158.891V120.908H162.434V141.902H159.328ZM180.129 142.34C178.594 142.34 177.209 142.072 175.974 141.538C174.75 141.003 173.739 140.24 172.942 139.249C172.155 138.248 171.654 137.062 171.44 135.692L175.085 135.138C175.396 136.382 176.033 137.344 176.995 138.024C177.967 138.705 179.085 139.045 180.348 139.045C181.097 139.045 181.801 138.928 182.462 138.695C183.123 138.462 183.658 138.121 184.066 137.674C184.484 137.227 184.693 136.678 184.693 136.027C184.693 135.735 184.644 135.468 184.547 135.225C184.45 134.972 184.304 134.749 184.11 134.554C183.925 134.36 183.682 134.185 183.381 134.03C183.089 133.864 182.749 133.723 182.36 133.607L176.937 132.003C176.47 131.867 175.965 131.687 175.42 131.464C174.886 131.23 174.376 130.914 173.89 130.516C173.413 130.108 173.02 129.593 172.709 128.971C172.407 128.339 172.257 127.561 172.257 126.638C172.257 125.287 172.597 124.154 173.277 123.241C173.967 122.317 174.891 121.627 176.047 121.171C177.214 120.714 178.506 120.49 179.925 120.5C181.364 120.51 182.647 120.758 183.774 121.243C184.902 121.72 185.845 122.415 186.603 123.328C187.361 124.242 187.895 125.345 188.206 126.638L184.43 127.294C184.275 126.555 183.974 125.928 183.526 125.413C183.089 124.888 182.55 124.49 181.908 124.218C181.276 123.946 180.601 123.8 179.882 123.78C179.182 123.771 178.531 123.877 177.928 124.101C177.335 124.315 176.854 124.626 176.485 125.034C176.125 125.442 175.945 125.919 175.945 126.463C175.945 126.978 176.101 127.401 176.412 127.731C176.723 128.052 177.107 128.31 177.564 128.504C178.03 128.689 178.501 128.844 178.978 128.971L182.739 130.02C183.254 130.156 183.833 130.341 184.474 130.574C185.116 130.808 185.733 131.133 186.326 131.551C186.919 131.969 187.405 132.518 187.784 133.199C188.172 133.879 188.367 134.744 188.367 135.794C188.367 136.882 188.138 137.84 187.682 138.666C187.234 139.482 186.627 140.163 185.859 140.707C185.091 141.251 184.212 141.659 183.22 141.932C182.239 142.204 181.208 142.34 180.129 142.34ZM198.681 142.34C197.087 142.34 195.687 141.995 194.482 141.305C193.277 140.615 192.334 139.657 191.654 138.432C190.983 137.208 190.648 135.798 190.648 134.204C190.648 132.484 190.978 130.992 191.639 129.729C192.3 128.455 193.219 127.469 194.395 126.769C195.571 126.069 196.931 125.719 198.477 125.719C200.11 125.719 201.495 126.103 202.632 126.871C203.779 127.629 204.629 128.703 205.183 130.093C205.737 131.483 205.946 133.121 205.81 135.006H202.326V133.723C202.316 132.013 202.015 130.764 201.422 129.976C200.829 129.189 199.896 128.796 198.623 128.796C197.184 128.796 196.115 129.243 195.415 130.137C194.715 131.021 194.365 132.319 194.365 134.03C194.365 135.624 194.715 136.858 195.415 137.733C196.115 138.607 197.136 139.045 198.477 139.045C199.342 139.045 200.085 138.855 200.707 138.476C201.339 138.087 201.825 137.529 202.165 136.8L205.635 137.849C205.033 139.268 204.1 140.372 202.836 141.159C201.582 141.946 200.197 142.34 198.681 142.34ZM193.257 135.006V132.353H204.09V135.006H193.257ZM213.181 142.34C212.044 142.34 211.082 142.126 210.295 141.698C209.507 141.261 208.91 140.683 208.501 139.963C208.103 139.244 207.904 138.452 207.904 137.587C207.904 136.829 208.03 136.148 208.283 135.546C208.535 134.933 208.924 134.409 209.449 133.971C209.974 133.524 210.654 133.16 211.49 132.878C212.122 132.674 212.861 132.489 213.706 132.324C214.562 132.159 215.485 132.008 216.476 131.872C217.477 131.726 218.522 131.57 219.611 131.405L218.357 132.12C218.367 131.031 218.124 130.229 217.628 129.714C217.132 129.199 216.297 128.941 215.12 128.941C214.411 128.941 213.726 129.107 213.065 129.437C212.404 129.768 211.942 130.336 211.68 131.143L208.472 130.137C208.861 128.805 209.6 127.736 210.688 126.929C211.787 126.123 213.264 125.719 215.12 125.719C216.52 125.719 217.75 125.948 218.809 126.405C219.878 126.861 220.67 127.61 221.185 128.65C221.467 129.204 221.637 129.772 221.696 130.356C221.754 130.929 221.783 131.556 221.783 132.236V141.902H218.707V138.491L219.217 139.045C218.508 140.182 217.677 141.018 216.724 141.552C215.781 142.077 214.6 142.34 213.181 142.34ZM213.881 139.54C214.678 139.54 215.359 139.4 215.922 139.118C216.486 138.836 216.933 138.491 217.264 138.083C217.604 137.674 217.832 137.29 217.949 136.931C218.134 136.484 218.236 135.973 218.255 135.4C218.284 134.817 218.299 134.345 218.299 133.986L219.378 134.307C218.318 134.472 217.409 134.618 216.651 134.744C215.893 134.87 215.242 134.992 214.698 135.108C214.153 135.215 213.672 135.337 213.254 135.473C212.846 135.619 212.501 135.789 212.219 135.983C211.937 136.178 211.719 136.401 211.563 136.654C211.417 136.907 211.344 137.203 211.344 137.543C211.344 137.932 211.442 138.277 211.636 138.578C211.83 138.87 212.112 139.103 212.482 139.278C212.861 139.453 213.327 139.54 213.881 139.54ZM225.579 141.902V126.157H228.684V129.991L228.305 129.495C228.5 128.971 228.757 128.494 229.078 128.067C229.408 127.629 229.802 127.27 230.259 126.988C230.648 126.725 231.075 126.521 231.542 126.375C232.018 126.22 232.504 126.128 233 126.098C233.495 126.06 233.976 126.079 234.443 126.157V129.437C233.976 129.301 233.437 129.257 232.825 129.306C232.222 129.354 231.678 129.525 231.192 129.816C230.706 130.079 230.307 130.414 229.996 130.822C229.695 131.23 229.471 131.697 229.326 132.222C229.18 132.737 229.107 133.296 229.107 133.898V141.902H225.579ZM243.778 142.34C242.155 142.34 240.77 141.98 239.623 141.261C238.476 140.532 237.596 139.54 236.984 138.287C236.382 137.033 236.075 135.614 236.066 134.03C236.075 132.416 236.391 130.987 237.013 129.743C237.645 128.489 238.539 127.508 239.696 126.798C240.853 126.079 242.228 125.719 243.822 125.719C245.61 125.719 247.122 126.171 248.356 127.075C249.6 127.969 250.412 129.194 250.791 130.749L247.292 131.697C247.02 130.851 246.568 130.195 245.936 129.729C245.304 129.252 244.585 129.014 243.778 129.014C242.864 129.014 242.111 129.233 241.518 129.67C240.925 130.098 240.488 130.691 240.206 131.449C239.924 132.207 239.783 133.067 239.783 134.03C239.783 135.526 240.119 136.736 240.789 137.66C241.46 138.583 242.456 139.045 243.778 139.045C244.711 139.045 245.445 138.831 245.98 138.403C246.524 137.976 246.932 137.358 247.204 136.552L250.791 137.354C250.305 138.957 249.454 140.192 248.239 141.057C247.024 141.912 245.537 142.34 243.778 142.34ZM264.603 141.902V134.321C264.603 133.825 264.569 133.276 264.501 132.674C264.433 132.071 264.273 131.493 264.02 130.939C263.777 130.375 263.408 129.913 262.912 129.554C262.426 129.194 261.765 129.014 260.929 129.014C260.482 129.014 260.04 129.087 259.602 129.233C259.165 129.379 258.766 129.631 258.407 129.991C258.057 130.341 257.775 130.827 257.561 131.449C257.347 132.061 257.24 132.849 257.24 133.811L255.156 132.922C255.156 131.58 255.413 130.365 255.928 129.277C256.453 128.188 257.221 127.323 258.232 126.682C259.243 126.03 260.487 125.705 261.964 125.705C263.131 125.705 264.093 125.899 264.851 126.288C265.609 126.677 266.212 127.172 266.659 127.775C267.106 128.378 267.436 129.019 267.65 129.699C267.864 130.38 268 131.026 268.058 131.639C268.126 132.241 268.16 132.732 268.16 133.111V141.902H264.603ZM253.683 141.902V120.908H256.818V131.959H257.24V141.902H253.683Z" fill="white"/>
<path d="M24.8576 165.902V157.374H21.5712V156.023H29.5778V157.374H26.2915V165.902H24.8576ZM32.466 165.902L35.6769 156.023H37.742L40.9529 165.902H39.4641L36.5071 156.887H36.8775L33.9548 165.902H32.466ZM34.1332 163.673V162.328H39.2926V163.673H34.1332ZM45.0653 165.902V156.023H46.4992V164.551H50.9725V165.902H45.0653ZM54.8817 165.902V156.023H61.1936V157.374H56.3156V160.146H60.3703V161.498H56.3156V164.551H61.1936V165.902H54.8817ZM65.5857 165.902V156.023H67.0402L71.9045 163.364V156.023H73.359V165.902H71.9045L67.0402 158.554V165.902H65.5857ZM80.4813 165.902V157.374H77.195V156.023H85.2016V157.374H81.9152V165.902H80.4813ZM96.5828 165.902V157.374H93.2965V156.023H101.303V157.374H98.0167V165.902H96.5828ZM105.145 165.902V156.023H106.579V160.283H111.519V156.023H112.96V165.902H111.519V161.635H106.579V165.902H105.145ZM116.945 165.902L120.156 156.023H122.221L125.432 165.902H123.944L120.987 156.887H121.357L118.434 165.902H116.945ZM118.613 163.673V162.328H123.772V163.673H118.613ZM131.053 165.902V157.374H127.767V156.023H135.773V157.374H132.487V165.902H131.053ZM147.155 165.902V157.374H143.868V156.023H151.875V157.374H148.589V165.902H147.155ZM155.717 165.902V156.023H159.71C159.806 156.023 159.925 156.027 160.067 156.036C160.209 156.041 160.344 156.055 160.472 156.078C161.021 156.165 161.478 156.352 161.844 156.64C162.215 156.928 162.491 157.292 162.674 157.731C162.857 158.17 162.949 158.655 162.949 159.186C162.949 159.972 162.747 160.652 162.345 161.223C161.942 161.79 161.339 162.145 160.534 162.287L159.95 162.355H157.151V165.902H155.717ZM161.494 165.902L159.546 161.882L160.993 161.511L163.134 165.902H161.494ZM157.151 160.997H159.655C159.747 160.997 159.848 160.992 159.957 160.983C160.072 160.974 160.179 160.958 160.28 160.935C160.572 160.866 160.808 160.741 160.986 160.558C161.165 160.37 161.293 160.155 161.371 159.913C161.448 159.67 161.487 159.428 161.487 159.186C161.487 158.943 161.448 158.703 161.371 158.465C161.293 158.223 161.165 158.01 160.986 157.827C160.808 157.64 160.572 157.512 160.28 157.443C160.179 157.415 160.072 157.397 159.957 157.388C159.848 157.379 159.747 157.374 159.655 157.374H157.151V160.997ZM166.7 165.902L169.911 156.023H171.976L175.187 165.902H173.698L170.741 156.887H171.112L168.189 165.902H166.7ZM168.367 163.673V162.328H173.527V163.673H168.367ZM179.162 165.902V156.023H180.617L185.481 163.364V156.023H186.935V165.902H185.481L180.617 158.554V165.902H179.162ZM195.176 166.108C194.467 166.108 193.827 165.987 193.255 165.745C192.688 165.498 192.219 165.148 191.849 164.695C191.483 164.237 191.245 163.695 191.135 163.069L192.631 162.842C192.782 163.446 193.097 163.917 193.577 164.256C194.058 164.59 194.618 164.757 195.258 164.757C195.656 164.757 196.022 164.695 196.356 164.571C196.69 164.443 196.958 164.263 197.159 164.029C197.365 163.791 197.468 163.508 197.468 163.179C197.468 163 197.436 162.842 197.372 162.705C197.312 162.568 197.227 162.449 197.118 162.348C197.012 162.243 196.882 162.154 196.727 162.081C196.576 162.003 196.409 161.937 196.226 161.882L193.694 161.134C193.447 161.061 193.196 160.967 192.939 160.853C192.683 160.734 192.448 160.581 192.233 160.393C192.022 160.201 191.851 159.965 191.718 159.686C191.586 159.403 191.519 159.06 191.519 158.657C191.519 158.049 191.675 157.534 191.986 157.114C192.301 156.688 192.727 156.368 193.262 156.153C193.797 155.934 194.396 155.824 195.059 155.824C195.727 155.833 196.324 155.952 196.85 156.181C197.381 156.409 197.82 156.739 198.167 157.168C198.52 157.594 198.762 158.111 198.895 158.719L197.358 158.98C197.289 158.609 197.143 158.291 196.919 158.026C196.695 157.756 196.42 157.55 196.095 157.409C195.771 157.262 195.418 157.187 195.039 157.182C194.673 157.173 194.337 157.228 194.03 157.347C193.728 157.466 193.486 157.633 193.303 157.848C193.125 158.063 193.035 158.31 193.035 158.589C193.035 158.863 193.115 159.085 193.276 159.254C193.436 159.423 193.632 159.558 193.866 159.659C194.103 159.755 194.339 159.835 194.572 159.899L196.397 160.414C196.626 160.478 196.884 160.565 197.173 160.674C197.465 160.78 197.747 160.928 198.016 161.12C198.291 161.312 198.517 161.569 198.696 161.889C198.874 162.204 198.963 162.602 198.963 163.083C198.963 163.581 198.863 164.02 198.661 164.4C198.46 164.775 198.183 165.09 197.831 165.347C197.484 165.598 197.081 165.788 196.624 165.916C196.166 166.044 195.684 166.108 195.176 166.108ZM203.17 165.902V156.023H209.022V157.457H204.604V160.242H208.199V161.683H204.604V165.902H203.17ZM217.126 166.108C216.138 166.108 215.296 165.893 214.601 165.463C213.906 165.029 213.373 164.425 213.003 163.652C212.637 162.879 212.454 161.983 212.454 160.963C212.454 159.943 212.637 159.046 213.003 158.273C213.373 157.5 213.906 156.899 214.601 156.469C215.296 156.034 216.138 155.817 217.126 155.817C218.109 155.817 218.949 156.034 219.644 156.469C220.344 156.899 220.877 157.5 221.243 158.273C221.608 159.046 221.791 159.943 221.791 160.963C221.791 161.983 221.608 162.879 221.243 163.652C220.877 164.425 220.344 165.029 219.644 165.463C218.949 165.893 218.109 166.108 217.126 166.108ZM217.126 164.743C217.826 164.752 218.407 164.599 218.869 164.283C219.335 163.963 219.685 163.519 219.918 162.952C220.152 162.38 220.268 161.717 220.268 160.963C220.268 160.208 220.152 159.549 219.918 158.987C219.685 158.419 219.335 157.978 218.869 157.662C218.407 157.347 217.826 157.187 217.126 157.182C216.426 157.173 215.843 157.326 215.376 157.642C214.915 157.957 214.567 158.401 214.334 158.973C214.1 159.545 213.981 160.208 213.977 160.963C213.972 161.717 214.087 162.378 214.32 162.945C214.553 163.508 214.903 163.947 215.37 164.263C215.841 164.578 216.426 164.738 217.126 164.743ZM225.904 165.902V156.023H229.897C229.993 156.023 230.112 156.027 230.254 156.036C230.396 156.041 230.531 156.055 230.659 156.078C231.208 156.165 231.665 156.352 232.031 156.64C232.401 156.928 232.678 157.292 232.861 157.731C233.044 158.17 233.136 158.655 233.136 159.186C233.136 159.972 232.934 160.652 232.532 161.223C232.129 161.79 231.526 162.145 230.721 162.287L230.137 162.355H227.338V165.902H225.904ZM231.681 165.902L229.733 161.882L231.18 161.511L233.321 165.902H231.681ZM227.338 160.997H229.842C229.934 160.997 230.034 160.992 230.144 160.983C230.259 160.974 230.366 160.958 230.467 160.935C230.759 160.866 230.995 160.741 231.173 160.558C231.352 160.37 231.48 160.155 231.558 159.913C231.635 159.67 231.674 159.428 231.674 159.186C231.674 158.943 231.635 158.703 231.558 158.465C231.48 158.223 231.352 158.01 231.173 157.827C230.995 157.64 230.759 157.512 230.467 157.443C230.366 157.415 230.259 157.397 230.144 157.388C230.034 157.379 229.934 157.374 229.842 157.374H227.338V160.997ZM237.573 165.902V156.023H238.87L242.451 163.453L246.012 156.023H247.322V165.895H245.964V159.138L242.774 165.902H242.122L238.925 159.138V165.902H237.573ZM255.57 166.108C254.861 166.108 254.221 165.987 253.649 165.745C253.082 165.498 252.613 165.148 252.243 164.695C251.877 164.237 251.639 163.695 251.529 163.069L253.025 162.842C253.176 163.446 253.491 163.917 253.972 164.256C254.452 164.59 255.012 164.757 255.653 164.757C256.05 164.757 256.416 164.695 256.75 164.571C257.084 164.443 257.352 164.263 257.553 164.029C257.759 163.791 257.862 163.508 257.862 163.179C257.862 163 257.83 162.842 257.766 162.705C257.706 162.568 257.622 162.449 257.512 162.348C257.407 162.243 257.276 162.154 257.121 162.081C256.97 162.003 256.803 161.937 256.62 161.882L254.088 161.134C253.841 161.061 253.59 160.967 253.334 160.853C253.077 160.734 252.842 160.581 252.627 160.393C252.416 160.201 252.245 159.965 252.112 159.686C251.98 159.403 251.913 159.06 251.913 158.657C251.913 158.049 252.069 157.534 252.38 157.114C252.696 156.688 253.121 156.368 253.656 156.153C254.191 155.934 254.79 155.824 255.454 155.824C256.121 155.833 256.718 155.952 257.244 156.181C257.775 156.409 258.214 156.739 258.562 157.168C258.914 157.594 259.156 158.111 259.289 158.719L257.752 158.98C257.683 158.609 257.537 158.291 257.313 158.026C257.089 157.756 256.814 157.55 256.49 157.409C256.165 157.262 255.813 157.187 255.433 157.182C255.067 157.173 254.731 157.228 254.424 157.347C254.123 157.466 253.88 157.633 253.697 157.848C253.519 158.063 253.43 158.31 253.43 158.589C253.43 158.863 253.51 159.085 253.67 159.254C253.83 159.423 254.027 159.558 254.26 159.659C254.498 159.755 254.733 159.835 254.966 159.899L256.791 160.414C257.02 160.478 257.279 160.565 257.567 160.674C257.859 160.78 258.141 160.928 258.411 161.12C258.685 161.312 258.911 161.569 259.09 161.889C259.268 162.204 259.357 162.602 259.357 163.083C259.357 163.581 259.257 164.02 259.056 164.4C258.854 164.775 258.578 165.09 258.225 165.347C257.878 165.598 257.475 165.788 257.018 165.916C256.56 166.044 256.078 166.108 255.57 166.108Z" fill="white"/>
<defs>
<filter id="filter0_f_2242_318" x="68.043" y="0" width="145.211" height="110.613" filterUnits="userSpaceOnUse" color-interpolation-filters="sRGB">
<feFlood flood-opacity="0" result="BackgroundImageFix"/>
<feBlend mode="normal" in="SourceGraphic" in2="BackgroundImageFix" result="shape"/>
<feGaussianBlur stdDeviation="5" result="effect1_foregroundBlur_2242_318"/>
</filter>
<linearGradient id="paint0_linear_2242_318" x1="124.202" y1="80.5859" x2="199.547" y2="33.4567" gradientUnits="userSpaceOnUse">
<stop stop-color="#2B98E3"/>
<stop offset="0.463247" stop-color="#31B6CB"/>
<stop offset="1" stop-color="#3CD4C7"/>
</linearGradient>
<linearGradient id="paint1_linear_2242_318" x1="83.8804" y1="53.687" x2="138.824" y2="77.3327" gradientUnits="userSpaceOnUse">
<stop stop-color="#05101F"/>
<stop offset="0.999999" stop-color="#2B98E3" stop-opacity="0"/>
</linearGradient>
<linearGradient id="paint2_linear_2242_318" x1="138.701" y1="35.5947" x2="81.1672" y2="64.3102" gradientUnits="userSpaceOnUse">
<stop stop-color="#2B98E3"/>
<stop offset="0.463247" stop-color="#31B6CB"/>
<stop offset="1" stop-color="#3CD4C7"/>
</linearGradient>
<linearGradient id="paint3_linear_2242_318" x1="202.021" y1="65.596" x2="129.688" y2="37.446" gradientUnits="userSpaceOnUse">
<stop stop-color="#05101F"/>
<stop offset="0.999999" stop-color="#2B98E3" stop-opacity="0"/>
</linearGradient>
<clipPath id="clip0_2242_318">
<rect width="125.21" height="90.6128" fill="white" transform="translate(78.043 10)"/>
</clipPath>
</defs>
</svg>
