<svg width="150" height="135" viewBox="0 0 150 135" fill="none" xmlns="http://www.w3.org/2000/svg">
<g filter="url(#filter0_f_2184_2809)">
<path d="M34.5042 84.9356L32.3164 83.4648C33.0157 84.0219 33.7468 84.5134 34.5042 84.9356Z" fill="#2A97E2"/>
<path d="M125.002 67.1847C125.002 70.0878 124.454 72.9562 123.406 75.5728C122.009 79.0648 119.722 82.1083 116.667 84.1847L102.719 93.6607L83.1951 106.925C80.7758 108.568 78.0805 109.403 75.3795 109.428C72.638 109.453 69.8918 108.643 67.4255 106.997L61.6291 103.129L61.5917 103.105C61.1518 102.814 60.6943 102.51 60.2217 102.197C57.7555 100.56 54.8875 98.6421 51.9885 96.6967L51.967 96.6817C50.5064 95.7016 49.0386 94.7139 47.6098 93.7524L46.9709 93.3227L34.5061 84.944L32.3183 83.4732C31.8632 83.1119 31.4217 82.7215 30.9961 82.3049L35.7018 76.0756L49.6838 74.4429L55.5017 75.1225L59.353 75.5728L62.1971 75.9052L62.6864 75.5728L68.8345 71.3966L75.3795 66.9497L76.1337 66.4376L82.4926 62.1172V62.1163L100.003 50.2203C104.86 46.9202 110.542 46.8248 115.282 49.3768C118.319 51.0113 120.969 53.7347 122.766 57.3979C124.282 60.4864 125.002 63.8575 125.002 67.1847Z" fill="url(#paint0_linear_2184_2809)"/>
<path d="M75.3795 66.9414V109.419C72.638 109.445 69.8918 108.635 67.4255 106.989L61.6291 103.121L61.5917 103.097C61.1517 102.805 60.6943 102.502 60.2217 102.188C57.7555 100.552 54.8875 98.6338 51.9885 96.6884L51.967 96.6734C50.5064 95.6932 49.0386 94.7056 47.6098 93.7441L46.9709 93.3144L34.5061 84.9356L32.3183 83.4649C31.8632 83.1035 31.4217 82.7132 30.9961 82.2966L35.7018 76.0672L49.6838 74.4346L62.1971 75.8969L75.3795 66.9414Z" fill="url(#paint1_linear_2184_2809)"/>
<path d="M107.06 43.8229C106.915 43.7246 106.768 43.6263 106.62 43.5261L105.551 42.8053C103.194 41.2156 100.603 39.4716 98.0347 37.7471L98.0132 37.7321C95.1142 35.7868 92.2462 33.8685 89.78 32.2321C89.3074 31.9185 88.85 31.6152 88.41 31.324L88.3727 31.2997L82.5762 27.4314C77.6803 24.1641 71.681 24.1913 66.8066 27.5035L55.5009 35.1848L47.2828 40.7681L33.3351 50.2441C27.9889 53.8765 25 60.4672 25 67.2442C25 70.5713 25.72 73.9425 27.2355 77.0309C28.2467 79.0915 29.5275 80.8552 30.9953 82.2951C31.421 82.7117 31.8625 83.102 32.3176 83.4634L34.5053 84.9341C39.0615 87.4805 44.5254 87.5573 49.2964 84.6598C49.5327 84.5166 49.7666 84.3668 49.9989 84.2086L62.2298 75.8991L62.7246 75.563L67.5091 72.3126V72.3117L75.3788 66.9652L76.1369 66.4503L76.133 66.4278L82.4919 62.1074V62.1064L100.002 50.2104C104.859 46.9104 110.542 46.8149 115.281 49.3669L107.06 43.8229Z" fill="url(#paint2_linear_2184_2809)"/>
<path d="M115.282 49.3669C110.543 46.8149 104.86 46.9104 100.003 50.2104L82.4929 62.1064V62.1073L76.134 66.4278L76.138 66.4503L75.3798 66.9652L67.5101 72.3117V72.3126L62.7256 75.563H55.502V35.1848L66.8076 27.5035C71.682 24.1913 77.6813 24.1641 82.5772 27.4314L88.3737 31.2997L88.411 31.324C88.851 31.6151 89.3084 31.9185 89.781 32.2321C92.2472 33.8685 95.1152 35.7868 98.0142 37.7321L98.0357 37.7471C100.604 39.4716 103.195 41.2156 105.552 42.8053L106.621 43.5261C106.769 43.6263 106.916 43.7246 107.061 43.8229L115.282 49.3669Z" fill="url(#paint3_linear_2184_2809)"/>
</g>
<path d="M34.5042 84.9356L32.3164 83.4648C33.0157 84.0219 33.7468 84.5134 34.5042 84.9356Z" fill="#2A97E2"/>
<path d="M125.002 67.1847C125.002 70.0878 124.454 72.9562 123.406 75.5728C122.009 79.0648 119.722 82.1083 116.667 84.1847L102.719 93.6607L83.1951 106.925C80.7758 108.568 78.0805 109.403 75.3795 109.428C72.638 109.453 69.8918 108.643 67.4255 106.997L61.6291 103.129L61.5917 103.105C61.1518 102.814 60.6943 102.51 60.2217 102.197C57.7555 100.56 54.8875 98.6421 51.9885 96.6967L51.967 96.6817C50.5064 95.7016 49.0386 94.7139 47.6098 93.7524L46.9709 93.3227L34.5061 84.944L32.3183 83.4732C31.8632 83.1119 31.4217 82.7215 30.9961 82.3049L35.7018 76.0756L49.6838 74.4429L55.5017 75.1225L59.353 75.5728L62.1971 75.9052L62.6864 75.5728L68.8345 71.3966L75.3795 66.9497L76.1337 66.4376L82.4926 62.1172V62.1163L100.003 50.2203C104.86 46.9202 110.542 46.8248 115.282 49.3768C118.319 51.0113 120.969 53.7347 122.766 57.3979C124.282 60.4864 125.002 63.8575 125.002 67.1847Z" fill="url(#paint4_linear_2184_2809)"/>
<path d="M75.3795 66.9414V109.419C72.638 109.445 69.8918 108.635 67.4255 106.989L61.6291 103.121L61.5917 103.097C61.1517 102.805 60.6943 102.502 60.2217 102.188C57.7555 100.552 54.8875 98.6338 51.9885 96.6884L51.967 96.6734C50.5064 95.6932 49.0386 94.7056 47.6098 93.7441L46.9709 93.3144L34.5061 84.9356L32.3183 83.4649C31.8632 83.1035 31.4217 82.7132 30.9961 82.2966L35.7018 76.0672L49.6838 74.4346L62.1971 75.8969L75.3795 66.9414Z" fill="url(#paint5_linear_2184_2809)"/>
<path d="M107.06 43.8229C106.915 43.7246 106.768 43.6263 106.62 43.5261L105.551 42.8053C103.194 41.2156 100.603 39.4716 98.0347 37.7471L98.0132 37.7321C95.1142 35.7868 92.2462 33.8685 89.78 32.2321C89.3074 31.9185 88.85 31.6152 88.41 31.324L88.3727 31.2997L82.5762 27.4314C77.6803 24.1641 71.681 24.1913 66.8066 27.5035L55.5009 35.1848L47.2828 40.7681L33.3351 50.2441C27.9889 53.8765 25 60.4672 25 67.2442C25 70.5713 25.72 73.9425 27.2355 77.0309C28.2467 79.0915 29.5275 80.8552 30.9953 82.2951C31.421 82.7117 31.8625 83.102 32.3176 83.4634L34.5053 84.9341C39.0615 87.4805 44.5254 87.5573 49.2964 84.6598C49.5327 84.5166 49.7666 84.3668 49.9989 84.2086L62.2298 75.8991L62.7246 75.563L67.5091 72.3126V72.3117L75.3788 66.9652L76.1369 66.4503L76.133 66.4278L82.4919 62.1074V62.1064L100.002 50.2104C104.859 46.9104 110.542 46.8149 115.281 49.3669L107.06 43.8229Z" fill="url(#paint6_linear_2184_2809)"/>
<path d="M115.282 49.3669C110.543 46.8149 104.86 46.9104 100.003 50.2104L82.4929 62.1064V62.1073L76.134 66.4278L76.138 66.4503L75.3798 66.9652L67.5101 72.3117V72.3126L62.7256 75.563H55.502V35.1848L66.8076 27.5035C71.682 24.1913 77.6813 24.1641 82.5772 27.4314L88.3737 31.2997L88.411 31.324C88.851 31.6151 89.3084 31.9185 89.781 32.2321C92.2472 33.8685 95.1152 35.7868 98.0142 37.7321L98.0357 37.7471C100.604 39.4716 103.195 41.2156 105.552 42.8053L106.621 43.5261C106.769 43.6263 106.916 43.7246 107.061 43.8229L115.282 49.3669Z" fill="url(#paint7_linear_2184_2809)"/>
<defs>
<filter id="filter0_f_2184_2809" x="-17.998" y="-15.1953" width="185.998" height="164.809" filterUnits="userSpaceOnUse" color-interpolation-filters="sRGB">
<feFlood flood-opacity="0" result="BackgroundImageFix"/>
<feBlend mode="normal" in="SourceGraphic" in2="BackgroundImageFix" result="shape"/>
<feGaussianBlur stdDeviation="12.5" result="effect1_foregroundBlur_2184_2809"/>
</filter>
<linearGradient id="paint0_linear_2184_2809" x1="61.8688" y1="90.7692" x2="126.891" y2="55.9019" gradientUnits="userSpaceOnUse">
<stop stop-color="#2B98E3"/>
<stop offset="0.463247" stop-color="#31B6CB"/>
<stop offset="1" stop-color="#3CD4C7"/>
</linearGradient>
<linearGradient id="paint1_linear_2184_2809" x1="29.6651" y1="65.7" x2="75.443" y2="82.5891" gradientUnits="userSpaceOnUse">
<stop stop-color="#05101F"/>
<stop offset="0.999999" stop-color="#2B98E3" stop-opacity="0"/>
</linearGradient>
<linearGradient id="paint2_linear_2184_2809" x1="73.4451" y1="48.8451" x2="24.9303" y2="69.603" gradientUnits="userSpaceOnUse">
<stop stop-color="#2B98E3"/>
<stop offset="0.463247" stop-color="#31B6CB"/>
<stop offset="1" stop-color="#3CD4C7"/>
</linearGradient>
<linearGradient id="paint3_linear_2184_2809" x1="124.018" y1="76.7955" x2="64.161" y2="56.8258" gradientUnits="userSpaceOnUse">
<stop stop-color="#05101F"/>
<stop offset="0.999999" stop-color="#2B98E3" stop-opacity="0"/>
</linearGradient>
<linearGradient id="paint4_linear_2184_2809" x1="61.8688" y1="90.7692" x2="126.891" y2="55.9019" gradientUnits="userSpaceOnUse">
<stop stop-color="#2B98E3"/>
<stop offset="0.463247" stop-color="#31B6CB"/>
<stop offset="1" stop-color="#3CD4C7"/>
</linearGradient>
<linearGradient id="paint5_linear_2184_2809" x1="29.6651" y1="65.7" x2="75.443" y2="82.5891" gradientUnits="userSpaceOnUse">
<stop stop-color="#05101F"/>
<stop offset="0.999999" stop-color="#2B98E3" stop-opacity="0"/>
</linearGradient>
<linearGradient id="paint6_linear_2184_2809" x1="73.4451" y1="48.8451" x2="24.9303" y2="69.603" gradientUnits="userSpaceOnUse">
<stop stop-color="#2B98E3"/>
<stop offset="0.463247" stop-color="#31B6CB"/>
<stop offset="1" stop-color="#3CD4C7"/>
</linearGradient>
<linearGradient id="paint7_linear_2184_2809" x1="124.018" y1="76.7955" x2="64.161" y2="56.8258" gradientUnits="userSpaceOnUse">
<stop stop-color="#05101F"/>
<stop offset="0.999999" stop-color="#2B98E3" stop-opacity="0"/>
</linearGradient>
</defs>
</svg>
