<svg width="309" height="147" viewBox="0 0 309 147" fill="none" xmlns="http://www.w3.org/2000/svg">
<path d="M2.84678 136.955V113.403H12.104C13.5979 113.403 14.8518 113.708 15.8658 114.319C16.8799 114.93 17.6431 115.72 18.1556 116.69C18.6681 117.65 18.9243 118.664 18.9243 119.733C18.9243 121.03 18.6027 122.142 17.9593 123.069C17.3269 123.996 16.471 124.628 15.3915 124.966L15.3588 124.165C16.8635 124.536 18.0193 125.261 18.8262 126.34C19.6331 127.409 20.0365 128.657 20.0365 130.086C20.0365 131.471 19.7585 132.675 19.2024 133.7C18.6572 134.725 17.8558 135.527 16.7981 136.105C15.7513 136.672 14.4811 136.955 12.9872 136.955H2.84678ZM6.31416 133.7H12.4639C13.238 133.7 13.9304 133.553 14.541 133.259C15.1625 132.964 15.6478 132.545 15.9967 131.999C16.3565 131.443 16.5364 130.784 16.5364 130.02C16.5364 129.312 16.3783 128.674 16.0621 128.107C15.7568 127.529 15.3097 127.076 14.7209 126.749C14.143 126.411 13.4616 126.242 12.6765 126.242H6.31416V133.7ZM6.31416 123.02H12.055C12.6874 123.02 13.2544 122.895 13.756 122.644C14.2684 122.382 14.6719 122.012 14.9663 121.532C15.2716 121.041 15.4242 120.452 15.4242 119.765C15.4242 118.849 15.1189 118.097 14.5083 117.508C13.8977 116.919 13.0799 116.625 12.055 116.625H6.31416V123.02ZM23.6184 136.955V112.912H27.0367V136.955H23.6184ZM38.605 137.429C37.3837 137.429 36.3588 137.233 35.5301 136.841C34.7014 136.448 34.0254 135.936 33.502 135.303C32.9895 134.66 32.597 133.962 32.3244 133.21C32.0518 132.457 31.8665 131.721 31.7683 131.002C31.6702 130.282 31.6211 129.65 31.6211 129.104V119.291H35.0885V127.976C35.0885 128.663 35.143 129.372 35.2521 130.102C35.372 130.822 35.5901 131.492 35.9063 132.114C36.2334 132.735 36.6859 133.237 37.2638 133.619C37.8526 134 38.6159 134.191 39.5536 134.191C40.1642 134.191 40.7421 134.093 41.2873 133.897C41.8325 133.689 42.3068 133.362 42.7102 132.915C43.1246 132.468 43.4462 131.879 43.6752 131.149C43.9151 130.418 44.035 129.53 44.035 128.483L46.1613 129.284C46.1613 130.887 45.8614 132.305 45.2617 133.537C44.662 134.758 43.8006 135.712 42.6775 136.399C41.5544 137.086 40.1969 137.429 38.605 137.429ZM44.4439 136.955V131.852H44.035V119.291H47.4861V136.955H44.4439ZM59.9076 137.446C58.1521 137.446 56.6092 137.064 55.279 136.301C53.9596 135.527 52.9292 134.453 52.1878 133.079C51.4572 131.694 51.092 130.091 51.092 128.27C51.092 126.34 51.4518 124.667 52.1714 123.249C52.902 121.832 53.916 120.736 55.2136 119.962C56.5111 119.187 58.0213 118.8 59.7441 118.8C61.5432 118.8 63.0752 119.22 64.34 120.06C65.6048 120.888 66.548 122.071 67.1695 123.609C67.8019 125.146 68.0527 126.973 67.9219 129.088H64.5035V127.845C64.4817 125.795 64.0892 124.279 63.3259 123.298C62.5736 122.317 61.4232 121.826 59.8749 121.826C58.163 121.826 56.8764 122.366 56.015 123.445C55.1536 124.525 54.7229 126.084 54.7229 128.123C54.7229 130.064 55.1536 131.569 56.015 132.637C56.8764 133.695 58.1194 134.224 59.7441 134.224C60.8126 134.224 61.734 133.984 62.5082 133.504C63.2932 133.013 63.9038 132.316 64.34 131.411L67.6929 132.474C67.0059 134.055 65.9646 135.281 64.569 136.154C63.1733 137.015 61.6195 137.446 59.9076 137.446ZM53.6107 129.088V126.422H66.2209V129.088H53.6107ZM78.4671 136.955V113.403H81.8855V136.955H78.4671ZM93.5518 137.429C91.4038 137.429 89.6538 136.955 88.3017 136.006C86.9496 135.058 86.121 133.722 85.8156 131.999L89.3157 131.46C89.5338 132.376 90.0354 133.101 90.8205 133.635C91.6164 134.158 92.6032 134.42 93.7808 134.42C94.8494 134.42 95.6835 134.202 96.2832 133.766C96.8938 133.33 97.1991 132.73 97.1991 131.967C97.1991 131.52 97.0901 131.16 96.872 130.887C96.6649 130.604 96.2233 130.337 95.5472 130.086C94.8712 129.835 93.8408 129.524 92.456 129.153C90.9404 128.761 89.7355 128.341 88.8414 127.894C87.9582 127.436 87.3258 126.907 86.9442 126.308C86.5735 125.697 86.3881 124.961 86.3881 124.1C86.3881 123.031 86.6716 122.099 87.2386 121.303C87.8056 120.507 88.6016 119.891 89.6265 119.455C90.6624 119.018 91.8727 118.8 93.2574 118.8C94.6095 118.8 95.8144 119.013 96.872 119.438C97.9297 119.863 98.7856 120.469 99.4399 121.254C100.094 122.028 100.487 122.938 100.617 123.985L97.1174 124.623C96.9974 123.772 96.5994 123.102 95.9234 122.611C95.2474 122.121 94.3696 121.853 93.2902 121.81C92.2543 121.766 91.4147 121.941 90.7714 122.333C90.1281 122.715 89.8064 123.244 89.8064 123.92C89.8064 124.312 89.9264 124.645 90.1662 124.917C90.417 125.19 90.8968 125.452 91.6055 125.702C92.3143 125.953 93.361 126.253 94.7458 126.602C96.2287 126.984 97.4063 127.409 98.2786 127.878C99.1509 128.336 99.7724 128.886 100.143 129.53C100.525 130.162 100.716 130.931 100.716 131.836C100.716 133.58 100.078 134.949 98.802 135.941C97.5372 136.933 95.7871 137.429 93.5518 137.429ZM104.662 136.955V112.912H108.08V136.955H104.662ZM117.98 137.446C116.672 137.446 115.576 137.206 114.692 136.726C113.809 136.235 113.139 135.592 112.681 134.796C112.234 133.989 112.01 133.106 112.01 132.147C112.01 131.252 112.168 130.467 112.484 129.791C112.801 129.115 113.27 128.543 113.891 128.074C114.513 127.594 115.276 127.207 116.181 126.913C116.966 126.684 117.855 126.482 118.847 126.308C119.839 126.133 120.88 125.97 121.971 125.817C123.072 125.664 124.162 125.512 125.242 125.359L123.999 126.046C124.021 124.661 123.726 123.636 123.116 122.971C122.516 122.295 121.48 121.957 120.008 121.957C119.081 121.957 118.231 122.175 117.457 122.611C116.682 123.036 116.143 123.745 115.837 124.737L112.648 123.756C113.084 122.24 113.913 121.036 115.134 120.142C116.366 119.247 118.002 118.8 120.041 118.8C121.622 118.8 122.996 119.073 124.162 119.618C125.34 120.152 126.201 121.003 126.747 122.17C127.03 122.748 127.205 123.358 127.27 124.001C127.335 124.645 127.368 125.337 127.368 126.079V136.955H124.342V132.915L124.931 133.439C124.201 134.791 123.268 135.799 122.134 136.464C121.011 137.119 119.626 137.446 117.98 137.446ZM118.585 134.649C119.556 134.649 120.39 134.48 121.088 134.142C121.785 133.793 122.347 133.351 122.772 132.817C123.197 132.283 123.475 131.727 123.606 131.149C123.792 130.625 123.895 130.037 123.917 129.382C123.95 128.728 123.966 128.205 123.966 127.812L125.078 128.221C123.999 128.385 123.017 128.532 122.134 128.663C121.251 128.794 120.45 128.924 119.73 129.055C119.021 129.175 118.389 129.322 117.833 129.497C117.364 129.66 116.944 129.857 116.573 130.086C116.214 130.315 115.925 130.593 115.707 130.92C115.499 131.247 115.396 131.645 115.396 132.114C115.396 132.572 115.51 132.997 115.739 133.39C115.968 133.771 116.317 134.076 116.786 134.305C117.255 134.534 117.855 134.649 118.585 134.649ZM144.013 136.955V128.27C144.013 127.583 143.953 126.88 143.833 126.16C143.724 125.43 143.506 124.754 143.179 124.132C142.862 123.511 142.41 123.009 141.821 122.628C141.243 122.246 140.485 122.055 139.548 122.055C138.937 122.055 138.359 122.159 137.814 122.366C137.269 122.562 136.789 122.884 136.375 123.331C135.971 123.778 135.65 124.367 135.41 125.097C135.181 125.828 135.066 126.716 135.066 127.763L132.94 126.962C132.94 125.359 133.24 123.947 133.84 122.726C134.439 121.494 135.301 120.534 136.424 119.847C137.547 119.16 138.904 118.817 140.496 118.817C141.717 118.817 142.742 119.013 143.571 119.406C144.4 119.798 145.07 120.316 145.583 120.959C146.106 121.592 146.504 122.284 146.777 123.036C147.049 123.789 147.235 124.525 147.333 125.244C147.431 125.964 147.48 126.597 147.48 127.142V136.955H144.013ZM131.599 136.955V119.291H134.657V124.394H135.066V136.955H131.599ZM158.533 137.446C156.887 137.446 155.464 137.037 154.264 136.219C153.076 135.401 152.154 134.289 151.5 132.883C150.857 131.465 150.535 129.873 150.535 128.107C150.535 126.329 150.862 124.743 151.517 123.347C152.171 121.941 153.098 120.834 154.297 120.027C155.507 119.209 156.941 118.8 158.599 118.8C160.267 118.8 161.668 119.209 162.802 120.027C163.947 120.834 164.808 121.941 165.386 123.347C165.975 124.754 166.269 126.34 166.269 128.107C166.269 129.873 165.975 131.46 165.386 132.866C164.797 134.273 163.93 135.39 162.786 136.219C161.641 137.037 160.223 137.446 158.533 137.446ZM159.007 134.355C160.131 134.355 161.046 134.087 161.755 133.553C162.464 133.019 162.982 132.283 163.309 131.345C163.636 130.407 163.8 129.328 163.8 128.107C163.8 126.885 163.631 125.806 163.293 124.868C162.966 123.931 162.453 123.2 161.755 122.677C161.068 122.153 160.191 121.892 159.122 121.892C157.988 121.892 157.056 122.17 156.325 122.726C155.595 123.282 155.049 124.029 154.69 124.966C154.341 125.904 154.166 126.951 154.166 128.107C154.166 129.273 154.341 130.331 154.69 131.28C155.049 132.217 155.584 132.964 156.292 133.52C157.012 134.076 157.917 134.355 159.007 134.355ZM163.8 136.955V124.247H163.407V113.403H166.842V136.955H163.8ZM186.504 137.446C184.814 137.446 183.288 137.157 181.925 136.579C180.573 135.99 179.455 135.156 178.572 134.076C177.7 132.986 177.133 131.694 176.871 130.2L180.436 129.66C180.796 131.1 181.549 132.223 182.693 133.03C183.838 133.826 185.174 134.224 186.701 134.224C187.649 134.224 188.521 134.076 189.317 133.782C190.113 133.477 190.751 133.046 191.231 132.49C191.722 131.923 191.967 131.247 191.967 130.462C191.967 130.037 191.891 129.66 191.738 129.333C191.596 129.006 191.395 128.723 191.133 128.483C190.882 128.232 190.571 128.019 190.201 127.845C189.841 127.66 189.443 127.502 189.007 127.371L182.971 125.588C182.383 125.413 181.783 125.19 181.172 124.917C180.562 124.634 180 124.269 179.488 123.822C178.986 123.364 178.577 122.802 178.261 122.137C177.945 121.461 177.787 120.643 177.787 119.684C177.787 118.233 178.157 117.007 178.899 116.004C179.651 114.99 180.665 114.226 181.941 113.714C183.217 113.19 184.645 112.929 186.226 112.929C187.818 112.951 189.241 113.234 190.495 113.779C191.76 114.324 192.807 115.109 193.635 116.134C194.475 117.148 195.053 118.381 195.369 119.831L191.705 120.452C191.542 119.569 191.193 118.811 190.659 118.179C190.124 117.536 189.47 117.045 188.696 116.707C187.922 116.358 187.082 116.178 186.177 116.167C185.305 116.145 184.503 116.276 183.773 116.56C183.053 116.843 182.475 117.241 182.039 117.754C181.614 118.266 181.401 118.855 181.401 119.52C181.401 120.174 181.592 120.703 181.974 121.107C182.355 121.51 182.824 121.832 183.38 122.071C183.947 122.3 184.509 122.491 185.065 122.644L189.416 123.871C189.961 124.023 190.577 124.23 191.264 124.492C191.962 124.743 192.632 125.097 193.276 125.555C193.93 126.013 194.469 126.624 194.895 127.387C195.32 128.139 195.533 129.088 195.533 130.233C195.533 131.421 195.293 132.468 194.813 133.373C194.333 134.267 193.673 135.02 192.834 135.63C192.005 136.23 191.046 136.682 189.955 136.988C188.865 137.293 187.715 137.446 186.504 137.446ZM206.852 137.446C205.097 137.446 203.554 137.064 202.224 136.301C200.904 135.527 199.874 134.453 199.133 133.079C198.402 131.694 198.037 130.091 198.037 128.27C198.037 126.34 198.397 124.667 199.116 123.249C199.847 121.832 200.861 120.736 202.158 119.962C203.456 119.187 204.966 118.8 206.689 118.8C208.488 118.8 210.02 119.22 211.285 120.06C212.55 120.888 213.493 122.071 214.114 123.609C214.747 125.146 214.998 126.973 214.867 129.088H211.448V127.845C211.427 125.795 211.034 124.279 210.271 123.298C209.518 122.317 208.368 121.826 206.82 121.826C205.108 121.826 203.821 122.366 202.96 123.445C202.098 124.525 201.668 126.084 201.668 128.123C201.668 130.064 202.098 131.569 202.96 132.637C203.821 133.695 205.064 134.224 206.689 134.224C207.757 134.224 208.679 133.984 209.453 133.504C210.238 133.013 210.849 132.316 211.285 131.411L214.638 132.474C213.951 134.055 212.909 135.281 211.514 136.154C210.118 137.015 208.564 137.446 206.852 137.446ZM200.556 129.088V126.422H213.166V129.088H200.556ZM226.092 137.446C224.282 137.446 222.745 137.042 221.48 136.235C220.215 135.429 219.245 134.322 218.569 132.915C217.904 131.509 217.566 129.911 217.555 128.123C217.566 126.302 217.915 124.694 218.602 123.298C219.289 121.892 220.27 120.79 221.546 119.994C222.821 119.198 224.353 118.8 226.142 118.8C228.072 118.8 229.718 119.28 231.081 120.24C232.455 121.199 233.36 122.513 233.796 124.181L230.394 125.163C230.056 124.17 229.5 123.402 228.726 122.857C227.962 122.3 227.085 122.022 226.092 122.022C224.969 122.022 224.048 122.29 223.328 122.824C222.609 123.347 222.074 124.067 221.726 124.983C221.377 125.899 221.197 126.945 221.186 128.123C221.197 129.944 221.611 131.416 222.429 132.539C223.258 133.662 224.479 134.224 226.092 134.224C227.194 134.224 228.082 133.973 228.758 133.471C229.445 132.959 229.969 132.228 230.329 131.28L233.796 132.097C233.218 133.82 232.264 135.145 230.934 136.072C229.603 136.988 227.99 137.446 226.092 137.446ZM243.785 137.429C242.563 137.429 241.538 137.233 240.71 136.841C239.881 136.448 239.205 135.936 238.682 135.303C238.169 134.66 237.777 133.962 237.504 133.21C237.232 132.457 237.046 131.721 236.948 131.002C236.85 130.282 236.801 129.65 236.801 129.104V119.291H240.268V127.976C240.268 128.663 240.323 129.372 240.432 130.102C240.552 130.822 240.77 131.492 241.086 132.114C241.413 132.735 241.866 133.237 242.443 133.619C243.032 134 243.796 134.191 244.733 134.191C245.344 134.191 245.922 134.093 246.467 133.897C247.012 133.689 247.486 133.362 247.89 132.915C248.304 132.468 248.626 131.879 248.855 131.149C249.095 130.418 249.215 129.53 249.215 128.483L251.341 129.284C251.341 130.887 251.041 132.305 250.441 133.537C249.842 134.758 248.98 135.712 247.857 136.399C246.734 137.086 245.377 137.429 243.785 137.429ZM249.624 136.955V131.852H249.215V119.291H252.666V136.955H249.624ZM257.253 136.955V119.291H260.295V123.576L259.87 123.02C260.088 122.453 260.371 121.935 260.72 121.466C261.069 120.987 261.473 120.594 261.931 120.289C262.378 119.962 262.874 119.711 263.419 119.536C263.975 119.351 264.542 119.242 265.12 119.209C265.698 119.166 266.254 119.193 266.788 119.291V122.497C266.21 122.344 265.567 122.3 264.858 122.366C264.16 122.431 263.517 122.655 262.928 123.036C262.372 123.396 261.931 123.832 261.604 124.345C261.287 124.857 261.058 125.43 260.917 126.062C260.775 126.684 260.704 127.343 260.704 128.041V136.955H257.253ZM270.23 116.396V113.076H273.648V116.396H270.23ZM270.23 136.955V119.291H273.648V136.955H270.23ZM288.668 136.955C287.556 137.173 286.465 137.266 285.397 137.233C284.328 137.2 283.374 136.993 282.534 136.612C281.695 136.23 281.062 135.63 280.637 134.812C280.256 134.082 280.048 133.34 280.016 132.588C279.994 131.825 279.983 130.963 279.983 130.004V114.384H283.418V129.84C283.418 130.549 283.423 131.165 283.434 131.689C283.456 132.212 283.57 132.654 283.777 133.013C284.17 133.689 284.791 134.076 285.642 134.175C286.503 134.262 287.512 134.224 288.668 134.06V136.955ZM276.597 122.039V119.291H288.668V122.039H276.597ZM294.301 144.806L297.719 135.499L297.768 138.247L290.065 119.291H293.63L299.387 133.929H298.341L303.836 119.291H307.303L297.555 144.806H294.301Z" fill="#C6E2FF"/>
<g clip-path="url(#clip0_526_220)">
<path d="M107.248 59.6607L104.723 58.2051C105.53 58.7564 106.374 59.2428 107.248 59.6607Z" fill="#2A97E2"/>
<path d="M211.729 42.0828C211.729 44.956 211.096 47.7949 209.886 50.3846C208.274 53.8407 205.634 56.8529 202.106 58.908L186.003 68.2865L163.463 81.4147C160.67 83.0408 157.558 83.8673 154.44 83.8914C151.275 83.9164 148.104 83.1149 145.257 81.4861L138.565 77.6576L138.522 77.6335C138.014 77.3453 137.486 77.0451 136.94 76.7347C134.093 75.1151 130.782 73.2166 127.435 71.2913L127.41 71.2764C125.724 70.3063 124.029 69.3288 122.38 68.3773L121.642 67.952L107.252 59.6594L104.726 58.2038C104.2 57.8461 103.691 57.4598 103.199 57.0474L108.632 50.8822L124.774 49.2663L131.491 49.939L135.937 50.3846L139.221 50.7136L139.786 50.3846L146.884 46.2513L154.44 41.8502L155.311 41.3434L162.652 37.0674V37.0665L182.868 25.2928C188.475 22.0267 195.036 21.9322 200.507 24.458C204.014 26.0757 207.073 28.7711 209.148 32.3967C210.898 35.4533 211.729 38.7898 211.729 42.0828Z" fill="url(#paint0_linear_526_220)"/>
<path d="M154.44 41.8506V83.8917C151.275 83.9168 148.104 83.1153 145.257 81.4864L138.565 77.6579L138.522 77.6338C138.014 77.3457 137.486 77.0455 136.94 76.7351C134.093 75.1155 130.782 73.217 127.435 71.2916L127.41 71.2768C125.724 70.3067 124.029 69.3292 122.38 68.3776L121.642 67.9524L107.252 59.6597L104.726 58.2041C104.2 57.8465 103.691 57.4601 103.199 57.0478L108.632 50.8826L124.774 49.2667L139.221 50.7139L154.44 41.8506Z" fill="url(#paint1_linear_526_220)"/>
<path d="M191.013 18.9711C190.846 18.8738 190.677 18.7765 190.506 18.6774L189.272 17.9639C186.55 16.3907 183.559 14.6645 180.594 12.9578L180.569 12.943C177.222 11.0176 173.911 9.11911 171.064 7.49951C170.518 7.18911 169.99 6.88891 169.482 6.60077L169.439 6.57667L162.747 2.74818C157.095 -0.485466 150.169 -0.458604 144.541 2.81952L131.489 10.4218L122.001 15.9478L105.898 25.3263C99.7261 28.9213 96.2754 35.4442 96.2754 42.1515C96.2754 45.4444 97.1066 48.7809 98.8563 51.8376C100.024 53.8769 101.502 55.6225 103.197 57.0476C103.688 57.4599 104.198 57.8462 104.724 58.2039L107.249 59.6595C112.509 62.1797 118.817 62.2557 124.326 59.388C124.598 59.2463 124.868 59.098 125.137 58.9414L139.257 50.7174L139.829 50.3848L145.352 47.1678V47.1669L154.438 41.8753L155.313 41.3657L155.308 41.3435L162.65 37.0675V37.0666L182.865 25.2929C188.473 22.0269 195.033 21.9323 200.505 24.4581L191.013 18.9711Z" fill="url(#paint2_linear_526_220)"/>
<path d="M200.506 24.4581C195.035 21.9323 188.474 22.0268 182.867 25.2929L162.651 37.0666V37.0675L155.31 41.3435L155.315 41.3657L154.439 41.8753L145.354 47.1669V47.1678L139.83 50.3847H131.49V10.4218L144.543 2.81952C150.17 -0.458604 157.096 -0.485466 162.749 2.74817L169.441 6.57667L169.484 6.60076C169.992 6.88891 170.52 7.18911 171.065 7.49951C173.913 9.11911 177.224 11.0176 180.571 12.943L180.596 12.9578C183.56 14.6645 186.552 16.3907 189.273 17.9639L190.508 18.6774C190.679 18.7765 190.848 18.8738 191.015 18.9711L200.506 24.4581Z" fill="url(#paint3_linear_526_220)"/>
</g>
<defs>
<linearGradient id="paint0_linear_526_220" x1="138.842" y1="65.4247" x2="208.314" y2="21.9688" gradientUnits="userSpaceOnUse">
<stop stop-color="#2B98E3"/>
<stop offset="0.463247" stop-color="#31B6CB"/>
<stop offset="1" stop-color="#3CD4C7"/>
</linearGradient>
<linearGradient id="paint1_linear_526_220" x1="101.663" y1="40.6219" x2="152.324" y2="62.4246" gradientUnits="userSpaceOnUse">
<stop stop-color="#05101F"/>
<stop offset="0.999999" stop-color="#2B98E3" stop-opacity="0"/>
</linearGradient>
<linearGradient id="paint2_linear_526_220" x1="152.205" y1="23.9416" x2="99.1561" y2="50.4189" gradientUnits="userSpaceOnUse">
<stop stop-color="#2B98E3"/>
<stop offset="0.463247" stop-color="#31B6CB"/>
<stop offset="1" stop-color="#3CD4C7"/>
</linearGradient>
<linearGradient id="paint3_linear_526_220" x1="210.592" y1="51.6046" x2="143.897" y2="25.6486" gradientUnits="userSpaceOnUse">
<stop stop-color="#05101F"/>
<stop offset="0.999999" stop-color="#2B98E3" stop-opacity="0"/>
</linearGradient>
<clipPath id="clip0_526_220">
<rect width="115.451" height="83.5503" fill="white" transform="translate(96.2754 0.341797)"/>
</clipPath>
</defs>
</svg>
