<svg width="218" height="52" viewBox="0 0 218 52" fill="none" xmlns="http://www.w3.org/2000/svg">
<g filter="url(#filter0_f_2214_91)">
<mask id="mask0_2214_91" style="mask-type:luminance" maskUnits="userSpaceOnUse" x="4" y="4" width="60" height="44">
<path d="M64 4H4V47.4211H64V4Z" fill="white"/>
</mask>
<g mask="url(#mask0_2214_91)">
<path d="M9.70328 34.8268L8.39062 34.0703C8.81021 34.3568 9.24886 34.6096 9.70328 34.8268Z" fill="#2A97E2"/>
<path d="M64.0005 25.6921C64.0005 27.1853 63.6716 28.6607 63.043 30.0065C62.2048 31.8026 60.8329 33.368 58.9995 34.4361L50.6309 39.3101L38.9168 46.1329C37.4652 46.9778 35.848 47.4074 34.2275 47.4199C32.5826 47.4329 30.9348 47.0164 29.4551 46.1698L25.9773 44.1802L25.9548 44.1678C25.6909 44.018 25.4164 43.8619 25.1329 43.7006C23.6531 42.8589 21.9324 41.8723 20.193 40.8717L20.1801 40.8639C19.3037 40.3597 18.423 39.8517 17.5658 39.3573L17.1824 39.1362L9.70363 34.8265L8.39097 34.07C8.11794 33.8842 7.85302 33.6835 7.59766 33.4692L10.4211 30.2651L18.8102 29.4253L22.3009 29.7749L24.6116 30.0065L26.3181 30.1775L26.6116 30.0065L30.3005 27.8584L34.2275 25.5711L34.68 25.3078L38.4953 23.0856L49.0013 16.9663C51.9154 15.2689 55.325 15.2197 58.1685 16.5324C59.9909 17.3731 61.5809 18.7739 62.6592 20.6581C63.5685 22.2466 64.0005 23.9807 64.0005 25.6921Z" fill="url(#paint0_linear_2214_91)"/>
<path d="M34.2275 25.5742V47.4229C32.5826 47.4359 30.9348 47.0194 29.4551 46.1729L25.9773 44.1832L25.9548 44.1707C25.6909 44.021 25.4164 43.8649 25.1329 43.7036C23.6532 42.8619 21.9324 41.8753 20.193 40.8747L20.1801 40.867C19.3037 40.3628 18.423 39.8548 17.5658 39.3603L17.1825 39.1392L9.70363 34.8296L8.39097 34.0731C8.11794 33.8872 7.85302 33.6864 7.59766 33.4722L10.4211 30.2681L18.8102 29.4283L26.3181 30.1804L34.2275 25.5742Z" fill="url(#paint1_linear_2214_91)"/>
<path d="M53.2352 13.6817C53.1484 13.6311 53.0605 13.5805 52.9717 13.529L52.3302 13.1582C50.9159 12.3406 49.3612 11.4435 47.8204 10.5565L47.8075 10.5488C46.0681 9.54822 44.3473 8.56157 42.8676 7.71986C42.5841 7.55855 42.3096 7.40253 42.0457 7.25278L42.0232 7.24026L38.5454 5.25059C35.6079 3.57007 32.0083 3.58403 29.0837 5.28767L22.3004 9.2386L17.3696 12.1104L9.001 16.9844C5.79333 18.8528 4 22.2427 4 25.7285C4 27.4398 4.43199 29.1738 5.3413 30.7624C5.94799 31.8222 6.71649 32.7294 7.59717 33.47C7.85253 33.6842 8.11746 33.885 8.39049 34.0709L9.70315 34.8274C12.4368 36.1371 15.7151 36.1766 18.5777 34.6863C18.7195 34.6126 18.8598 34.5356 18.9992 34.4542L26.3376 30.1802L26.6346 30.0073L29.5052 28.3355L34.227 25.585L34.6819 25.3201L34.6795 25.3086L38.4948 23.0863L49.0008 16.9671C51.9149 15.2697 55.3245 15.2206 58.168 16.5332L53.2352 13.6817Z" fill="url(#paint2_linear_2214_91)"/>
<path d="M58.1684 16.5332C55.3249 15.2206 51.9153 15.2697 49.0012 16.9671L38.4952 23.0859L34.6799 25.3086L34.6823 25.3201L34.2274 25.585L29.5056 28.335L26.6349 30.0073H22.3008V9.2386L29.0841 5.28767C32.0087 3.58403 35.6083 3.57007 38.5458 5.25059L42.0236 7.24026L42.046 7.25278C42.31 7.40253 42.5845 7.55855 42.868 7.71986C44.3477 8.56157 46.0685 9.54822 47.8079 10.5488L47.8208 10.5565C49.3616 11.4435 50.9163 12.3406 52.3306 13.1582L52.9721 13.529C53.0609 13.5805 53.1488 13.6311 53.2356 13.6816L58.1684 16.5332Z" fill="url(#paint3_linear_2214_91)"/>
</g>
</g>
<mask id="mask1_2214_91" style="mask-type:luminance" maskUnits="userSpaceOnUse" x="4" y="4" width="60" height="44">
<path d="M64 4H4V47.4211H64V4Z" fill="white"/>
</mask>
<g mask="url(#mask1_2214_91)">
<path d="M9.70328 34.8268L8.39062 34.0703C8.81021 34.3568 9.24886 34.6096 9.70328 34.8268Z" fill="#2A97E2"/>
<path d="M64.0005 25.6921C64.0005 27.1853 63.6716 28.6607 63.043 30.0065C62.2048 31.8026 60.8329 33.368 58.9995 34.4361L50.6309 39.3101L38.9168 46.1329C37.4652 46.9778 35.848 47.4074 34.2275 47.4199C32.5826 47.4329 30.9348 47.0164 29.4551 46.1698L25.9773 44.1802L25.9548 44.1678C25.6909 44.018 25.4164 43.8619 25.1329 43.7006C23.6531 42.8589 21.9324 41.8723 20.193 40.8717L20.1801 40.8639C19.3037 40.3597 18.423 39.8517 17.5658 39.3573L17.1824 39.1362L9.70363 34.8265L8.39097 34.07C8.11794 33.8842 7.85302 33.6835 7.59766 33.4692L10.4211 30.2651L18.8102 29.4253L22.3009 29.7749L24.6116 30.0065L26.3181 30.1775L26.6116 30.0065L30.3005 27.8584L34.2275 25.5711L34.68 25.3078L38.4953 23.0856L49.0013 16.9663C51.9154 15.2689 55.325 15.2197 58.1685 16.5324C59.9909 17.3731 61.5809 18.7739 62.6592 20.6581C63.5685 22.2466 64.0005 23.9807 64.0005 25.6921Z" fill="url(#paint4_linear_2214_91)"/>
<path d="M34.2275 25.5742V47.4229C32.5826 47.4359 30.9348 47.0194 29.4551 46.1729L25.9773 44.1832L25.9548 44.1707C25.6909 44.021 25.4164 43.8649 25.1329 43.7036C23.6532 42.8619 21.9324 41.8753 20.193 40.8747L20.1801 40.867C19.3037 40.3628 18.423 39.8548 17.5658 39.3603L17.1825 39.1392L9.70363 34.8296L8.39097 34.0731C8.11794 33.8872 7.85302 33.6864 7.59766 33.4722L10.4211 30.2681L18.8102 29.4283L26.3181 30.1804L34.2275 25.5742Z" fill="url(#paint5_linear_2214_91)"/>
<path d="M53.2352 13.6817C53.1484 13.6311 53.0605 13.5805 52.9717 13.529L52.3302 13.1582C50.9159 12.3406 49.3612 11.4435 47.8204 10.5565L47.8075 10.5488C46.0681 9.54822 44.3473 8.56157 42.8676 7.71986C42.5841 7.55855 42.3096 7.40253 42.0457 7.25278L42.0232 7.24026L38.5454 5.25059C35.6079 3.57007 32.0083 3.58403 29.0837 5.28767L22.3004 9.2386L17.3696 12.1104L9.001 16.9844C5.79333 18.8528 4 22.2427 4 25.7285C4 27.4398 4.43199 29.1738 5.3413 30.7624C5.94799 31.8222 6.71649 32.7294 7.59717 33.47C7.85253 33.6842 8.11746 33.885 8.39049 34.0709L9.70315 34.8274C12.4368 36.1371 15.7151 36.1766 18.5777 34.6863C18.7195 34.6126 18.8598 34.5356 18.9992 34.4542L26.3376 30.1802L26.6346 30.0073L29.5052 28.3355L34.227 25.585L34.6819 25.3201L34.6795 25.3086L38.4948 23.0863L49.0008 16.9671C51.9149 15.2697 55.3245 15.2206 58.168 16.5332L53.2352 13.6817Z" fill="url(#paint6_linear_2214_91)"/>
<path d="M58.1684 16.5332C55.3249 15.2206 51.9153 15.2697 49.0012 16.9671L38.4952 23.0859L34.6799 25.3086L34.6823 25.3201L34.2274 25.585L29.5056 28.335L26.6349 30.0073H22.3008V9.2386L29.0841 5.28767C32.0087 3.58403 35.6083 3.57007 38.5458 5.25059L42.0236 7.24026L42.046 7.25278C42.31 7.40253 42.5845 7.55855 42.868 7.71986C44.3477 8.56157 46.0685 9.54822 47.8079 10.5488L47.8208 10.5565C49.3616 11.4435 50.9163 12.3406 52.3306 13.1582L52.9721 13.529C53.0609 13.5805 53.1488 13.6311 53.2356 13.6816L58.1684 16.5332Z" fill="url(#paint7_linear_2214_91)"/>
</g>
<path d="M81.1592 23.7109V11.7877H85.8457C86.6019 11.7877 87.2367 11.9423 87.7501 12.2514C88.2634 12.5605 88.6498 12.9607 88.9093 13.452C89.1687 13.9378 89.2984 14.4511 89.2984 14.9921C89.2984 15.649 89.1356 16.212 88.8099 16.6812C88.4898 17.1504 88.0564 17.4706 87.51 17.6417L87.4934 17.236C88.2552 17.4237 88.8403 17.7907 89.2488 18.3372C89.6572 18.8782 89.8615 19.5102 89.8615 20.2333C89.8615 20.9344 89.7207 21.5443 89.4392 22.0632C89.1632 22.5821 88.7575 22.9878 88.222 23.2804C87.6921 23.5674 87.049 23.7109 86.2928 23.7109H81.1592ZM82.9146 22.0632H86.0278C86.4198 22.0632 86.7703 21.9887 87.0794 21.8397C87.394 21.6906 87.6397 21.4781 87.8163 21.2021C87.9985 20.9206 88.0896 20.5866 88.0896 20.2002C88.0896 19.8414 88.0095 19.5185 87.8494 19.2315C87.6949 18.9389 87.4686 18.7098 87.1705 18.5442C86.8779 18.3731 86.5329 18.2875 86.1355 18.2875H82.9146V22.0632ZM82.9146 16.6564H85.8208C86.141 16.6564 86.428 16.5929 86.682 16.4659C86.9414 16.3335 87.1456 16.1458 87.2947 15.9029C87.4492 15.6545 87.5265 15.3564 87.5265 15.0087C87.5265 14.545 87.372 14.1641 87.0628 13.866C86.7537 13.5679 86.3397 13.4189 85.8208 13.4189H82.9146V16.6564ZM91.6748 23.7109V11.5393H93.4053V23.7109H91.6748ZM99.2617 23.9511C98.6435 23.9511 98.1246 23.8517 97.7051 23.653C97.2856 23.4543 96.9433 23.1948 96.6784 22.8747C96.4189 22.549 96.2202 22.1957 96.0822 21.8148C95.9442 21.4339 95.8504 21.0613 95.8007 20.697C95.751 20.3327 95.7262 20.0125 95.7262 19.7365V14.7685H97.4815V19.1652C97.4815 19.513 97.5091 19.8718 97.5643 20.2416C97.6251 20.6059 97.7355 20.9454 97.8955 21.2601C98.0611 21.5747 98.2902 21.8286 98.5828 22.0218C98.8809 22.215 99.2673 22.3116 99.742 22.3116C100.051 22.3116 100.344 22.2619 100.62 22.1626C100.896 22.0577 101.136 21.8921 101.34 21.6658C101.55 21.4395 101.713 21.1414 101.829 20.7715C101.95 20.4017 102.011 19.9518 102.011 19.4219L103.087 19.8276C103.087 20.6391 102.935 21.3567 102.632 21.9804C102.328 22.5987 101.892 23.0817 101.323 23.4294C100.755 23.7772 100.068 23.9511 99.2617 23.9511ZM102.218 23.7109V21.1276H102.011V14.7685H103.758V23.7109H102.218ZM110.046 23.9593C109.157 23.9593 108.376 23.7661 107.703 23.3797C107.035 22.9878 106.513 22.4441 106.138 21.7486C105.768 21.0475 105.583 20.2361 105.583 19.3143C105.583 18.3372 105.765 17.4899 106.13 16.7723C106.5 16.0547 107.013 15.4999 107.67 15.108C108.327 14.7161 109.091 14.5201 109.963 14.5201C110.874 14.5201 111.65 14.7327 112.29 15.1577C112.93 15.5772 113.408 16.1761 113.722 16.9545C114.043 17.7328 114.17 18.6574 114.103 19.7283H112.373V19.099C112.362 18.0612 112.163 17.2939 111.777 16.7971C111.396 16.3003 110.813 16.0519 110.03 16.0519C109.163 16.0519 108.512 16.3252 108.076 16.8717C107.639 17.4181 107.421 18.2075 107.421 19.2397C107.421 20.2223 107.639 20.9841 108.076 21.525C108.512 22.0605 109.141 22.3282 109.963 22.3282C110.504 22.3282 110.971 22.2067 111.363 21.9639C111.76 21.7155 112.069 21.3622 112.29 20.904L113.987 21.4422C113.64 22.2426 113.113 22.8636 112.406 23.3052C111.699 23.7413 110.913 23.9593 110.046 23.9593ZM106.858 19.7283V18.3786H113.242V19.7283H106.858ZM119.442 23.7109V11.7877H121.172V23.7109H119.442ZM127.079 23.9511C125.991 23.9511 125.105 23.7109 124.421 23.2307C123.736 22.7505 123.317 22.0743 123.162 21.2021L124.934 20.9289C125.044 21.3925 125.298 21.7596 125.696 22.0301C126.099 22.2951 126.598 22.4275 127.194 22.4275C127.735 22.4275 128.158 22.3171 128.461 22.0963C128.77 21.8755 128.925 21.5719 128.925 21.1855C128.925 20.9592 128.87 20.7771 128.759 20.6391C128.654 20.4955 128.431 20.3603 128.089 20.2333C127.746 20.1064 127.225 19.9491 126.524 19.7614C125.756 19.5627 125.147 19.3501 124.694 19.1238C124.247 18.892 123.927 18.6243 123.733 18.3207C123.546 18.0115 123.452 17.6389 123.452 17.2029C123.452 16.6619 123.595 16.1899 123.882 15.787C124.169 15.384 124.572 15.0721 125.091 14.8513C125.616 14.6305 126.228 14.5201 126.929 14.5201C127.614 14.5201 128.224 14.6278 128.759 14.8431C129.295 15.0583 129.728 15.3647 130.059 15.7621C130.391 16.1541 130.589 16.615 130.655 17.1449L128.884 17.4678C128.823 17.0373 128.621 16.6978 128.279 16.4494C127.937 16.201 127.493 16.0657 126.946 16.0437C126.422 16.0216 125.997 16.1099 125.671 16.3086C125.345 16.5018 125.182 16.7695 125.182 17.1118C125.182 17.3105 125.243 17.4789 125.365 17.6169C125.492 17.7549 125.734 17.8873 126.093 18.0143C126.452 18.1413 126.982 18.2931 127.683 18.4697C128.434 18.6629 129.03 18.8782 129.471 19.1155C129.913 19.3474 130.228 19.6261 130.415 19.9518C130.609 20.272 130.705 20.6611 130.705 21.1193C130.705 22.0025 130.382 22.6953 129.736 23.1976C129.096 23.6999 128.21 23.9511 127.079 23.9511ZM132.703 23.7109V11.5393H134.433V23.7109H132.703ZM139.445 23.9593C138.783 23.9593 138.228 23.8379 137.781 23.595C137.334 23.3466 136.994 23.0209 136.763 22.618C136.536 22.2095 136.423 21.7624 136.423 21.2766C136.423 20.824 136.503 20.4265 136.663 20.0843C136.823 19.7421 137.061 19.4523 137.375 19.2149C137.69 18.972 138.076 18.7761 138.534 18.627C138.932 18.5111 139.382 18.409 139.884 18.3207C140.386 18.2323 140.914 18.1495 141.466 18.0723C142.023 17.995 142.575 17.9177 143.122 17.8404L142.492 18.1882C142.503 17.4871 142.354 16.9683 142.045 16.6315C141.742 16.2893 141.217 16.1182 140.472 16.1182C140.003 16.1182 139.572 16.2286 139.18 16.4494C138.788 16.6647 138.515 17.0235 138.361 17.5258L136.746 17.029C136.967 16.2617 137.386 15.6517 138.005 15.1991C138.628 14.7465 139.456 14.5201 140.489 14.5201C141.289 14.5201 141.984 14.6581 142.575 14.9341C143.171 15.2046 143.607 15.6352 143.883 16.2258C144.027 16.5184 144.115 16.8275 144.148 17.1532C144.181 17.4789 144.198 17.8294 144.198 18.2047V23.7109H142.666V21.6658L142.964 21.9307C142.594 22.6152 142.122 23.1258 141.548 23.4625C140.98 23.7937 140.279 23.9593 139.445 23.9593ZM139.752 22.5435C140.243 22.5435 140.665 22.4579 141.018 22.2868C141.372 22.1101 141.656 21.8866 141.871 21.6161C142.087 21.3456 142.227 21.0641 142.294 20.7715C142.387 20.5066 142.44 20.2085 142.451 19.8773C142.467 19.5461 142.476 19.2811 142.476 19.0824L143.039 19.2894C142.492 19.3722 141.995 19.4467 141.548 19.513C141.101 19.5792 140.696 19.6455 140.331 19.7117C139.972 19.7724 139.652 19.8469 139.371 19.9353C139.133 20.0181 138.921 20.1174 138.733 20.2333C138.551 20.3493 138.405 20.49 138.294 20.6556C138.189 20.8212 138.137 21.0227 138.137 21.2601C138.137 21.4919 138.195 21.7072 138.311 21.9059C138.427 22.0991 138.603 22.2537 138.841 22.3696C139.078 22.4855 139.382 22.5435 139.752 22.5435ZM152.624 23.7109V19.3143C152.624 18.9665 152.594 18.6105 152.533 18.2461C152.478 17.8763 152.368 17.5341 152.202 17.2194C152.042 16.9048 151.813 16.6509 151.515 16.4577C151.222 16.2645 150.839 16.1679 150.364 16.1679C150.055 16.1679 149.762 16.2203 149.486 16.3252C149.21 16.4245 148.967 16.5874 148.758 16.8137C148.553 17.04 148.39 17.3381 148.269 17.7079C148.153 18.0778 148.095 18.5277 148.095 19.0576L147.019 18.6519C147.019 17.8404 147.171 17.1256 147.474 16.5073C147.778 15.8836 148.214 15.3978 148.782 15.0501C149.351 14.7023 150.038 14.5284 150.844 14.5284C151.462 14.5284 151.981 14.6278 152.401 14.8265C152.82 15.0252 153.16 15.2874 153.419 15.6131C153.684 15.9333 153.886 16.2838 154.024 16.6647C154.162 17.0455 154.255 17.4181 154.305 17.7825C154.355 18.1468 154.38 18.4669 154.38 18.7429V23.7109H152.624ZM146.34 23.7109V14.7685H147.888V17.3519H148.095V23.7109H146.34ZM159.975 23.9593C159.142 23.9593 158.421 23.7523 157.814 23.3383C157.212 22.9243 156.746 22.3613 156.415 21.6492C156.089 20.9316 155.926 20.1257 155.926 19.2315C155.926 18.3317 156.092 17.5285 156.423 16.822C156.754 16.1099 157.224 15.5496 157.831 15.1411C158.443 14.7271 159.169 14.5201 160.008 14.5201C160.853 14.5201 161.562 14.7271 162.136 15.1411C162.716 15.5496 163.152 16.1099 163.445 16.822C163.743 17.5341 163.892 18.3372 163.892 19.2315C163.892 20.1257 163.743 20.9289 163.445 21.6409C163.146 22.353 162.708 22.9188 162.128 23.3383C161.548 23.7523 160.831 23.9593 159.975 23.9593ZM160.215 22.3944C160.784 22.3944 161.248 22.2592 161.606 21.9887C161.965 21.7182 162.227 21.3456 162.393 20.8709C162.559 20.3962 162.641 19.8497 162.641 19.2315C162.641 18.6132 162.556 18.0667 162.385 17.592C162.219 17.1173 161.96 16.7475 161.606 16.4825C161.259 16.2175 160.814 16.0851 160.273 16.0851C159.699 16.0851 159.227 16.2258 158.857 16.5073C158.488 16.7889 158.212 17.167 158.029 17.6417C157.853 18.1164 157.764 18.6463 157.764 19.2315C157.764 19.8221 157.853 20.3575 158.029 20.8378C158.212 21.3125 158.482 21.6906 158.841 21.9721C159.205 22.2537 159.663 22.3944 160.215 22.3944ZM162.641 23.7109V17.2774H162.443V11.7877H164.181V23.7109H162.641ZM174.69 23.9593C173.89 23.9593 173.153 23.8213 172.48 23.5453C171.806 23.2638 171.221 22.8553 170.724 22.3199C170.227 21.7845 169.841 21.1331 169.565 20.3658C169.289 19.5985 169.151 18.7264 169.151 17.7493C169.151 16.4632 169.386 15.3592 169.855 14.4373C170.324 13.51 170.975 12.7979 171.809 12.3011C172.642 11.7988 173.603 11.5476 174.69 11.5476C176.092 11.5476 177.21 11.8733 178.044 12.5247C178.883 13.176 179.454 14.0758 179.758 15.2239L178.002 15.5386C177.759 14.8265 177.368 14.2579 176.827 13.8329C176.286 13.4079 175.607 13.1926 174.79 13.1871C173.945 13.1815 173.241 13.3692 172.678 13.7501C172.121 14.131 171.701 14.6664 171.42 15.3564C171.138 16.0409 170.995 16.8385 170.989 17.7493C170.984 18.6601 171.122 19.4578 171.403 20.1423C171.685 20.8212 172.107 21.3511 172.67 21.732C173.239 22.1129 173.945 22.3061 174.79 22.3116C175.469 22.3227 176.051 22.1985 176.537 21.939C177.028 21.6741 177.417 21.2877 177.704 20.7798C177.991 20.272 178.176 19.6482 178.259 18.9085H175.941V17.5175H180.097C180.108 17.6169 180.116 17.7493 180.122 17.9149C180.128 18.075 180.13 18.1771 180.13 18.2213C180.13 19.3253 179.918 20.3106 179.493 21.1773C179.068 22.0439 178.449 22.7256 177.638 23.2224C176.827 23.7137 175.844 23.9593 174.69 23.9593ZM181.781 23.7109V14.7685H183.321V16.9379L183.105 16.6564C183.216 16.3693 183.359 16.1071 183.536 15.8698C183.713 15.6269 183.917 15.4282 184.149 15.2736C184.375 15.108 184.626 14.9811 184.902 14.8927C185.184 14.7989 185.471 14.7437 185.763 14.7271C186.056 14.7051 186.337 14.7189 186.608 14.7685V16.3914C186.315 16.3141 185.99 16.2921 185.631 16.3252C185.278 16.3583 184.952 16.4715 184.654 16.6647C184.372 16.8468 184.149 17.0676 183.983 17.3271C183.823 17.5865 183.707 17.8763 183.635 18.1965C183.564 18.5111 183.528 18.8451 183.528 19.1983V23.7109H181.781ZM191.906 23.9593C191.012 23.9593 190.236 23.7579 189.58 23.3549C188.923 22.9519 188.415 22.3972 188.056 21.6906C187.703 20.9785 187.526 20.1588 187.526 19.2315C187.526 18.2986 187.708 17.4789 188.073 16.7723C188.437 16.0602 188.948 15.5082 189.604 15.1163C190.261 14.7189 191.029 14.5201 191.906 14.5201C192.801 14.5201 193.576 14.7216 194.233 15.1246C194.89 15.5275 195.398 16.0823 195.756 16.7889C196.115 17.4954 196.295 18.3096 196.295 19.2315C196.295 20.1643 196.113 20.9868 195.748 21.6989C195.389 22.4055 194.882 22.9602 194.225 23.3632C193.568 23.7606 192.795 23.9593 191.906 23.9593ZM191.906 22.3282C192.762 22.3282 193.399 22.0411 193.819 21.4671C194.244 20.8875 194.457 20.1423 194.457 19.2315C194.457 18.2986 194.241 17.5534 193.811 16.9959C193.386 16.4328 192.751 16.1513 191.906 16.1513C191.327 16.1513 190.849 16.2838 190.474 16.5487C190.098 16.8082 189.82 17.1697 189.638 17.6334C189.455 18.0916 189.364 18.6243 189.364 19.2315C189.364 20.1699 189.58 20.9206 190.01 21.4836C190.441 22.0467 191.073 22.3282 191.906 22.3282ZM201.484 23.9511C200.866 23.9511 200.347 23.8517 199.928 23.653C199.508 23.4543 199.166 23.1948 198.901 22.8747C198.641 22.549 198.443 22.1957 198.305 21.8148C198.167 21.4339 198.073 21.0613 198.023 20.697C197.973 20.3327 197.949 20.0125 197.949 19.7365V14.7685H199.704V19.1652C199.704 19.513 199.732 19.8718 199.787 20.2416C199.847 20.6059 199.958 20.9454 200.118 21.2601C200.284 21.5747 200.513 21.8286 200.805 22.0218C201.103 22.215 201.49 22.3116 201.964 22.3116C202.274 22.3116 202.566 22.2619 202.842 22.1626C203.118 22.0577 203.358 21.8921 203.562 21.6658C203.772 21.4395 203.935 21.1414 204.051 20.7715C204.172 20.4017 204.233 19.9518 204.233 19.4219L205.31 19.8276C205.31 20.6391 205.158 21.3567 204.854 21.9804C204.551 22.5987 204.114 23.0817 203.546 23.4294C202.977 23.7772 202.29 23.9511 201.484 23.9511ZM204.44 23.7109V21.1276H204.233V14.7685H205.98V23.7109H204.44ZM212.5 23.9593C211.645 23.9593 210.927 23.7523 210.348 23.3383C209.768 22.9188 209.329 22.353 209.031 21.6409C208.733 20.9289 208.584 20.1257 208.584 19.2315C208.584 18.3372 208.73 17.5341 209.023 16.822C209.321 16.1099 209.757 15.5496 210.331 15.1411C210.911 14.7271 211.623 14.5201 212.467 14.5201C213.306 14.5201 214.029 14.7271 214.637 15.1411C215.249 15.5496 215.721 16.1099 216.053 16.822C216.384 17.5285 216.549 18.3317 216.549 19.2315C216.549 20.1257 216.384 20.9316 216.053 21.6492C215.727 22.3613 215.26 22.9243 214.653 23.3383C214.052 23.7523 213.334 23.9593 212.5 23.9593ZM208.294 27.6853V14.7685H209.834V21.2021H210.033V27.6853H208.294ZM212.26 22.3944C212.812 22.3944 213.268 22.2537 213.627 21.9721C213.991 21.6906 214.261 21.3125 214.438 20.8378C214.62 20.3575 214.711 19.8221 214.711 19.2315C214.711 18.6463 214.62 18.1164 214.438 17.6417C214.261 17.167 213.988 16.7889 213.618 16.5073C213.248 16.2258 212.776 16.0851 212.202 16.0851C211.661 16.0851 211.214 16.2175 210.861 16.4825C210.513 16.7475 210.254 17.1173 210.083 17.592C209.917 18.0667 209.834 18.6132 209.834 19.2315C209.834 19.8497 209.917 20.3962 210.083 20.8709C210.248 21.3456 210.51 21.7182 210.869 21.9887C211.228 22.2592 211.692 22.3944 212.26 22.3944Z" fill="white"/>
<path d="M86.6077 42.7109V36.2309H89.1547C89.5657 36.2309 89.9107 36.3149 90.1897 36.4829C90.4687 36.6509 90.6787 36.8684 90.8197 37.1354C90.9607 37.3994 91.0312 37.6784 91.0312 37.9724C91.0312 38.3294 90.9427 38.6354 90.7657 38.8904C90.5917 39.1454 90.3562 39.3194 90.0592 39.4124L90.0502 39.1919C90.4642 39.2939 90.7822 39.4934 91.0042 39.7904C91.2262 40.0844 91.3372 40.4279 91.3372 40.8209C91.3372 41.2019 91.2607 41.5334 91.1077 41.8154C90.9577 42.0974 90.7372 42.3179 90.4462 42.4769C90.1582 42.6329 89.8087 42.7109 89.3977 42.7109H86.6077ZM87.5617 41.8154H89.2537C89.4667 41.8154 89.6572 41.7749 89.8252 41.6939C89.9962 41.6129 90.1297 41.4974 90.2257 41.3474C90.3247 41.1944 90.3742 41.0129 90.3742 40.8029C90.3742 40.6079 90.3307 40.4324 90.2437 40.2764C90.1597 40.1174 90.0367 39.9929 89.8747 39.9029C89.7157 39.8099 89.5282 39.7634 89.3122 39.7634H87.5617V41.8154ZM87.5617 38.8769H89.1412C89.3152 38.8769 89.4712 38.8424 89.6092 38.7734C89.7502 38.7014 89.8612 38.5994 89.9422 38.4674C90.0262 38.3324 90.0682 38.1704 90.0682 37.9814C90.0682 37.7294 89.9842 37.5224 89.8162 37.3604C89.6482 37.1984 89.4232 37.1174 89.1412 37.1174H87.5617V38.8769ZM96.5257 42.8459C96.0187 42.8459 95.5702 42.7424 95.1802 42.5354C94.7932 42.3254 94.4902 42.0329 94.2712 41.6579C94.0522 41.2799 93.9427 40.8359 93.9427 40.3259V36.2354L94.8967 36.2309V40.2764C94.8967 40.5524 94.9432 40.7954 95.0362 41.0054C95.1292 41.2154 95.2537 41.3909 95.4097 41.5319C95.5657 41.6729 95.7397 41.7794 95.9317 41.8514C96.1267 41.9234 96.3247 41.9594 96.5257 41.9594C96.7297 41.9594 96.9277 41.9234 97.1197 41.8514C97.3147 41.7764 97.4902 41.6684 97.6462 41.5274C97.8022 41.3864 97.9252 41.2109 98.0152 41.0009C98.1082 40.7909 98.1547 40.5494 98.1547 40.2764V36.2309H99.1087V40.3259C99.1087 40.8329 98.9992 41.2754 98.7802 41.6534C98.5612 42.0314 98.2567 42.3254 97.8667 42.5354C97.4797 42.7424 97.0327 42.8459 96.5257 42.8459ZM102.167 42.7109V36.2309H103.108V42.7109H102.167ZM106.259 42.7109V36.2309H107.2V41.8244H110.134V42.7109H106.259ZM112.608 42.7109V36.2309H114.637C114.697 36.2309 114.808 36.2324 114.97 36.2354C115.135 36.2384 115.293 36.2504 115.443 36.2714C115.95 36.3344 116.376 36.5159 116.721 36.8159C117.069 37.1159 117.331 37.4969 117.508 37.9589C117.685 38.4179 117.774 38.9219 117.774 39.4709C117.774 40.0229 117.685 40.5299 117.508 40.9919C117.331 41.4509 117.069 41.8304 116.721 42.1304C116.376 42.4274 115.95 42.6074 115.443 42.6704C115.293 42.6914 115.135 42.7034 114.97 42.7064C114.808 42.7094 114.697 42.7109 114.637 42.7109H112.608ZM113.571 41.8154H114.637C114.739 41.8154 114.861 41.8124 115.002 41.8064C115.143 41.8004 115.267 41.7884 115.375 41.7704C115.705 41.7074 115.972 41.5649 116.176 41.3429C116.383 41.1179 116.535 40.8419 116.631 40.5149C116.727 40.1879 116.775 39.8399 116.775 39.4709C116.775 39.0899 116.725 38.7374 116.626 38.4134C116.527 38.0864 116.374 37.8134 116.167 37.5944C115.963 37.3724 115.699 37.2314 115.375 37.1714C115.267 37.1504 115.141 37.1384 114.997 37.1354C114.856 37.1294 114.736 37.1264 114.637 37.1264H113.571V41.8154ZM120.622 42.7109V36.2309H121.562V42.7109H120.622ZM124.624 42.7109V36.2309H125.578L128.768 41.0459V36.2309H129.722V42.7109H128.768L125.578 37.8914V42.7109H124.624ZM135.339 42.8459C134.904 42.8459 134.503 42.7709 134.137 42.6209C133.771 42.4679 133.453 42.2459 133.183 41.9549C132.913 41.6639 132.703 41.3099 132.553 40.8929C132.403 40.4759 132.328 40.0019 132.328 39.4709C132.328 38.7719 132.456 38.1719 132.711 37.6709C132.966 37.1669 133.32 36.7799 133.773 36.5099C134.226 36.2369 134.748 36.1004 135.339 36.1004C136.101 36.1004 136.708 36.2774 137.161 36.6314C137.617 36.9854 137.928 37.4744 138.093 38.0984L137.139 38.2694C137.007 37.8824 136.794 37.5734 136.5 37.3424C136.206 37.1114 135.837 36.9944 135.393 36.9914C134.934 36.9884 134.551 37.0904 134.245 37.2974C133.942 37.5044 133.714 37.7954 133.561 38.1704C133.408 38.5424 133.33 38.9759 133.327 39.4709C133.324 39.9659 133.399 40.3994 133.552 40.7714C133.705 41.1404 133.935 41.4284 134.241 41.6354C134.55 41.8424 134.934 41.9474 135.393 41.9504C135.762 41.9564 136.078 41.8889 136.342 41.7479C136.609 41.6039 136.821 41.3939 136.977 41.1179C137.133 40.8419 137.233 40.5029 137.278 40.1009H136.018V39.3449H138.277C138.283 39.3989 138.288 39.4709 138.291 39.5609C138.294 39.6479 138.295 39.7034 138.295 39.7274C138.295 40.3274 138.18 40.8629 137.949 41.3339C137.718 41.8049 137.382 42.1754 136.941 42.4454C136.5 42.7124 135.966 42.8459 135.339 42.8459ZM146.029 42.7109V37.1174H143.874V36.2309H149.125V37.1174H146.97V42.7109H146.029ZM151.555 42.7109V36.2309H152.496V39.0254H155.736V36.2309H156.681V42.7109H155.736V39.9119H152.496V42.7109H151.555ZM159.655 42.7109V36.2309H163.795V37.1174H160.595V38.9354H163.255V39.8219H160.595V41.8244H163.795V42.7109H159.655ZM170.097 42.7109V36.2309H173.936V37.1714H171.038V38.9984H173.396V39.9434H171.038V42.7109H170.097ZM179.04 42.8459C178.533 42.8459 178.084 42.7424 177.694 42.5354C177.307 42.3254 177.004 42.0329 176.785 41.6579C176.566 41.2799 176.457 40.8359 176.457 40.3259V36.2354L177.411 36.2309V40.2764C177.411 40.5524 177.457 40.7954 177.55 41.0054C177.643 41.2154 177.768 41.3909 177.924 41.5319C178.08 41.6729 178.254 41.7794 178.446 41.8514C178.641 41.9234 178.839 41.9594 179.04 41.9594C179.244 41.9594 179.442 41.9234 179.634 41.8514C179.829 41.7764 180.004 41.6684 180.16 41.5274C180.316 41.3864 180.439 41.2109 180.529 41.0009C180.622 40.7909 180.669 40.5494 180.669 40.2764V36.2309H181.623V40.3259C181.623 40.8329 181.513 41.2754 181.294 41.6534C181.075 42.0314 180.771 42.3254 180.381 42.5354C179.994 42.7424 179.547 42.8459 179.04 42.8459ZM186.207 42.7109V37.1174H184.052V36.2309H189.303V37.1174H187.148V42.7109H186.207ZM194.316 42.8459C193.809 42.8459 193.361 42.7424 192.971 42.5354C192.584 42.3254 192.281 42.0329 192.062 41.6579C191.843 41.2799 191.733 40.8359 191.733 40.3259V36.2354L192.687 36.2309V40.2764C192.687 40.5524 192.734 40.7954 192.827 41.0054C192.92 41.2154 193.044 41.3909 193.2 41.5319C193.356 41.6729 193.53 41.7794 193.722 41.8514C193.917 41.9234 194.115 41.9594 194.316 41.9594C194.52 41.9594 194.718 41.9234 194.91 41.8514C195.105 41.7764 195.281 41.6684 195.437 41.5274C195.593 41.3864 195.716 41.2109 195.806 41.0009C195.899 40.7909 195.945 40.5494 195.945 40.2764V36.2309H196.899V40.3259C196.899 40.8329 196.79 41.2754 196.571 41.6534C196.352 42.0314 196.047 42.3254 195.657 42.5354C195.27 42.7424 194.823 42.8459 194.316 42.8459ZM199.868 42.7109V36.2309H202.487C202.55 36.2309 202.628 36.2339 202.721 36.2399C202.814 36.2429 202.903 36.2519 202.987 36.2669C203.347 36.3239 203.647 36.4469 203.887 36.6359C204.13 36.8249 204.311 37.0634 204.431 37.3514C204.551 37.6394 204.611 37.9574 204.611 38.3054C204.611 38.8214 204.479 39.2669 204.215 39.6419C203.951 40.0139 203.555 40.2464 203.027 40.3394L202.645 40.3844H200.809V42.7109H199.868ZM203.657 42.7109L202.379 40.0739L203.329 39.8309L204.733 42.7109H203.657ZM200.809 39.4934H202.451C202.511 39.4934 202.577 39.4904 202.649 39.4844C202.724 39.4784 202.795 39.4679 202.861 39.4529C203.053 39.4079 203.207 39.3254 203.324 39.2054C203.441 39.0824 203.525 38.9414 203.576 38.7824C203.627 38.6234 203.653 38.4644 203.653 38.3054C203.653 38.1464 203.627 37.9889 203.576 37.8329C203.525 37.6739 203.441 37.5344 203.324 37.4144C203.207 37.2914 203.053 37.2074 202.861 37.1624C202.795 37.1444 202.724 37.1324 202.649 37.1264C202.577 37.1204 202.511 37.1174 202.451 37.1174H200.809V39.4934ZM207.432 42.7109V36.2309H211.572V37.1174H208.372V38.9354H211.032V39.8219H208.372V41.8244H211.572V42.7109H207.432Z" fill="white"/>
<defs>
<filter id="filter0_f_2214_91" x="0" y="0" width="68" height="51.4219" filterUnits="userSpaceOnUse" color-interpolation-filters="sRGB">
<feFlood flood-opacity="0" result="BackgroundImageFix"/>
<feBlend mode="normal" in="SourceGraphic" in2="BackgroundImageFix" result="shape"/>
<feGaussianBlur stdDeviation="2" result="effect1_foregroundBlur_2214_91"/>
</filter>
<linearGradient id="paint0_linear_2214_91" x1="26.1211" y1="37.8228" x2="62.2256" y2="15.2387" gradientUnits="userSpaceOnUse">
<stop stop-color="#2B98E3"/>
<stop offset="0.463247" stop-color="#31B6CB"/>
<stop offset="1" stop-color="#3CD4C7"/>
</linearGradient>
<linearGradient id="paint1_linear_2214_91" x1="6.79909" y1="24.9356" x2="33.1277" y2="36.2665" gradientUnits="userSpaceOnUse">
<stop stop-color="#05101F"/>
<stop offset="0.999999" stop-color="#2B98E3" stop-opacity="0"/>
</linearGradient>
<linearGradient id="paint2_linear_2214_91" x1="33.0668" y1="16.2648" x2="5.49712" y2="30.0251" gradientUnits="userSpaceOnUse">
<stop stop-color="#2B98E3"/>
<stop offset="0.463247" stop-color="#31B6CB"/>
<stop offset="1" stop-color="#3CD4C7"/>
</linearGradient>
<linearGradient id="paint3_linear_2214_91" x1="63.41" y1="30.6412" x2="28.7484" y2="17.1519" gradientUnits="userSpaceOnUse">
<stop stop-color="#05101F"/>
<stop offset="0.999999" stop-color="#2B98E3" stop-opacity="0"/>
</linearGradient>
<linearGradient id="paint4_linear_2214_91" x1="26.1211" y1="37.8228" x2="62.2256" y2="15.2387" gradientUnits="userSpaceOnUse">
<stop stop-color="#2B98E3"/>
<stop offset="0.463247" stop-color="#31B6CB"/>
<stop offset="1" stop-color="#3CD4C7"/>
</linearGradient>
<linearGradient id="paint5_linear_2214_91" x1="6.79909" y1="24.9356" x2="33.1277" y2="36.2665" gradientUnits="userSpaceOnUse">
<stop stop-color="#05101F"/>
<stop offset="0.999999" stop-color="#2B98E3" stop-opacity="0"/>
</linearGradient>
<linearGradient id="paint6_linear_2214_91" x1="33.0668" y1="16.2648" x2="5.49712" y2="30.0251" gradientUnits="userSpaceOnUse">
<stop stop-color="#2B98E3"/>
<stop offset="0.463247" stop-color="#31B6CB"/>
<stop offset="1" stop-color="#3CD4C7"/>
</linearGradient>
<linearGradient id="paint7_linear_2214_91" x1="63.41" y1="30.6412" x2="28.7484" y2="17.1519" gradientUnits="userSpaceOnUse">
<stop stop-color="#05101F"/>
<stop offset="0.999999" stop-color="#2B98E3" stop-opacity="0"/>
</linearGradient>
</defs>
</svg>
