<svg width="218" height="52" viewBox="0 0 218 52" fill="none" xmlns="http://www.w3.org/2000/svg">
<mask id="mask0_2291_596" style="mask-type:luminance" maskUnits="userSpaceOnUse" x="4" y="4" width="60" height="44">
<path d="M64 4H4V47.4211H64V4Z" fill="white"/>
</mask>
<g mask="url(#mask0_2291_596)">
<path d="M9.70329 34.8268L8.39062 34.0703C8.81021 34.3568 9.24887 34.6096 9.70329 34.8268Z" fill="#2A97E2"/>
<path d="M64.0005 25.6921C64.0005 27.1853 63.6716 28.6607 63.043 30.0065C62.2048 31.8026 60.8329 33.368 58.9995 34.4361L50.6309 39.3101L38.9168 46.1329C37.4652 46.9778 35.848 47.4074 34.2275 47.4199C32.5826 47.4329 30.9348 47.0164 29.4551 46.1698L25.9773 44.1802L25.9548 44.1678C25.6909 44.018 25.4164 43.8619 25.1329 43.7006C23.6531 42.8589 21.9324 41.8723 20.193 40.8717L20.1801 40.8639C19.3037 40.3597 18.423 39.8517 17.5658 39.3573L17.1824 39.1362L9.70363 34.8265L8.39097 34.07C8.11794 33.8842 7.85302 33.6835 7.59766 33.4692L10.4211 30.2651L18.8102 29.4253L22.3009 29.7749L24.6116 30.0065L26.3181 30.1775L26.6116 30.0065L30.3005 27.8584L34.2275 25.5711L34.68 25.3078L38.4953 23.0856L49.0013 16.9663C51.9154 15.2689 55.325 15.2197 58.1685 16.5324C59.9909 17.3731 61.5809 18.7739 62.6592 20.6581C63.5685 22.2466 64.0005 23.9807 64.0005 25.6921Z" fill="url(#paint0_linear_2291_596)"/>
<path d="M34.2275 25.5742V47.4229C32.5826 47.4359 30.9348 47.0194 29.4551 46.1729L25.9773 44.1832L25.9548 44.1707C25.6909 44.021 25.4164 43.8649 25.1329 43.7036C23.6532 42.8619 21.9324 41.8753 20.193 40.8747L20.1801 40.867C19.3037 40.3628 18.423 39.8548 17.5658 39.3603L17.1825 39.1392L9.70363 34.8296L8.39097 34.0731C8.11794 33.8872 7.85302 33.6864 7.59766 33.4722L10.4211 30.2681L18.8102 29.4283L26.3181 30.1804L34.2275 25.5742Z" fill="url(#paint1_linear_2291_596)"/>
<path d="M53.2352 13.6817C53.1484 13.6311 53.0605 13.5805 52.9717 13.529L52.3302 13.1582C50.9159 12.3406 49.3612 11.4435 47.8204 10.5565L47.8075 10.5488C46.0681 9.54822 44.3473 8.56157 42.8676 7.71986C42.5841 7.55855 42.3096 7.40253 42.0457 7.25278L42.0232 7.24026L38.5454 5.25059C35.6079 3.57007 32.0083 3.58403 29.0837 5.28767L22.3004 9.2386L17.3696 12.1104L9.001 16.9844C5.79333 18.8528 4 22.2427 4 25.7285C4 27.4398 4.43199 29.1738 5.3413 30.7624C5.94799 31.8222 6.71649 32.7294 7.59717 33.47C7.85253 33.6842 8.11746 33.885 8.39049 34.0709L9.70315 34.8274C12.4368 36.1371 15.7151 36.1766 18.5777 34.6863C18.7195 34.6126 18.8598 34.5356 18.9992 34.4542L26.3376 30.1802L26.6346 30.0073L29.5052 28.3355L34.227 25.585L34.6819 25.3201L34.6795 25.3086L38.4948 23.0863L49.0008 16.9671C51.9149 15.2697 55.3245 15.2206 58.168 16.5332L53.2352 13.6817Z" fill="url(#paint2_linear_2291_596)"/>
<path d="M58.1684 16.5332C55.3249 15.2206 51.9153 15.2697 49.0012 16.9671L38.4952 23.0859L34.6799 25.3086L34.6823 25.3201L34.2274 25.585L29.5056 28.335L26.6349 30.0073H22.3008V9.2386L29.0841 5.28767C32.0087 3.58403 35.6083 3.57007 38.5458 5.25059L42.0236 7.24026L42.046 7.25278C42.31 7.40253 42.5845 7.55855 42.868 7.71986C44.3477 8.56157 46.0685 9.54822 47.8079 10.5488L47.8208 10.5565C49.3616 11.4435 50.9163 12.3406 52.3306 13.1582L52.9721 13.529C53.0609 13.5805 53.1488 13.6311 53.2356 13.6816L58.1684 16.5332Z" fill="url(#paint3_linear_2291_596)"/>
</g>
<path d="M81.1602 23.7107V11.7875H85.8467C86.6029 11.7875 87.2377 11.9421 87.7511 12.2512C88.2644 12.5603 88.6508 12.9605 88.9103 13.4518C89.1697 13.9376 89.2994 14.4509 89.2994 14.9919C89.2994 15.6488 89.1366 16.2118 88.8109 16.681C88.4908 17.1502 88.0574 17.4704 87.511 17.6415L87.4944 17.2358C88.2562 17.4235 88.8413 17.7905 89.2498 18.337C89.6582 18.878 89.8625 19.51 89.8625 20.2331C89.8625 20.9342 89.7217 21.5441 89.4402 22.063C89.1642 22.5819 88.7585 22.9876 88.223 23.2802C87.6931 23.5672 87.05 23.7107 86.2938 23.7107H81.1602ZM82.9156 22.063H86.0288C86.4208 22.063 86.7713 21.9885 87.0804 21.8395C87.395 21.6904 87.6407 21.4779 87.8173 21.2019C87.9995 20.9204 88.0906 20.5864 88.0906 20.2C88.0906 19.8412 88.0105 19.5183 87.8504 19.2313C87.6959 18.9387 87.4696 18.7096 87.1715 18.544C86.8789 18.3729 86.5339 18.2873 86.1365 18.2873H82.9156V22.063ZM82.9156 16.6562H85.8218C86.142 16.6562 86.429 16.5927 86.683 16.4657C86.9424 16.3333 87.1466 16.1456 87.2957 15.9027C87.4502 15.6543 87.5275 15.3562 87.5275 15.0085C87.5275 14.5448 87.373 14.1639 87.0638 13.8658C86.7547 13.5677 86.3407 13.4187 85.8218 13.4187H82.9156V16.6562ZM91.6758 23.7107V11.5391H93.4062V23.7107H91.6758ZM99.2627 23.9509C98.6445 23.9509 98.1256 23.8515 97.7061 23.6528C97.2866 23.4541 96.9443 23.1946 96.6794 22.8745C96.4199 22.5488 96.2212 22.1955 96.0832 21.8146C95.9452 21.4337 95.8514 21.0611 95.8017 20.6968C95.752 20.3325 95.7271 20.0123 95.7271 19.7363V14.7683H97.4825V19.165C97.4825 19.5128 97.5101 19.8716 97.5653 20.2414C97.6261 20.6057 97.7365 20.9452 97.8965 21.2599C98.0621 21.5745 98.2912 21.8284 98.5838 22.0216C98.8819 22.2148 99.2683 22.3114 99.743 22.3114C100.052 22.3114 100.345 22.2617 100.621 22.1624C100.897 22.0575 101.137 21.8919 101.341 21.6656C101.551 21.4393 101.714 21.1412 101.83 20.7713C101.951 20.4015 102.012 19.9516 102.012 19.4217L103.088 19.8274C103.088 20.6389 102.936 21.3565 102.633 21.9802C102.329 22.5985 101.893 23.0815 101.324 23.4292C100.756 23.777 100.069 23.9509 99.2627 23.9509ZM102.219 23.7107V21.1274H102.012V14.7683H103.759V23.7107H102.219ZM110.047 23.9591C109.158 23.9591 108.377 23.7659 107.704 23.3795C107.036 22.9876 106.514 22.4439 106.139 21.7484C105.769 21.0473 105.584 20.2359 105.584 19.3141C105.584 18.337 105.766 17.4897 106.131 16.7721C106.501 16.0545 107.014 15.4997 107.671 15.1078C108.328 14.7159 109.092 14.5199 109.964 14.5199C110.875 14.5199 111.651 14.7325 112.291 15.1575C112.931 15.577 113.409 16.1759 113.723 16.9543C114.044 17.7326 114.171 18.6572 114.104 19.7281H112.374V19.0988C112.363 18.061 112.164 17.2937 111.778 16.7969C111.397 16.3001 110.814 16.0517 110.031 16.0517C109.164 16.0517 108.513 16.325 108.077 16.8715C107.64 17.4179 107.422 18.2073 107.422 19.2395C107.422 20.2221 107.64 20.9839 108.077 21.5248C108.513 22.0603 109.142 22.328 109.964 22.328C110.505 22.328 110.972 22.2065 111.364 21.9637C111.761 21.7153 112.07 21.362 112.291 20.9038L113.988 21.442C113.641 22.2424 113.114 22.8634 112.407 23.305C111.7 23.7411 110.914 23.9591 110.047 23.9591ZM106.859 19.7281V18.3784H113.243V19.7281H106.859ZM119.443 23.7107V11.7875H121.173V23.7107H119.443ZM127.08 23.9509C125.992 23.9509 125.106 23.7107 124.422 23.2305C123.737 22.7503 123.318 22.0741 123.163 21.2019L124.935 20.9287C125.045 21.3923 125.299 21.7594 125.697 22.0299C126.1 22.2949 126.599 22.4273 127.195 22.4273C127.736 22.4273 128.159 22.3169 128.462 22.0961C128.771 21.8753 128.926 21.5717 128.926 21.1853C128.926 20.959 128.871 20.7769 128.76 20.6389C128.655 20.4953 128.432 20.3601 128.09 20.2331C127.747 20.1062 127.226 19.9489 126.525 19.7612C125.757 19.5625 125.148 19.3499 124.695 19.1236C124.248 18.8918 123.928 18.6241 123.734 18.3205C123.547 18.0113 123.453 17.6387 123.453 17.2027C123.453 16.6617 123.596 16.1897 123.883 15.7868C124.17 15.3838 124.573 15.0719 125.092 14.8511C125.617 14.6303 126.229 14.5199 126.93 14.5199C127.615 14.5199 128.225 14.6276 128.76 14.8429C129.296 15.0581 129.729 15.3645 130.06 15.7619C130.392 16.1539 130.59 16.6148 130.656 17.1447L128.885 17.4676C128.824 17.0371 128.622 16.6976 128.28 16.4492C127.938 16.2008 127.494 16.0655 126.947 16.0435C126.423 16.0214 125.998 16.1097 125.672 16.3084C125.346 16.5016 125.183 16.7693 125.183 17.1116C125.183 17.3103 125.244 17.4787 125.366 17.6167C125.493 17.7547 125.735 17.8871 126.094 18.0141C126.453 18.1411 126.983 18.2929 127.684 18.4695C128.435 18.6627 129.031 18.878 129.472 19.1153C129.914 19.3472 130.229 19.6259 130.416 19.9516C130.61 20.2718 130.706 20.6609 130.706 21.1191C130.706 22.0023 130.383 22.6951 129.737 23.1974C129.097 23.6997 128.211 23.9509 127.08 23.9509ZM132.704 23.7107V11.5391H134.434V23.7107H132.704ZM139.446 23.9591C138.784 23.9591 138.229 23.8377 137.782 23.5948C137.335 23.3464 136.995 23.0207 136.764 22.6178C136.537 22.2093 136.424 21.7622 136.424 21.2764C136.424 20.8238 136.504 20.4263 136.664 20.0841C136.824 19.7419 137.062 19.4521 137.376 19.2147C137.691 18.9718 138.077 18.7759 138.535 18.6268C138.933 18.5109 139.383 18.4088 139.885 18.3205C140.387 18.2321 140.915 18.1493 141.467 18.0721C142.024 17.9948 142.576 17.9175 143.123 17.8402L142.493 18.188C142.504 17.4869 142.355 16.9681 142.046 16.6313C141.743 16.2891 141.218 16.118 140.473 16.118C140.004 16.118 139.573 16.2284 139.181 16.4492C138.789 16.6645 138.516 17.0233 138.362 17.5256L136.747 17.0288C136.968 16.2615 137.387 15.6515 138.006 15.1989C138.629 14.7463 139.457 14.5199 140.49 14.5199C141.29 14.5199 141.985 14.6579 142.576 14.9339C143.172 15.2044 143.608 15.635 143.884 16.2256C144.028 16.5182 144.116 16.8273 144.149 17.153C144.182 17.4787 144.199 17.8292 144.199 18.2045V23.7107H142.667V21.6656L142.965 21.9305C142.595 22.615 142.123 23.1256 141.549 23.4623C140.981 23.7935 140.28 23.9591 139.446 23.9591ZM139.753 22.5433C140.244 22.5433 140.666 22.4577 141.019 22.2866C141.373 22.1099 141.657 21.8864 141.872 21.6159C142.088 21.3454 142.228 21.0639 142.295 20.7713C142.388 20.5064 142.441 20.2083 142.452 19.8771C142.468 19.5459 142.477 19.2809 142.477 19.0822L143.04 19.2892C142.493 19.372 141.996 19.4465 141.549 19.5128C141.102 19.579 140.697 19.6453 140.332 19.7115C139.973 19.7722 139.653 19.8467 139.372 19.9351C139.134 20.0179 138.922 20.1172 138.734 20.2331C138.552 20.3491 138.406 20.4898 138.295 20.6554C138.19 20.821 138.138 21.0225 138.138 21.2599C138.138 21.4917 138.196 21.707 138.312 21.9057C138.428 22.0989 138.604 22.2535 138.842 22.3694C139.079 22.4853 139.383 22.5433 139.753 22.5433ZM152.625 23.7107V19.3141C152.625 18.9663 152.595 18.6103 152.534 18.2459C152.479 17.8761 152.369 17.5339 152.203 17.2192C152.043 16.9046 151.814 16.6507 151.516 16.4575C151.223 16.2643 150.84 16.1677 150.365 16.1677C150.056 16.1677 149.763 16.2201 149.487 16.325C149.211 16.4243 148.968 16.5872 148.759 16.8135C148.554 17.0398 148.391 17.3379 148.27 17.7077C148.154 18.0776 148.096 18.5275 148.096 19.0574L147.02 18.6517C147.02 17.8402 147.172 17.1254 147.475 16.5071C147.779 15.8834 148.215 15.3976 148.783 15.0499C149.352 14.7021 150.039 14.5282 150.845 14.5282C151.463 14.5282 151.982 14.6276 152.402 14.8263C152.821 15.025 153.161 15.2872 153.42 15.6129C153.685 15.9331 153.887 16.2836 154.025 16.6645C154.163 17.0453 154.256 17.4179 154.306 17.7823C154.356 18.1466 154.381 18.4667 154.381 18.7427V23.7107H152.625ZM146.341 23.7107V14.7683H147.889V17.3517H148.096V23.7107H146.341ZM159.976 23.9591C159.143 23.9591 158.422 23.7521 157.815 23.3381C157.213 22.9241 156.747 22.3611 156.416 21.649C156.09 20.9314 155.927 20.1255 155.927 19.2313C155.927 18.3315 156.093 17.5283 156.424 16.8218C156.755 16.1097 157.225 15.5494 157.832 15.1409C158.444 14.7269 159.17 14.5199 160.009 14.5199C160.854 14.5199 161.563 14.7269 162.137 15.1409C162.717 15.5494 163.153 16.1097 163.446 16.8218C163.744 17.5339 163.893 18.337 163.893 19.2313C163.893 20.1255 163.744 20.9287 163.446 21.6407C163.147 22.3528 162.709 22.9186 162.129 23.3381C161.549 23.7521 160.832 23.9591 159.976 23.9591ZM160.216 22.3942C160.785 22.3942 161.249 22.259 161.607 21.9885C161.966 21.718 162.228 21.3454 162.394 20.8707C162.56 20.396 162.642 19.8495 162.642 19.2313C162.642 18.613 162.557 18.0665 162.386 17.5918C162.22 17.1171 161.961 16.7473 161.607 16.4823C161.26 16.2173 160.815 16.0849 160.274 16.0849C159.7 16.0849 159.228 16.2256 158.858 16.5071C158.489 16.7887 158.213 17.1668 158.03 17.6415C157.854 18.1162 157.765 18.6461 157.765 19.2313C157.765 19.8219 157.854 20.3573 158.03 20.8376C158.213 21.3123 158.483 21.6904 158.842 21.9719C159.206 22.2535 159.664 22.3942 160.216 22.3942ZM162.642 23.7107V17.2772H162.444V11.7875H164.182V23.7107H162.642ZM174.691 23.9591C173.891 23.9591 173.154 23.8211 172.481 23.5451C171.807 23.2636 171.222 22.8551 170.725 22.3197C170.228 21.7843 169.842 21.1329 169.566 20.3656C169.29 19.5983 169.152 18.7262 169.152 17.7491C169.152 16.463 169.387 15.359 169.856 14.4371C170.325 13.5098 170.976 12.7977 171.81 12.3009C172.643 11.7986 173.604 11.5474 174.691 11.5474C176.093 11.5474 177.211 11.8731 178.045 12.5245C178.884 13.1758 179.455 14.0756 179.759 15.2237L178.003 15.5384C177.76 14.8263 177.369 14.2577 176.828 13.8327C176.287 13.4077 175.608 13.1924 174.791 13.1869C173.946 13.1813 173.242 13.369 172.679 13.7499C172.122 14.1308 171.702 14.6662 171.421 15.3562C171.139 16.0407 170.996 16.8383 170.99 17.7491C170.985 18.6599 171.123 19.4576 171.404 20.1421C171.686 20.821 172.108 21.3509 172.671 21.7318C173.24 22.1127 173.946 22.3059 174.791 22.3114C175.47 22.3225 176.052 22.1983 176.538 21.9388C177.029 21.6739 177.418 21.2875 177.705 20.7796C177.992 20.2718 178.177 19.648 178.26 18.9083H175.942V17.5173H180.098C180.109 17.6167 180.117 17.7491 180.123 17.9147C180.129 18.0748 180.131 18.1769 180.131 18.2211C180.131 19.3251 179.919 20.3104 179.494 21.1771C179.069 22.0437 178.45 22.7254 177.639 23.2222C176.828 23.7135 175.845 23.9591 174.691 23.9591ZM181.782 23.7107V14.7683H183.322V16.9377L183.106 16.6562C183.217 16.3691 183.36 16.1069 183.537 15.8696C183.714 15.6267 183.918 15.428 184.15 15.2734C184.376 15.1078 184.627 14.9809 184.903 14.8925C185.185 14.7987 185.472 14.7435 185.764 14.7269C186.057 14.7049 186.338 14.7187 186.609 14.7683V16.3912C186.316 16.3139 185.991 16.2919 185.632 16.325C185.279 16.3581 184.953 16.4713 184.655 16.6645C184.373 16.8466 184.15 17.0674 183.984 17.3269C183.824 17.5863 183.708 17.8761 183.636 18.1963C183.565 18.5109 183.529 18.8449 183.529 19.1981V23.7107H181.782ZM191.907 23.9591C191.013 23.9591 190.237 23.7577 189.581 23.3547C188.924 22.9517 188.416 22.397 188.057 21.6904C187.704 20.9783 187.527 20.1586 187.527 19.2313C187.527 18.2984 187.709 17.4787 188.074 16.7721C188.438 16.06 188.949 15.508 189.605 15.1161C190.262 14.7187 191.03 14.5199 191.907 14.5199C192.802 14.5199 193.577 14.7214 194.234 15.1244C194.891 15.5273 195.399 16.0821 195.757 16.7887C196.116 17.4952 196.296 18.3094 196.296 19.2313C196.296 20.1641 196.114 20.9866 195.749 21.6987C195.39 22.4053 194.883 22.96 194.226 23.363C193.569 23.7604 192.796 23.9591 191.907 23.9591ZM191.907 22.328C192.763 22.328 193.4 22.0409 193.82 21.4669C194.245 20.8873 194.458 20.1421 194.458 19.2313C194.458 18.2984 194.242 17.5532 193.812 16.9957C193.387 16.4326 192.752 16.1511 191.907 16.1511C191.328 16.1511 190.85 16.2836 190.475 16.5485C190.099 16.808 189.821 17.1695 189.639 17.6332C189.456 18.0914 189.365 18.6241 189.365 19.2313C189.365 20.1697 189.581 20.9204 190.011 21.4834C190.442 22.0465 191.074 22.328 191.907 22.328ZM201.485 23.9509C200.867 23.9509 200.348 23.8515 199.929 23.6528C199.509 23.4541 199.167 23.1946 198.902 22.8745C198.642 22.5488 198.444 22.1955 198.306 21.8146C198.168 21.4337 198.074 21.0611 198.024 20.6968C197.974 20.3325 197.95 20.0123 197.95 19.7363V14.7683H199.705V19.165C199.705 19.5128 199.733 19.8716 199.788 20.2414C199.848 20.6057 199.959 20.9452 200.119 21.2599C200.285 21.5745 200.514 21.8284 200.806 22.0216C201.104 22.2148 201.491 22.3114 201.965 22.3114C202.275 22.3114 202.567 22.2617 202.843 22.1624C203.119 22.0575 203.359 21.8919 203.563 21.6656C203.773 21.4393 203.936 21.1412 204.052 20.7713C204.173 20.4015 204.234 19.9516 204.234 19.4217L205.311 19.8274C205.311 20.6389 205.159 21.3565 204.855 21.9802C204.552 22.5985 204.115 23.0815 203.547 23.4292C202.978 23.777 202.291 23.9509 201.485 23.9509ZM204.441 23.7107V21.1274H204.234V14.7683H205.981V23.7107H204.441ZM212.501 23.9591C211.646 23.9591 210.928 23.7521 210.349 23.3381C209.769 22.9186 209.33 22.3528 209.032 21.6407C208.734 20.9287 208.585 20.1255 208.585 19.2313C208.585 18.337 208.731 17.5339 209.024 16.8218C209.322 16.1097 209.758 15.5494 210.332 15.1409C210.912 14.7269 211.624 14.5199 212.468 14.5199C213.307 14.5199 214.03 14.7269 214.638 15.1409C215.25 15.5494 215.722 16.1097 216.054 16.8218C216.385 17.5283 216.55 18.3315 216.55 19.2313C216.55 20.1255 216.385 20.9314 216.054 21.649C215.728 22.3611 215.261 22.9241 214.654 23.3381C214.053 23.7521 213.335 23.9591 212.501 23.9591ZM208.295 27.6851V14.7683H209.835V21.2019H210.034V27.6851H208.295ZM212.261 22.3942C212.813 22.3942 213.269 22.2535 213.628 21.9719C213.992 21.6904 214.262 21.3123 214.439 20.8376C214.621 20.3573 214.712 19.8219 214.712 19.2313C214.712 18.6461 214.621 18.1162 214.439 17.6415C214.262 17.1668 213.989 16.7887 213.619 16.5071C213.249 16.2256 212.777 16.0849 212.203 16.0849C211.662 16.0849 211.215 16.2173 210.862 16.4823C210.514 16.7473 210.255 17.1171 210.084 17.5918C209.918 18.0665 209.835 18.613 209.835 19.2313C209.835 19.8495 209.918 20.396 210.084 20.8707C210.249 21.3454 210.511 21.718 210.87 21.9885C211.229 22.259 211.693 22.3942 212.261 22.3942Z" fill="white"/>
<path d="M86.6074 42.7121V36.2321H89.1544C89.5654 36.2321 89.9104 36.3161 90.1894 36.4841C90.4684 36.6521 90.6784 36.8696 90.8194 37.1366C90.9604 37.4006 91.0309 37.6796 91.0309 37.9736C91.0309 38.3306 90.9424 38.6366 90.7654 38.8916C90.5914 39.1466 90.3559 39.3206 90.0589 39.4136L90.0499 39.1931C90.4639 39.2951 90.7819 39.4946 91.0039 39.7916C91.2259 40.0856 91.3369 40.4291 91.3369 40.8221C91.3369 41.2031 91.2604 41.5346 91.1074 41.8166C90.9574 42.0986 90.7369 42.3191 90.4459 42.4781C90.1579 42.6341 89.8084 42.7121 89.3974 42.7121H86.6074ZM87.5614 41.8166H89.2534C89.4664 41.8166 89.6569 41.7761 89.8249 41.6951C89.9959 41.6141 90.1294 41.4986 90.2254 41.3486C90.3244 41.1956 90.3739 41.0141 90.3739 40.8041C90.3739 40.6091 90.3304 40.4336 90.2434 40.2776C90.1594 40.1186 90.0364 39.9941 89.8744 39.9041C89.7154 39.8111 89.5279 39.7646 89.3119 39.7646H87.5614V41.8166ZM87.5614 38.8781H89.1409C89.3149 38.8781 89.4709 38.8436 89.6089 38.7746C89.7499 38.7026 89.8609 38.6006 89.9419 38.4686C90.0259 38.3336 90.0679 38.1716 90.0679 37.9826C90.0679 37.7306 89.9839 37.5236 89.8159 37.3616C89.6479 37.1996 89.4229 37.1186 89.1409 37.1186H87.5614V38.8781ZM96.5254 42.8471C96.0184 42.8471 95.5699 42.7436 95.1799 42.5366C94.7929 42.3266 94.4899 42.0341 94.2709 41.6591C94.0519 41.2811 93.9424 40.8371 93.9424 40.3271V36.2366L94.8964 36.2321V40.2776C94.8964 40.5536 94.9429 40.7966 95.0359 41.0066C95.1289 41.2166 95.2534 41.3921 95.4094 41.5331C95.5654 41.6741 95.7394 41.7806 95.9314 41.8526C96.1264 41.9246 96.3244 41.9606 96.5254 41.9606C96.7294 41.9606 96.9274 41.9246 97.1194 41.8526C97.3144 41.7776 97.4899 41.6696 97.6459 41.5286C97.8019 41.3876 97.9249 41.2121 98.0149 41.0021C98.1079 40.7921 98.1544 40.5506 98.1544 40.2776V36.2321H99.1084V40.3271C99.1084 40.8341 98.9989 41.2766 98.7799 41.6546C98.5609 42.0326 98.2564 42.3266 97.8664 42.5366C97.4794 42.7436 97.0324 42.8471 96.5254 42.8471ZM102.167 42.7121V36.2321H103.108V42.7121H102.167ZM106.259 42.7121V36.2321H107.2V41.8256H110.134V42.7121H106.259ZM112.608 42.7121V36.2321H114.637C114.697 36.2321 114.808 36.2336 114.97 36.2366C115.135 36.2396 115.293 36.2516 115.443 36.2726C115.95 36.3356 116.376 36.5171 116.721 36.8171C117.069 37.1171 117.331 37.4981 117.508 37.9601C117.685 38.4191 117.774 38.9231 117.774 39.4721C117.774 40.0241 117.685 40.5311 117.508 40.9931C117.331 41.4521 117.069 41.8316 116.721 42.1316C116.376 42.4286 115.95 42.6086 115.443 42.6716C115.293 42.6926 115.135 42.7046 114.97 42.7076C114.808 42.7106 114.697 42.7121 114.637 42.7121H112.608ZM113.571 41.8166H114.637C114.739 41.8166 114.861 41.8136 115.002 41.8076C115.143 41.8016 115.267 41.7896 115.375 41.7716C115.705 41.7086 115.972 41.5661 116.176 41.3441C116.383 41.1191 116.535 40.8431 116.631 40.5161C116.727 40.1891 116.775 39.8411 116.775 39.4721C116.775 39.0911 116.725 38.7386 116.626 38.4146C116.527 38.0876 116.374 37.8146 116.167 37.5956C115.963 37.3736 115.699 37.2326 115.375 37.1726C115.267 37.1516 115.141 37.1396 114.997 37.1366C114.856 37.1306 114.736 37.1276 114.637 37.1276H113.571V41.8166ZM120.622 42.7121V36.2321H121.562V42.7121H120.622ZM124.624 42.7121V36.2321H125.578L128.768 41.0471V36.2321H129.722V42.7121H128.768L125.578 37.8926V42.7121H124.624ZM135.339 42.8471C134.904 42.8471 134.503 42.7721 134.137 42.6221C133.771 42.4691 133.453 42.2471 133.183 41.9561C132.913 41.6651 132.703 41.3111 132.553 40.8941C132.403 40.4771 132.328 40.0031 132.328 39.4721C132.328 38.7731 132.456 38.1731 132.711 37.6721C132.966 37.1681 133.32 36.7811 133.773 36.5111C134.226 36.2381 134.748 36.1016 135.339 36.1016C136.101 36.1016 136.708 36.2786 137.161 36.6326C137.617 36.9866 137.928 37.4756 138.093 38.0996L137.139 38.2706C137.007 37.8836 136.794 37.5746 136.5 37.3436C136.206 37.1126 135.837 36.9956 135.393 36.9926C134.934 36.9896 134.551 37.0916 134.245 37.2986C133.942 37.5056 133.714 37.7966 133.561 38.1716C133.408 38.5436 133.33 38.9771 133.327 39.4721C133.324 39.9671 133.399 40.4006 133.552 40.7726C133.705 41.1416 133.935 41.4296 134.241 41.6366C134.55 41.8436 134.934 41.9486 135.393 41.9516C135.762 41.9576 136.078 41.8901 136.342 41.7491C136.609 41.6051 136.821 41.3951 136.977 41.1191C137.133 40.8431 137.233 40.5041 137.278 40.1021H136.018V39.3461H138.277C138.283 39.4001 138.288 39.4721 138.291 39.5621C138.294 39.6491 138.295 39.7046 138.295 39.7286C138.295 40.3286 138.18 40.8641 137.949 41.3351C137.718 41.8061 137.382 42.1766 136.941 42.4466C136.5 42.7136 135.966 42.8471 135.339 42.8471ZM146.029 42.7121V37.1186H143.874V36.2321H149.125V37.1186H146.97V42.7121H146.029ZM151.555 42.7121V36.2321H152.496V39.0266H155.736V36.2321H156.681V42.7121H155.736V39.9131H152.496V42.7121H151.555ZM159.655 42.7121V36.2321H163.795V37.1186H160.595V38.9366H163.255V39.8231H160.595V41.8256H163.795V42.7121H159.655ZM170.097 42.7121V36.2321H173.936V37.1726H171.038V38.9996H173.396V39.9446H171.038V42.7121H170.097ZM179.04 42.8471C178.533 42.8471 178.084 42.7436 177.694 42.5366C177.307 42.3266 177.004 42.0341 176.785 41.6591C176.566 41.2811 176.457 40.8371 176.457 40.3271V36.2366L177.411 36.2321V40.2776C177.411 40.5536 177.457 40.7966 177.55 41.0066C177.643 41.2166 177.768 41.3921 177.924 41.5331C178.08 41.6741 178.254 41.7806 178.446 41.8526C178.641 41.9246 178.839 41.9606 179.04 41.9606C179.244 41.9606 179.442 41.9246 179.634 41.8526C179.829 41.7776 180.004 41.6696 180.16 41.5286C180.316 41.3876 180.439 41.2121 180.529 41.0021C180.622 40.7921 180.669 40.5506 180.669 40.2776V36.2321H181.623V40.3271C181.623 40.8341 181.513 41.2766 181.294 41.6546C181.075 42.0326 180.771 42.3266 180.381 42.5366C179.994 42.7436 179.547 42.8471 179.04 42.8471ZM186.207 42.7121V37.1186H184.052V36.2321H189.303V37.1186H187.148V42.7121H186.207ZM194.316 42.8471C193.809 42.8471 193.361 42.7436 192.971 42.5366C192.584 42.3266 192.281 42.0341 192.062 41.6591C191.843 41.2811 191.733 40.8371 191.733 40.3271V36.2366L192.687 36.2321V40.2776C192.687 40.5536 192.734 40.7966 192.827 41.0066C192.92 41.2166 193.044 41.3921 193.2 41.5331C193.356 41.6741 193.53 41.7806 193.722 41.8526C193.917 41.9246 194.115 41.9606 194.316 41.9606C194.52 41.9606 194.718 41.9246 194.91 41.8526C195.105 41.7776 195.281 41.6696 195.437 41.5286C195.593 41.3876 195.716 41.2121 195.806 41.0021C195.899 40.7921 195.945 40.5506 195.945 40.2776V36.2321H196.899V40.3271C196.899 40.8341 196.79 41.2766 196.571 41.6546C196.352 42.0326 196.047 42.3266 195.657 42.5366C195.27 42.7436 194.823 42.8471 194.316 42.8471ZM199.868 42.7121V36.2321H202.487C202.55 36.2321 202.628 36.2351 202.721 36.2411C202.814 36.2441 202.903 36.2531 202.987 36.2681C203.347 36.3251 203.647 36.4481 203.887 36.6371C204.13 36.8261 204.311 37.0646 204.431 37.3526C204.551 37.6406 204.611 37.9586 204.611 38.3066C204.611 38.8226 204.479 39.2681 204.215 39.6431C203.951 40.0151 203.555 40.2476 203.027 40.3406L202.645 40.3856H200.809V42.7121H199.868ZM203.657 42.7121L202.379 40.0751L203.329 39.8321L204.733 42.7121H203.657ZM200.809 39.4946H202.451C202.511 39.4946 202.577 39.4916 202.649 39.4856C202.724 39.4796 202.795 39.4691 202.861 39.4541C203.053 39.4091 203.207 39.3266 203.324 39.2066C203.441 39.0836 203.525 38.9426 203.576 38.7836C203.627 38.6246 203.653 38.4656 203.653 38.3066C203.653 38.1476 203.627 37.9901 203.576 37.8341C203.525 37.6751 203.441 37.5356 203.324 37.4156C203.207 37.2926 203.053 37.2086 202.861 37.1636C202.795 37.1456 202.724 37.1336 202.649 37.1276C202.577 37.1216 202.511 37.1186 202.451 37.1186H200.809V39.4946ZM207.432 42.7121V36.2321H211.572V37.1186H208.372V38.9366H211.032V39.8231H208.372V41.8256H211.572V42.7121H207.432Z" fill="white"/>
<defs>
<linearGradient id="paint0_linear_2291_596" x1="26.1211" y1="37.8228" x2="62.2256" y2="15.2387" gradientUnits="userSpaceOnUse">
<stop stop-color="#2B98E3"/>
<stop offset="0.463247" stop-color="#31B6CB"/>
<stop offset="1" stop-color="#3CD4C7"/>
</linearGradient>
<linearGradient id="paint1_linear_2291_596" x1="6.79909" y1="24.9356" x2="33.1277" y2="36.2665" gradientUnits="userSpaceOnUse">
<stop stop-color="#05101F"/>
<stop offset="0.999999" stop-color="#2B98E3" stop-opacity="0"/>
</linearGradient>
<linearGradient id="paint2_linear_2291_596" x1="33.0668" y1="16.2648" x2="5.49712" y2="30.0251" gradientUnits="userSpaceOnUse">
<stop stop-color="#2B98E3"/>
<stop offset="0.463247" stop-color="#31B6CB"/>
<stop offset="1" stop-color="#3CD4C7"/>
</linearGradient>
<linearGradient id="paint3_linear_2291_596" x1="63.41" y1="30.6412" x2="28.7484" y2="17.1519" gradientUnits="userSpaceOnUse">
<stop stop-color="#05101F"/>
<stop offset="0.999999" stop-color="#2B98E3" stop-opacity="0"/>
</linearGradient>
</defs>
</svg>
