<svg width="851" height="142" viewBox="0 0 851 142" fill="none" xmlns="http://www.w3.org/2000/svg">
<path d="M-0.000384618 138.68V2.83047H57.3582C58.6789 2.83047 60.4399 2.89336 62.6412 3.01915C64.9054 3.08205 66.9179 3.27073 68.6789 3.58519C76.7922 4.84305 83.4274 7.51601 88.5846 11.6041C93.8048 15.6921 97.6412 20.8494 100.094 27.0758C102.547 33.2393 103.773 40.1261 103.773 47.7362C103.773 59.1198 100.943 68.8683 95.2828 76.9815C89.6224 85.0318 80.7544 90.0004 68.6789 91.8872L57.3582 92.6419H25.66V138.68H-0.000384618ZM76.6035 138.68L49.811 83.3966L76.2261 78.3023L105.66 138.68H76.6035ZM25.66 68.6796H56.2261C57.5469 68.6796 58.9934 68.6167 60.5657 68.4909C62.1381 68.3651 63.5846 68.1136 64.9054 67.7362C68.3645 66.7928 71.0374 65.2205 72.9242 63.0192C74.811 60.7551 76.1003 58.2708 76.7922 55.5664C77.5469 52.7991 77.9242 50.189 77.9242 47.7362C77.9242 45.2834 77.5469 42.7047 76.7922 40.0003C76.1003 37.233 74.811 34.7488 72.9242 32.5475C71.0374 30.2833 68.3645 28.6796 64.9054 27.7362C63.5846 27.3588 62.1381 27.1072 60.5657 26.9814C58.9934 26.8557 57.5469 26.7928 56.2261 26.7928H25.66V68.6796ZM126.4 138.68V2.83047H215.079V26.7928H152.061V55.8494H203.759V79.8117H152.061V114.717H215.079V138.68H126.4ZM237.692 138.68V2.83047H295.05C296.371 2.83047 298.132 2.89336 300.333 3.01915C302.597 3.08205 304.61 3.27073 306.371 3.58519C314.484 4.84305 321.119 7.51601 326.277 11.6041C331.497 15.6921 335.333 20.8494 337.786 27.0758C340.239 33.2393 341.465 40.1261 341.465 47.7362C341.465 55.3463 340.207 62.2645 337.692 68.4909C335.239 74.6545 331.402 79.7802 326.182 83.8683C321.025 87.9564 314.421 90.6293 306.371 91.8872C304.61 92.1388 302.597 92.3274 300.333 92.4532C298.069 92.579 296.308 92.6419 295.05 92.6419H263.352V138.68H237.692ZM263.352 68.6796H293.918C295.239 68.6796 296.685 68.6167 298.258 68.4909C299.83 68.3651 301.276 68.1136 302.597 67.7362C306.056 66.7928 308.729 65.2205 310.616 63.0192C312.503 60.7551 313.792 58.2708 314.484 55.5664C315.239 52.7991 315.616 50.189 315.616 47.7362C315.616 45.2834 315.239 42.7047 314.484 40.0003C313.792 37.233 312.503 34.7488 310.616 32.5475C308.729 30.2833 306.056 28.6796 302.597 27.7362C301.276 27.3588 299.83 27.1072 298.258 26.9814C296.685 26.8557 295.239 26.7928 293.918 26.7928H263.352V68.6796ZM418.709 141.51C405.124 141.51 393.394 138.554 383.52 132.642C373.709 126.73 366.13 118.46 360.784 107.831C355.501 97.2017 352.86 84.8431 352.86 70.7551C352.86 56.667 355.501 44.3085 360.784 33.6796C366.13 23.0506 373.709 14.7802 383.52 8.86822C393.394 2.95626 405.124 0.000282717 418.709 0.000282717C432.294 0.000282717 443.992 2.95626 453.803 8.86822C463.677 14.7802 471.256 23.0506 476.539 33.6796C481.885 44.3085 484.558 56.667 484.558 70.7551C484.558 84.8431 481.885 97.2017 476.539 107.831C471.256 118.46 463.677 126.73 453.803 132.642C443.992 138.554 432.294 141.51 418.709 141.51ZM418.709 117.359C427.325 117.485 434.495 115.629 440.218 111.793C445.942 107.956 450.218 102.516 453.048 95.4721C455.942 88.4281 457.388 80.1891 457.388 70.7551C457.388 61.3211 455.942 53.145 453.048 46.2268C450.218 39.3085 445.942 33.9311 440.218 30.0947C434.495 26.2582 427.325 24.277 418.709 24.1512C410.092 24.0255 402.923 25.8808 397.199 29.7173C391.476 33.5538 387.168 38.994 384.275 46.0381C381.445 53.0821 380.03 61.3211 380.03 70.7551C380.03 80.1891 381.445 88.3652 384.275 95.2834C387.168 102.202 391.476 107.579 397.199 111.416C402.923 115.252 410.092 117.233 418.709 117.359ZM503.391 138.68V2.83047H560.749C562.07 2.83047 563.831 2.89336 566.032 3.01915C568.296 3.08205 570.309 3.27073 572.07 3.58519C580.183 4.84305 586.818 7.51601 591.976 11.6041C597.196 15.6921 601.032 20.8494 603.485 27.0758C605.938 33.2393 607.164 40.1261 607.164 47.7362C607.164 59.1198 604.334 68.8683 598.674 76.9815C593.013 85.0318 584.145 90.0004 572.07 91.8872L560.749 92.6419H529.051V138.68H503.391ZM579.994 138.68L553.202 83.3966L579.617 78.3023L609.051 138.68H579.994ZM529.051 68.6796H559.617C560.938 68.6796 562.384 68.6167 563.957 68.4909C565.529 68.3651 566.975 68.1136 568.296 67.7362C571.755 66.7928 574.428 65.2205 576.315 63.0192C578.202 60.7551 579.491 58.2708 580.183 55.5664C580.938 52.7991 581.315 50.189 581.315 47.7362C581.315 45.2834 580.938 42.7047 580.183 40.0003C579.491 37.233 578.202 34.7488 576.315 32.5475C574.428 30.2833 571.755 28.6796 568.296 27.7362C566.975 27.3588 565.529 27.1072 563.957 26.9814C562.384 26.8557 560.938 26.7928 559.617 26.7928H529.051V68.6796ZM661.3 138.68V26.7928H618.47V2.83047H729.791V26.7928H686.961V138.68H661.3ZM796.273 141.51C786.21 141.51 777.122 139.749 769.008 136.227C760.958 132.642 754.323 127.548 749.103 120.944C743.946 114.277 740.675 106.353 739.291 97.1702L766.084 93.2079C767.971 101.007 771.87 107.013 777.782 111.227C783.694 115.441 790.424 117.548 797.971 117.548C802.185 117.548 806.273 116.887 810.235 115.566C814.197 114.246 817.436 112.296 819.952 109.717C822.531 107.139 823.82 103.963 823.82 100.189C823.82 98.8054 823.6 97.4847 823.159 96.2268C822.782 94.9061 822.122 93.6796 821.178 92.5476C820.235 91.4155 818.883 90.3463 817.122 89.34C815.424 88.3337 813.254 87.4218 810.612 86.6042L775.329 76.2268C772.688 75.4721 769.606 74.4029 766.084 73.0192C762.625 71.6356 759.26 69.6544 755.99 67.0758C752.719 64.4972 749.983 61.101 747.782 56.8871C745.644 52.6104 744.574 47.233 744.574 40.755C744.574 31.6355 746.87 24.0569 751.461 18.0192C756.052 11.9814 762.185 7.48456 769.858 4.52859C777.53 1.57261 786.021 0.126064 795.329 0.18896C804.7 0.314744 813.065 1.91852 820.424 5.00029C827.782 8.08205 833.946 12.5789 838.914 18.4909C843.883 24.3399 847.468 31.5097 849.669 40.0003L821.933 44.7173C820.927 40.3148 819.071 36.6041 816.367 33.5852C813.663 30.5664 810.424 28.2708 806.65 26.6984C802.939 25.1261 799.04 24.277 794.952 24.1512C790.927 24.0255 787.122 24.5915 783.537 25.8494C780.015 27.0443 777.122 28.8053 774.858 31.1324C772.656 33.4594 771.556 36.2267 771.556 39.4343C771.556 42.3903 772.468 44.8117 774.291 46.6984C776.115 48.5223 778.411 50.0003 781.178 51.1324C783.946 52.2645 786.776 53.2079 789.669 53.9626L813.254 60.3777C816.776 61.3211 820.675 62.579 824.952 64.1513C829.229 65.6607 833.317 67.7991 837.216 70.5664C841.178 73.2708 844.417 76.8557 846.933 81.3211C849.512 85.7865 850.801 91.4469 850.801 98.3023C850.801 105.598 849.26 111.982 846.178 117.453C843.159 122.862 839.071 127.359 833.914 130.944C828.757 134.466 822.908 137.107 816.367 138.868C809.889 140.629 803.191 141.51 796.273 141.51Z" fill="url(#paint0_linear_2406_778)" fill-opacity="0.62"/>
<defs>
<linearGradient id="paint0_linear_2406_778" x1="422.934" y1="-148.352" x2="447.489" y2="265.19" gradientUnits="userSpaceOnUse">
<stop stop-color="#4E9BD0"/>
<stop offset="1" stop-color="#060E1B" stop-opacity="0"/>
</linearGradient>
</defs>
</svg>
