<svg width="1358" height="98" viewBox="0 0 1358 98" fill="none" xmlns="http://www.w3.org/2000/svg">
<path d="M78.3906 97.5008L51.0906 70.3308L62.0106 59.4108L89.1806 86.5808L78.3906 97.5008ZM45.3706 97.5008C36.0106 97.5008 27.9289 95.4641 21.1256 91.3908C14.3656 87.3174 9.14392 81.6191 5.46059 74.2958C1.82059 66.9724 0.000586092 58.4574 0.000586092 48.7508C0.000586092 39.0441 1.82059 30.5291 5.46059 23.2058C9.14392 15.8824 14.3656 10.1841 21.1256 6.11078C27.9289 2.03745 36.0106 0.00077939 45.3706 0.00077939C54.7306 0.00077939 62.7906 2.03745 69.5506 6.11078C76.3539 10.1841 81.5756 15.8824 85.2156 23.2058C88.8989 30.5291 90.7406 39.0441 90.7406 48.7508C90.7406 58.4574 88.8989 66.9724 85.2156 74.2958C81.5756 81.6191 76.3539 87.3174 69.5506 91.3908C62.7906 95.4641 54.7306 97.5008 45.3706 97.5008ZM45.3706 80.8608C51.3073 80.9474 56.2473 79.6691 60.1906 77.0258C64.1339 74.3824 67.0806 70.6341 69.0306 65.7808C71.0239 60.9274 72.0206 55.2508 72.0206 48.7508C72.0206 42.2508 71.0239 36.6174 69.0306 31.8508C67.0806 27.0841 64.1339 23.3791 60.1906 20.7358C56.2473 18.0924 51.3073 16.7274 45.3706 16.6408C39.4339 16.5541 34.4939 17.8324 30.5506 20.4758C26.6073 23.1191 23.6389 26.8674 21.6456 31.7208C19.6956 36.5741 18.7206 42.2508 18.7206 48.7508C18.7206 55.2508 19.6956 60.8841 21.6456 65.6508C23.6389 70.4174 26.6073 74.1224 30.5506 76.7658C34.4939 79.4091 39.4339 80.7741 45.3706 80.8608ZM141.806 97.5008C134.266 97.5008 127.636 95.9841 121.916 92.9508C116.196 89.8741 111.733 85.5624 108.526 80.0158C105.32 74.4691 103.716 67.9474 103.716 60.4508V2.08078L121.656 1.95078V60.3208C121.656 63.3974 122.176 66.1924 123.216 68.7058C124.256 71.2191 125.686 73.3858 127.506 75.2058C129.37 77.0258 131.515 78.4341 133.941 79.4308C136.411 80.3841 139.033 80.8608 141.806 80.8608C144.666 80.8608 147.31 80.3624 149.736 79.3658C152.206 78.3691 154.351 76.9608 156.171 75.1408C157.991 73.3208 159.4 71.1541 160.396 68.6408C161.436 66.1274 161.956 63.3541 161.956 60.3208V1.95078H179.896V60.4508C179.896 67.9474 178.293 74.4691 175.086 80.0158C171.88 85.5624 167.416 89.8741 161.696 92.9508C155.976 95.9841 149.346 97.5008 141.806 97.5008ZM199.342 95.5508V1.95078H217.022V95.5508H199.342ZM276.679 97.5008C267.319 97.5008 259.238 95.4641 252.434 91.3908C245.674 87.3174 240.453 81.6191 236.769 74.2958C233.129 66.9724 231.309 58.4574 231.309 48.7508C231.309 39.0441 233.129 30.5291 236.769 23.2058C240.453 15.8824 245.674 10.1841 252.434 6.11078C259.238 2.03745 267.319 0.00077939 276.679 0.00077939C287.426 0.00077939 296.439 2.66578 303.719 7.99577C311.043 13.3258 316.199 20.5408 319.189 29.6408L301.379 34.5808C299.646 28.9041 296.721 24.5058 292.604 21.3858C288.488 18.2224 283.179 16.6408 276.679 16.6408C270.743 16.6408 265.781 17.9624 261.794 20.6058C257.851 23.2491 254.883 26.9758 252.889 31.7858C250.896 36.5958 249.899 42.2508 249.899 48.7508C249.899 55.2508 250.896 60.9058 252.889 65.7158C254.883 70.5258 257.851 74.2524 261.794 76.8958C265.781 79.5391 270.743 80.8608 276.679 80.8608C283.179 80.8608 288.488 79.2791 292.604 76.1158C296.721 72.9524 299.646 68.5541 301.379 62.9208L319.189 67.8608C316.199 76.9608 311.043 84.1758 303.719 89.5058C296.439 94.8358 287.426 97.5008 276.679 97.5008ZM333.501 95.5508V1.95078H351.181V45.1108L386.801 1.95078H408.381L369.251 48.1008L410.851 95.5508H388.491L351.181 52.9108V95.5508H333.501ZM478.803 97.5008C471.869 97.5008 465.608 96.2874 460.018 93.8608C454.471 91.3908 449.899 87.8808 446.303 83.3308C442.749 78.7374 440.496 73.2774 439.543 66.9508L458.003 64.2208C459.303 69.5941 461.989 73.7324 466.063 76.6358C470.136 79.5391 474.773 80.9908 479.973 80.9908C482.876 80.9908 485.693 80.5358 488.423 79.6258C491.153 78.7158 493.384 77.3724 495.118 75.5958C496.894 73.8191 497.783 71.6308 497.783 69.0308C497.783 68.0774 497.631 67.1674 497.328 66.3008C497.068 65.3908 496.613 64.5458 495.963 63.7658C495.313 62.9858 494.381 62.2491 493.168 61.5558C491.998 60.8624 490.503 60.2341 488.683 59.6708L464.373 52.5208C462.553 52.0008 460.429 51.2641 458.003 50.3108C455.619 49.3574 453.301 47.9924 451.048 46.2158C448.794 44.4391 446.909 42.0991 445.393 39.1958C443.919 36.2491 443.183 32.5441 443.183 28.0808C443.183 21.7974 444.764 16.5758 447.928 12.4158C451.091 8.25578 455.316 5.15744 460.603 3.12078C465.889 1.08411 471.739 0.0874424 478.153 0.130778C484.609 0.217443 490.373 1.32244 495.443 3.44578C500.513 5.56911 504.759 8.66745 508.183 12.7408C511.606 16.7708 514.076 21.7108 515.593 27.5608L496.483 30.8108C495.789 27.7774 494.511 25.2208 492.648 23.1408C490.784 21.0608 488.553 19.4791 485.953 18.3958C483.396 17.3124 480.709 16.7274 477.893 16.6408C475.119 16.5541 472.498 16.9441 470.028 17.8108C467.601 18.6341 465.608 19.8474 464.048 21.4508C462.531 23.0541 461.773 24.9608 461.773 27.1708C461.773 29.2074 462.401 30.8758 463.658 32.1758C464.914 33.4324 466.496 34.4508 468.403 35.2308C470.309 36.0108 472.259 36.6608 474.253 37.1808L490.503 41.6008C492.929 42.2508 495.616 43.1174 498.563 44.2008C501.509 45.2408 504.326 46.7141 507.013 48.6208C509.743 50.4841 511.974 52.9541 513.708 56.0308C515.484 59.1074 516.373 63.0074 516.373 67.7308C516.373 72.7574 515.311 77.1558 513.188 80.9258C511.108 84.6524 508.291 87.7508 504.738 90.2208C501.184 92.6474 497.154 94.4674 492.648 95.6808C488.184 96.8941 483.569 97.5008 478.803 97.5008ZM552.37 95.5508V18.4608H522.86V1.95078H599.56V18.4608H570.05V95.5508H552.37ZM600.966 95.5508L629.566 1.95078H655.956L684.556 95.5508H666.356L640.876 13.0008H644.256L619.166 95.5508H600.966ZM618.126 76.0508V59.5408H667.526V76.0508H618.126ZM696.206 95.5508V1.95078H735.726C736.636 1.95078 737.85 1.99411 739.366 2.08078C740.926 2.12411 742.313 2.25411 743.526 2.47078C749.116 3.33744 753.688 5.17911 757.241 7.99577C760.838 10.8124 763.481 14.3658 765.171 18.6558C766.861 22.9024 767.706 27.6474 767.706 32.8908C767.706 40.7341 765.756 47.4508 761.856 53.0408C757.956 58.5874 751.846 62.0108 743.526 63.3108L735.726 63.8308H713.886V95.5508H696.206ZM748.986 95.5508L730.526 57.4608L748.726 53.9508L769.006 95.5508H748.986ZM713.886 47.3208H734.946C735.856 47.3208 736.853 47.2774 737.936 47.1908C739.02 47.1041 740.016 46.9308 740.926 46.6708C743.31 46.0208 745.151 44.9374 746.451 43.4208C747.751 41.8608 748.64 40.1491 749.116 38.2858C749.636 36.3791 749.896 34.5808 749.896 32.8908C749.896 31.2008 749.636 29.4241 749.116 27.5608C748.64 25.6541 747.751 23.9424 746.451 22.4258C745.151 20.8658 743.31 19.7608 740.926 19.1108C740.016 18.8508 739.02 18.6774 737.936 18.5908C736.853 18.5041 735.856 18.4608 734.946 18.4608H713.886V47.3208ZM805.006 95.5508V18.4608H775.496V1.95078H852.196V18.4608H822.686V95.5508H805.006ZM924.902 97.5008C915.542 97.5008 907.46 95.4641 900.657 91.3908C893.897 87.3174 888.675 81.6191 884.992 74.2958C881.352 66.9724 879.532 58.4574 879.532 48.7508C879.532 39.0441 881.352 30.5291 884.992 23.2058C888.675 15.8824 893.897 10.1841 900.657 6.11078C907.46 2.03745 915.542 0.00077939 924.902 0.00077939C934.262 0.00077939 942.322 2.03745 949.082 6.11078C955.885 10.1841 961.107 15.8824 964.747 23.2058C968.43 30.5291 970.272 39.0441 970.272 48.7508C970.272 58.4574 968.43 66.9724 964.747 74.2958C961.107 81.6191 955.885 87.3174 949.082 91.3908C942.322 95.4641 934.262 97.5008 924.902 97.5008ZM924.902 80.8608C930.839 80.9474 935.779 79.6691 939.722 77.0258C943.665 74.3824 946.612 70.6341 948.562 65.7808C950.555 60.9274 951.552 55.2508 951.552 48.7508C951.552 42.2508 950.555 36.6174 948.562 31.8508C946.612 27.0841 943.665 23.3791 939.722 20.7358C935.779 18.0924 930.839 16.7274 924.902 16.6408C918.965 16.5541 914.025 17.8324 910.082 20.4758C906.139 23.1191 903.17 26.8674 901.177 31.7208C899.227 36.5741 898.252 42.2508 898.252 48.7508C898.252 55.2508 899.227 60.8841 901.177 65.6508C903.17 70.4174 906.139 74.1224 910.082 76.7658C914.025 79.4091 918.965 80.7741 924.902 80.8608ZM983.247 95.5508V1.95078H1040.45V19.6308H1000.93V39.9108H1032.65V57.5908H1000.93V95.5508H983.247ZM1052.18 95.5508V1.95078H1109.38V19.6308H1069.86V39.9108H1101.58V57.5908H1069.86V95.5508H1052.18ZM1121.12 95.5508V1.95078H1182.22V18.4608H1138.8V38.4808H1174.42V54.9908H1138.8V79.0408H1182.22V95.5508H1121.12ZM1197.8 95.5508V1.95078H1237.32C1238.23 1.95078 1239.44 1.99411 1240.96 2.08078C1242.52 2.12411 1243.9 2.25411 1245.12 2.47078C1250.71 3.33744 1255.28 5.17911 1258.83 7.99577C1262.43 10.8124 1265.07 14.3658 1266.76 18.6558C1268.45 22.9024 1269.3 27.6474 1269.3 32.8908C1269.3 40.7341 1267.35 47.4508 1263.45 53.0408C1259.55 58.5874 1253.44 62.0108 1245.12 63.3108L1237.32 63.8308H1215.48V95.5508H1197.8ZM1250.58 95.5508L1232.12 57.4608L1250.32 53.9508L1270.6 95.5508H1250.58ZM1215.48 47.3208H1236.54C1237.45 47.3208 1238.44 47.2774 1239.53 47.1908C1240.61 47.1041 1241.61 46.9308 1242.52 46.6708C1244.9 46.0208 1246.74 44.9374 1248.04 43.4208C1249.34 41.8608 1250.23 40.1491 1250.71 38.2858C1251.23 36.3791 1251.49 34.5808 1251.49 32.8908C1251.49 31.2008 1251.23 29.4241 1250.71 27.5608C1250.23 25.6541 1249.34 23.9424 1248.04 22.4258C1246.74 20.8658 1244.9 19.7608 1242.52 19.1108C1241.61 18.8508 1240.61 18.6774 1239.53 18.5908C1238.44 18.5041 1237.45 18.4608 1236.54 18.4608H1215.48V47.3208ZM1320.25 97.5008C1313.31 97.5008 1307.05 96.2874 1301.46 93.8608C1295.92 91.3908 1291.34 87.8808 1287.75 83.3308C1284.19 78.7374 1281.94 73.2774 1280.99 66.9508L1299.45 64.2208C1300.75 69.5941 1303.43 73.7324 1307.51 76.6358C1311.58 79.5391 1316.22 80.9908 1321.42 80.9908C1324.32 80.9908 1327.14 80.5358 1329.87 79.6258C1332.6 78.7158 1334.83 77.3724 1336.56 75.5958C1338.34 73.8191 1339.23 71.6308 1339.23 69.0308C1339.23 68.0774 1339.08 67.1674 1338.77 66.3008C1338.51 65.3908 1338.06 64.5458 1337.41 63.7658C1336.76 62.9858 1335.83 62.2491 1334.61 61.5558C1333.44 60.8624 1331.95 60.2341 1330.13 59.6708L1305.82 52.5208C1304 52.0008 1301.87 51.2641 1299.45 50.3108C1297.06 49.3574 1294.75 47.9924 1292.49 46.2158C1290.24 44.4391 1288.35 42.0991 1286.84 39.1958C1285.36 36.2491 1284.63 32.5441 1284.63 28.0808C1284.63 21.7974 1286.21 16.5758 1289.37 12.4158C1292.54 8.25578 1296.76 5.15744 1302.05 3.12078C1307.33 1.08411 1313.18 0.0874424 1319.6 0.130778C1326.05 0.217443 1331.82 1.32244 1336.89 3.44578C1341.96 5.56911 1346.2 8.66745 1349.63 12.7408C1353.05 16.7708 1355.52 21.7108 1357.04 27.5608L1337.93 30.8108C1337.23 27.7774 1335.96 25.2208 1334.09 23.1408C1332.23 21.0608 1330 19.4791 1327.4 18.3958C1324.84 17.3124 1322.15 16.7274 1319.34 16.6408C1316.56 16.5541 1313.94 16.9441 1311.47 17.8108C1309.05 18.6341 1307.05 19.8474 1305.49 21.4508C1303.98 23.0541 1303.22 24.9608 1303.22 27.1708C1303.22 29.2074 1303.85 30.8758 1305.1 32.1758C1306.36 33.4324 1307.94 34.4508 1309.85 35.2308C1311.75 36.0108 1313.7 36.6608 1315.7 37.1808L1331.95 41.6008C1334.37 42.2508 1337.06 43.1174 1340.01 44.2008C1342.95 45.2408 1345.77 46.7141 1348.46 48.6208C1351.19 50.4841 1353.42 52.9541 1355.15 56.0308C1356.93 59.1074 1357.82 63.0074 1357.82 67.7308C1357.82 72.7574 1356.76 77.1558 1354.63 80.9258C1352.55 84.6524 1349.74 87.7508 1346.18 90.2208C1342.63 92.6474 1338.6 94.4674 1334.09 95.6808C1329.63 96.8941 1325.01 97.5008 1320.25 97.5008Z" fill="url(#paint0_linear_2184_1592)" fill-opacity="0.62"/>
<defs>
<linearGradient id="paint0_linear_2184_1592" x1="679.553" y1="-133.949" x2="689.105" y2="229.164" gradientUnits="userSpaceOnUse">
<stop stop-color="#4E9BD0"/>
<stop offset="1" stop-color="#060E1B" stop-opacity="0"/>
</linearGradient>
</defs>
</svg>
