<svg width="626" height="98" viewBox="0 0 626 98" fill="none" xmlns="http://www.w3.org/2000/svg">
<path d="M39.8233 97.95C32.89 97.95 26.6283 96.7367 21.0383 94.31C15.4916 91.84 10.9199 88.33 7.32328 83.78C3.76995 79.1867 1.51661 73.7267 0.563282 67.4L19.0233 64.67C20.3233 70.0433 23.0099 74.1817 27.0833 77.085C31.1566 79.9883 35.7933 81.44 40.9933 81.44C43.8966 81.44 46.7133 80.985 49.4433 80.075C52.1733 79.165 54.405 77.8217 56.1383 76.045C57.915 74.2683 58.8033 72.08 58.8033 69.48C58.8033 68.5267 58.6516 67.6167 58.3483 66.75C58.0883 65.84 57.6333 64.995 56.9833 64.215C56.3333 63.435 55.4016 62.6983 54.1883 62.005C53.0183 61.3117 51.5233 60.6833 49.7033 60.12L25.3933 52.97C23.5733 52.45 21.4499 51.7133 19.0233 50.76C16.6399 49.8067 14.3216 48.4417 12.0683 46.665C9.81495 44.8883 7.92995 42.5483 6.41328 39.645C4.93995 36.6983 4.20328 32.9933 4.20328 28.53C4.20328 22.2467 5.78495 17.025 8.94828 12.865C12.1116 8.70499 16.3366 5.60666 21.6233 3.57C26.9099 1.53333 32.7599 0.536661 39.1733 0.579996C45.6299 0.666662 51.3933 1.77166 56.4633 3.895C61.5333 6.01833 65.78 9.11666 69.2033 13.19C72.6266 17.22 75.0966 22.16 76.6133 28.01L57.5033 31.26C56.81 28.2267 55.5316 25.67 53.6683 23.59C51.8049 21.51 49.5733 19.9283 46.9733 18.845C44.4166 17.7617 41.7299 17.1767 38.9133 17.09C36.1399 17.0033 33.5183 17.3933 31.0483 18.26C28.6216 19.0833 26.6283 20.2967 25.0683 21.9C23.5516 23.5033 22.7933 25.41 22.7933 27.62C22.7933 29.6567 23.4216 31.325 24.6783 32.625C25.9349 33.8817 27.5166 34.9 29.4233 35.68C31.3299 36.46 33.2799 37.11 35.2733 37.63L51.5233 42.05C53.9499 42.7 56.6366 43.5667 59.5833 44.65C62.5299 45.69 65.3466 47.1633 68.0333 49.07C70.7633 50.9333 72.995 53.4033 74.7283 56.48C76.505 59.5567 77.3933 63.4567 77.3933 68.18C77.3933 73.2067 76.3316 77.605 74.2083 81.375C72.1283 85.1017 69.3116 88.2 65.7583 90.67C62.205 93.0967 58.175 94.9167 53.6683 96.13C49.2049 97.3433 44.5899 97.95 39.8233 97.95ZM91.6801 96V2.4H152.78V18.91H109.36V38.93H144.98V55.44H109.36V79.49H152.78V96H91.6801ZM168.36 96V2.4H207.88C208.79 2.4 210.003 2.44333 211.52 2.52999C213.08 2.57333 214.466 2.70333 215.68 2.92C221.27 3.78666 225.841 5.62833 229.395 8.44499C232.991 11.2617 235.635 14.815 237.325 19.105C239.015 23.3517 239.86 28.0967 239.86 33.34C239.86 41.1833 237.91 47.9 234.01 53.49C230.11 59.0367 224 62.46 215.68 63.76L207.88 64.28H186.04V96H168.36ZM221.14 96L202.68 57.91L220.88 54.4L241.16 96H221.14ZM186.04 47.77H207.1C208.01 47.77 209.006 47.7267 210.09 47.64C211.173 47.5533 212.17 47.38 213.08 47.12C215.463 46.47 217.305 45.3867 218.605 43.87C219.905 42.31 220.793 40.5983 221.27 38.735C221.79 36.8283 222.05 35.03 222.05 33.34C222.05 31.65 221.79 29.8733 221.27 28.01C220.793 26.1033 219.905 24.3917 218.605 22.875C217.305 21.315 215.463 20.21 213.08 19.56C212.17 19.3 211.173 19.1267 210.09 19.04C209.006 18.9533 208.01 18.91 207.1 18.91H186.04V47.77ZM275.6 96L247 2.4H265.2L288.6 79.36L312.39 2.4H330.59L301.99 96H275.6ZM341.681 96V2.4H359.361V96H341.681ZM419.018 97.95C409.658 97.95 401.576 95.9133 394.773 91.84C388.013 87.7667 382.791 82.0683 379.108 74.745C375.468 67.4217 373.648 58.9067 373.648 49.2C373.648 39.4933 375.468 30.9783 379.108 23.655C382.791 16.3317 388.013 10.6333 394.773 6.56C401.576 2.48666 409.658 0.449998 419.018 0.449998C429.765 0.449998 438.778 3.115 446.058 8.44499C453.381 13.775 458.538 20.99 461.528 30.09L443.718 35.03C441.985 29.3533 439.06 24.955 434.943 21.835C430.826 18.6717 425.518 17.09 419.018 17.09C413.081 17.09 408.12 18.4117 404.133 21.055C400.19 23.6983 397.221 27.425 395.228 32.235C393.235 37.045 392.238 42.7 392.238 49.2C392.238 55.7 393.235 61.355 395.228 66.165C397.221 70.975 400.19 74.7017 404.133 77.345C408.12 79.9883 413.081 81.31 419.018 81.31C425.518 81.31 430.826 79.7283 434.943 76.565C439.06 73.4017 441.985 69.0033 443.718 63.37L461.528 68.31C458.538 77.41 453.381 84.625 446.058 89.955C438.778 95.285 429.765 97.95 419.018 97.95ZM475.84 96V2.4H536.94V18.91H493.52V38.93H529.14V55.44H493.52V79.49H536.94V96H475.84ZM587.88 97.95C580.947 97.95 574.685 96.7367 569.095 94.31C563.548 91.84 558.977 88.33 555.38 83.78C551.827 79.1867 549.573 73.7267 548.62 67.4L567.08 64.67C568.38 70.0433 571.067 74.1817 575.14 77.085C579.213 79.9883 583.85 81.44 589.05 81.44C591.953 81.44 594.77 80.985 597.5 80.075C600.23 79.165 602.462 77.8217 604.195 76.045C605.972 74.2683 606.86 72.08 606.86 69.48C606.86 68.5267 606.708 67.6167 606.405 66.75C606.145 65.84 605.69 64.995 605.04 64.215C604.39 63.435 603.458 62.6983 602.245 62.005C601.075 61.3117 599.58 60.6833 597.76 60.12L573.45 52.97C571.63 52.45 569.507 51.7133 567.08 50.76C564.697 49.8067 562.378 48.4417 560.125 46.665C557.872 44.8883 555.987 42.5483 554.47 39.645C552.997 36.6983 552.26 32.9933 552.26 28.53C552.26 22.2467 553.842 17.025 557.005 12.865C560.168 8.70499 564.393 5.60666 569.68 3.57C574.967 1.53333 580.817 0.536661 587.23 0.579996C593.687 0.666662 599.45 1.77166 604.52 3.895C609.59 6.01833 613.837 9.11666 617.26 13.19C620.683 17.22 623.153 22.16 624.67 28.01L605.56 31.26C604.867 28.2267 603.588 25.67 601.725 23.59C599.862 21.51 597.63 19.9283 595.03 18.845C592.473 17.7617 589.787 17.1767 586.97 17.09C584.197 17.0033 581.575 17.3933 579.105 18.26C576.678 19.0833 574.685 20.2967 573.125 21.9C571.608 23.5033 570.85 25.41 570.85 27.62C570.85 29.6567 571.478 31.325 572.735 32.625C573.992 33.8817 575.573 34.9 577.48 35.68C579.387 36.46 581.337 37.11 583.33 37.63L599.58 42.05C602.007 42.7 604.693 43.5667 607.64 44.65C610.587 45.69 613.403 47.1633 616.09 49.07C618.82 50.9333 621.052 53.4033 622.785 56.48C624.562 59.5567 625.45 63.4567 625.45 68.18C625.45 73.2067 624.388 77.605 622.265 81.375C620.185 85.1017 617.368 88.2 613.815 90.67C610.262 93.0967 606.232 94.9167 601.725 96.13C597.262 97.3433 592.647 97.95 587.88 97.95Z" fill="url(#paint0_linear_855_401)" fill-opacity="0.62"/>
<defs>
<linearGradient id="paint0_linear_855_401" x1="313" y1="-133.5" x2="333.48" y2="228.706" gradientUnits="userSpaceOnUse">
<stop stop-color="#4E9BD0"/>
<stop offset="1" stop-color="#060E1B" stop-opacity="0"/>
</linearGradient>
</defs>
</svg>
