<svg viewBox="0 0 17 18" xmlns="http://www.w3.org/2000/svg"><path d="M13.222 17.5H3.778a3.75 3.75 0 0 1-2.671-1.107A3.75 3.75 0 0 1 0 13.724v-.945a.944.944 0 1 1 1.889 0v.944c0 .505.196.98.553 1.336s.831.553 1.336.553h9.444c.505 0 .979-.196 1.336-.553s.553-.831.553-1.336v-.944a.944.944 0 1 1 1.889 0v.944a3.75 3.75 0 0 1-1.107 2.672 3.75 3.75 0 0 1-2.67 1.106M8.5 13.722a.94.94 0 0 1-.66-.268l-.002-.003-.002-.001v-.001l-.002-.001-.002-.002-3.778-3.778A.945.945 0 0 1 5.39 8.332l2.166 2.166V1.444a.944.944 0 1 1 1.888 0v9.054l2.166-2.166a.945.945 0 0 1 1.336 1.336l-3.778 3.778-.002.002h-.001l-.001.002-.002.001-.002.002-.032.03a1 1 0 0 1-.26.165h-.002a.9.9 0 0 1-.366.074"/></svg>