<svg viewBox="0 0 17 14" xmlns="http://www.w3.org/2000/svg"><path fill-rule="evenodd" clip-rule="evenodd" d="M15.729 9.64a2.78 2.78 0 0 1-2.776 2.776H3.847A2.78 2.78 0 0 1 1.07 9.641V3.847c0-.512.14-.992.383-1.404l4.443 4.444A3.5 3.5 0 0 0 8.401 7.92a3.5 3.5 0 0 0 2.501-1.034l4.444-4.444c.243.412.383.892.383 1.404zm-2.776-8.569H3.847c-.632 0-1.215.214-1.682.57l4.488 4.49a2.46 2.46 0 0 0 1.748.719c.66 0 1.28-.257 1.745-.72l4.488-4.49a2.77 2.77 0 0 0-1.681-.569m0-1.071H3.847A3.85 3.85 0 0 0 0 3.847V9.64a3.85 3.85 0 0 0 3.847 3.847h9.106A3.85 3.85 0 0 0 16.8 9.64V3.847A3.85 3.85 0 0 0 12.953 0"/></svg>