<svg viewBox="0 0 28 34" xmlns="http://www.w3.org/2000/svg"><path d="M23.898 4.1A13.9 13.9 0 0 0 14 0c-3.74 0-7.256 1.456-9.9 4.1A13.9 13.9 0 0 0 0 14c0 7.564 7.152 13.856 10.995 17.236.534.47.995.875 1.363 1.218a2.4 2.4 0 0 0 1.641.645 2.4 2.4 0 0 0 1.642-.645c.368-.343.829-.748 1.363-1.218 3.842-3.38 10.995-9.672 10.995-17.237a13.9 13.9 0 0 0-4.1-9.899m-8.175 25.68c-.546.48-1.017.895-1.405 1.258a.47.47 0 0 1-.637 0c-.388-.364-.86-.778-1.405-1.258C8.663 26.602 1.938 20.687 1.938 14c0-6.65 5.41-12.061 12.06-12.061s12.06 5.41 12.06 12.06c0 6.688-6.724 12.603-10.336 15.781"/><path d="M14 7.3a6.176 6.176 0 0 0-6.17 6.17A6.176 6.176 0 0 0 14 19.64a6.176 6.176 0 0 0 6.169-6.17 6.176 6.176 0 0 0-6.17-6.17m0 10.4a4.235 4.235 0 0 1-4.231-4.23 4.235 4.235 0 0 1 4.23-4.23 4.235 4.235 0 0 1 4.23 4.23A4.235 4.235 0 0 1 14 17.7"/></svg>