<svg viewBox="0 0 29 28" xmlns="http://www.w3.org/2000/svg"><path d="M6.59 9.004H.36v18.71h6.23z"/><path d="M27.037 10.715q-1.964-2.142-5.192-2.143-1.19 0-2.162.293t-1.643.821q-.67.53-1.066.982-.378.43-.737.999v-2.66h-6.212l.02.906q.018.906.018 5.588t-.037 12.215h6.211v-10.44q0-.963.208-1.53a4 4 0 0 1 1.199-1.614q.803-.651 1.992-.652 1.623 0 2.388 1.124.765 1.123.765 3.106v10.006H29V16.993q0-4.136-1.963-6.278"/><path d="M3.512 0Q1.945 0 .972.916 0 1.83 0 3.228q0 1.38.944 2.304.945.925 2.492.925h.038q1.586 0 2.558-.925t.954-2.304q-.02-1.397-.963-2.312Q5.078 0 3.512 0"/></svg>