<svg width="176" height="30" viewBox="0 0 176 30" fill="none" xmlns="http://www.w3.org/2000/svg">
<path d="M13.9306 0H9.93067V23.9161H13.9306V0Z" fill="url(#paint0_linear_2016_974)"/>
<path fill-rule="evenodd" clip-rule="evenodd" d="M14.9014 29.6838L18.8982 27.207V6.50135C17.7133 5.6227 16.3482 5.01787 14.9014 4.73047V29.6838Z" fill="url(#paint1_linear_2016_974)"/>
<path fill-rule="evenodd" clip-rule="evenodd" d="M4.95508 27.2197L8.95499 29.6964V4.74316C7.50802 5.02622 6.14189 5.62682 4.95508 6.50166V27.2197Z" fill="url(#paint2_linear_2016_974)"/>
<path fill-rule="evenodd" clip-rule="evenodd" d="M19.8682 1.13574V26.7732L21.7257 25.6215C22.3908 25.184 22.935 24.5859 23.3078 23.8824C23.6806 23.179 23.8701 22.3929 23.8588 21.5968V9.48859C23.8681 5.99637 19.8682 1.13574 19.8682 1.13574Z" fill="url(#paint3_linear_2016_974)"/>
<path fill-rule="evenodd" clip-rule="evenodd" d="M0.000553786 21.5875C-0.0116331 22.3837 0.177501 23.1701 0.550404 23.8737C0.923308 24.5773 1.4679 25.1753 2.13364 25.6123L3.99118 26.7639V1.13574C3.99118 1.13574 0.000553786 5.99637 0.000553786 9.48859V21.5875Z" fill="url(#paint4_linear_2016_974)"/>
<path fill-rule="evenodd" clip-rule="evenodd" d="M119.714 24.1981V5.33763L122.599 4.12402V24.1981H119.714ZM115.169 16.2973C115.184 15.7884 115.09 15.2823 114.893 14.8129C114.696 14.3435 114.4 13.9217 114.027 13.5759C113.286 12.901 112.314 12.5373 111.312 12.5605C110.32 12.5329 109.358 12.8978 108.634 13.5759C107.893 14.2948 107.451 15.2666 107.395 16.2973H115.169ZM111.256 24.4241C109.227 24.4241 107.576 23.7719 106.302 22.4675C105.029 21.1631 104.396 19.4324 104.405 17.2756C104.405 15.1208 105.048 13.3943 106.333 12.0961C107.619 10.7978 109.282 10.1508 111.321 10.1549C113.362 10.1549 115.013 10.7741 116.274 12.0125C117.535 13.2509 118.17 14.8773 118.178 16.8917C118.181 17.3447 118.147 17.7971 118.076 18.2446H107.364C107.381 19.2796 107.805 20.2663 108.544 20.9907C109.276 21.6723 110.247 22.0373 111.247 22.0062C112.821 22.0062 113.93 21.3622 114.572 20.0743H117.695C117.287 21.343 116.48 22.4462 115.395 23.2198C114.181 24.056 112.729 24.4783 111.256 24.4241ZM93.1046 10.3809V12.5481C94.0334 10.9444 95.5225 10.1425 97.572 10.1425C98.2928 10.1187 99.0107 10.244 99.6808 10.5103C100.351 10.7767 100.959 11.1784 101.467 11.6905C102.499 12.7225 103.015 14.1673 103.015 16.0248V24.1981H100.148V16.4737C100.148 15.2354 99.8382 14.287 99.219 13.6286C98.886 13.2917 98.4853 13.0293 98.0435 12.8585C97.6017 12.6877 97.1287 12.6125 96.6556 12.6379C96.1773 12.6098 95.6984 12.6829 95.2503 12.8526C94.8022 13.0222 94.3949 13.2846 94.0551 13.6224C93.4214 14.2808 93.1046 15.2292 93.1046 16.4675V24.1981H90.2099V10.3809H93.1046ZM84.8293 24.1981V10.3809H87.7239V24.1981H84.8293ZM82.7333 12.7122H79.3278V20.3591C79.3084 20.5608 79.3311 20.7643 79.3946 20.9567C79.458 21.1491 79.5607 21.3262 79.6962 21.4768C79.9408 21.7028 80.3588 21.8142 80.9532 21.8142H82.7302V24.1981H80.4454C77.7623 24.1981 76.4208 22.9185 76.4208 20.3591V8.15494L79.3402 6.94443V10.3809H82.7457L82.7333 12.7122ZM65.1826 10.3809V12.5481C66.1031 10.9526 67.5954 10.1549 69.6593 10.1549C70.3804 10.132 71.0985 10.2576 71.769 10.5239C72.4395 10.7902 73.0481 11.1915 73.557 11.7029C74.589 12.7349 75.105 14.1796 75.105 16.0372V24.1981H72.2351V16.4737C72.2351 15.2354 71.9255 14.287 71.3063 13.6286C70.9733 13.2917 70.5726 13.0293 70.1308 12.8585C69.6889 12.6877 69.2159 12.6125 68.7429 12.6379C68.2626 12.608 67.7813 12.6803 67.3309 12.85C66.8805 13.0197 66.4712 13.2829 66.13 13.6224C65.4964 14.2808 65.1785 15.2292 65.1764 16.4675V24.1981H62.2849V10.3809H65.1826ZM57.7524 16.2973C57.7673 15.7884 57.673 15.2823 57.4759 14.8129C57.2789 14.3435 56.9837 13.9217 56.6101 13.5759C55.863 12.895 54.8806 12.5309 53.8702 12.5605C52.8786 12.5329 51.9162 12.8978 51.1922 13.5759C50.4502 14.2939 50.0078 15.2662 49.9538 16.2973H57.7524ZM53.8268 24.4241C51.7959 24.4241 50.1447 23.7719 48.8734 22.4675C47.602 21.1631 46.9683 19.4324 46.9725 17.2756C46.9725 15.1208 47.6154 13.3943 48.9012 12.0961C50.1871 10.7978 51.8496 10.1508 53.8887 10.1549C55.9279 10.1549 57.5791 10.7741 58.8422 12.0125C60.1053 13.2509 60.74 14.8773 60.7462 16.8917C60.7485 17.3447 60.7144 17.7971 60.644 18.2446H49.9322C49.948 19.2803 50.3732 20.2676 51.1148 20.9907C51.8459 21.6735 52.8178 22.0386 53.8175 22.0062C55.3903 22.0062 56.4986 21.3622 57.1426 20.0743H60.2632C59.855 21.343 59.0483 22.4462 57.963 23.2198C56.7496 24.0555 55.2992 24.4778 53.8268 24.4241ZM39.403 8.87629C38.6471 8.84237 37.9029 9.0722 37.2978 9.52644C37.0232 9.75648 36.8065 10.0478 36.6651 10.3769C36.5237 10.7059 36.4615 11.0636 36.4835 11.4212C36.4672 11.7944 36.5489 12.1655 36.7206 12.4974C36.8922 12.8292 37.1478 13.1104 37.4619 13.3128C38.1723 13.7761 38.9645 14.0997 39.7961 14.2663C40.7084 14.4727 41.6217 14.7029 42.536 14.9567C43.4326 15.2114 44.2387 15.7149 44.8611 16.4087C45.5009 17.1084 45.8218 18.1032 45.8239 19.3932C45.826 20.6832 45.2759 21.8359 44.1738 22.8514C43.0737 23.873 41.6021 24.389 39.759 24.3993C37.9159 24.4097 36.4185 23.9824 35.2668 23.1176C34.7089 22.7172 34.2591 22.1846 33.9576 21.5675C33.6561 20.9505 33.5124 20.2683 33.5393 19.5821H36.6352C36.6704 20.283 36.9808 20.9416 37.499 21.4149C38.0067 21.8648 38.7518 22.0898 39.7343 22.0898C40.575 22.1372 41.403 21.8689 42.0562 21.3375C42.5323 20.9218 42.8315 20.3398 42.8925 19.7107C42.9535 19.0816 42.7717 18.453 42.3843 17.9536C42.0176 17.5549 41.5551 17.2565 41.0407 17.0867C40.4458 16.8826 39.8401 16.7111 39.2265 16.5728C38.566 16.4242 37.9015 16.2488 37.2328 16.0465C36.5957 15.8594 35.9827 15.5986 35.4062 15.2694C34.8392 14.9358 34.3736 14.4542 34.0595 13.8762C33.6935 13.1873 33.5142 12.4145 33.5393 11.6348C33.5159 10.9357 33.6536 10.2407 33.9419 9.60339C34.2302 8.96613 34.6613 8.40378 35.2018 7.95989C36.3102 7.03111 37.7487 6.56672 39.5175 6.56672C41.2863 6.56672 42.6991 6.95784 43.7558 7.74008C44.8146 8.54296 45.4029 9.70497 45.5205 11.2261H42.3224C42.2635 10.5749 41.9538 9.97211 41.4587 9.54502C40.8815 9.07225 40.1478 8.83357 39.403 8.87629Z" fill="url(#paint5_linear_2016_974)"/>
<path fill-rule="evenodd" clip-rule="evenodd" d="M164.968 11.167C164.02 11.1549 163.082 11.367 162.232 11.7862C161.393 12.2093 160.693 12.8649 160.216 13.6747C159.674 14.6285 159.398 15.7107 159.417 16.8078H170.275C170.373 15.72 170.152 14.6272 169.64 13.6623C169.189 12.8459 168.498 12.1869 167.662 11.7738C166.823 11.3658 165.901 11.158 164.968 11.167ZM164.919 23.1514C166.166 23.1938 167.394 22.831 168.417 22.1173C168.88 21.7875 169.271 21.3677 169.567 20.883C169.863 20.3984 170.059 19.8589 170.142 19.2969H171.334C171.115 20.679 170.375 21.9246 169.266 22.7768C168.143 23.656 166.71 24.0957 164.968 24.0957C163.763 24.1186 162.573 23.8319 161.51 23.2628C160.502 22.7096 159.675 21.8763 159.13 20.8635C158.53 19.7191 158.233 18.44 158.269 17.1484C158.239 15.8721 158.535 14.6093 159.13 13.4797C159.673 12.4688 160.497 11.6359 161.501 11.0803C162.563 10.5113 163.754 10.2245 164.959 10.2475C166.165 10.2167 167.358 10.5039 168.417 11.0803C169.342 11.5898 170.106 12.348 170.622 13.2691C171.116 14.1537 171.374 15.1506 171.371 16.1639C171.368 16.6064 171.325 17.0477 171.244 17.4827H159.417C159.397 18.5917 159.673 19.6861 160.216 20.653C160.686 21.4637 161.382 22.1199 162.219 22.5415C163.059 22.9523 163.984 23.1611 164.919 23.1514ZM150.817 10.1484C152.439 10.1484 153.758 10.6459 154.774 11.6407C155.789 12.6355 156.296 14.102 156.294 16.04V23.9223H155.154V16.0988C155.154 14.4766 154.74 13.2351 153.916 12.3837C153.093 11.5323 151.956 11.102 150.51 11.102C149.845 11.0738 149.182 11.1866 148.563 11.4331C147.945 11.6796 147.386 12.0542 146.922 12.5323C146.018 13.4859 145.566 14.8904 145.566 16.7459V23.9223H144.427V10.4209H145.566V13.9781C145.837 12.8174 146.529 11.7982 147.507 11.1175C148.485 10.4632 149.641 10.125 150.817 10.1484ZM133.65 7.56642C132.323 7.5475 131.015 7.88309 129.861 8.53855C128.731 9.18838 127.808 10.1447 127.198 11.297C126.524 12.5862 126.189 14.0254 126.223 15.4796C126.19 16.9318 126.525 18.3688 127.198 19.6561C127.809 20.8078 128.731 21.7639 129.861 22.4146C131.02 23.0503 132.322 23.3836 133.644 23.3836C134.966 23.3836 136.268 23.0503 137.427 22.4146C138.562 21.7671 139.49 20.8105 140.102 19.6561C140.775 18.3688 141.11 16.9318 141.077 15.4796C141.11 14.0275 140.775 12.5905 140.102 11.3032C139.491 10.1481 138.563 9.19123 137.427 8.54474C136.277 7.89009 134.974 7.55249 133.65 7.56642ZM133.65 6.54786C135.201 6.52414 136.729 6.91535 138.077 7.68097C139.376 8.4226 140.438 9.51624 141.142 10.8357C141.895 12.2662 142.274 13.8636 142.244 15.4796C142.271 17.0895 141.892 18.6801 141.142 20.105C140.436 21.4276 139.375 22.5266 138.077 23.2783C136.724 24.0295 135.201 24.4236 133.653 24.4236C132.105 24.4236 130.583 24.0295 129.229 23.2783C127.922 22.5268 126.85 21.4257 126.133 20.0988C125.38 18.6775 125.001 17.0879 125.031 15.4796C125 13.8619 125.384 12.2633 126.146 10.8357C126.859 9.5098 127.932 8.41204 129.242 7.66859C130.586 6.91021 132.107 6.52338 133.65 6.54786Z" fill="url(#paint6_linear_2016_974)"/>
<path d="M174.446 12.2444L174.137 11.7769H173.883V12.2444H173.573V10.7801H174.242C174.589 10.7801 174.796 10.9627 174.796 11.263C174.801 11.3618 174.773 11.4593 174.717 11.5408C174.661 11.6224 174.58 11.6835 174.487 11.715L174.846 12.2382L174.446 12.2444ZM174.446 11.2816C174.446 11.1423 174.35 11.0711 174.193 11.0711H173.883V11.4921H174.208C174.366 11.4921 174.456 11.4085 174.456 11.2847L174.446 11.2816Z" fill="url(#paint7_linear_2016_974)"/>
<path d="M174.115 13.0519C173.818 13.0525 173.527 12.9649 173.28 12.8001C173.032 12.6354 172.839 12.4009 172.725 12.1264C172.611 11.8519 172.581 11.5497 172.639 11.2582C172.697 10.9666 172.84 10.6988 173.05 10.4886C173.26 10.2784 173.528 10.1354 173.82 10.0775C174.111 10.0197 174.413 10.0497 174.688 10.1637C174.962 10.2777 175.197 10.4707 175.362 10.7181C175.526 10.9655 175.614 11.2562 175.613 11.5535C175.613 11.9506 175.454 12.3313 175.174 12.6121C174.893 12.8929 174.512 13.0511 174.115 13.0519ZM174.115 10.3801C173.883 10.3801 173.656 10.4489 173.463 10.5778C173.27 10.7068 173.12 10.89 173.031 11.1044C172.942 11.3188 172.919 11.5548 172.964 11.7824C173.009 12.01 173.121 12.219 173.285 12.3831C173.449 12.5472 173.658 12.659 173.886 12.7043C174.114 12.7495 174.35 12.7263 174.564 12.6375C174.778 12.5487 174.962 12.3983 175.091 12.2053C175.22 12.0124 175.288 11.7855 175.288 11.5535C175.288 11.2423 175.165 10.9438 174.945 10.7238C174.725 10.5037 174.426 10.3801 174.115 10.3801Z" fill="url(#paint8_linear_2016_974)"/>
<defs>
<linearGradient id="paint0_linear_2016_974" x1="-117.195" y1="27.6165" x2="2186.3" y2="27.6165" gradientUnits="userSpaceOnUse">
<stop stop-color="white"/>
</linearGradient>
<linearGradient id="paint1_linear_2016_974" x1="-117.195" y1="27.6165" x2="2186.3" y2="27.6165" gradientUnits="userSpaceOnUse">
<stop stop-color="white"/>
</linearGradient>
<linearGradient id="paint2_linear_2016_974" x1="-117.195" y1="27.6165" x2="2186.3" y2="27.6165" gradientUnits="userSpaceOnUse">
<stop stop-color="white"/>
</linearGradient>
<linearGradient id="paint3_linear_2016_974" x1="-117.195" y1="27.6165" x2="2186.3" y2="27.6165" gradientUnits="userSpaceOnUse">
<stop stop-color="white"/>
</linearGradient>
<linearGradient id="paint4_linear_2016_974" x1="-117.195" y1="27.6165" x2="2186.3" y2="27.6165" gradientUnits="userSpaceOnUse">
<stop stop-color="white"/>
</linearGradient>
<linearGradient id="paint5_linear_2016_974" x1="-117.195" y1="27.6165" x2="2186.3" y2="27.6165" gradientUnits="userSpaceOnUse">
<stop stop-color="white"/>
</linearGradient>
<linearGradient id="paint6_linear_2016_974" x1="-117.195" y1="27.6165" x2="2186.3" y2="27.6165" gradientUnits="userSpaceOnUse">
<stop stop-color="white"/>
</linearGradient>
<linearGradient id="paint7_linear_2016_974" x1="-117.195" y1="27.6165" x2="2186.3" y2="27.6165" gradientUnits="userSpaceOnUse">
<stop stop-color="white"/>
</linearGradient>
<linearGradient id="paint8_linear_2016_974" x1="-117.195" y1="27.6165" x2="2186.3" y2="27.6165" gradientUnits="userSpaceOnUse">
<stop stop-color="white"/>
</linearGradient>
</defs>
</svg>
