<svg width="140" height="30" viewBox="0 0 140 30" fill="none" xmlns="http://www.w3.org/2000/svg">
<path d="M57.9076 5.93896V23.7565H54.8142V9.77469H54.7731L49.2463 23.7565H47.1841L41.5336 9.77469H41.4923V23.7565H38.6465V5.93896H43.1008L48.2152 19.1372H48.2976L53.7007 5.93896H57.9076ZM60.4647 7.30003C60.4647 6.80509 60.6297 6.39265 61.0009 6.0627C61.3721 5.73274 61.7846 5.56776 62.2795 5.56776C62.8157 5.56776 63.2693 5.73274 63.5992 6.0627C63.9292 6.39265 64.1355 6.80509 64.1355 7.30003C64.1355 7.79496 63.9704 8.2074 63.5992 8.53736C63.228 8.86732 62.8157 9.03229 62.2795 9.03229C61.7434 9.03229 61.3308 8.86732 61.0009 8.53736C60.6709 8.16616 60.4647 7.75372 60.4647 7.30003ZM63.8055 10.9708V23.7565H60.7947V10.9708H63.8055ZM72.9205 21.5706C73.3742 21.5706 73.8691 21.4881 74.4053 21.2406C74.9414 21.0344 75.4364 20.7457 75.8901 20.4158V23.2204C75.3952 23.5091 74.859 23.7153 74.2404 23.839C73.6217 23.9628 72.9618 24.0453 72.2194 24.0453C70.3221 24.0453 68.7961 23.4678 67.6412 22.2717C66.4451 21.0757 65.8678 19.5496 65.8678 17.7349C65.8678 15.6726 66.4864 13.9816 67.6825 12.6618C68.8786 11.342 70.5696 10.6821 72.7968 10.6821C73.3742 10.6821 73.9516 10.7646 74.4878 10.8883C75.0652 11.012 75.5189 11.2182 75.8489 11.3832V14.2703C75.3952 13.9404 74.9002 13.6517 74.4465 13.4867C73.9516 13.3217 73.4567 13.198 72.9618 13.198C71.7657 13.198 70.8171 13.5692 70.0747 14.3528C69.3323 15.1365 69.0023 16.1676 69.0023 17.4874C69.0023 18.766 69.3736 19.7971 70.0747 20.4982C70.7759 21.1994 71.7244 21.5706 72.9205 21.5706ZM84.4277 10.7646C84.6752 10.7646 84.8814 10.7646 85.0876 10.8058C85.2939 10.847 85.4588 10.8883 85.5825 10.9295V13.9816C85.4175 13.8579 85.2113 13.7342 84.8813 13.6517C84.5514 13.5692 84.2215 13.4867 83.7678 13.4867C83.0254 13.4867 82.4067 13.8166 81.9117 14.4353C81.4168 15.054 81.1282 16.0026 81.1282 17.3224V23.7565H78.1173V10.9708H81.1282V12.9918H81.1694C81.4581 12.2906 81.8706 11.7544 82.4067 11.342C82.9842 10.9708 83.6441 10.7646 84.4277 10.7646ZM85.7476 17.5699C85.7476 15.4664 86.3662 13.7754 87.521 12.5381C88.7171 11.3007 90.3669 10.6821 92.4703 10.6821C94.4501 10.6821 96.0174 11.2595 97.131 12.4556C98.2446 13.6517 98.822 15.2602 98.822 17.2812C98.822 19.3434 98.2033 20.9932 97.0485 22.2305C95.8524 23.4678 94.2439 24.0865 92.1816 24.0865C90.2019 24.0865 88.6346 23.5091 87.4797 22.3542C86.3249 21.1582 85.7476 19.5496 85.7476 17.5699ZM88.8821 17.4462C88.8821 18.766 89.1708 19.7971 89.7894 20.4982C90.4081 21.1994 91.2742 21.5706 92.3878 21.5706C93.4602 21.5706 94.3264 21.2406 94.9038 20.4982C95.4812 19.7971 95.7699 18.766 95.7699 17.3637C95.7699 16.0026 95.4812 14.9715 94.9038 14.2291C94.3264 13.5279 93.4602 13.1567 92.4291 13.1567C91.3155 13.1567 90.4906 13.5279 89.8719 14.2703C89.1708 15.054 88.8821 16.0851 88.8821 17.4462ZM103.318 14.3528C103.318 14.7653 103.441 15.1365 103.73 15.3839C104.019 15.6314 104.596 15.9201 105.545 16.2913C106.741 16.7862 107.607 17.3224 108.061 17.8998C108.556 18.5185 108.803 19.2197 108.803 20.0858C108.803 21.2819 108.349 22.2305 107.401 22.9729C106.493 23.7153 105.215 24.0453 103.648 24.0453C103.111 24.0453 102.534 23.9628 101.874 23.839C101.214 23.7153 100.678 23.5503 100.224 23.3441V20.3745C100.76 20.7457 101.379 21.0757 101.998 21.2819C102.616 21.4881 103.194 21.6118 103.73 21.6118C104.39 21.6118 104.926 21.5293 105.215 21.3231C105.545 21.1169 105.71 20.8282 105.71 20.3745C105.71 19.9621 105.545 19.6321 105.215 19.3022C104.885 19.0134 104.225 18.6835 103.318 18.3123C102.204 17.8586 101.42 17.3224 100.967 16.745C100.513 16.1676 100.266 15.4252 100.266 14.5178C100.266 13.363 100.719 12.4143 101.627 11.6719C102.534 10.9295 103.73 10.5583 105.174 10.5583C105.627 10.5583 106.122 10.5996 106.658 10.7233C107.195 10.847 107.689 10.9708 108.061 11.0945V14.0229C107.648 13.7754 107.195 13.5279 106.658 13.3217C106.122 13.1155 105.586 13.033 105.091 13.033C104.514 13.033 104.06 13.1567 103.771 13.363C103.483 13.6517 103.318 13.9404 103.318 14.3528ZM110.082 17.5699C110.082 15.4664 110.7 13.7754 111.855 12.5381C113.051 11.3007 114.701 10.6821 116.804 10.6821C118.784 10.6821 120.351 11.2595 121.465 12.4556C122.579 13.6517 123.156 15.2602 123.156 17.2812C123.156 19.3434 122.537 20.9932 121.383 22.2305C120.186 23.4678 118.578 24.0865 116.516 24.0865C114.536 24.0865 112.969 23.5091 111.814 22.3542C110.7 21.1582 110.082 19.5496 110.082 17.5699ZM113.216 17.4462C113.216 18.766 113.505 19.7971 114.124 20.4982C114.742 21.1994 115.608 21.5706 116.722 21.5706C117.794 21.5706 118.66 21.2406 119.238 20.4982C119.815 19.7971 120.104 18.766 120.104 17.3637C120.104 16.0026 119.815 14.9715 119.238 14.2291C118.66 13.5279 117.794 13.1567 116.763 13.1567C115.65 13.1567 114.825 13.5279 114.206 14.2703C113.546 15.054 113.216 16.0851 113.216 17.4462ZM133.178 13.4454H128.683V23.7565H125.631V13.4454H123.486V10.9708H125.631V9.19727C125.631 7.87745 126.084 6.76385 126.951 5.89772C127.817 5.03158 128.93 4.61914 130.291 4.61914C130.663 4.61914 130.993 4.66039 131.281 4.66039C131.57 4.66039 131.817 4.74287 132.024 4.82536V7.42376C131.941 7.38252 131.735 7.30003 131.487 7.21754C131.24 7.13505 130.951 7.09381 130.621 7.09381C130.003 7.09381 129.508 7.30003 129.178 7.67123C128.848 8.04243 128.683 8.66109 128.683 9.40349V10.9295H133.178V8.04243L136.189 7.13505V10.9295H139.241V13.4042H136.189V19.3846C136.189 20.1683 136.354 20.7045 136.602 21.0344C136.891 21.3644 137.344 21.5294 137.963 21.5294C138.128 21.5294 138.334 21.4881 138.582 21.4056C138.829 21.3231 139.035 21.2406 139.2 21.1169V23.5916C138.994 23.7153 138.705 23.7978 138.252 23.8803C137.798 23.9628 137.385 24.004 136.932 24.004C135.653 24.004 134.704 23.6741 134.086 23.0141C133.467 22.3542 133.137 21.3231 133.137 19.9621L133.178 13.4454Z" fill="url(#paint0_linear_2016_982)"/>
<path d="M14.1056 0H0V14.1056H14.1056V0Z" fill="url(#paint1_linear_2016_982)"/>
<path d="M29.6974 0H15.5918V14.1056H29.6974V0Z" fill="url(#paint2_linear_2016_982)"/>
<path d="M14.1056 15.5908H0V29.6964H14.1056V15.5908Z" fill="url(#paint3_linear_2016_982)"/>
<path d="M29.6974 15.5908H15.5918V29.6964H29.6974V15.5908Z" fill="url(#paint4_linear_2016_982)"/>
<defs>
<linearGradient id="paint0_linear_2016_982" x1="-1082.54" y1="27.6155" x2="1220.96" y2="27.6155" gradientUnits="userSpaceOnUse">
<stop stop-color="white"/>
</linearGradient>
<linearGradient id="paint1_linear_2016_982" x1="-1082.54" y1="27.6155" x2="1220.96" y2="27.6155" gradientUnits="userSpaceOnUse">
<stop stop-color="white"/>
</linearGradient>
<linearGradient id="paint2_linear_2016_982" x1="-1082.54" y1="27.6155" x2="1220.96" y2="27.6155" gradientUnits="userSpaceOnUse">
<stop stop-color="white"/>
</linearGradient>
<linearGradient id="paint3_linear_2016_982" x1="-1082.54" y1="27.6155" x2="1220.96" y2="27.6155" gradientUnits="userSpaceOnUse">
<stop stop-color="white"/>
</linearGradient>
<linearGradient id="paint4_linear_2016_982" x1="-1082.54" y1="27.6155" x2="1220.96" y2="27.6155" gradientUnits="userSpaceOnUse">
<stop stop-color="white"/>
</linearGradient>
</defs>
</svg>
