<svg width="162" height="30" viewBox="0 0 162 30" fill="none" xmlns="http://www.w3.org/2000/svg">
<path d="M68.7209 5.44727C66.632 5.44727 64.4619 6.01904 61.7761 7.46344L63.2682 11.1686C65.6006 9.8608 67.5272 9.28903 68.9381 9.28903C70.5388 9.28903 71.2444 9.88837 71.2444 10.6783V10.7322C71.2444 11.2776 70.8098 11.5773 69.7522 11.6864L67.908 11.877C63.2956 12.3672 61.3965 14.3834 61.3965 17.1619V17.3525C61.3965 19.9956 63.5666 22.0657 66.632 22.0657C68.6505 22.0657 70.404 21.2099 71.47 19.6995L71.8137 21.7936H75.9916V12.2857C75.9916 7.79068 73.4145 5.44727 68.7209 5.44727ZM68.3138 18.4409C66.768 18.4409 66.0352 17.8416 66.0352 16.915V16.8611C66.0352 16.0436 66.4958 15.4442 68.1777 15.1997L68.9106 15.0906C69.9814 14.9408 70.6392 14.743 71.2444 14.375V15.5809C71.2444 17.4065 70.1044 18.4409 68.3138 18.4409Z" fill="url(#paint0_linear_2016_984)"/>
<path d="M16.0314 19.0109L29.4364 5.55691L24.0887 0.19043L18.7411 5.55691L21.403 8.22756L8.00391 21.6839L13.3456 27.054L18.6934 21.6839L16.0314 19.0109Z" fill="url(#paint1_linear_2016_984)"/>
<path d="M13.4036 0.188789L0 13.6484L5.34448 19.0153L18.748 5.5557L13.4036 0.188789Z" fill="url(#paint2_linear_2016_984)"/>
<path d="M32.0948 8.23385L18.6913 21.6935L24.0358 27.0604L37.4393 13.6008L32.0948 8.23385Z" fill="url(#paint3_linear_2016_984)"/>
<path d="M83.4476 0H78.7004V21.792H83.4476V0Z" fill="url(#paint4_linear_2016_984)"/>
<path d="M53.4182 5.44811C51.26 5.44811 49.5267 6.40705 48.573 7.90899L48.2101 5.72021H44.0322V27.2365H48.7795V19.7771C49.6832 21.176 51.3925 22.0606 53.4182 22.0606C57.2165 22.0606 60.3093 18.6827 60.3093 14.0235V13.4781C60.3093 8.82239 57.2165 5.44331 53.4182 5.44331M55.4259 13.8892C55.4259 16.3405 54.1511 18.1121 52.0347 18.1121C49.9183 18.1121 48.6434 16.3417 48.6434 13.8892V13.6171C48.6434 11.1646 49.9183 9.39416 52.0347 9.39416C54.1511 9.39416 55.4259 11.1646 55.4259 13.6171V13.8892Z" fill="url(#paint5_linear_2016_984)"/>
<path d="M147.539 5.44727C142.683 5.44727 139.265 8.82514 139.265 13.4844V14.0298C139.265 18.6879 142.683 22.0669 147.539 22.0669C152.395 22.0669 155.814 18.6891 155.814 14.0298V13.4844C155.814 8.82634 152.395 5.44727 147.539 5.44727ZM150.93 13.8932C150.93 16.3444 149.656 18.1161 147.539 18.1161C145.423 18.1161 144.148 16.3456 144.148 13.8932V13.621C144.148 11.1686 145.423 9.39811 147.539 9.39811C149.656 9.39811 150.93 11.1686 150.93 13.621V13.8932Z" fill="url(#paint6_linear_2016_984)"/>
<path d="M160.193 6.43003V6.34852C160.193 5.88583 159.841 5.55859 159.217 5.55859H158.132V8.06503H158.647V7.21996H159.22L159.651 8.06503H160.221L159.691 7.07372C160.013 6.97423 160.193 6.7321 160.193 6.43003ZM158.646 6.02128H159.216C159.542 6.02128 159.677 6.13036 159.677 6.37609V6.40366C159.677 6.62182 159.54 6.75727 159.216 6.75727H158.646V6.02128Z" fill="url(#paint7_linear_2016_984)"/>
<path d="M159.119 4.22266C157.654 4.22266 156.542 5.33982 156.542 6.8106C156.542 8.28138 157.654 9.39855 159.119 9.39855C160.584 9.39855 161.696 8.28138 161.696 6.8106C161.696 5.33982 160.584 4.22266 159.119 4.22266ZM159.119 9.04374C157.844 9.04374 156.922 8.11716 156.922 6.8094C156.922 5.50165 157.844 4.57507 159.119 4.57507C160.394 4.57507 161.317 5.50165 161.317 6.8094C161.317 8.11716 160.394 9.04374 159.119 9.04374Z" fill="url(#paint8_linear_2016_984)"/>
<path d="M125.31 0H120.563V21.792H125.31V0Z" fill="url(#paint9_linear_2016_984)"/>
<path d="M134.647 18.1124C133.264 18.1124 132.748 17.4315 132.748 15.9607V9.39437H138.337V5.71683H132.748V2.03809L128.001 2.7465V16.4234C128.001 20.1561 129.9 22.0632 133.698 22.0632C135.38 22.0632 137.361 21.5454 138.989 20.6188L137.633 17.2409C136.681 17.7587 135.353 18.1136 134.647 18.1136" fill="url(#paint10_linear_2016_984)"/>
<path d="M110.524 5.44727C108.435 5.44727 106.265 6.01904 103.579 7.46344L105.071 11.1686C107.403 9.8608 109.33 9.28903 110.741 9.28903C112.342 9.28903 113.047 9.88837 113.047 10.6783V10.7322C113.047 11.2776 112.613 11.5773 111.555 11.6864L109.711 11.877C105.098 12.3672 103.199 14.3834 103.199 17.1619V17.3525C103.199 19.9956 105.369 22.0657 108.435 22.0657C110.452 22.0657 112.207 21.2099 113.273 19.6995L113.616 21.7936H117.794V12.2857C117.794 7.79068 115.217 5.44727 110.524 5.44727ZM110.117 18.4409C108.57 18.4409 107.838 17.8416 107.838 16.915V16.8611C107.838 16.0436 108.299 15.4442 109.98 15.1997L110.713 15.0906C111.784 14.9408 112.442 14.743 113.046 14.375V15.5809C113.046 17.4065 111.907 18.4409 110.117 18.4409Z" fill="url(#paint11_linear_2016_984)"/>
<path d="M93.8361 5.44727C88.9802 5.44727 85.5615 8.82514 85.5615 13.4844V14.0298C85.5615 18.6879 88.9802 22.0669 93.8361 22.0669C98.6919 22.0669 102.111 18.6891 102.111 14.0298V13.4844C102.11 8.82634 98.6919 5.44727 93.8361 5.44727ZM97.2262 13.8932C97.2262 16.3444 95.9514 18.1161 93.835 18.1161C91.7186 18.1161 90.4437 16.3456 90.4437 13.8932V13.621C90.4437 11.1686 91.7186 9.39811 93.835 9.39811C95.9514 9.39811 97.2262 11.1686 97.2262 13.621V13.8932Z" fill="url(#paint12_linear_2016_984)"/>
<path d="M116.122 29.5837L114.404 27.3063H114.392V29.5837H113.27V25.6641H114.487L116.17 27.8816H116.182V25.6641H117.304V29.5837H116.122Z" fill="url(#paint13_linear_2016_984)"/>
<path d="M119.965 28.0135V28.6248H122.352L122.233 29.5837H118.783V25.6641H122.233V26.611H119.965V27.1504H121.755V28.0135H119.965Z" fill="url(#paint14_linear_2016_984)"/>
<path d="M124.739 29.5837V26.671H123.307V25.6641H127.126L127.246 26.671H125.813V29.5837H124.739Z" fill="url(#paint15_linear_2016_984)"/>
<path d="M132.977 28.3851L133.574 25.6641H134.767L133.693 29.5837H132.261L131.544 27.2104H131.425L130.709 29.5837H129.157L128.202 25.6641H129.396L130.112 28.3851L130.948 25.6641H132.141L132.858 28.3851H132.977Z" fill="url(#paint16_linear_2016_984)"/>
<path d="M135.601 27.6174C135.601 26.3396 136.466 25.5389 137.832 25.5389C139.199 25.5389 140.065 26.3396 140.065 27.6174C140.065 28.8952 139.2 29.6959 137.832 29.6959C136.466 29.6959 135.601 28.894 135.601 27.6174ZM138.898 27.6174C138.898 26.9402 138.508 26.5362 137.832 26.5362C137.157 26.5362 136.766 26.9402 136.766 27.6174C136.766 28.2959 137.157 28.6986 137.826 28.6986C138.502 28.6986 138.898 28.2947 138.898 27.6174Z" fill="url(#paint17_linear_2016_984)"/>
<path d="M141.332 25.6641H143.608C144.646 25.6641 145.154 26.1567 145.154 27.0701C145.154 27.697 144.898 28.1237 144.395 28.3251L145.321 29.5861H143.994L143.274 28.5553H142.504V29.5861H141.332V25.6641ZM143.457 27.6359C143.847 27.6359 143.987 27.4177 143.987 27.1205C143.987 26.8232 143.847 26.611 143.457 26.611H142.503V27.6359H143.457Z" fill="url(#paint18_linear_2016_984)"/>
<path d="M149.33 27.546L150.882 29.5718V29.5837H149.569L148.375 28.0734H147.898V29.5837H146.704V25.6641H147.898V27.1025H148.375L149.45 25.6641H150.882L149.33 27.546Z" fill="url(#paint19_linear_2016_984)"/>
<path d="M151.836 29.3199V28.2447H151.842C152.495 28.5755 153.131 28.7373 153.683 28.7373C154.102 28.7373 154.313 28.6366 154.313 28.44C154.313 28.2435 154.173 28.1931 153.337 28.0589C152.422 27.9138 151.813 27.6381 151.813 26.8482C151.813 26.1146 152.456 25.5488 153.71 25.5488C154.213 25.5488 154.737 25.6555 155.223 25.8629V26.9273L155.217 26.9333C154.754 26.6648 154.129 26.4958 153.627 26.4958C153.18 26.4958 153.002 26.6025 153.002 26.7811C153.002 27.0112 153.276 27.0328 153.962 27.1515C154.877 27.3085 155.485 27.5662 155.485 28.3957C155.485 29.0394 155.005 29.6843 153.628 29.6843C152.947 29.6843 152.406 29.544 151.836 29.3199Z" fill="url(#paint20_linear_2016_984)"/>
<defs>
<linearGradient id="paint0_linear_2016_984" x1="-1291.78" y1="27.6165" x2="1011.72" y2="27.6165" gradientUnits="userSpaceOnUse">
<stop stop-color="white"/>
</linearGradient>
<linearGradient id="paint1_linear_2016_984" x1="-1291.78" y1="27.6165" x2="1011.72" y2="27.6165" gradientUnits="userSpaceOnUse">
<stop stop-color="white"/>
</linearGradient>
<linearGradient id="paint2_linear_2016_984" x1="-1291.78" y1="27.6165" x2="1011.72" y2="27.6165" gradientUnits="userSpaceOnUse">
<stop stop-color="white"/>
</linearGradient>
<linearGradient id="paint3_linear_2016_984" x1="-1291.78" y1="27.6165" x2="1011.72" y2="27.6165" gradientUnits="userSpaceOnUse">
<stop stop-color="white"/>
</linearGradient>
<linearGradient id="paint4_linear_2016_984" x1="-1291.78" y1="27.6165" x2="1011.72" y2="27.6165" gradientUnits="userSpaceOnUse">
<stop stop-color="white"/>
</linearGradient>
<linearGradient id="paint5_linear_2016_984" x1="-1291.78" y1="27.6165" x2="1011.72" y2="27.6165" gradientUnits="userSpaceOnUse">
<stop stop-color="white"/>
</linearGradient>
<linearGradient id="paint6_linear_2016_984" x1="-1291.78" y1="27.6165" x2="1011.72" y2="27.6165" gradientUnits="userSpaceOnUse">
<stop stop-color="white"/>
</linearGradient>
<linearGradient id="paint7_linear_2016_984" x1="-1291.78" y1="27.6165" x2="1011.72" y2="27.6165" gradientUnits="userSpaceOnUse">
<stop stop-color="white"/>
</linearGradient>
<linearGradient id="paint8_linear_2016_984" x1="-1291.78" y1="27.6165" x2="1011.72" y2="27.6165" gradientUnits="userSpaceOnUse">
<stop stop-color="white"/>
</linearGradient>
<linearGradient id="paint9_linear_2016_984" x1="-1291.78" y1="27.6165" x2="1011.72" y2="27.6165" gradientUnits="userSpaceOnUse">
<stop stop-color="white"/>
</linearGradient>
<linearGradient id="paint10_linear_2016_984" x1="-1291.78" y1="27.6165" x2="1011.72" y2="27.6165" gradientUnits="userSpaceOnUse">
<stop stop-color="white"/>
</linearGradient>
<linearGradient id="paint11_linear_2016_984" x1="-1291.78" y1="27.6165" x2="1011.72" y2="27.6165" gradientUnits="userSpaceOnUse">
<stop stop-color="white"/>
</linearGradient>
<linearGradient id="paint12_linear_2016_984" x1="-1291.78" y1="27.6165" x2="1011.72" y2="27.6165" gradientUnits="userSpaceOnUse">
<stop stop-color="white"/>
</linearGradient>
<linearGradient id="paint13_linear_2016_984" x1="-1291.78" y1="27.6165" x2="1011.72" y2="27.6165" gradientUnits="userSpaceOnUse">
<stop stop-color="white"/>
</linearGradient>
<linearGradient id="paint14_linear_2016_984" x1="-1291.78" y1="27.6165" x2="1011.72" y2="27.6165" gradientUnits="userSpaceOnUse">
<stop stop-color="white"/>
</linearGradient>
<linearGradient id="paint15_linear_2016_984" x1="-1291.78" y1="27.6165" x2="1011.72" y2="27.6165" gradientUnits="userSpaceOnUse">
<stop stop-color="white"/>
</linearGradient>
<linearGradient id="paint16_linear_2016_984" x1="-1291.78" y1="27.6165" x2="1011.72" y2="27.6165" gradientUnits="userSpaceOnUse">
<stop stop-color="white"/>
</linearGradient>
<linearGradient id="paint17_linear_2016_984" x1="-1291.78" y1="27.6165" x2="1011.72" y2="27.6165" gradientUnits="userSpaceOnUse">
<stop stop-color="white"/>
</linearGradient>
<linearGradient id="paint18_linear_2016_984" x1="-1291.78" y1="27.6165" x2="1011.72" y2="27.6165" gradientUnits="userSpaceOnUse">
<stop stop-color="white"/>
</linearGradient>
<linearGradient id="paint19_linear_2016_984" x1="-1291.78" y1="27.6165" x2="1011.72" y2="27.6165" gradientUnits="userSpaceOnUse">
<stop stop-color="white"/>
</linearGradient>
<linearGradient id="paint20_linear_2016_984" x1="-1291.78" y1="27.6165" x2="1011.72" y2="27.6165" gradientUnits="userSpaceOnUse">
<stop stop-color="white"/>
</linearGradient>
</defs>
</svg>
