<svg width="132" height="23" viewBox="0 0 132 23" fill="none" xmlns="http://www.w3.org/2000/svg">
<path d="M1.04102 18.0053H10.9377C12.6625 18.0053 13.6072 17.8424 14.1609 17.4845C14.8446 17.0602 15.2354 16.3462 15.2354 15.4996C15.2354 14.4901 14.7138 13.6106 13.8357 13.187C13.3805 12.9269 12.5327 12.7962 11.491 12.7962H7.48633C4.88274 12.7962 3.18944 12.3403 2.05054 11.3636C0.748085 10.2234 0 8.4658 0 6.57813C0 3.81099 1.52959 1.40181 3.77588 0.620208C4.75255 0.26159 5.89152 0.165039 8.4314 0.165039H19.1743V4.0389H9.47241C7.4212 4.07109 7.25828 4.07109 6.5752 4.23398C5.6642 4.46123 5.1106 5.30786 5.1106 6.44677C5.1106 7.42476 5.56589 8.20571 6.34814 8.56367C6.99904 8.85726 7.5198 8.92163 9.08301 8.92163H12.5662C15.7569 8.92163 17.4817 9.4103 18.752 10.7128C19.7286 11.6888 20.3801 13.6106 20.3801 15.4996C20.3801 17.8109 19.3056 19.9587 17.613 21.001C16.5392 21.6841 15.1723 21.8792 11.948 21.8792H1.04102V18.0053Z" fill="url(#paint0_linear_2016_992)"/>
<path d="M32.7822 0C29.7222 0 27.0522 0.749421 25.3596 2.1169C23.2112 3.81016 22.0723 6.96875 22.0723 11.1362C22.0723 14.0327 22.689 16.4111 23.96 18.2009C25.6526 20.6435 28.9418 22.0117 33.1086 22.0117C36.0387 22.0117 38.5136 21.2938 40.1418 19.992C42.2903 18.2679 43.4968 15.1395 43.4968 11.33L43.4868 10.7086L43.4607 10.0971L43.4172 9.50207L43.3589 8.91817L43.2827 8.34871L43.188 7.79699L43.0796 7.26301L42.9541 6.7461L42.886 6.49388L42.813 6.24758L42.7368 6.0039L42.6572 5.76942L42.5752 5.53559L42.4873 5.309L42.3953 5.08962L42.2993 4.87156L42.2029 4.66401L42.1011 4.45908L41.9954 4.26007L41.8862 4.06894L41.772 3.88175L41.657 3.69981L41.5369 3.52641L41.4133 3.35958C39.7516 1.2059 36.6567 0 32.7822 0ZM32.8137 3.67748C36.6882 3.67748 38.4136 5.95858 38.4136 11.0364C38.4136 16.0505 36.6554 18.3618 32.8137 18.3618C28.9077 18.3618 27.1487 16.0492 27.1487 10.9714L27.1541 10.5457L27.1572 10.3382L27.1658 10.1333L27.1843 9.73392L27.196 9.54017L27.2104 9.34903L27.2275 9.16053L27.2454 8.97859L27.2656 8.8006L27.2886 8.62457L27.3123 8.45118L27.3386 8.2804L27.3977 7.952L27.4304 7.79436L27.5015 7.4896L27.5403 7.34248L27.5808 7.19798L27.6216 7.05677L27.665 6.92212L27.7124 6.7901L27.7622 6.66137L27.812 6.53526L27.8652 6.41506L27.9211 6.29487L27.9763 6.18058L28.0347 6.07155L28.0964 5.96515L28.1582 5.86334C29.0377 4.46171 30.6981 3.67748 32.8137 3.67748Z" fill="url(#paint1_linear_2016_992)"/>
<path d="M45.9697 0.165039V21.8805H50.5898V14.2917H58.0156C60.4898 14.2917 61.6582 13.9686 62.9285 12.894C64.426 11.6251 65.3384 9.50882 65.3384 7.22903C65.3384 5.30852 64.6554 3.51674 63.3857 2.14926C61.9539 0.553871 60.6172 0.165039 56.8083 0.165039H45.9697ZM56.9707 4.03956C57.7195 4.03956 58.3059 4.10327 58.6638 4.23398C59.674 4.59194 60.2605 5.63364 60.2605 7.06549C60.2605 8.27073 59.9014 9.31309 59.3162 9.80176L59.2695 9.84248L59.2222 9.88254L59.1724 9.92129L59.123 9.96005L59.0698 9.99486L59.0173 10.0277L58.9614 10.0599L58.9028 10.0901L58.782 10.1479L58.7205 10.1722L58.656 10.1978L58.5876 10.2215L58.52 10.2405L58.4497 10.2615L58.3762 10.2819L58.3005 10.2983L58.145 10.3265L58.063 10.341L57.9783 10.3528L57.8928 10.3646L57.8015 10.3738L57.7102 10.3857L57.6162 10.3922L57.5164 10.3981L57.4165 10.4047L57.3142 10.4106L57.2078 10.4126L57.0986 10.4159H56.9871L56.8721 10.4185H50.5884V4.03956H56.9707Z" fill="url(#paint2_linear_2016_992)"/>
<path d="M85.1003 21.8779H80.4771V12.9262H72.1106V21.8779H67.4873V0.165039H72.1106V9.05233H80.4771V0.165039H85.1003V21.8779Z" fill="url(#paint3_linear_2016_992)"/>
<path d="M98.5793 0C95.5199 0 92.85 0.749421 91.1567 2.1169C89.0083 3.81016 87.8662 6.96875 87.8662 11.1362C87.8662 14.0327 88.4855 16.4111 89.7571 18.2009C91.4477 20.6435 94.7372 22.0117 98.9053 22.0117C101.837 22.0117 104.309 21.2938 105.935 19.992C108.083 18.2679 109.289 15.1395 109.289 11.33L109.28 10.7086L109.255 10.0971L109.211 9.50207L109.152 8.91817L109.075 8.34871L108.981 7.79699L108.872 7.26301L108.749 6.7461L108.678 6.49388L108.608 6.24758L108.533 6.0039L108.368 5.53559L108.28 5.309L108.188 5.08962L108.095 4.87156L107.995 4.66401L107.892 4.45908L107.787 4.26007L107.678 4.06894L107.564 3.88175L107.45 3.69981L107.327 3.52641L107.204 3.35958C105.545 1.2059 102.455 0 98.5793 0ZM98.613 3.67748C102.486 3.67748 104.212 5.95858 104.212 11.0364C104.212 16.0505 102.453 18.3618 98.613 18.3618C94.707 18.3618 92.948 16.0492 92.948 10.9714V10.7572L92.9507 10.5457L92.957 10.3382L92.9624 10.1333L92.9717 9.93294L92.9846 9.73392L92.9966 9.54017L93.0103 9.34903L93.0242 9.16053L93.0417 8.97859L93.0649 8.8006L93.0852 8.62457L93.1082 8.45118L93.1353 8.2804L93.1633 8.1162L93.1943 7.952L93.2263 7.79436L93.2612 7.64198L93.2974 7.4896L93.3362 7.34248L93.377 7.19798L93.4175 7.05677L93.4636 6.92212L93.5095 6.7901L93.5569 6.66137L93.6067 6.53526L93.6592 6.41506L93.7158 6.29487L93.771 6.18058L93.8301 6.07155L93.8918 5.96515L93.9575 5.86334C94.835 4.46171 96.4961 3.67748 98.613 3.67748Z" fill="url(#paint4_linear_2016_992)"/>
<path d="M112.024 18.0053H121.921C123.645 18.0053 124.589 17.8424 125.144 17.4845C125.826 17.0602 126.218 16.3462 126.218 15.4996C126.218 14.4901 125.697 13.6106 124.818 13.187C124.361 12.9269 123.516 12.7962 122.474 12.7962H118.469C115.865 12.7962 114.172 12.3403 113.033 11.3636C111.731 10.2234 110.981 8.4658 110.981 6.57813C110.981 3.81099 112.51 1.40181 114.758 0.620208C115.734 0.26159 116.875 0.165039 119.414 0.165039H130.157V4.0389H120.455C118.404 4.07109 118.241 4.07109 117.559 4.23398C116.647 4.46123 116.093 5.30786 116.093 6.44677C116.093 7.42476 116.549 8.20571 117.332 8.56367C117.981 8.85726 118.502 8.92163 120.066 8.92163H123.549C126.739 8.92163 128.465 9.4103 129.736 10.7128C130.711 11.6888 131.362 13.6099 131.362 15.4989C131.362 17.8102 130.288 19.958 128.594 21.0004C127.521 21.6835 126.153 21.8785 122.929 21.8785H112.024L112.024 18.0053Z" fill="url(#paint5_linear_2016_992)"/>
<defs>
<linearGradient id="paint0_linear_2016_992" x1="-2287.45" y1="23.9036" x2="16.0469" y2="23.9036" gradientUnits="userSpaceOnUse">
<stop stop-color="white"/>
</linearGradient>
<linearGradient id="paint1_linear_2016_992" x1="-2287.45" y1="23.9036" x2="16.0469" y2="23.9036" gradientUnits="userSpaceOnUse">
<stop stop-color="white"/>
</linearGradient>
<linearGradient id="paint2_linear_2016_992" x1="-2287.45" y1="23.9036" x2="16.0469" y2="23.9036" gradientUnits="userSpaceOnUse">
<stop stop-color="white"/>
</linearGradient>
<linearGradient id="paint3_linear_2016_992" x1="-2287.45" y1="23.9036" x2="16.0469" y2="23.9036" gradientUnits="userSpaceOnUse">
<stop stop-color="white"/>
</linearGradient>
<linearGradient id="paint4_linear_2016_992" x1="-2287.45" y1="23.9036" x2="16.0469" y2="23.9036" gradientUnits="userSpaceOnUse">
<stop stop-color="white"/>
</linearGradient>
<linearGradient id="paint5_linear_2016_992" x1="-2287.45" y1="23.9036" x2="16.0469" y2="23.9036" gradientUnits="userSpaceOnUse">
<stop stop-color="white"/>
</linearGradient>
</defs>
</svg>
