<svg width="231" height="49" viewBox="0 0 231 49" fill="none" xmlns="http://www.w3.org/2000/svg">
<g clip-path="url(#clip0_2234_33)">
<path d="M0 11.5625V23.2422H11.7305H23.4609V11.5625V-0.117189H11.7305H0V11.5625Z" fill="white"/>
<path d="M25.9349 0.00859261C25.8627 0.0624981 25.8086 5.32734 25.8086 11.6883V23.2422H37.5391H49.2695V11.5625V-0.117189H37.6654C31.2768 -0.117189 25.9891 -0.0632839 25.9349 0.00859261Z" fill="white"/>
<path d="M214.215 7.79076C212.32 8.20404 210.317 9.6056 209.469 11.1509C208.729 12.5165 208.44 13.9181 208.44 16.0923V18.015L206.689 18.0689L204.921 18.1228L204.867 20.1353L204.812 22.1658H206.635H208.44V30.7009V39.2361H210.966H213.493V30.7009V22.1658H217.193H220.892V27.5923C220.91 34.079 221.037 35.3009 221.831 36.9001C222.498 38.1939 223.545 39.0564 224.917 39.4337C226.072 39.7392 228.58 39.6853 229.88 39.3259L230.999 39.0025V36.99V34.9775L229.97 35.3189C228.31 35.8759 227.01 35.5345 226.36 34.3306C226.072 33.8275 226.036 33.0908 225.981 27.9517L225.927 22.1658H228.454H230.999V20.0994V18.0329H228.472H225.945V14.9603V11.8876L225.458 12.0134C225.169 12.0673 224.032 12.4087 222.932 12.7501L220.892 13.379V15.7509V18.1228L217.175 18.0689L213.457 18.015L213.511 15.9126C213.583 13.6126 213.818 12.9478 214.792 12.229C215.46 11.7439 217.012 11.6181 218.077 11.9775L218.907 12.265V10.1267C218.907 8.31185 218.871 7.98841 218.6 7.89857C218.059 7.68295 215.045 7.62904 214.215 7.79076Z" fill="white"/>
<path d="M101.858 9.56514C100.92 10.1401 100.469 10.9308 100.469 12.0269C100.469 13.7878 101.804 14.9198 103.735 14.7581C105.378 14.6144 106.388 13.5722 106.388 12.0089C106.388 10.9308 106.027 10.3019 105.035 9.61905C104.259 9.09795 102.67 9.06202 101.858 9.56514Z" fill="white"/>
<path d="M64.0664 24.4977V39.232H66.5027H68.9391L68.903 27.9117C68.8669 21.6766 68.903 16.5914 68.9571 16.5914C69.0113 16.5914 71.1047 21.6945 73.6313 27.9117L78.2152 39.25L80.0198 39.1961L81.8245 39.1422L86.2821 27.9477C88.7365 21.7844 90.7938 16.6992 90.848 16.6453C90.9021 16.5734 90.9563 21.6406 90.9563 27.8758V39.232H93.4828H96.0094V24.4977V9.76328H92.5263H89.0433L84.9105 19.8617C82.6366 25.432 80.6154 30.3375 80.4349 30.7687L80.074 31.5773L78.5039 27.6242C77.6377 25.468 75.6886 20.5625 74.1727 16.7172L71.4115 9.76328H67.7299H64.0664V24.4977Z" fill="white"/>
<path d="M117.667 17.9416C114.003 18.7681 111.134 21.3736 109.907 25.0392C109.347 26.6564 109.203 30.1963 109.618 31.9392C110.268 34.6525 112.235 37.2759 114.509 38.4619C117.324 39.9174 121.529 40.0611 124.651 38.8392L125.698 38.4259L125.788 36.1259C125.842 34.8681 125.86 33.8439 125.842 33.8439C125.824 33.8439 125.283 34.1314 124.633 34.4728C121.619 36.1439 118.244 35.8564 116.277 33.79C114.797 32.2447 114.22 30.0166 114.599 27.3931C114.96 24.8955 116.403 22.9549 118.497 22.1822C120.464 21.4455 123.261 21.7869 125.066 23.0088C125.409 23.2244 125.734 23.422 125.788 23.422C125.842 23.422 125.86 22.3439 125.824 21.0142L125.77 18.6064L124.561 18.2111C122.991 17.69 119.435 17.5463 117.667 17.9416Z" fill="white"/>
<path d="M139.143 17.8695C137.374 18.1211 135.985 19.1453 135.1 20.8523L134.649 21.7148L134.631 19.8641V18.0133L132.159 18.0672L129.668 18.1211L129.614 28.6687L129.578 39.2344H132.087H134.613L134.667 32.7117L134.721 26.207L135.227 25.1289C136.021 23.4578 136.941 22.6133 138.313 22.3617C139.233 22.2 140.731 22.3977 141.525 22.8109L142.03 23.0805V20.6547C142.03 18.9117 141.958 18.193 141.814 18.0852C141.435 17.8695 140.009 17.7437 139.143 17.8695Z" fill="white"/>
<path d="M150.348 17.9375C146.432 18.818 143.653 21.5493 142.66 25.4844C142.245 27.1196 142.227 30.4079 142.642 32.1149C143.49 35.6907 146.198 38.404 149.825 39.3563C151.377 39.7516 154.535 39.7516 156.195 39.3204C159.426 38.5118 162.043 36.2477 163.162 33.3368C163.811 31.5579 164.1 29.6352 163.974 27.6407C163.793 24.3883 162.927 22.286 161.086 20.4352C159.931 19.3032 159.101 18.7821 157.369 18.1711C156.033 17.686 152.027 17.5602 150.348 17.9375ZM155.654 22.2321C156.863 22.7711 157.946 24.029 158.379 25.3407C158.65 26.1672 158.722 26.904 158.722 28.8086C158.704 30.911 158.65 31.3782 158.289 32.2766C157.766 33.6063 157.008 34.4508 155.853 35.0438C155.059 35.4571 154.698 35.511 153.308 35.511C151.521 35.511 150.547 35.2055 149.464 34.3071C147.768 32.8516 146.992 29.3836 147.713 26.329C148.219 24.2446 149.157 22.9868 150.781 22.2321C152.063 21.6211 154.373 21.6211 155.654 22.2321Z" fill="white"/>
<path d="M171.678 17.9446C169.549 18.5375 167.654 20.0289 166.914 21.6821C166.318 23.0297 166.318 25.4735 166.932 26.7492C167.672 28.2586 168.502 28.9055 171.696 30.4328C173.303 31.2055 174.764 32.0141 174.945 32.2117C175.414 32.7328 175.54 34.0805 175.161 34.6555C174.133 36.2188 170.307 36.0571 167.437 34.3141L166.391 33.6852V36.111V38.5188L167.04 38.7883C169.044 39.6149 172.906 39.8844 175.017 39.3453C177.345 38.7524 179.06 37.4946 179.926 35.7336C180.287 34.9789 180.359 34.5657 180.359 33.1282C180.359 31.7266 180.305 31.2953 179.98 30.6844C179.078 28.9774 177.923 28.1149 174.674 26.6594C172.292 25.6172 171.642 25.0602 171.498 23.9821C171.155 21.5203 174.891 20.8016 178.536 22.6344L179.402 23.0836L179.348 20.7836L179.294 18.5016L178.211 18.1602C176.731 17.693 172.996 17.5672 171.678 17.9446Z" fill="white"/>
<path d="M190.485 18.013C187.94 18.6419 185.721 20.1693 184.421 22.1818C182.544 25.1107 182.129 29.8904 183.447 33.4302C185.071 37.7607 189.673 40.2404 194.888 39.5935C197.866 39.2341 199.49 38.4974 201.313 36.6466C203.515 34.4364 204.363 32.1544 204.363 28.4529C204.363 24.8411 203.515 22.4693 201.53 20.4747C200.194 19.163 199.039 18.5161 197.144 18.031C195.358 17.5638 192.29 17.5638 190.485 18.013ZM196.278 22.2896C197.289 22.8286 198.227 23.9068 198.714 25.1466C199.057 26.045 199.129 26.5482 199.129 28.5427C199.147 32.2263 198.389 33.9513 196.278 35.0114C195.321 35.4786 195.015 35.5325 193.661 35.5325C191.712 35.5146 190.503 35.0474 189.492 33.8974C188.319 32.5497 187.976 31.4357 187.958 28.8122C187.958 25.2185 188.77 23.4575 190.972 22.3435C192.055 21.8044 192.181 21.7864 193.824 21.8403C195.123 21.8943 195.718 22.0021 196.278 22.2896Z" fill="white"/>
<path d="M100.883 28.6328V39.2344H103.409H105.936L105.9 28.6687L105.846 18.1211L103.373 18.0672L100.883 18.0133V28.6328Z" fill="white"/>
<path d="M0 37.4375V49.1172H11.7305H23.4609V37.4375V25.7578H11.7305H0V37.4375Z" fill="white"/>
<path d="M25.8447 37.3836L25.8988 49.0273L37.5932 49.0812L49.2695 49.1172V37.4375V25.7578H37.5391H25.8086L25.8447 37.3836Z" fill="white"/>
</g>
<defs>
<clipPath id="clip0_2234_33">
<rect width="231" height="49" fill="white"/>
</clipPath>
</defs>
</svg>
