<svg width="90" height="90" viewBox="0 0 90 90" fill="none" xmlns="http://www.w3.org/2000/svg">
<path fill-rule="evenodd" clip-rule="evenodd" d="M84.6617 81.8656V84.8028C84.1245 84.9434 83.6417 85.0119 83.2198 85.0119C80.3698 85.0119 78.9458 83.5063 78.9458 80.4941C78.9458 77.7125 80.4561 76.3231 83.4739 76.3231C84.7348 76.3231 85.9067 76.5575 86.9905 77.0263V74.9197C85.9067 74.5109 84.6758 74.3056 83.2976 74.3056C78.7845 74.3056 76.5251 76.3672 76.5251 80.495C76.5251 84.8525 78.7442 87.0341 83.1823 87.0341C84.7095 87.0341 85.977 86.8119 86.9905 86.3666V79.8022H83.2273L82.4408 81.8666H84.6617V81.8656ZM68.7233 85.01C71.2555 85.01 72.5211 83.5512 72.5211 80.6328C72.5211 77.7144 71.2545 76.3203 68.7233 76.3203C66.192 76.3203 64.828 77.7584 64.828 80.6328C64.828 83.5072 66.1255 85.01 68.7233 85.01ZM62.4083 80.6872C62.4083 76.4319 64.5148 74.3047 68.7233 74.3047C72.9317 74.3047 74.9389 76.4309 74.9389 80.6872C74.9389 84.9434 72.868 87.0331 68.7233 87.0331C64.5786 87.0331 62.5976 84.9163 62.4083 80.6872ZM51.8164 84.9238H54.5867C57.1939 84.9238 58.4998 83.3919 58.4998 80.3253C58.4998 77.7144 57.1939 76.4094 54.5867 76.4094H51.8164V84.9228V84.9238ZM54.9373 86.9431H49.4858V74.3956H54.9373C58.8664 74.3956 60.8305 76.3737 60.8305 80.3272C60.8305 84.7362 58.8664 86.9441 54.9373 86.9441M37.0358 86.9431H34.6423L39.9814 74.3956H42.4864L47.9389 86.9431H45.432L43.8495 83.5203H39.822L40.6208 81.5037H43.2327L41.1748 76.79L37.0348 86.9431H37.0358ZM26.2967 74.3947H35.8386V76.4122H32.233V86.9422H29.9042V76.4122H26.2967V74.3947ZM16.7108 86.9431H14.3173L19.6545 74.3956H22.1595L27.6139 86.9431H25.107L23.5245 83.5203H19.497L20.2977 81.5037H22.9095L20.8517 76.79L16.7108 86.9431ZM5.25641 84.9238H8.02484C10.6339 84.9238 11.937 83.3919 11.937 80.3253C11.937 77.7144 10.6339 76.4094 8.02484 76.4094H5.25641V84.9228V84.9238ZM8.37641 86.9431H2.92578V74.3956H8.37641C12.3036 74.3956 14.2695 76.3737 14.2695 80.3272C14.2695 84.7362 12.3036 86.9441 8.37641 86.9441" fill="white"/>
<path fill-rule="evenodd" clip-rule="evenodd" d="M44.7708 23.2412C45.2198 22.8147 42.533 22.2541 40.448 23.6763C38.9105 24.7253 38.8608 26.9734 40.3327 28.2484C40.4808 28.3741 40.6017 28.4641 40.7152 28.5381C41.1445 28.3356 41.6348 28.1313 42.1983 27.9484C43.1508 27.64 43.942 27.4797 44.5927 27.3944C44.9039 27.0466 45.2667 26.4334 45.1767 25.3244C45.0539 23.8187 43.913 24.0578 44.7708 23.2422M58.8736 31.4144C58.6195 31.2737 57.4298 31.3291 56.5936 31.4284C55.0008 31.6169 53.2814 32.1691 52.9045 32.4625C52.2192 32.9922 52.5305 33.9156 53.0367 34.2944C54.4561 35.3547 55.7002 36.0653 57.0136 35.8928C57.8199 35.7869 58.5314 34.51 59.0339 33.3522C59.378 32.5544 59.378 31.6937 58.8736 31.4144ZM53.4333 21.9916C53.3414 22.2006 53.197 22.3375 53.4136 23.0191L53.4277 23.0584L53.4614 23.1466L53.5514 23.3509C53.9414 24.1478 54.3698 24.8997 55.0852 25.2841C55.2708 25.2531 55.462 25.2316 55.6608 25.2222C56.333 25.1922 56.7577 25.2991 57.0267 25.4444C57.0511 25.3103 57.0558 25.1144 57.0408 24.8247C56.9883 23.815 57.2405 22.0975 55.2998 21.1937C54.5667 20.8534 53.5392 20.9584 53.1961 21.3831C53.2589 21.3916 53.3142 21.4037 53.3583 21.4188C53.8767 21.5988 53.5252 21.7769 53.4323 21.9906M73.4217 35.8319L71.7502 36.1506L68.5392 2.96875L13.8164 9.31469L20.558 64.0234L26.9639 63.0934C26.452 62.3631 25.6561 61.4791 24.2958 60.3484C22.4095 58.7809 23.0761 56.1194 24.1898 54.4375C25.6617 51.5978 33.247 47.9875 32.8177 43.4481C32.663 41.7972 32.4014 39.6484 30.8686 38.1766C30.8114 38.7878 30.9145 39.3756 30.9145 39.3756C30.9145 39.3756 30.2845 38.5731 29.9714 37.4791C29.6602 37.0591 29.4164 36.925 29.0845 36.3644C28.8483 37.0131 28.8802 37.7641 28.8802 37.7641C28.8802 37.7641 28.3655 36.5491 28.282 35.5216C27.9773 35.9809 27.8995 36.8538 27.8995 36.8538C27.8995 36.8538 27.2311 34.9366 27.383 33.9044C27.0783 33.0063 26.1736 31.2231 26.4286 27.1703C28.0992 28.3403 31.7752 28.0628 33.2077 25.9516C33.683 25.2522 34.0092 23.3434 32.9695 19.5822C32.302 17.17 30.6502 13.5784 30.0061 12.2153L29.9292 12.2706C30.2686 13.3684 30.968 15.6691 31.237 16.7856C32.0498 20.17 32.2683 21.3484 31.8858 22.9084C31.5614 24.265 30.7833 25.1519 28.8089 26.1438C26.8355 27.1384 24.2161 24.7169 24.0511 24.5828C22.133 23.0547 20.6498 20.5628 20.4848 19.3525C20.3133 18.0278 21.2489 17.2319 21.7205 16.1481C21.0455 16.3413 20.2927 16.6844 20.2927 16.6844C20.2927 16.6844 21.1908 15.7544 22.2989 14.9509C22.7583 14.6472 23.0273 14.4541 23.5102 14.0519C22.8098 14.0406 22.2417 14.0603 22.2417 14.0603C22.2417 14.0603 23.4089 13.4294 24.6183 12.9709C23.7333 12.9316 22.8858 12.9644 22.8858 12.9644C22.8858 12.9644 25.4902 11.7991 27.548 10.945C28.9627 10.3647 30.3445 10.5362 31.1208 11.6584C32.1398 13.1294 33.2105 13.9281 35.4792 14.4231C36.8723 13.8053 37.2952 13.4884 39.0455 13.0112C40.5858 11.3172 41.7961 11.0978 41.7961 11.0978C41.7961 11.0978 41.1961 11.6481 41.0358 12.5125C41.9095 11.8244 42.8667 11.2497 42.8667 11.2497C42.8667 11.2497 42.4964 11.7072 42.1505 12.4347L42.2302 12.5537C43.2502 11.9425 44.4483 11.4606 44.4483 11.4606C44.4483 11.4606 44.1061 11.8937 43.7039 12.4544C44.4727 12.4478 46.0317 12.4872 46.6364 12.5556C50.2083 12.6344 50.9489 8.74187 52.3195 8.25344C54.0361 7.64031 54.803 7.27 57.727 10.1425C60.2367 12.6081 62.197 17.0219 61.223 18.0109C60.4073 18.8312 58.7967 17.6903 57.0127 15.4666C56.0695 14.2881 55.357 12.8959 55.0224 11.1269C54.7402 9.63344 53.6442 8.76719 53.6442 8.76719C53.6442 8.76719 54.2798 10.1856 54.2798 11.4353C54.2798 12.1187 54.3652 14.6706 55.4602 16.1041C55.3514 16.3131 55.3017 17.14 55.1817 17.2984C53.9086 15.7591 51.173 14.6575 50.7267 14.3331C52.2361 15.5706 55.7058 18.4113 57.0389 21.1356C58.2998 23.7109 57.5564 26.0725 58.1948 26.6828C58.3767 26.8581 60.9061 30.01 61.3927 31.5925C62.2411 34.3525 61.4433 37.2531 60.3323 39.0522L57.2292 39.5359C56.7755 39.4103 56.4689 39.3466 56.063 39.1112C56.287 38.7147 56.7333 37.7247 56.738 37.5194L56.5627 37.2119C55.597 38.5797 53.9789 39.9081 52.6355 40.6712C50.8767 41.6688 48.8489 41.5141 47.5298 41.1062C43.7845 39.9512 40.2427 37.42 39.3886 36.7544C39.3886 36.7544 39.3623 37.2859 39.5236 37.405C40.4677 38.47 42.6314 40.3966 44.723 41.74L40.2642 42.2303L42.3727 58.6413C41.438 58.7753 41.2927 58.8409 40.2689 58.9863C39.368 55.8016 37.643 53.7213 35.7586 52.5109C34.0964 51.4422 31.8033 51.2022 29.6086 51.6362L29.468 51.7994C30.9933 51.6409 32.7952 51.8613 34.6458 53.0331C36.4617 54.1816 37.9252 57.1478 38.4652 58.9338C39.1552 61.2166 39.6323 63.6578 37.7752 66.2463C36.4542 68.0866 32.5973 69.1028 29.4811 66.9034C30.3136 68.2412 31.4377 69.3363 32.9527 69.5425C35.2017 69.8481 37.3355 69.4572 38.8045 67.9497C40.058 66.6597 40.7236 63.9644 40.5483 61.1247L42.533 60.8369L43.2492 65.9331L76.1039 61.9769L73.4236 35.8319H73.4217ZM41.963 43.3666L46.0973 42.7975C46.7658 43.0984 47.2317 43.2128 48.0333 43.4172C49.282 43.7425 50.7277 44.0547 52.8689 42.9756C53.3677 42.7291 54.4045 41.7794 54.8245 41.2384L71.7595 38.1663L73.4873 59.0762L44.4736 64.3056L41.9639 43.3666H41.963ZM65.9892 50.3069L60.442 46.6478L55.8155 54.3775L50.4342 52.8044L45.6961 60.0362L45.9389 62.3125L71.7024 57.5659L70.2061 41.4691L65.9902 50.3078L65.9892 50.3069Z" fill="white"/>
</svg>
