<svg width="190" height="30" viewBox="0 0 190 30" fill="none" xmlns="http://www.w3.org/2000/svg">
<path d="M15.1513 12.1778C14.2371 11.8521 13.4067 11.3271 12.7205 10.6408C12.0342 9.95451 11.5092 9.12417 11.1835 8.20992C10.8956 8.89816 10.4695 9.52005 9.93179 10.0372C8.71048 11.2585 7.18528 11.7466 5.5993 11.8074L5.62209 11.8302C4.48436 11.8616 3.3812 12.2282 2.45089 12.8839C1.52058 13.5396 0.804488 14.4553 0.392357 15.5162C-0.0197747 16.5772 -0.109605 17.7362 0.134117 18.8479C0.377839 19.9597 0.944252 20.9748 1.76241 21.7661C2.58057 22.5573 3.61406 23.0895 4.73336 23.2958C5.85266 23.5022 7.00799 23.3736 8.05453 22.9262C9.10106 22.4788 9.99226 21.7325 10.6164 20.7807C11.2406 19.8289 11.57 18.7141 11.5634 17.576C11.6792 16.0564 12.1465 14.6015 13.3203 13.4295C13.8547 12.9108 14.474 12.4874 15.1513 12.1778Z" fill="url(#paint0_linear_2016_976)"/>
<path d="M45.0303 1.80121C43.9454 0.716601 42.4741 0.1073 40.94 0.1073C39.4059 0.1073 37.9346 0.716601 36.8497 1.80121C35.8056 2.83717 35.2044 4.23787 35.1725 5.70832C35.0795 7.29434 34.6217 8.82148 33.4023 10.0409C32.876 10.5703 32.254 10.995 31.5694 11.2926C32.4878 11.6232 33.3221 12.1519 34.0131 12.8413C34.7041 13.5307 35.2349 14.3638 35.5676 15.2814C35.8487 14.59 36.2757 13.9674 36.8193 13.4561C38.0406 12.2347 39.5658 11.7466 41.1537 11.6858C42.6239 11.6513 44.0238 11.0496 45.0607 10.0067C46.1336 8.90872 46.7318 7.43289 46.7261 5.89774C46.7204 4.36259 46.1113 2.89123 45.0303 1.80121ZM43.0151 7.96674C42.4621 8.51311 41.7165 8.82012 40.9391 8.82148C40.554 8.82344 40.1723 8.7489 39.8163 8.60217C39.4602 8.45544 39.1368 8.23945 38.8649 7.96674C38.4513 7.5556 38.1691 7.03096 38.0539 6.45926C37.9387 5.88757 37.9958 5.29455 38.2179 4.75532C38.44 4.21609 38.8171 3.75492 39.3016 3.43022C39.786 3.10552 40.3559 2.93191 40.9391 2.93137C41.3246 2.92873 41.7067 3.00296 42.0632 3.14972C42.4196 3.29648 42.7433 3.51282 43.0151 3.78611C43.5622 4.34395 43.8686 5.09413 43.8686 5.87547C43.8686 6.65682 43.5622 7.40699 43.0151 7.96484V7.96674Z" fill="url(#paint1_linear_2016_976)"/>
<path d="M33.3088 13.5203C32.2642 12.4751 30.858 11.8713 29.3808 11.8336L29.4036 11.8108C27.8157 11.7462 26.2905 11.2923 25.0692 10.0367C23.8479 8.81731 23.3598 7.29018 23.299 5.70416L23.2762 5.72696C23.2437 4.58978 22.8762 3.4875 22.22 2.55821C21.5638 1.62892 20.6479 0.913959 19.5872 0.502891C18.5264 0.0918229 17.3679 0.00293458 16.2569 0.247363C15.1458 0.491791 14.1316 1.05866 13.3413 1.87696C12.551 2.69526 12.0198 3.72859 11.8141 4.84749C11.6085 5.96638 11.7376 7.12109 12.1853 8.16693C12.633 9.21277 13.3793 10.1032 14.3309 10.7268C15.2824 11.3503 16.3968 11.6792 17.5344 11.6721C19.0539 11.788 20.5088 12.2572 21.6807 13.4291C22.8526 14.6011 23.3465 16.0579 23.4376 17.5774C23.4329 18.5296 23.6632 19.4682 24.1083 20.3099C24.5534 21.1516 25.1994 21.8705 25.9889 22.4026C26.7785 22.9347 27.6872 23.2637 28.6344 23.3603C29.5816 23.4569 30.5381 23.3181 31.4188 22.9564C32.2995 22.5946 33.0773 22.021 33.6831 21.2864C34.2889 20.5518 34.704 19.6791 34.8915 18.7456C35.0791 17.8121 35.0333 16.8467 34.7582 15.9352C34.4831 15.0237 33.9871 14.1941 33.3145 13.5203H33.3088Z" fill="url(#paint2_linear_2016_976)"/>
<path d="M96.9108 23.4697C93.9819 23.4697 92.1509 21.6691 92.1509 18.8009V1.22178C92.1462 1.06028 92.1745 0.899507 92.2341 0.749322C92.2936 0.599138 92.3833 0.462697 92.4974 0.348358C92.6116 0.234019 92.7479 0.144188 92.898 0.0843654C93.0481 0.0245431 93.2088 -0.00401051 93.3703 0.000453123C93.5308 -0.0010826 93.6901 0.0295016 93.8386 0.0904068C93.9872 0.151312 94.1221 0.241309 94.2353 0.355103C94.3486 0.468898 94.438 0.604192 94.4982 0.75303C94.5584 0.901868 94.5882 1.06124 94.5859 1.22178V7.20306H98.8899C99.0482 7.19669 99.2061 7.22237 99.3542 7.27854C99.5023 7.33471 99.6374 7.42022 99.7516 7.52994C99.8659 7.63965 99.9568 7.77131 100.019 7.91702C100.081 8.06273 100.113 8.21947 100.113 8.37785C100.113 8.53623 100.081 8.69297 100.019 8.83868C99.9568 8.98439 99.8659 9.11605 99.7516 9.22577C99.6374 9.33548 99.5023 9.42099 99.3542 9.47716C99.2061 9.53333 99.0482 9.55901 98.8899 9.55264H94.5859V18.6794C94.5859 20.3584 95.4102 21.1486 97.1501 21.1486C97.5966 21.1543 98.0407 21.0823 98.4626 20.9359C98.5973 20.8765 98.7428 20.8455 98.8899 20.8447C99.1939 20.8551 99.4826 20.9805 99.6977 21.1956C99.9128 21.4107 100.038 21.6994 100.049 22.0033C100.052 22.2437 99.9757 22.4783 99.8326 22.6714C99.6896 22.8646 99.4872 23.0055 99.2565 23.0727C98.5007 23.3291 97.7088 23.4631 96.9108 23.4697Z" fill="url(#paint3_linear_2016_976)"/>
<path d="M109.853 23.4698C107.616 23.4213 105.446 22.6984 103.627 21.3957C103.488 21.2788 103.375 21.1337 103.296 20.97C103.217 20.8062 103.174 20.6276 103.169 20.446C103.175 20.124 103.306 19.817 103.534 19.5893C103.761 19.3616 104.068 19.2309 104.39 19.2246C104.663 19.2265 104.928 19.3121 105.15 19.4696C106.67 20.5675 108.263 21.1164 109.94 21.1164C111.84 21.1164 113.146 20.1098 113.146 18.7061V18.6453C113.146 17.3328 111.864 16.7212 109.452 16.0507L109.331 15.9899C106.89 15.2871 103.868 14.402 103.868 11.38V11.3192C103.872 8.60686 106.191 6.61816 109.403 6.61816C111.225 6.65529 113.009 7.14831 114.592 8.05223L114.622 8.08262C114.806 8.19527 114.958 8.35231 115.064 8.53921C115.171 8.72612 115.228 8.93687 115.232 9.15199C115.228 9.37193 115.167 9.58697 115.053 9.77522C114.939 9.96346 114.777 10.1182 114.584 10.2236C114.391 10.329 114.174 10.3813 113.954 10.3753C113.734 10.3692 113.52 10.305 113.333 10.1891C112.02 9.42931 110.647 8.99814 109.334 8.99814C107.564 8.99814 106.343 9.88327 106.343 11.1654V11.2262C106.343 12.5083 107.961 13.0572 110.25 13.7296C112.265 14.2994 115.621 15.2244 115.621 18.4895V18.5503C115.621 21.3957 113.211 23.4698 109.853 23.4698Z" fill="url(#paint4_linear_2016_976)"/>
<path d="M120.931 23.2869C120.768 23.2923 120.605 23.2646 120.453 23.2055C120.301 23.1464 120.162 23.0572 120.045 22.9431C119.928 22.829 119.836 22.6925 119.773 22.5417C119.71 22.3909 119.678 22.2289 119.68 22.0656V1.22133C119.68 0.897412 119.808 0.586762 120.037 0.357719C120.266 0.128675 120.577 0 120.901 0C121.225 0 121.536 0.128675 121.765 0.357719C121.994 0.586762 122.122 0.897412 122.122 1.22133V22.0656C122.134 22.2264 122.112 22.3878 122.056 22.5393C122.001 22.6908 121.914 22.8288 121.802 22.9442C121.689 23.0596 121.553 23.1499 121.403 23.2089C121.253 23.268 121.092 23.2946 120.931 23.2869Z" fill="url(#paint5_linear_2016_976)"/>
<path d="M143.971 23.5321C139.333 23.5321 135.671 19.8378 135.671 15.1082V15.0474C135.671 10.2856 139.333 6.56272 144.028 6.56272C148.666 6.56272 152.328 10.2552 152.328 14.9866V15.0474C152.328 19.8074 148.674 23.5321 143.971 23.5321ZM143.971 8.94269C140.706 8.94269 138.235 11.5373 138.235 15.0208V15.0816C138.235 18.5006 140.767 21.2149 144.034 21.2149C147.301 21.2149 149.77 18.6221 149.77 15.1367V15.0759C149.772 11.6285 147.24 8.94269 143.971 8.94269Z" fill="url(#paint6_linear_2016_976)"/>
<path d="M80.6153 23.5321C76.0682 23.5321 72.6493 19.8986 72.6493 15.0778V15.017C72.6493 10.2856 76.0379 6.56272 80.3704 6.56272C84.7029 6.56272 87.8483 10.1032 87.8483 14.9544C87.8308 15.2697 87.6956 15.5671 87.4695 15.7876C87.2433 16.0082 86.9427 16.1358 86.6269 16.1453H78.2963C77.994 16.1453 77.7041 16.0252 77.4904 15.8115C77.2767 15.5978 77.1566 15.3079 77.1566 15.0056C77.1566 14.7034 77.2767 14.4135 77.4904 14.1998C77.7041 13.9861 77.994 13.866 78.2963 13.866H85.2233C84.8871 11.486 83.4531 8.9275 80.2849 8.9275C77.6827 8.9123 75.6105 10.9865 75.1831 13.9173L75.1224 14.4054C75.0615 14.8713 75.0615 15.3432 75.1224 15.8091V15.8395C75.4263 18.983 77.6846 21.1807 80.585 21.1807C82.3552 21.1807 83.814 20.5709 85.1929 19.2281C85.2994 19.1178 85.4277 19.031 85.5696 18.9731C85.7116 18.9153 85.864 18.8876 86.0173 18.8919C86.1759 18.8888 86.3336 18.9174 86.4811 18.9758C86.6287 19.0342 86.7631 19.1213 86.8768 19.2321C86.9904 19.3429 87.0809 19.4751 87.143 19.6212C87.2051 19.7672 87.2375 19.9241 87.2385 20.0828C87.2371 20.2453 87.201 20.4057 87.1326 20.5531C87.0641 20.7005 86.9648 20.8316 86.8415 20.9375C85.0713 22.7382 83.2099 23.5321 80.6153 23.5321Z" fill="url(#paint7_linear_2016_976)"/>
<path d="M156.732 29.6956C156.566 29.7 156.402 29.6707 156.248 29.6095C156.094 29.5483 155.954 29.4564 155.837 29.3395C155.72 29.2226 155.628 29.083 155.567 28.9294C155.505 28.7757 155.476 28.6112 155.48 28.4457V14.2836C155.48 9.61487 159.089 6.5625 163.355 6.5625C167.993 6.5625 171.655 10.255 171.655 14.9864V15.0472C171.655 19.8072 167.993 23.5319 163.298 23.5319C161.191 23.5319 159.3 22.7722 157.926 21.3647V28.4457C157.922 29.177 157.432 29.6956 156.732 29.6956ZM157.922 15.7785C158.196 18.8613 160.272 21.0285 163.079 21.1804H163.385C164.36 21.1919 165.319 20.9392 166.162 20.4492C166.253 20.3884 166.314 20.358 166.405 20.2953C167.102 19.8369 167.681 19.2198 168.094 18.4947C168.154 18.4035 168.185 18.3427 168.248 18.2515C168.34 18.0869 168.416 17.9131 168.474 17.733C168.815 16.9 168.991 16.0084 168.992 15.108V15.0472C168.992 14.3224 168.881 13.6018 168.663 12.9104C168.605 12.7227 168.533 12.5392 168.449 12.3614C168.387 12.1799 168.305 12.006 168.204 11.8429C167.71 10.9364 166.984 10.1778 166.099 9.64526C166.025 9.59146 165.942 9.54979 165.854 9.5218C165.689 9.43274 165.516 9.36143 165.336 9.30906C164.978 9.17931 164.611 9.07708 164.238 9.00326C164.046 8.968 163.852 8.94768 163.657 8.94248H163.353C160.392 8.94248 158.255 11.1097 157.951 14.314V15.7785H157.922Z" fill="url(#paint8_linear_2016_976)"/>
<path d="M132.867 23.3174C132.702 23.3193 132.539 23.2878 132.387 23.2248C132.234 23.1618 132.097 23.0686 131.982 22.9508L124.409 15.2905C124.189 15.0765 124.06 14.786 124.05 14.4795C124.039 14.1729 124.147 13.8742 124.352 13.6456L124.382 13.5829L131.279 7.20461C131.482 6.97395 131.766 6.83153 132.073 6.80763C132.231 6.78898 132.391 6.80369 132.543 6.8508C132.696 6.89791 132.836 6.97638 132.956 7.08115C133.204 7.29363 133.359 7.59481 133.387 7.92007C133.415 8.24534 133.315 8.56878 133.108 8.82102L133.047 8.8818L126.944 14.4357L133.689 21.2736C133.807 21.3887 133.9 21.5265 133.963 21.6786C134.026 21.8308 134.058 21.9941 134.056 22.1588C134.06 22.319 134.03 22.4783 133.966 22.6256C133.903 22.7729 133.809 22.9046 133.689 23.0116C133.465 23.2158 133.17 23.3254 132.867 23.3174Z" fill="url(#paint9_linear_2016_976)"/>
<path d="M67.8574 23.5325C67.6927 23.534 67.5294 23.5027 67.3769 23.4403C67.2245 23.3779 67.086 23.2857 66.9697 23.1692C66.8533 23.0526 66.7613 22.914 66.6992 22.7614C66.637 22.6089 66.6059 22.4455 66.6077 22.2808V13.7334C66.6077 10.7418 64.959 8.97154 62.1821 8.97154C59.4052 8.97154 57.7565 10.7418 57.7565 13.7334V22.2808C57.7583 22.4457 57.7271 22.6092 57.6648 22.7619C57.6026 22.9146 57.5104 23.0533 57.3939 23.1698C57.2773 23.2864 57.1386 23.3786 56.9859 23.4408C56.8332 23.5031 56.6697 23.5343 56.5048 23.5325C56.3409 23.5361 56.1779 23.5059 56.0261 23.4438C55.8743 23.3818 55.7369 23.2892 55.6224 23.1718C55.5078 23.0545 55.4186 22.9148 55.3603 22.7615C55.3021 22.6082 55.2759 22.4446 55.2835 22.2808V13.4903C55.2835 9.34002 57.9084 6.65234 61.9313 6.65234H62.3587C66.4177 6.65234 69.0066 9.33812 69.0066 13.4903V22.2808C69.0262 22.4411 69.0108 22.6038 68.9614 22.7576C68.9121 22.9114 68.8299 23.0527 68.7207 23.1717C68.6115 23.2907 68.4777 23.3846 68.3287 23.4468C68.1796 23.5091 68.0188 23.5384 67.8574 23.5325Z" fill="url(#paint10_linear_2016_976)"/>
<path d="M182.705 23.5321C178.161 23.5321 174.742 19.8986 174.742 15.0778V15.017C174.742 10.2856 178.131 6.56272 182.463 6.56272C186.796 6.56272 189.937 10.1032 189.937 14.9544C189.931 15.2733 189.799 15.5768 189.57 15.7995C189.342 16.0222 189.035 16.1464 188.716 16.1453H180.416C180.114 16.1453 179.824 16.0252 179.61 15.8115C179.396 15.5978 179.276 15.3079 179.276 15.0056C179.276 14.7034 179.396 14.4135 179.61 14.1998C179.824 13.9861 180.114 13.866 180.416 13.866H187.343C187.007 11.486 185.573 8.9275 182.405 8.9275C179.81 8.9275 177.736 11.0036 177.308 13.9325L177.242 14.4054C177.181 14.8713 177.181 15.3432 177.242 15.8091V15.8395C177.546 18.983 179.804 21.1807 182.705 21.1807C184.475 21.1807 185.934 20.5709 187.313 19.2281C187.419 19.1178 187.547 19.031 187.689 18.9731C187.831 18.9153 187.984 18.8876 188.137 18.8919C188.295 18.8891 188.453 18.9178 188.6 18.9763C188.748 19.0348 188.882 19.1219 188.996 19.2327C189.109 19.3434 189.2 19.4755 189.262 19.6215C189.324 19.7674 189.357 19.9242 189.358 20.0828C189.357 20.2453 189.321 20.4057 189.252 20.5531C189.184 20.7005 189.085 20.8316 188.961 20.9375C187.161 22.7382 185.269 23.5321 182.705 23.5321Z" fill="url(#paint11_linear_2016_976)"/>
<defs>
<linearGradient id="paint0_linear_2016_976" x1="-362.809" y1="27.6165" x2="1940.69" y2="27.6165" gradientUnits="userSpaceOnUse">
<stop stop-color="white"/>
</linearGradient>
<linearGradient id="paint1_linear_2016_976" x1="-362.809" y1="27.6165" x2="1940.69" y2="27.6165" gradientUnits="userSpaceOnUse">
<stop stop-color="white"/>
</linearGradient>
<linearGradient id="paint2_linear_2016_976" x1="-362.809" y1="27.6165" x2="1940.69" y2="27.6165" gradientUnits="userSpaceOnUse">
<stop stop-color="white"/>
</linearGradient>
<linearGradient id="paint3_linear_2016_976" x1="-362.809" y1="27.6165" x2="1940.69" y2="27.6165" gradientUnits="userSpaceOnUse">
<stop stop-color="white"/>
</linearGradient>
<linearGradient id="paint4_linear_2016_976" x1="-362.809" y1="27.6165" x2="1940.69" y2="27.6165" gradientUnits="userSpaceOnUse">
<stop stop-color="white"/>
</linearGradient>
<linearGradient id="paint5_linear_2016_976" x1="-362.809" y1="27.6165" x2="1940.69" y2="27.6165" gradientUnits="userSpaceOnUse">
<stop stop-color="white"/>
</linearGradient>
<linearGradient id="paint6_linear_2016_976" x1="-362.809" y1="27.6165" x2="1940.69" y2="27.6165" gradientUnits="userSpaceOnUse">
<stop stop-color="white"/>
</linearGradient>
<linearGradient id="paint7_linear_2016_976" x1="-362.809" y1="27.6165" x2="1940.69" y2="27.6165" gradientUnits="userSpaceOnUse">
<stop stop-color="white"/>
</linearGradient>
<linearGradient id="paint8_linear_2016_976" x1="-362.809" y1="27.6165" x2="1940.69" y2="27.6165" gradientUnits="userSpaceOnUse">
<stop stop-color="white"/>
</linearGradient>
<linearGradient id="paint9_linear_2016_976" x1="-362.809" y1="27.6165" x2="1940.69" y2="27.6165" gradientUnits="userSpaceOnUse">
<stop stop-color="white"/>
</linearGradient>
<linearGradient id="paint10_linear_2016_976" x1="-362.809" y1="27.6165" x2="1940.69" y2="27.6165" gradientUnits="userSpaceOnUse">
<stop stop-color="white"/>
</linearGradient>
<linearGradient id="paint11_linear_2016_976" x1="-362.809" y1="27.6165" x2="1940.69" y2="27.6165" gradientUnits="userSpaceOnUse">
<stop stop-color="white"/>
</linearGradient>
</defs>
</svg>
