<svg width="189" height="22" viewBox="0 0 189 22" fill="none" xmlns="http://www.w3.org/2000/svg">
<path d="M122.178 21.3946H116.992V0.227651L133.672 0.241389C133.672 0.241389 136.726 0.12747 138.669 2.04684C138.669 2.04684 140.652 3.70275 140.652 7.75012V21.3913H135.479V7.39754C135.479 7.39754 135.543 5.9702 135.056 5.46929C135.056 5.46929 134.626 4.92523 133.809 4.92523H122.165L122.176 21.387L122.178 21.3946ZM144.257 21.3909V0.243456H165.071V4.94735L149.412 4.94614V8.54245H160.291V13.0846H149.412V16.6931H165.168V21.3982H144.245L144.257 21.3909ZM107.953 0.243456H113.118V21.3982H107.953V0.243456ZM172.506 21.3909V4.94127H167.63V0.237377H187.022V4.94127H177.674V21.3909H172.506ZM90.8959 21.3909V4.94127H86.0206V0.237377H105.412V4.94127H96.0643V21.3909H90.8959ZM75.3217 8.52786C76.5837 8.51813 77.3387 8.52907 77.6426 8.34403C77.6426 8.34403 78.173 8.05078 78.1791 7.42149L78.1802 6.03792C78.1802 5.40571 77.6439 5.11538 77.6439 5.11538C77.2412 4.89653 76.5588 4.93763 74.9387 4.93605H64.8769V8.52749H75.5527L75.3217 8.52786ZM78.1046 21.3909V14.1716C78.1046 13.5226 77.5621 13.2506 77.5621 13.2506C77.3175 13.0986 76.5849 13.0713 75.5063 13.0713H75.757H64.8769V21.3897H59.7122V0.24224H75.8336C78.6177 0.250751 80.5399 0.66023 81.8639 1.94556C83.1648 3.27078 83.3374 5.0045 83.3447 6.80873V8.3151C83.3614 9.84821 82.5559 11.2464 81.5952 12.061L81.7882 12.1568C82.1803 12.3467 82.3947 12.6157 82.3947 12.6157C83.1256 13.5488 83.1166 14.3519 83.1151 15.3391V21.3949H78.1047L78.1046 21.3909ZM0.00244141 0.236161V21.3849H5.16711V13.0737H20.8143V8.52907H5.16711V4.93519H23.3553V0.231298H0L0.00244141 0.236161Z" fill="url(#paint0_linear_2016_978)"/>
<path d="M185.278 17.6499V18.6211H186.182C186.427 18.6211 186.664 18.5542 186.7 18.1909C186.752 17.7092 186.404 17.6499 186.182 17.6499H185.278ZM184.915 17.3308H186.174C186.612 17.3308 187.035 17.4128 187.071 18.0495C187.086 18.4143 186.975 18.5466 186.7 18.7547C186.99 18.9401 186.998 18.9842 187.042 19.4735C187.071 19.8443 187.019 19.9036 187.176 20.1482H186.746L186.686 19.7926C186.627 19.4583 186.79 18.9401 186.205 18.9401H185.278V20.1484H184.914L184.915 17.3308ZM185.863 16.5527C184.618 16.5527 183.603 17.5678 183.612 18.8213C183.612 20.0663 184.619 21.0815 185.872 21.0754C187.118 21.0754 188.133 20.0663 188.133 18.814C188.133 17.5678 187.117 16.5527 185.863 16.5527ZM185.872 21.3696C184.456 21.3696 183.314 20.2282 183.314 18.814C183.308 17.4049 184.456 16.256 185.872 16.256C187.281 16.256 188.43 17.4049 188.43 18.814C188.43 20.2292 187.281 21.3648 185.872 21.3696Z" fill="url(#paint1_linear_2016_978)"/>
<path d="M52.6104 21.601C54.2882 21.031 55.594 19.0989 55.9077 16.6697V15.9676H47.306V21.6016H52.6092L52.6104 21.601ZM55.9089 5.63762V5.00237C55.5792 2.46745 54.1764 0.469903 52.3879 0.000607967H47.3071V5.63702L55.9089 5.63762ZM25.6357 15.9682V16.6642C25.9472 19.0958 27.2527 21.0314 28.9354 21.6016H34.2119V15.9676L25.6357 15.9682ZM29.1555 0.00486326C27.3695 0.474402 25.9628 2.47292 25.6357 5.01149V5.64224H34.2119V0.00583577L29.1555 0.00486326ZM55.9149 7.98775H47.3132V13.6242H55.9149V7.98775ZM36.5596 21.6046H44.9741V15.9706H36.5596V21.6046ZM44.9741 0H36.5596V5.63641H44.9741V0ZM25.6431 13.6169H34.2192V7.98045H25.6431V13.6169Z" fill="url(#paint2_linear_2016_978)"/>
<defs>
<linearGradient id="paint0_linear_2016_978" x1="-622.746" y1="23.9036" x2="1680.75" y2="23.9036" gradientUnits="userSpaceOnUse">
<stop stop-color="white"/>
</linearGradient>
<linearGradient id="paint1_linear_2016_978" x1="-622.746" y1="23.9036" x2="1680.75" y2="23.9036" gradientUnits="userSpaceOnUse">
<stop stop-color="white"/>
</linearGradient>
<linearGradient id="paint2_linear_2016_978" x1="-622.746" y1="23.9036" x2="1680.75" y2="23.9036" gradientUnits="userSpaceOnUse">
<stop stop-color="white"/>
</linearGradient>
</defs>
</svg>
