<svg width="132" height="23" viewBox="0 0 132 23" fill="none" xmlns="http://www.w3.org/2000/svg">
<path d="M1.04102 18.0053H10.9379C12.6626 18.0053 13.6071 17.8424 14.1608 17.4845C14.8446 17.0602 15.2354 16.3462 15.2354 15.4996C15.2354 14.4901 14.7138 13.6106 13.8357 13.187C13.3805 12.9269 12.5325 12.7962 11.4908 12.7962H7.48633C4.88274 12.7962 3.18944 12.3403 2.05054 11.3636C0.748085 10.2234 0 8.4658 0 6.57813C0 3.81099 1.52971 1.40181 3.776 0.620208C4.75268 0.26159 5.89158 0.165039 8.43146 0.165039H19.1742V4.0389H9.47247C7.42126 4.07109 7.2584 4.07109 6.57532 4.23398C5.66432 4.46123 5.11066 5.30786 5.11066 6.44677C5.11066 7.42476 5.56582 8.20571 6.34808 8.56367C6.99898 8.85726 7.5198 8.92163 9.08301 8.92163H12.566C15.7568 8.92163 17.4816 9.4103 18.7519 10.7128C19.7286 11.6888 20.3801 13.6106 20.3801 15.4996C20.3801 17.8109 19.3056 19.9587 17.613 21.001C16.5391 21.6841 15.1723 21.8792 11.948 21.8792H1.04102V18.0053Z" fill="url(#paint0_linear_2016_980)"/>
<path d="M32.7822 0C29.7222 0 27.0522 0.749421 25.3596 2.1169C23.2112 3.81016 22.0723 6.96875 22.0723 11.1362C22.0723 14.0327 22.689 16.4111 23.96 18.2009C25.6526 20.6435 28.9418 22.0117 33.1086 22.0117C36.0387 22.0117 38.5135 21.2938 40.1417 19.992C42.2901 18.2679 43.4967 15.1395 43.4967 11.33L43.4868 10.7086L43.4606 10.0971L43.4172 9.50207L43.3588 8.91817L43.2826 8.34871L43.188 7.79699L43.0796 7.26301L42.9542 6.7461L42.8859 6.49388L42.813 6.24758L42.7368 6.0039L42.6573 5.76942L42.5752 5.53559L42.4872 5.309L42.3953 5.08962L42.2993 4.87156L42.2028 4.66401L42.101 4.45908L41.9952 4.26007L41.8862 4.06894L41.772 3.88175L41.657 3.69981L41.5367 3.52641L41.4133 3.35958C39.7516 1.2059 36.6567 0 32.7822 0ZM32.8137 3.67748C36.6882 3.67748 38.4137 5.95858 38.4137 11.0364C38.4137 16.0505 36.6554 18.3618 32.8137 18.3618C28.9077 18.3618 27.1487 16.0492 27.1487 10.9714L27.154 10.5457L27.1573 10.3382L27.1658 10.1333L27.1842 9.73392L27.196 9.54017L27.2105 9.34903L27.2275 9.16053L27.2453 8.97859L27.2656 8.8006L27.2886 8.62457L27.3123 8.45118L27.3386 8.2804L27.3976 7.952L27.4305 7.79436L27.5015 7.4896L27.5402 7.34248L27.5809 7.19798L27.6216 7.05677L27.665 6.92212L27.7123 6.7901L27.7622 6.66137L27.8121 6.53526L27.8653 6.41506L27.9211 6.29487L27.9763 6.18058L28.0348 6.07155L28.0965 5.96515L28.1583 5.86334C29.0377 4.46171 30.6981 3.67748 32.8137 3.67748Z" fill="url(#paint1_linear_2016_980)"/>
<path d="M45.9697 0.165039V21.8805H50.5897V14.2917H58.0156C60.4898 14.2917 61.6583 13.9686 62.9286 12.894C64.4261 11.6251 65.3384 9.50882 65.3384 7.22903C65.3384 5.30852 64.6552 3.51674 63.3856 2.14926C61.9538 0.553871 60.6172 0.165039 56.8083 0.165039H45.9697ZM56.9706 4.03956C57.7193 4.03956 58.3059 4.10327 58.6638 4.23398C59.674 4.59194 60.2606 5.63364 60.2606 7.06549C60.2606 8.27073 59.9013 9.31309 59.316 9.80176L59.2694 9.84248L59.2222 9.88254L59.1722 9.92129L59.1229 9.96005L59.0698 9.99486L59.0172 10.0277L58.9614 10.0599L58.903 10.0901L58.7821 10.1479L58.7203 10.1722L58.656 10.1978L58.5876 10.2215L58.52 10.2405L58.4497 10.2615L58.3762 10.2819L58.3007 10.2983L58.145 10.3265L58.0629 10.341L57.9781 10.3528L57.8928 10.3646L57.8015 10.3738L57.7102 10.3857L57.6162 10.3922L57.5165 10.3981L57.4166 10.4047L57.3141 10.4106L57.2078 10.4126L57.0988 10.4159H56.9871L56.8721 10.4185H50.5884V4.03956H56.9706Z" fill="url(#paint2_linear_2016_980)"/>
<path d="M85.1003 21.8779H80.4771V12.9262H72.1106V21.8779H67.4873V0.165039H72.1106V9.05233H80.4771V0.165039H85.1003V21.8779Z" fill="url(#paint3_linear_2016_980)"/>
<path d="M98.5795 0C95.5201 0 92.8501 0.749421 91.1569 2.1169C89.0084 3.81016 87.8662 6.96875 87.8662 11.1362C87.8662 14.0327 88.4856 16.4111 89.7572 18.2009C91.4478 20.6435 94.737 22.0117 98.9052 22.0117C101.836 22.0117 104.309 21.2938 105.935 19.992C108.083 18.2679 109.289 15.1395 109.289 11.33L109.28 10.7086L109.255 10.0971L109.211 9.50207L109.152 8.91817L109.075 8.34871L108.981 7.79699L108.872 7.26301L108.749 6.7461L108.678 6.49388L108.608 6.24758L108.533 6.0039L108.369 5.53559L108.28 5.309L108.189 5.08962L108.095 4.87156L107.995 4.66401L107.892 4.45908L107.787 4.26007L107.678 4.06894L107.564 3.88175L107.45 3.69981L107.328 3.52641L107.204 3.35958C105.545 1.2059 102.455 0 98.5795 0ZM98.6129 3.67748C102.485 3.67748 104.212 5.95858 104.212 11.0364C104.212 16.0505 102.453 18.3618 98.6129 18.3618C94.7069 18.3618 92.948 16.0492 92.948 10.9714V10.7572L92.9506 10.5457L92.9572 10.3382L92.9624 10.1333L92.9716 9.93294L92.9847 9.73392L92.9966 9.54017L93.0104 9.34903L93.0242 9.16053L93.0419 8.97859L93.0648 8.8006L93.0852 8.62457L93.1082 8.45118L93.1351 8.2804L93.1633 8.1162L93.1942 7.952L93.2264 7.79436L93.2612 7.64198L93.2974 7.4896L93.3361 7.34248L93.3768 7.19798L93.4176 7.05677L93.4635 6.92212L93.5095 6.7901L93.5568 6.66137L93.6067 6.53526L93.6593 6.41506L93.7157 6.29487L93.7709 6.18058L93.8301 6.07155L93.8917 5.96515L93.9574 5.86334C94.8349 4.46171 96.496 3.67748 98.6129 3.67748Z" fill="url(#paint4_linear_2016_980)"/>
<path d="M112.024 18.0053H121.921C123.645 18.0053 124.589 17.8424 125.144 17.4845C125.826 17.0602 126.217 16.3462 126.217 15.4996C126.217 14.4901 125.697 13.6106 124.818 13.187C124.361 12.9269 123.516 12.7962 122.474 12.7962H118.469C115.865 12.7962 114.172 12.3403 113.033 11.3636C111.731 10.2234 110.981 8.4658 110.981 6.57813C110.981 3.81099 112.51 1.40181 114.758 0.620208C115.734 0.26159 116.875 0.165039 119.414 0.165039H130.157V4.0389H120.455C118.404 4.07109 118.241 4.07109 117.559 4.23398C116.646 4.46123 116.093 5.30786 116.093 6.44677C116.093 7.42476 116.549 8.20571 117.332 8.56367C117.981 8.85726 118.502 8.92163 120.066 8.92163H123.549C126.739 8.92163 128.464 9.4103 129.736 10.7128C130.711 11.6888 131.362 13.6099 131.362 15.4989C131.362 17.8102 130.288 19.958 128.594 21.0004C127.521 21.6835 126.153 21.8785 122.929 21.8785H112.024L112.024 18.0053Z" fill="url(#paint5_linear_2016_980)"/>
<defs>
<linearGradient id="paint0_linear_2016_980" x1="-881.176" y1="23.9036" x2="1422.32" y2="23.9036" gradientUnits="userSpaceOnUse">
<stop stop-color="white"/>
</linearGradient>
<linearGradient id="paint1_linear_2016_980" x1="-881.176" y1="23.9036" x2="1422.32" y2="23.9036" gradientUnits="userSpaceOnUse">
<stop stop-color="white"/>
</linearGradient>
<linearGradient id="paint2_linear_2016_980" x1="-881.176" y1="23.9036" x2="1422.32" y2="23.9036" gradientUnits="userSpaceOnUse">
<stop stop-color="white"/>
</linearGradient>
<linearGradient id="paint3_linear_2016_980" x1="-881.176" y1="23.9036" x2="1422.32" y2="23.9036" gradientUnits="userSpaceOnUse">
<stop stop-color="white"/>
</linearGradient>
<linearGradient id="paint4_linear_2016_980" x1="-881.176" y1="23.9036" x2="1422.32" y2="23.9036" gradientUnits="userSpaceOnUse">
<stop stop-color="white"/>
</linearGradient>
<linearGradient id="paint5_linear_2016_980" x1="-881.176" y1="23.9036" x2="1422.32" y2="23.9036" gradientUnits="userSpaceOnUse">
<stop stop-color="white"/>
</linearGradient>
</defs>
</svg>
