<svg width="221" height="48" viewBox="0 0 221 48" fill="none" xmlns="http://www.w3.org/2000/svg">
<g clip-path="url(#clip0_2234_20)">
<path d="M86.8762 35.0338C85.1691 36.9235 82.0641 39.0177 76.8902 39.0177C68.9207 39.0177 62.918 33.5013 62.918 25.1246C62.918 16.7478 69.0698 11.1797 76.8902 11.1797C82.0117 11.1797 85.1166 13.2739 86.6166 14.7545L85.0144 17.8195C83.926 16.4915 80.8708 14.5473 77.0974 14.5473C71.1969 14.5473 66.9013 18.7384 66.9013 25.07C66.9013 31.4017 71.1969 35.5928 77.0974 35.5928C80.7189 35.5928 83.4509 34.213 85.2713 32.3206L86.8762 35.0338Z" fill="white"/>
<path d="M98.7751 39.0139C93.1371 39.0139 88.7891 35.1336 88.7891 29.361C88.7891 23.5883 93.1371 19.6562 98.7751 19.6562C104.413 19.6562 108.72 23.5883 108.72 29.361C108.72 35.1336 104.314 39.0139 98.7751 39.0139ZM98.7751 22.6694C94.9464 22.6694 92.6177 25.5816 92.6177 29.2137C92.6177 32.8458 94.9464 35.8017 98.7751 35.8017C102.604 35.8017 104.883 32.8894 104.883 29.2137C104.883 25.538 102.493 22.6694 98.7751 22.6694Z" fill="white"/>
<path d="M122.892 23.4349H122.735C122.077 23.1704 121.375 23.034 120.665 23.0258C119.433 23.0368 118.282 23.623 117.561 24.6101C117.199 25.12 116.422 26.5516 116.422 29.3084V38.6041H112.594V20.0155H116.422L116.37 22.8895H116.475C117.406 20.7953 119.061 19.6719 121.132 19.6719C121.801 19.6719 122.464 19.7728 123.099 19.9773L122.892 23.4349Z" fill="white"/>
<path d="M142.398 30.179H127.906C128.113 33.8547 130.492 36.1044 133.959 36.1044C136.21 36.0798 138.392 35.3245 140.168 33.9584L141.773 36.1044C141.514 36.3061 139.135 39.0139 133.486 39.0139C127.837 39.0139 124.066 35.1963 124.066 29.2573C124.066 23.3184 128.362 19.6562 133.588 19.6562C138.815 19.6562 142.489 23.332 142.489 28.5429C142.5 29.0528 142.447 29.6173 142.398 30.179ZM138.931 27.6758C138.878 25.6307 137.326 22.364 133.497 22.364C129.669 22.364 128.064 25.4262 127.959 27.6758H138.931Z" fill="white"/>
<path d="M165.477 11.5859L155.491 38.6059H153.834L143.848 11.5859H146.176L154.715 35.0365L163.253 11.5859H165.477Z" fill="white"/>
<path d="M169.049 15.6727C168.104 15.6727 167.339 14.9201 167.336 13.9875C167.336 13.0549 168.098 12.2996 169.043 12.2969C169.988 12.2969 170.753 13.0495 170.756 13.982C170.747 14.9119 169.988 15.6645 169.049 15.6727ZM170.082 38.556H168.013V20.4337H170.082V38.556Z" fill="white"/>
<path d="M191.971 29.9806H177.018C177.222 34.2698 179.656 37.1303 183.846 37.1303C186.228 37.1957 188.545 36.3531 190.316 34.7798L191.299 36.2113C191.299 36.2113 189.02 38.979 183.639 38.979C178.258 38.979 174.844 35.0443 174.844 29.5279C174.844 24.0116 178.88 20.1641 183.744 20.1641C188.609 20.1641 192.076 23.7389 192.076 28.6444C192.065 29.0916 192.029 29.5361 191.971 29.9806ZM190.004 28.1918C190.004 25.8413 188.244 21.8574 183.692 21.8574C179.139 21.8574 177.275 25.6368 177.172 28.1918H190.004Z" fill="white"/>
<path d="M220.999 20.4319L214.841 38.5652H213.029L207.286 23.295L201.543 38.5652H199.728L193.676 20.4319H195.861L200.833 35.6529L206.579 20.3828H208.181L213.927 35.6529L218.825 20.4319H220.999Z" fill="white"/>
<path d="M32.332 33.7033L55.0997 23.7423L32.332 13.7812L34.7132 18.5832L46.6661 23.7423L34.7132 28.9014L32.332 33.7033Z" fill="white"/>
<path d="M24.4696 43.6129C13.5084 43.6783 4.56933 34.9635 4.50303 24.1435C4.43674 13.3235 13.2654 4.49956 24.2265 4.43411C30.3232 4.39594 36.0993 7.1282 39.8893 11.8429H45.2705C38.4695 0.417526 23.5719 -3.40273 11.9974 3.31067C0.422975 10.0268 -3.44714 24.7325 3.35388 36.1578C10.1549 47.5831 25.0525 51.4034 36.6269 44.69C40.1849 42.6067 43.1572 39.6727 45.2677 36.1578H39.8866C36.1794 40.8506 30.4944 43.602 24.4669 43.6156" fill="white"/>
<path d="M17.8438 34.2132L23.7442 23.9986L17.8438 13.7812L42.1639 23.9986L17.8438 34.2132Z" fill="white"/>
</g>
<defs>
<clipPath id="clip0_2234_20">
<rect width="221" height="48" fill="white"/>
</clipPath>
</defs>
</svg>
