<svg width="826" height="98" viewBox="0 0 826 98" fill="none" xmlns="http://www.w3.org/2000/svg">
<path d="M28.0142 96L0.58418 2.4H19.1742L36.7242 66.75L54.2742 2.52999L72.8642 2.4L90.4142 66.75L107.964 2.4H126.554L99.1242 96H81.7042L63.5692 32.82L45.4342 96H28.0142ZM136.988 96V2.4H154.668V40.88H196.528V2.4H214.208V96H196.528V57.39H154.668V96H136.988ZM272.626 97.95C263.266 97.95 255.185 95.9133 248.381 91.84C241.621 87.7667 236.4 82.0683 232.716 74.745C229.076 67.4217 227.256 58.9067 227.256 49.2C227.256 39.4933 229.076 30.9783 232.716 23.655C236.4 16.3317 241.621 10.6333 248.381 6.56C255.185 2.48666 263.266 0.449998 272.626 0.449998C281.986 0.449998 290.046 2.48666 296.806 6.56C303.61 10.6333 308.831 16.3317 312.471 23.655C316.155 30.9783 317.996 39.4933 317.996 49.2C317.996 58.9067 316.155 67.4217 312.471 74.745C308.831 82.0683 303.61 87.7667 296.806 91.84C290.046 95.9133 281.986 97.95 272.626 97.95ZM272.626 81.31C278.563 81.3967 283.503 80.1183 287.446 77.475C291.39 74.8317 294.336 71.0833 296.286 66.23C298.28 61.3767 299.276 55.7 299.276 49.2C299.276 42.7 298.28 37.0667 296.286 32.3C294.336 27.5333 291.39 23.8283 287.446 21.185C283.503 18.5417 278.563 17.1767 272.626 17.09C266.69 17.0033 261.75 18.2817 257.806 20.925C253.863 23.5683 250.895 27.3167 248.901 32.17C246.951 37.0233 245.976 42.7 245.976 49.2C245.976 55.7 246.951 61.3333 248.901 66.1C250.895 70.8667 253.863 74.5717 257.806 77.215C261.75 79.8583 266.69 81.2233 272.626 81.31ZM376.627 96L349.197 2.4H367.787L385.337 66.75L402.887 2.52999L421.477 2.4L439.027 66.75L456.577 2.4H475.167L447.737 96H430.317L412.182 32.82L394.047 96H376.627ZM485.601 96V2.4H546.701V18.91H503.281V38.93H538.901V55.44H503.281V79.49H546.701V96H485.601ZM581.806 96L610.406 2.4H636.796L665.396 96H647.196L621.716 13.45H625.096L600.006 96H581.806ZM598.966 76.5V59.99H648.366V76.5H598.966ZM677.046 96V2.4H716.566C717.476 2.4 718.69 2.44333 720.206 2.52999C721.766 2.57333 723.153 2.70333 724.366 2.92C729.956 3.78666 734.528 5.62833 738.081 8.44499C741.678 11.2617 744.321 14.815 746.011 19.105C747.701 23.3517 748.546 28.0967 748.546 33.34C748.546 41.1833 746.596 47.9 742.696 53.49C738.796 59.0367 732.686 62.46 724.366 63.76L716.566 64.28H694.726V96H677.046ZM729.826 96L711.366 57.91L729.566 54.4L749.846 96H729.826ZM694.726 47.77H715.786C716.696 47.77 717.693 47.7267 718.776 47.64C719.86 47.5533 720.856 47.38 721.766 47.12C724.15 46.47 725.991 45.3867 727.291 43.87C728.591 42.31 729.48 40.5983 729.956 38.735C730.476 36.8283 730.736 35.03 730.736 33.34C730.736 31.65 730.476 29.8733 729.956 28.01C729.48 26.1033 728.591 24.3917 727.291 22.875C725.991 21.315 724.15 20.21 721.766 19.56C720.856 19.3 719.86 19.1267 718.776 19.04C717.693 18.9533 716.696 18.91 715.786 18.91H694.726V47.77ZM764.136 96V2.4H825.236V18.91H781.816V38.93H817.436V55.44H781.816V79.49H825.236V96H764.136Z" fill="url(#paint0_linear_526_454)" fill-opacity="0.62"/>
<defs>
<linearGradient id="paint0_linear_526_454" x1="415.5" y1="-133.5" x2="431.157" y2="229.188" gradientUnits="userSpaceOnUse">
<stop stop-color="#4E9BD0"/>
<stop offset="1" stop-color="#060E1B" stop-opacity="0"/>
</linearGradient>
</defs>
</svg>
