<svg width="1080" height="142" viewBox="0 0 1080 142" fill="none" xmlns="http://www.w3.org/2000/svg">
<path d="M0.489361 139V3.15078H26.5271L85.5838 93.7169V3.15078H111.622V139H85.5838L26.5271 48.4339V139H0.489361ZM137.945 139V3.15078H226.625V27.1131H163.606V56.1697H215.304V80.132H163.606V115.038H226.625V139H137.945ZM277.727 139L237.916 3.15078H264.897L290.369 96.5471L315.841 3.33946L342.822 3.15078L368.293 96.5471L393.765 3.15078H420.746L380.935 139H355.652L329.331 47.3018L303.01 139H277.727ZM483.525 141.83C473.462 141.83 464.374 140.069 456.261 136.547C448.21 132.962 441.575 127.868 436.355 121.264C431.198 114.597 427.927 106.673 426.544 97.4905L453.336 93.5282C455.223 101.327 459.122 107.333 465.034 111.547C470.946 115.761 477.676 117.868 485.223 117.868C489.437 117.868 493.525 117.208 497.487 115.887C501.45 114.566 504.689 112.616 507.204 110.038C509.783 107.459 511.072 104.283 511.072 100.509C511.072 99.1257 510.852 97.805 510.412 96.5471C510.034 95.2264 509.374 93.9999 508.431 92.8679C507.487 91.7358 506.135 90.6666 504.374 89.6603C502.676 88.654 500.506 87.7421 497.865 86.9245L462.582 76.5471C459.94 75.7924 456.858 74.7232 453.336 73.3395C449.877 71.9559 446.512 69.9748 443.242 67.3961C439.971 64.8175 437.236 61.4213 435.034 57.2075C432.896 52.9307 431.827 47.5533 431.827 41.0754C431.827 31.9558 434.122 24.3772 438.714 18.3395C443.305 12.3017 449.437 7.80487 457.11 4.8489C464.783 1.89292 473.273 0.446376 482.582 0.509272C491.953 0.635057 500.317 2.23883 507.676 5.3206C515.034 8.40236 521.198 12.8992 526.167 18.8112C531.135 24.6602 534.72 31.8301 536.921 40.3206L509.185 45.0376C508.179 40.6351 506.324 36.9244 503.619 33.9055C500.915 30.8867 497.676 28.5911 493.902 27.0187C490.192 25.4464 486.292 24.5974 482.204 24.4716C478.179 24.3458 474.374 24.9118 470.789 26.1697C467.267 27.3646 464.374 29.1257 462.11 31.4527C459.909 33.7797 458.808 36.547 458.808 39.7546C458.808 42.7106 459.72 45.132 461.544 47.0188C463.368 48.8427 465.663 50.3207 468.431 51.4527C471.198 52.5848 474.028 53.5282 476.921 54.2829L500.506 60.698C504.028 61.6414 507.928 62.8993 512.204 64.4716C516.481 65.981 520.569 68.1194 524.468 70.8867C528.431 73.5911 531.67 77.176 534.185 81.6414C536.764 86.1069 538.053 91.7672 538.053 98.6226C538.053 105.918 536.512 112.302 533.431 117.774C530.412 123.182 526.324 127.679 521.167 131.264C516.009 134.786 510.16 137.428 503.619 139.189C497.141 140.95 490.443 141.83 483.525 141.83ZM596.562 139V3.15078H650.901C660.587 3.15078 668.417 5.10047 674.392 8.99985C680.367 12.8363 684.738 17.6791 687.505 23.5282C690.272 29.3772 691.656 35.2892 691.656 41.264C691.656 48.8741 689.927 55.1949 686.467 60.2263C683.071 65.2578 678.386 68.6226 672.411 70.3207V65.6037C680.901 67.3647 687.254 71.2955 691.467 77.3962C695.744 83.4968 697.883 90.3207 697.883 97.8679C697.883 105.981 696.373 113.119 693.354 119.283C690.398 125.447 685.87 130.289 679.769 133.811C673.669 137.27 665.996 139 656.75 139H596.562ZM622.599 114.849H654.109C657.568 114.849 660.65 114.126 663.354 112.679C666.059 111.17 668.166 109.094 669.675 106.453C671.247 103.748 672.033 100.572 672.033 96.9245C672.033 93.7169 671.373 90.8553 670.052 88.3396C668.732 85.8238 666.719 83.8427 664.015 82.3962C661.373 80.8867 658.071 80.132 654.109 80.132H622.599V114.849ZM622.599 56.1697H650.524C653.417 56.1697 655.996 55.6666 658.26 54.6603C660.524 53.654 662.316 52.1131 663.637 50.0376C664.958 47.8993 665.618 45.1634 665.618 41.8301C665.618 37.6791 664.329 34.1886 661.75 31.3584C659.172 28.5282 655.43 27.1131 650.524 27.1131H622.599V56.1697ZM718.584 139V3.15078H744.245V115.038H802.735V139H718.584ZM873.393 141.83C859.808 141.83 848.078 138.874 838.204 132.962C828.393 127.05 820.814 118.78 815.468 108.151C810.185 97.522 807.544 85.1635 807.544 71.0754C807.544 56.9873 810.185 44.6288 815.468 33.9999C820.814 23.3709 828.393 15.1005 838.204 9.18853C848.078 3.27657 859.808 0.320595 873.393 0.320595C886.978 0.320595 898.676 3.27657 908.487 9.18853C918.361 15.1005 925.94 23.3709 931.223 33.9999C936.569 44.6288 939.242 56.9873 939.242 71.0754C939.242 85.1635 936.569 97.522 931.223 108.151C925.94 118.78 918.361 127.05 908.487 132.962C898.676 138.874 886.978 141.83 873.393 141.83ZM873.393 117.679C882.009 117.805 889.179 115.95 894.902 112.113C900.625 108.277 904.902 102.836 907.732 95.7924C910.626 88.7484 912.072 80.5094 912.072 71.0754C912.072 61.6414 910.626 53.4653 907.732 46.5471C904.902 39.6288 900.625 34.2515 894.902 30.415C889.179 26.5785 882.009 24.5974 873.393 24.4716C864.776 24.3458 857.607 26.2011 851.883 30.0376C846.16 33.8741 841.852 39.3143 838.959 46.3584C836.129 53.4024 834.713 61.6414 834.713 71.0754C834.713 80.5094 836.129 88.6855 838.959 95.6037C841.852 102.522 846.16 107.899 851.883 111.736C857.607 115.572 864.776 117.553 873.393 117.679ZM1014.68 141.83C1006.12 141.83 997.98 140.321 990.244 137.302C982.508 134.22 975.653 129.692 969.678 123.717C963.766 117.742 959.081 110.352 955.622 101.547C952.225 92.7421 950.527 82.5848 950.527 71.0754C950.527 56.0439 953.389 43.2766 959.112 32.7735C964.898 22.2074 972.634 14.1571 982.32 8.62249C992.068 3.08789 1002.85 0.320595 1014.68 0.320595C1032.16 0.320595 1045.9 4.3772 1055.9 12.4904C1065.9 20.6036 1072.6 32.0816 1076 46.9244L1049.77 50.698C1047.32 42.7735 1043.29 36.4527 1037.7 31.7357C1032.16 26.9558 1025.06 24.5345 1016.38 24.4716C1007.76 24.3458 1000.59 26.2011 994.867 30.0376C989.144 33.8741 984.835 39.3143 981.942 46.3584C979.112 53.4024 977.697 61.6414 977.697 71.0754C977.697 80.5094 979.112 88.6855 981.942 95.6037C984.835 102.522 989.144 107.899 994.867 111.736C1000.59 115.572 1007.76 117.553 1016.38 117.679C1022.23 117.805 1027.51 116.799 1032.23 114.66C1037.01 112.522 1041.03 109.157 1044.3 104.566C1047.57 99.9748 1049.9 94.0943 1051.28 86.9245H1029.77V67.1131H1078.64C1078.77 67.9307 1078.86 69.3773 1078.92 71.4528C1078.99 73.5282 1079.02 74.7232 1079.02 75.0377C1079.02 88.0565 1076.38 99.5974 1071.09 109.66C1065.81 119.723 1058.36 127.616 1048.73 133.34C1039.11 139 1027.76 141.83 1014.68 141.83Z" fill="url(#paint0_linear_540_2567)" fill-opacity="0.62"/>
<defs>
<linearGradient id="paint0_linear_540_2567" x1="536.47" y1="-148.032" x2="555.996" y2="266.047" gradientUnits="userSpaceOnUse">
<stop stop-color="#4E9BD0"/>
<stop offset="1" stop-color="#060E1B" stop-opacity="0"/>
</linearGradient>
</defs>
</svg>
