<svg width="282" height="160" viewBox="0 0 282 160" fill="none" xmlns="http://www.w3.org/2000/svg">
<g filter="url(#filter0_d_2242_296)">
<g clip-path="url(#clip0_2242_296)">
<path d="M89.9444 64.3326L87.2051 62.7539C88.0807 63.3518 88.9961 63.8794 89.9444 64.3326Z" fill="#2A97E2"/>
<path d="M203.252 45.2709C203.252 48.387 202.566 51.4659 201.254 54.2745C199.505 58.0227 196.642 61.2895 192.816 63.5183L175.352 73.6896L150.907 87.9276C147.878 89.6911 144.503 90.5875 141.121 90.6136C137.688 90.6407 134.25 89.7715 131.162 88.005L123.904 83.8528L123.857 83.8267C123.306 83.5142 122.734 83.1886 122.142 82.852C119.054 81.0955 115.463 79.0365 111.833 76.9484L111.806 76.9323C109.977 75.8802 108.14 74.8201 106.351 73.7881L105.551 73.3268L89.9437 64.3333L87.2044 62.7546C86.6346 62.3667 86.0817 61.9477 85.5488 61.5006L91.4408 54.8142L108.948 53.0617L116.232 53.7912L121.054 54.2745L124.615 54.6313L125.228 54.2745L132.926 49.7918L141.121 45.0187L142.065 44.469L150.027 39.8316V39.8306L171.952 27.0617C178.033 23.5196 185.148 23.4171 191.082 26.1563C194.885 27.9108 198.203 30.834 200.453 34.766C202.351 38.0811 203.252 41.6996 203.252 45.2709Z" fill="url(#paint0_linear_2242_296)"/>
<path d="M141.121 45.0195V90.6144C137.688 90.6416 134.25 89.7723 131.162 88.0058L123.904 83.8537L123.857 83.8275C123.306 83.515 122.734 83.1894 122.142 82.8528C119.054 81.0963 115.463 79.0373 111.833 76.9492L111.806 76.9331C109.977 75.881 108.14 74.8209 106.351 73.7889L105.551 73.3277L89.9437 64.3341L87.2044 62.7555C86.6346 62.3676 86.0817 61.9485 85.5488 61.5014L91.4408 54.815L108.948 53.0625L124.615 54.6321L141.121 45.0195Z" fill="url(#paint1_linear_2242_296)"/>
<path d="M180.789 20.204C180.608 20.0985 180.424 19.993 180.239 19.8855L178.9 19.1117C175.949 17.4055 172.705 15.5334 169.489 13.6824L169.462 13.6664C165.832 11.5782 162.241 9.51926 159.153 7.76276C158.562 7.42612 157.989 7.10054 157.438 6.78804L157.391 6.76191L150.134 2.60979C144.004 -0.897191 136.492 -0.868059 130.389 2.68717L116.233 10.9321L105.943 16.9251L88.4792 27.0964C81.7854 30.9953 78.043 38.0696 78.043 45.3438C78.043 48.9151 78.9445 52.5337 80.8421 55.8487C82.1081 58.0604 83.7118 59.9536 85.5497 61.4991C86.0826 61.9463 86.6354 62.3653 87.2052 62.7532L89.9445 64.3318C95.6493 67.065 102.491 67.1475 108.464 64.0374C108.76 63.8836 109.053 63.7229 109.344 63.553L124.658 54.6338L125.278 54.2731L131.268 50.7842V50.7832L141.122 45.0444L142.071 44.4917L142.066 44.4676L150.028 39.8301V39.8291L171.952 27.0603C178.034 23.5181 185.149 23.4156 191.083 26.1549L180.789 20.204Z" fill="url(#paint2_linear_2242_296)"/>
<path d="M191.082 26.1549C185.148 23.4156 178.033 23.5181 171.952 27.0602L150.028 39.8291V39.8301L142.066 44.4676L142.071 44.4917L141.121 45.0444L131.268 50.7832V50.7842L125.277 54.2731H116.232V10.9321L130.388 2.68717C136.491 -0.868058 144.003 -0.897191 150.133 2.60979L157.391 6.76191L157.438 6.78804C157.988 7.10054 158.561 7.42611 159.153 7.76276C162.241 9.51926 165.832 11.5782 169.462 13.6664L169.489 13.6824C172.704 15.5334 175.948 17.4055 178.9 19.1117L180.239 19.8855C180.424 19.993 180.607 20.0985 180.788 20.204L191.082 26.1549Z" fill="url(#paint3_linear_2242_296)"/>
</g>
</g>
<path d="M2.06294 131.902V110.908H10.3877C11.8068 110.908 12.9682 111.195 13.8722 111.768C14.7858 112.332 15.4613 113.056 15.8987 113.941C16.3458 114.825 16.5693 115.739 16.5693 116.682C16.5693 117.838 16.2923 118.82 15.7383 119.627C15.194 120.433 14.4505 120.978 13.5077 121.259V120.53C14.8295 120.832 15.8306 121.459 16.511 122.411C17.2011 123.364 17.5461 124.447 17.5461 125.662C17.5461 126.907 17.308 127.995 16.8318 128.928C16.3555 129.861 15.646 130.59 14.7032 131.115C13.7701 131.64 12.6135 131.902 11.2333 131.902H2.06294ZM5.62028 128.593H10.7959C11.4083 128.593 11.9574 128.471 12.4434 128.228C12.9294 127.976 13.3084 127.626 13.5806 127.179C13.8624 126.722 14.0034 126.182 14.0034 125.56C14.0034 124.997 13.8819 124.491 13.6389 124.044C13.3959 123.597 13.0411 123.242 12.5746 122.98C12.1081 122.708 11.5492 122.572 10.898 122.572H5.62028V128.593ZM5.62028 119.291H10.344C10.8494 119.291 11.3013 119.194 11.6998 119C12.0983 118.805 12.4142 118.519 12.6475 118.139C12.8808 117.76 12.9974 117.294 12.9974 116.74C12.9974 116.011 12.7641 115.403 12.2976 114.917C11.8311 114.431 11.1799 114.189 10.344 114.189H5.62028V119.291ZM20.7495 131.902V110.471H24.2631V131.902H20.7495ZM34.5349 132.354C33.3685 132.354 32.4063 132.16 31.6482 131.771C30.8901 131.382 30.2875 130.887 29.8404 130.284C29.3933 129.681 29.0628 129.04 28.849 128.36C28.6351 127.679 28.4942 127.038 28.4262 126.435C28.3678 125.823 28.3387 125.327 28.3387 124.948V116.157H31.896V123.738C31.896 124.224 31.9301 124.773 31.9981 125.385C32.0661 125.988 32.2216 126.571 32.4646 127.135C32.7173 127.689 33.0867 128.146 33.5727 128.505C34.0683 128.865 34.7341 129.045 35.57 129.045C36.0171 129.045 36.4594 128.972 36.8967 128.826C37.3341 128.68 37.7277 128.432 38.0777 128.083C38.4373 127.723 38.724 127.232 38.9378 126.61C39.1517 125.988 39.2586 125.201 39.2586 124.248L41.3434 125.138C41.3434 126.479 41.081 127.694 40.5561 128.782C40.041 129.871 39.278 130.741 38.2672 131.392C37.2564 132.034 36.0123 132.354 34.5349 132.354ZM39.6814 131.902V127.018H39.2586V116.157H42.7868V131.902H39.6814ZM54.0413 132.34C52.4473 132.34 51.0477 131.995 49.8425 131.305C48.6372 130.615 47.6944 129.657 47.0141 128.432C46.3434 127.208 46.0081 125.798 46.0081 124.204C46.0081 122.484 46.3386 120.992 46.9995 119.729C47.6604 118.455 48.5789 117.469 49.755 116.769C50.931 116.069 52.2918 115.719 53.8372 115.719C55.4701 115.719 56.8551 116.103 57.9923 116.871C59.1392 117.629 59.9896 118.703 60.5437 120.093C61.0977 121.483 61.3066 123.121 61.1706 125.006H57.6861V123.723C57.6764 122.013 57.3751 120.764 56.7822 119.976C56.1893 119.189 55.2562 118.796 53.983 118.796C52.5445 118.796 51.4753 119.243 50.7755 120.137C50.0757 121.021 49.7258 122.319 49.7258 124.03C49.7258 125.624 50.0757 126.858 50.7755 127.733C51.4753 128.607 52.4959 129.045 53.8372 129.045C54.7022 129.045 55.4458 128.855 56.0678 128.476C56.6996 128.087 57.1856 127.529 57.5257 126.8L60.9956 127.849C60.393 129.268 59.4599 130.372 58.1964 131.159C56.9426 131.946 55.5575 132.34 54.0413 132.34ZM48.6178 125.006V122.353H59.4502V125.006H48.6178ZM70.5526 131.902V110.908H74.0662V131.902H70.5526ZM84.5129 132.34C82.569 132.34 80.9896 131.902 79.7746 131.028C78.5597 130.153 77.821 128.923 77.5586 127.339L81.1451 126.785C81.3298 127.563 81.738 128.175 82.3698 128.622C83.0015 129.069 83.7985 129.293 84.7608 129.293C85.6064 129.293 86.2576 129.127 86.7144 128.797C87.1809 128.457 87.4142 127.995 87.4142 127.412C87.4142 127.052 87.3267 126.766 87.1518 126.552C86.9865 126.328 86.6172 126.114 86.0437 125.91C85.4703 125.706 84.5907 125.449 83.4049 125.138C82.083 124.788 81.0333 124.413 80.2558 124.015C79.4782 123.607 78.9193 123.126 78.5791 122.572C78.239 122.018 78.0689 121.347 78.0689 120.56C78.0689 119.578 78.3264 118.723 78.8416 117.994C79.3567 117.265 80.076 116.706 80.9993 116.317C81.9227 115.919 83.0112 115.719 84.2651 115.719C85.4897 115.719 86.5735 115.909 87.5162 116.288C88.4688 116.667 89.2366 117.206 89.8198 117.906C90.4029 118.606 90.7626 119.427 90.8986 120.37L87.3121 121.012C87.2247 120.341 86.9185 119.811 86.3936 119.422C85.8785 119.034 85.1884 118.815 84.3234 118.766C83.4972 118.718 82.8314 118.844 82.326 119.145C81.8206 119.437 81.5679 119.85 81.5679 120.385C81.5679 120.686 81.67 120.944 81.8741 121.157C82.0782 121.371 82.4864 121.585 83.0987 121.799C83.7208 122.013 84.6441 122.275 85.8688 122.586C87.1226 122.907 88.1237 123.276 88.8721 123.694C89.6302 124.102 90.1745 124.593 90.505 125.167C90.8452 125.74 91.0153 126.435 91.0153 127.252C91.0153 128.836 90.437 130.08 89.2803 130.984C88.1334 131.888 86.5443 132.34 84.5129 132.34ZM94.5002 131.902V110.471H98.0138V131.902H94.5002ZM106.784 132.34C105.647 132.34 104.685 132.126 103.897 131.698C103.11 131.261 102.512 130.683 102.104 129.963C101.705 129.244 101.506 128.452 101.506 127.587C101.506 126.829 101.633 126.148 101.885 125.546C102.138 124.933 102.527 124.409 103.052 123.971C103.576 123.524 104.257 123.16 105.093 122.878C105.724 122.674 106.463 122.489 107.309 122.324C108.164 122.159 109.087 122.008 110.079 121.872C111.08 121.726 112.125 121.57 113.213 121.405L111.96 122.12C111.969 121.031 111.726 120.229 111.231 119.714C110.735 119.199 109.899 118.941 108.723 118.941C108.013 118.941 107.328 119.107 106.667 119.437C106.006 119.768 105.545 120.336 105.282 121.143L102.075 120.137C102.464 118.805 103.202 117.736 104.291 116.929C105.389 116.123 106.867 115.719 108.723 115.719C110.123 115.719 111.352 115.948 112.412 116.405C113.481 116.861 114.273 117.61 114.788 118.65C115.07 119.204 115.24 119.772 115.298 120.356C115.357 120.929 115.386 121.556 115.386 122.236V131.902H112.309V128.491L112.82 129.045C112.11 130.182 111.279 131.018 110.327 131.552C109.384 132.077 108.203 132.34 106.784 132.34ZM107.484 129.54C108.281 129.54 108.961 129.4 109.525 129.118C110.089 128.836 110.536 128.491 110.866 128.083C111.206 127.674 111.435 127.29 111.551 126.931C111.736 126.484 111.838 125.973 111.858 125.4C111.887 124.817 111.901 124.345 111.901 123.986L112.98 124.307C111.921 124.472 111.012 124.618 110.254 124.744C109.496 124.87 108.844 124.992 108.3 125.108C107.756 125.215 107.275 125.337 106.857 125.473C106.449 125.619 106.104 125.789 105.822 125.983C105.54 126.178 105.321 126.401 105.166 126.654C105.02 126.907 104.947 127.203 104.947 127.543C104.947 127.932 105.044 128.277 105.239 128.578C105.433 128.87 105.715 129.103 106.084 129.278C106.463 129.453 106.93 129.54 107.484 129.54ZM130.072 131.902V124.321C130.072 123.825 130.038 123.276 129.97 122.674C129.902 122.071 129.742 121.493 129.489 120.939C129.246 120.375 128.877 119.913 128.381 119.554C127.895 119.194 127.234 119.014 126.398 119.014C125.951 119.014 125.509 119.087 125.071 119.233C124.634 119.379 124.235 119.631 123.876 119.991C123.526 120.341 123.244 120.827 123.03 121.449C122.816 122.061 122.71 122.849 122.71 123.811L120.625 122.922C120.625 121.58 120.882 120.365 121.397 119.277C121.922 118.188 122.69 117.323 123.701 116.682C124.712 116.03 125.956 115.705 127.433 115.705C128.6 115.705 129.562 115.899 130.32 116.288C131.078 116.677 131.681 117.172 132.128 117.775C132.575 118.378 132.905 119.019 133.119 119.699C133.333 120.38 133.469 121.026 133.527 121.639C133.595 122.241 133.629 122.732 133.629 123.111V131.902H130.072ZM119.152 131.902V116.157H122.287V121.041H122.71V131.902H119.152ZM143.49 132.34C142.042 132.34 140.779 131.975 139.7 131.246C138.621 130.517 137.785 129.526 137.192 128.272C136.599 127.018 136.303 125.604 136.303 124.03C136.303 122.436 136.599 121.016 137.192 119.772C137.795 118.519 138.645 117.532 139.744 116.813C140.842 116.084 142.135 115.719 143.622 115.719C145.118 115.719 146.372 116.084 147.383 116.813C148.404 117.532 149.176 118.519 149.701 119.772C150.226 121.026 150.489 122.445 150.489 124.03C150.489 125.594 150.226 127.009 149.701 128.272C149.176 129.526 148.394 130.517 147.354 131.246C146.314 131.975 145.026 132.34 143.49 132.34ZM144.03 129.191C144.973 129.191 145.731 128.977 146.304 128.549C146.887 128.112 147.31 127.504 147.573 126.727C147.845 125.949 147.981 125.05 147.981 124.03C147.981 122.999 147.845 122.1 147.573 121.332C147.31 120.555 146.897 119.952 146.333 119.525C145.77 119.087 145.041 118.868 144.147 118.868C143.204 118.868 142.426 119.102 141.814 119.568C141.202 120.025 140.75 120.647 140.458 121.434C140.166 122.212 140.021 123.077 140.021 124.03C140.021 124.992 140.162 125.867 140.443 126.654C140.735 127.431 141.177 128.049 141.77 128.505C142.363 128.962 143.116 129.191 144.03 129.191ZM147.981 131.902V120.851H147.544V110.908H151.086V131.902H147.981ZM168.782 132.34C167.246 132.34 165.861 132.072 164.627 131.538C163.402 131.003 162.392 130.24 161.595 129.249C160.807 128.248 160.307 127.062 160.093 125.692L163.738 125.138C164.049 126.382 164.685 127.344 165.648 128.024C166.62 128.705 167.737 129.045 169.001 129.045C169.749 129.045 170.454 128.928 171.115 128.695C171.776 128.462 172.31 128.121 172.719 127.674C173.136 127.227 173.345 126.678 173.345 126.027C173.345 125.735 173.297 125.468 173.2 125.225C173.102 124.972 172.957 124.749 172.762 124.554C172.578 124.36 172.335 124.185 172.033 124.03C171.742 123.864 171.402 123.723 171.013 123.607L165.589 122.003C165.123 121.867 164.617 121.687 164.073 121.464C163.538 121.23 163.028 120.914 162.542 120.516C162.066 120.108 161.672 119.593 161.361 118.971C161.06 118.339 160.909 117.561 160.909 116.638C160.909 115.287 161.249 114.154 161.93 113.241C162.62 112.317 163.543 111.627 164.7 111.171C165.866 110.714 167.159 110.49 168.578 110.5C170.016 110.51 171.299 110.758 172.427 111.243C173.554 111.72 174.497 112.415 175.255 113.328C176.013 114.242 176.548 115.345 176.859 116.638L173.083 117.294C172.927 116.555 172.626 115.928 172.179 115.413C171.742 114.888 171.202 114.49 170.561 114.218C169.929 113.946 169.254 113.8 168.534 113.78C167.834 113.771 167.183 113.877 166.581 114.101C165.988 114.315 165.507 114.626 165.137 115.034C164.778 115.442 164.598 115.919 164.598 116.463C164.598 116.978 164.753 117.401 165.064 117.731C165.375 118.052 165.759 118.31 166.216 118.504C166.683 118.689 167.154 118.844 167.63 118.971L171.392 120.02C171.907 120.156 172.485 120.341 173.127 120.574C173.768 120.808 174.385 121.133 174.978 121.551C175.571 121.969 176.057 122.518 176.436 123.199C176.825 123.879 177.019 124.744 177.019 125.794C177.019 126.882 176.791 127.84 176.334 128.666C175.887 129.482 175.28 130.163 174.512 130.707C173.744 131.251 172.864 131.659 171.873 131.932C170.891 132.204 169.861 132.34 168.782 132.34ZM187.334 132.34C185.74 132.34 184.34 131.995 183.135 131.305C181.93 130.615 180.987 129.657 180.306 128.432C179.636 127.208 179.3 125.798 179.3 124.204C179.3 122.484 179.631 120.992 180.292 119.729C180.953 118.455 181.871 117.469 183.047 116.769C184.223 116.069 185.584 115.719 187.129 115.719C188.762 115.719 190.147 116.103 191.285 116.871C192.431 117.629 193.282 118.703 193.836 120.093C194.39 121.483 194.599 123.121 194.463 125.006H190.978V123.723C190.969 122.013 190.667 120.764 190.074 119.976C189.482 119.189 188.549 118.796 187.275 118.796C185.837 118.796 184.768 119.243 184.068 120.137C183.368 121.021 183.018 122.319 183.018 124.03C183.018 125.624 183.368 126.858 184.068 127.733C184.768 128.607 185.788 129.045 187.129 129.045C187.995 129.045 188.738 128.855 189.36 128.476C189.992 128.087 190.478 127.529 190.818 126.8L194.288 127.849C193.685 129.268 192.752 130.372 191.489 131.159C190.235 131.946 188.85 132.34 187.334 132.34ZM181.91 125.006V122.353H192.742V125.006H181.91ZM197.716 131.902V116.157H200.821V119.991L200.442 119.495C200.637 118.971 200.894 118.494 201.215 118.067C201.545 117.629 201.939 117.27 202.396 116.988C202.785 116.725 203.212 116.521 203.679 116.375C204.155 116.22 204.641 116.128 205.137 116.098C205.632 116.06 206.114 116.079 206.58 116.157V119.437C206.114 119.301 205.574 119.257 204.962 119.306C204.359 119.354 203.815 119.525 203.329 119.816C202.843 120.079 202.444 120.414 202.133 120.822C201.832 121.23 201.609 121.697 201.463 122.222C201.317 122.737 201.244 123.296 201.244 123.898V131.902H197.716ZM213.619 131.902L207.904 116.157H211.418L215.383 127.572L219.334 116.157H222.863L217.148 131.902H213.619ZM225.771 113.766V110.544H229.284V113.766H225.771ZM225.771 131.902V116.157H229.284V131.902H225.771ZM240.489 132.34C238.866 132.34 237.481 131.98 236.334 131.261C235.187 130.532 234.308 129.54 233.695 128.287C233.093 127.033 232.786 125.614 232.777 124.03C232.786 122.416 233.102 120.987 233.724 119.743C234.356 118.489 235.25 117.508 236.407 116.798C237.564 116.079 238.939 115.719 240.533 115.719C242.321 115.719 243.833 116.171 245.067 117.075C246.311 117.969 247.123 119.194 247.502 120.749L244.003 121.697C243.731 120.851 243.279 120.195 242.647 119.729C242.015 119.252 241.296 119.014 240.489 119.014C239.576 119.014 238.822 119.233 238.229 119.67C237.637 120.098 237.199 120.691 236.917 121.449C236.635 122.207 236.494 123.067 236.494 124.03C236.494 125.526 236.83 126.736 237.5 127.66C238.171 128.583 239.167 129.045 240.489 129.045C241.422 129.045 242.156 128.831 242.691 128.403C243.235 127.976 243.643 127.358 243.915 126.552L247.502 127.354C247.016 128.957 246.165 130.192 244.95 131.057C243.736 131.912 242.248 132.34 240.489 132.34ZM257.155 132.34C255.561 132.34 254.161 131.995 252.956 131.305C251.751 130.615 250.808 129.657 250.127 128.432C249.457 127.208 249.122 125.798 249.122 124.204C249.122 122.484 249.452 120.992 250.113 119.729C250.774 118.455 251.692 117.469 252.868 116.769C254.044 116.069 255.405 115.719 256.951 115.719C258.583 115.719 259.969 116.103 261.106 116.871C262.253 117.629 263.103 118.703 263.657 120.093C264.211 121.483 264.42 123.121 264.284 125.006H260.8V123.723C260.79 122.013 260.488 120.764 259.896 119.976C259.303 119.189 258.37 118.796 257.096 118.796C255.658 118.796 254.589 119.243 253.889 120.137C253.189 121.021 252.839 122.319 252.839 124.03C252.839 125.624 253.189 126.858 253.889 127.733C254.589 128.607 255.609 129.045 256.951 129.045C257.816 129.045 258.559 128.855 259.181 128.476C259.813 128.087 260.299 127.529 260.639 126.8L264.109 127.849C263.506 129.268 262.573 130.372 261.31 131.159C260.056 131.946 258.671 132.34 257.155 132.34ZM251.731 125.006V122.353H262.564V125.006H251.731ZM273.617 132.34C271.673 132.34 270.093 131.902 268.878 131.028C267.663 130.153 266.925 128.923 266.662 127.339L270.249 126.785C270.433 127.563 270.842 128.175 271.473 128.622C272.105 129.069 272.902 129.293 273.864 129.293C274.71 129.293 275.361 129.127 275.818 128.797C276.285 128.457 276.518 127.995 276.518 127.412C276.518 127.052 276.43 126.766 276.255 126.552C276.09 126.328 275.721 126.114 275.147 125.91C274.574 125.706 273.694 125.449 272.508 125.138C271.187 124.788 270.137 124.413 269.359 124.015C268.582 123.607 268.023 123.126 267.683 122.572C267.343 122.018 267.172 121.347 267.172 120.56C267.172 119.578 267.43 118.723 267.945 117.994C268.46 117.265 269.18 116.706 270.103 116.317C271.026 115.919 272.115 115.719 273.369 115.719C274.593 115.719 275.677 115.909 276.62 116.288C277.572 116.667 278.34 117.206 278.923 117.906C279.507 118.606 279.866 119.427 280.002 120.37L276.416 121.012C276.328 120.341 276.022 119.811 275.497 119.422C274.982 119.034 274.292 118.815 273.427 118.766C272.601 118.718 271.935 118.844 271.43 119.145C270.924 119.437 270.671 119.85 270.671 120.385C270.671 120.686 270.774 120.944 270.978 121.157C271.182 121.371 271.59 121.585 272.202 121.799C272.824 122.013 273.748 122.275 274.972 122.586C276.226 122.907 277.227 123.276 277.976 123.694C278.734 124.102 279.278 124.593 279.609 125.167C279.949 125.74 280.119 126.435 280.119 127.252C280.119 128.836 279.541 130.08 278.384 130.984C277.237 131.888 275.648 132.34 273.617 132.34Z" fill="white"/>
<path d="M27.4424 155.902V147.374H24.1561V146.023H32.1627V147.374H28.8764V155.902H27.4424ZM36.005 155.902V146.023H42.317V147.374H37.4389V150.146H41.4937V151.498H37.4389V154.551H42.317V155.902H36.005ZM50.4839 156.108C49.496 156.108 48.6544 155.893 47.9591 155.463C47.2639 155.029 46.731 154.425 46.3606 153.652C45.9946 152.879 45.8117 151.983 45.8117 150.963C45.8117 149.943 45.9946 149.046 46.3606 148.273C46.731 147.5 47.2639 146.899 47.9591 146.469C48.6544 146.034 49.496 145.817 50.4839 145.817C51.6228 145.817 52.565 146.105 53.3106 146.681C54.0607 147.258 54.5821 148.033 54.8749 149.007L53.4204 149.398C53.2283 148.708 52.8852 148.166 52.3912 147.772C51.9018 147.379 51.2661 147.182 50.4839 147.182C49.7841 147.182 49.2009 147.34 48.7344 147.656C48.2679 147.971 47.9157 148.413 47.6778 148.98C47.4446 149.547 47.3279 150.208 47.3279 150.963C47.3234 151.717 47.4377 152.378 47.671 152.945C47.9088 153.512 48.261 153.954 48.7276 154.269C49.1987 154.585 49.7841 154.743 50.4839 154.743C51.2661 154.743 51.9018 154.546 52.3912 154.153C52.8852 153.755 53.2283 153.213 53.4204 152.527L54.8749 152.918C54.5821 153.892 54.0607 154.667 53.3106 155.244C52.565 155.82 51.6228 156.108 50.4839 156.108ZM59.1282 155.902V146.023H60.5621V150.283H65.5019V146.023H66.9427V155.902H65.5019V151.635H60.5621V155.902H59.1282ZM71.6144 155.902V146.023H73.0689L77.9332 153.364V146.023H79.3877V155.902H77.9332L73.0689 148.554V155.902H71.6144ZM88.1703 156.108C87.1824 156.108 86.3408 155.893 85.6455 155.463C84.9503 155.029 84.4174 154.425 84.047 153.652C83.681 152.879 83.4981 151.983 83.4981 150.963C83.4981 149.943 83.681 149.046 84.047 148.273C84.4174 147.5 84.9503 146.899 85.6455 146.469C86.3408 146.034 87.1824 145.817 88.1703 145.817C89.1537 145.817 89.993 146.034 90.6882 146.469C91.3881 146.899 91.9209 147.5 92.2868 148.273C92.6527 149.046 92.8357 149.943 92.8357 150.963C92.8357 151.983 92.6527 152.879 92.2868 153.652C91.9209 154.425 91.3881 155.029 90.6882 155.463C89.993 155.893 89.1537 156.108 88.1703 156.108ZM88.1703 154.743C88.8701 154.752 89.451 154.599 89.913 154.283C90.3795 153.963 90.7294 153.519 90.9627 152.952C91.1959 152.38 91.3126 151.717 91.3126 150.963C91.3126 150.208 91.1959 149.549 90.9627 148.987C90.7294 148.419 90.3795 147.978 89.913 147.662C89.451 147.347 88.8701 147.187 88.1703 147.182C87.4705 147.173 86.8873 147.326 86.4208 147.642C85.9588 147.957 85.6112 148.401 85.378 148.973C85.1447 149.545 85.0258 150.208 85.0212 150.963C85.0166 151.717 85.131 152.378 85.3642 152.945C85.5975 153.508 85.9474 153.947 86.4139 154.263C86.8851 154.578 87.4705 154.738 88.1703 154.743ZM97.0858 155.902V146.023H98.5197V154.551H102.993V155.902H97.0858ZM110.757 156.108C109.77 156.108 108.928 155.893 108.233 155.463C107.537 155.029 107.005 154.425 106.634 153.652C106.268 152.879 106.085 151.983 106.085 150.963C106.085 149.943 106.268 149.046 106.634 148.273C107.005 147.5 107.537 146.899 108.233 146.469C108.928 146.034 109.77 145.817 110.757 145.817C111.741 145.817 112.58 146.034 113.275 146.469C113.975 146.899 114.508 147.5 114.874 148.273C115.24 149.046 115.423 149.943 115.423 150.963C115.423 151.983 115.24 152.879 114.874 153.652C114.508 154.425 113.975 155.029 113.275 155.463C112.58 155.893 111.741 156.108 110.757 156.108ZM110.757 154.743C111.457 154.752 112.038 154.599 112.5 154.283C112.967 153.963 113.317 153.519 113.55 152.952C113.783 152.38 113.9 151.717 113.9 150.963C113.9 150.208 113.783 149.549 113.55 148.987C113.317 148.419 112.967 147.978 112.5 147.662C112.038 147.347 111.457 147.187 110.757 147.182C110.058 147.173 109.475 147.326 109.008 147.642C108.546 147.957 108.198 148.401 107.965 148.973C107.732 149.545 107.613 150.208 107.608 150.963C107.604 151.717 107.718 152.378 107.951 152.945C108.185 153.508 108.535 153.947 109.001 154.263C109.472 154.578 110.058 154.738 110.757 154.743ZM123.577 156.108C122.914 156.108 122.303 155.994 121.745 155.765C121.187 155.532 120.702 155.193 120.29 154.75C119.879 154.306 119.559 153.766 119.33 153.131C119.101 152.495 118.987 151.772 118.987 150.963C118.987 149.897 119.181 148.982 119.57 148.218C119.959 147.45 120.499 146.86 121.189 146.448C121.88 146.032 122.676 145.824 123.577 145.824C124.739 145.824 125.665 146.094 126.355 146.633C127.051 147.173 127.524 147.919 127.776 148.87L126.321 149.131C126.12 148.541 125.795 148.07 125.347 147.717C124.899 147.365 124.336 147.187 123.659 147.182C122.959 147.178 122.376 147.333 121.91 147.649C121.448 147.964 121.1 148.408 120.867 148.98C120.633 149.547 120.515 150.208 120.51 150.963C120.505 151.717 120.62 152.378 120.853 152.945C121.086 153.508 121.436 153.947 121.903 154.263C122.374 154.578 122.959 154.738 123.659 154.743C124.222 154.752 124.704 154.649 125.107 154.434C125.514 154.215 125.836 153.894 126.074 153.474C126.312 153.053 126.465 152.536 126.534 151.923H124.613V150.77H128.057C128.066 150.853 128.073 150.963 128.077 151.1C128.082 151.232 128.084 151.317 128.084 151.354C128.084 152.268 127.908 153.085 127.556 153.803C127.204 154.521 126.692 155.086 126.019 155.498C125.347 155.905 124.533 156.108 123.577 156.108ZM134.161 155.902V151.82L130.82 146.023H132.494L134.889 150.174L137.283 146.023H138.957L135.616 151.82V155.902H134.161ZM150.064 155.902V147.374H146.778V146.023H154.784V147.374H151.498V155.902H150.064ZM158.626 155.902V146.023H160.06V150.283H165V146.023H166.441V155.902H165V151.635H160.06V155.902H158.626ZM170.427 155.902L173.637 146.023H175.703L178.913 155.902H177.425L174.468 146.887H174.838L171.915 155.902H170.427ZM172.094 153.673V152.328H177.253V153.673H172.094ZM184.534 155.902V147.374H181.248V146.023H189.255V147.374H185.968V155.902H184.534ZM200.265 155.902L197.397 146.023H198.9L200.979 153.494L203.058 146.03L204.567 146.023L206.646 153.494L208.725 146.023H210.234L207.359 155.902H205.932L203.812 148.513L201.692 155.902H200.265ZM217.985 156.108C216.997 156.108 216.155 155.893 215.46 155.463C214.765 155.029 214.232 154.425 213.862 153.652C213.496 152.879 213.313 151.983 213.313 150.963C213.313 149.943 213.496 149.046 213.862 148.273C214.232 147.5 214.765 146.899 215.46 146.469C216.155 146.034 216.997 145.817 217.985 145.817C218.968 145.817 219.808 146.034 220.503 146.469C221.203 146.899 221.736 147.5 222.101 148.273C222.467 149.046 222.65 149.943 222.65 150.963C222.65 151.983 222.467 152.879 222.101 153.652C221.736 154.425 221.203 155.029 220.503 155.463C219.808 155.893 218.968 156.108 217.985 156.108ZM217.985 154.743C218.685 154.752 219.266 154.599 219.728 154.283C220.194 153.963 220.544 153.519 220.777 152.952C221.011 152.38 221.127 151.717 221.127 150.963C221.127 150.208 221.011 149.549 220.777 148.987C220.544 148.419 220.194 147.978 219.728 147.662C219.266 147.347 218.685 147.187 217.985 147.182C217.285 147.173 216.702 147.326 216.235 147.642C215.773 147.957 215.426 148.401 215.193 148.973C214.959 149.545 214.84 150.208 214.836 150.963C214.831 151.717 214.946 152.378 215.179 152.945C215.412 153.508 215.762 153.947 216.229 154.263C216.7 154.578 217.285 154.738 217.985 154.743ZM226.763 155.902V146.023H230.756C230.852 146.023 230.971 146.027 231.113 146.036C231.255 146.041 231.39 146.055 231.518 146.078C232.067 146.165 232.524 146.352 232.89 146.64C233.26 146.928 233.537 147.292 233.72 147.731C233.903 148.17 233.995 148.655 233.995 149.186C233.995 149.972 233.793 150.652 233.391 151.223C232.988 151.79 232.384 152.145 231.579 152.287L230.996 152.355H228.197V155.902H226.763ZM232.54 155.902L230.592 151.882L232.039 151.511L234.18 155.902H232.54ZM228.197 150.997H230.701C230.793 150.997 230.893 150.992 231.003 150.983C231.118 150.974 231.225 150.958 231.326 150.935C231.618 150.866 231.854 150.741 232.032 150.558C232.211 150.37 232.339 150.155 232.417 149.913C232.494 149.67 232.533 149.428 232.533 149.186C232.533 148.943 232.494 148.703 232.417 148.465C232.339 148.223 232.211 148.01 232.032 147.827C231.854 147.64 231.618 147.512 231.326 147.443C231.225 147.415 231.118 147.397 231.003 147.388C230.893 147.379 230.793 147.374 230.701 147.374H228.197V150.997ZM238.432 155.902V146.023H239.866V150.633L244.003 146.023H245.787L241.416 150.846L246.109 155.902H244.271L239.866 151.182V155.902H238.432ZM252.985 156.108C252.276 156.108 251.636 155.987 251.064 155.745C250.497 155.498 250.028 155.148 249.658 154.695C249.292 154.237 249.054 153.695 248.944 153.069L250.44 152.842C250.591 153.446 250.906 153.917 251.387 154.256C251.867 154.59 252.427 154.757 253.068 154.757C253.466 154.757 253.831 154.695 254.165 154.571C254.499 154.443 254.767 154.263 254.968 154.029C255.174 153.791 255.277 153.508 255.277 153.179C255.277 153 255.245 152.842 255.181 152.705C255.121 152.568 255.037 152.449 254.927 152.348C254.822 152.243 254.691 152.154 254.536 152.081C254.385 152.003 254.218 151.937 254.035 151.882L251.503 151.134C251.256 151.061 251.005 150.967 250.749 150.853C250.493 150.734 250.257 150.581 250.042 150.393C249.832 150.201 249.66 149.965 249.527 149.686C249.395 149.403 249.328 149.06 249.328 148.657C249.328 148.049 249.484 147.534 249.795 147.114C250.111 146.688 250.536 146.368 251.071 146.153C251.606 145.934 252.205 145.824 252.869 145.824C253.536 145.833 254.133 145.952 254.659 146.181C255.19 146.409 255.629 146.739 255.977 147.168C256.329 147.594 256.571 148.111 256.704 148.719L255.167 148.98C255.098 148.609 254.952 148.291 254.728 148.026C254.504 147.756 254.229 147.55 253.905 147.409C253.58 147.262 253.228 147.187 252.848 147.182C252.482 147.173 252.146 147.228 251.84 147.347C251.538 147.466 251.295 147.633 251.112 147.848C250.934 148.063 250.845 148.31 250.845 148.589C250.845 148.863 250.925 149.085 251.085 149.254C251.245 149.423 251.442 149.558 251.675 149.659C251.913 149.755 252.148 149.835 252.382 149.899L254.207 150.414C254.435 150.478 254.694 150.565 254.982 150.674C255.275 150.78 255.556 150.928 255.826 151.12C256.1 151.312 256.327 151.569 256.505 151.889C256.683 152.204 256.772 152.602 256.772 153.083C256.772 153.581 256.672 154.02 256.471 154.4C256.269 154.775 255.993 155.09 255.64 155.347C255.293 155.598 254.89 155.788 254.433 155.916C253.976 156.044 253.493 156.108 252.985 156.108Z" fill="white"/>
<defs>
<filter id="filter0_d_2242_296" x="74.043" y="0" width="133.211" height="98.6133" filterUnits="userSpaceOnUse" color-interpolation-filters="sRGB">
<feFlood flood-opacity="0" result="BackgroundImageFix"/>
<feColorMatrix in="SourceAlpha" type="matrix" values="0 0 0 0 0 0 0 0 0 0 0 0 0 0 0 0 0 0 127 0" result="hardAlpha"/>
<feOffset dy="4"/>
<feGaussianBlur stdDeviation="2"/>
<feComposite in2="hardAlpha" operator="out"/>
<feColorMatrix type="matrix" values="0 0 0 0 0 0 0 0 0 0 0 0 0 0 0 0 0 0 0.25 0"/>
<feBlend mode="normal" in2="BackgroundImageFix" result="effect1_dropShadow_2242_296"/>
<feBlend mode="normal" in="SourceGraphic" in2="effect1_dropShadow_2242_296" result="shape"/>
</filter>
<linearGradient id="paint0_linear_2242_296" x1="124.204" y1="70.5859" x2="199.549" y2="23.4567" gradientUnits="userSpaceOnUse">
<stop stop-color="#2B98E3"/>
<stop offset="0.463247" stop-color="#31B6CB"/>
<stop offset="1" stop-color="#3CD4C7"/>
</linearGradient>
<linearGradient id="paint1_linear_2242_296" x1="83.8823" y1="43.687" x2="138.826" y2="67.3327" gradientUnits="userSpaceOnUse">
<stop stop-color="#05101F"/>
<stop offset="0.999999" stop-color="#2B98E3" stop-opacity="0"/>
</linearGradient>
<linearGradient id="paint2_linear_2242_296" x1="138.701" y1="25.5947" x2="81.1672" y2="54.3102" gradientUnits="userSpaceOnUse">
<stop stop-color="#2B98E3"/>
<stop offset="0.463247" stop-color="#31B6CB"/>
<stop offset="1" stop-color="#3CD4C7"/>
</linearGradient>
<linearGradient id="paint3_linear_2242_296" x1="202.021" y1="55.596" x2="129.688" y2="27.446" gradientUnits="userSpaceOnUse">
<stop stop-color="#05101F"/>
<stop offset="0.999999" stop-color="#2B98E3" stop-opacity="0"/>
</linearGradient>
<clipPath id="clip0_2242_296">
<rect width="125.21" height="90.6128" fill="white" transform="translate(78.043)"/>
</clipPath>
</defs>
</svg>
