<svg width="282" height="160" viewBox="0 0 282 160" fill="none" xmlns="http://www.w3.org/2000/svg">
<g clip-path="url(#clip0_2242_307)">
<path d="M89.9444 64.3326L87.2051 62.7539C88.0807 63.3518 88.9961 63.8794 89.9444 64.3326Z" fill="#2A97E2"/>
<path d="M203.252 45.2709C203.252 48.387 202.566 51.4659 201.254 54.2745C199.505 58.0227 196.642 61.2895 192.816 63.5183L175.352 73.6896L150.907 87.9276C147.878 89.6911 144.503 90.5875 141.121 90.6136C137.688 90.6407 134.25 89.7715 131.162 88.005L123.904 83.8528L123.857 83.8267C123.306 83.5142 122.734 83.1886 122.142 82.852C119.054 81.0955 115.463 79.0365 111.833 76.9484L111.806 76.9323C109.977 75.8802 108.14 74.8201 106.351 73.7881L105.551 73.3268L89.9437 64.3333L87.2044 62.7546C86.6346 62.3667 86.0817 61.9477 85.5488 61.5006L91.4408 54.8142L108.948 53.0617L116.232 53.7912L121.054 54.2745L124.615 54.6313L125.228 54.2745L132.926 49.7918L141.121 45.0187L142.065 44.469L150.027 39.8316V39.8306L171.952 27.0617C178.033 23.5196 185.148 23.4171 191.082 26.1563C194.885 27.9108 198.203 30.834 200.453 34.766C202.351 38.0811 203.252 41.6996 203.252 45.2709Z" fill="url(#paint0_linear_2242_307)"/>
<path d="M141.121 45.0195V90.6144C137.688 90.6416 134.25 89.7723 131.162 88.0058L123.904 83.8537L123.857 83.8275C123.306 83.515 122.734 83.1894 122.142 82.8528C119.054 81.0963 115.463 79.0373 111.833 76.9492L111.806 76.9331C109.977 75.881 108.14 74.8209 106.351 73.7889L105.551 73.3277L89.9437 64.3341L87.2044 62.7555C86.6346 62.3676 86.0817 61.9485 85.5488 61.5014L91.4408 54.815L108.948 53.0625L124.615 54.6321L141.121 45.0195Z" fill="url(#paint1_linear_2242_307)"/>
<path d="M180.789 20.204C180.608 20.0985 180.424 19.993 180.239 19.8855L178.9 19.1117C175.949 17.4055 172.705 15.5334 169.489 13.6824L169.462 13.6664C165.832 11.5782 162.241 9.51926 159.153 7.76276C158.562 7.42612 157.989 7.10054 157.438 6.78804L157.391 6.76191L150.134 2.60979C144.004 -0.897191 136.492 -0.868059 130.389 2.68717L116.233 10.9321L105.943 16.9251L88.4792 27.0964C81.7854 30.9953 78.043 38.0696 78.043 45.3438C78.043 48.9151 78.9445 52.5337 80.8421 55.8487C82.1081 58.0604 83.7118 59.9536 85.5497 61.4991C86.0826 61.9463 86.6354 62.3653 87.2052 62.7532L89.9445 64.3318C95.6493 67.065 102.491 67.1475 108.464 64.0374C108.76 63.8836 109.053 63.7229 109.344 63.553L124.658 54.6338L125.278 54.2731L131.268 50.7842V50.7832L141.122 45.0444L142.071 44.4917L142.066 44.4676L150.028 39.8301V39.8291L171.952 27.0603C178.034 23.5181 185.149 23.4156 191.083 26.1549L180.789 20.204Z" fill="url(#paint2_linear_2242_307)"/>
<path d="M191.082 26.1549C185.148 23.4156 178.033 23.5181 171.952 27.0602L150.028 39.8291V39.8301L142.066 44.4676L142.071 44.4917L141.121 45.0444L131.268 50.7832V50.7842L125.277 54.2731H116.232V10.9321L130.388 2.68717C136.491 -0.868058 144.003 -0.897191 150.133 2.60979L157.391 6.76191L157.438 6.78804C157.988 7.10054 158.561 7.42611 159.153 7.76276C162.241 9.51926 165.832 11.5782 169.462 13.6664L169.489 13.6824C172.704 15.5334 175.948 17.4055 178.9 19.1117L180.239 19.8855C180.424 19.993 180.607 20.0985 180.788 20.204L191.082 26.1549Z" fill="url(#paint3_linear_2242_307)"/>
</g>
<path d="M3.18771 131.902V110.908H11.5125C12.9315 110.908 14.093 111.195 14.9969 111.768C15.9106 112.332 16.5861 113.056 17.0235 113.941C17.4706 114.825 17.6941 115.739 17.6941 116.682C17.6941 117.838 17.4171 118.82 16.8631 119.627C16.3188 120.433 15.5752 120.978 14.6324 121.259V120.53C15.9543 120.832 16.9554 121.459 17.6358 122.411C18.3259 123.364 18.6709 124.447 18.6709 125.662C18.6709 126.907 18.4328 127.995 17.9565 128.928C17.4803 129.861 16.7707 130.59 15.828 131.115C14.8949 131.64 13.7383 131.902 12.3581 131.902H3.18771ZM6.74505 128.593H11.9207C12.533 128.593 13.0822 128.471 13.5682 128.228C14.0541 127.976 14.4332 127.626 14.7053 127.179C14.9872 126.722 15.1281 126.182 15.1281 125.56C15.1281 124.997 15.0067 124.491 14.7637 124.044C14.5207 123.597 14.1659 123.242 13.6994 122.98C13.2328 122.708 12.674 122.572 12.0228 122.572H6.74505V128.593ZM6.74505 119.291H11.4687C11.9742 119.291 12.4261 119.194 12.8246 119C13.2231 118.805 13.539 118.519 13.7723 118.139C14.0055 117.76 14.1222 117.294 14.1222 116.74C14.1222 116.011 13.8889 115.403 13.4224 114.917C12.9558 114.431 12.3046 114.189 11.4687 114.189H6.74505V119.291ZM21.8743 131.902V110.471H25.3879V131.902H21.8743ZM35.6597 132.354C34.4933 132.354 33.5311 132.16 32.773 131.771C32.0148 131.382 31.4122 130.887 30.9651 130.284C30.518 129.681 30.1876 129.04 29.9737 128.36C29.7599 127.679 29.619 127.038 29.5509 126.435C29.4926 125.823 29.4635 125.327 29.4635 124.948V116.157H33.0208V123.738C33.0208 124.224 33.0548 124.773 33.1229 125.385C33.1909 125.988 33.3464 126.571 33.5894 127.135C33.8421 127.689 34.2114 128.146 34.6974 128.505C35.1931 128.865 35.8589 129.045 36.6948 129.045C37.1419 129.045 37.5841 128.972 38.0215 128.826C38.4589 128.68 38.8525 128.432 39.2024 128.083C39.562 127.723 39.8488 127.232 40.0626 126.61C40.2764 125.988 40.3833 125.201 40.3833 124.248L42.4682 125.138C42.4682 126.479 42.2058 127.694 41.6809 128.782C41.1658 129.871 40.4028 130.741 39.392 131.392C38.3811 132.034 37.137 132.354 35.6597 132.354ZM40.8061 131.902V127.018H40.3833V116.157H43.9115V131.902H40.8061ZM55.1661 132.34C53.5721 132.34 52.1724 131.995 50.9672 131.305C49.762 130.615 48.8192 129.657 48.1388 128.432C47.4682 127.208 47.1329 125.798 47.1329 124.204C47.1329 122.484 47.4633 120.992 48.1243 119.729C48.7852 118.455 49.7037 117.469 50.8798 116.769C52.0558 116.069 53.4165 115.719 54.962 115.719C56.5948 115.719 57.9799 116.103 59.117 116.871C60.264 117.629 61.1144 118.703 61.6684 120.093C62.2224 121.483 62.4314 123.121 62.2953 125.006H58.8109V123.723C58.8012 122.013 58.4999 120.764 57.907 119.976C57.3141 119.189 56.381 118.796 55.1077 118.796C53.6693 118.796 52.6001 119.243 51.9003 120.137C51.2005 121.021 50.8506 122.319 50.8506 124.03C50.8506 125.624 51.2005 126.858 51.9003 127.733C52.6001 128.607 53.6207 129.045 54.962 129.045C55.827 129.045 56.5705 128.855 57.1926 128.476C57.8244 128.087 58.3103 127.529 58.6505 126.8L62.1204 127.849C61.5178 129.268 60.5847 130.372 59.3212 131.159C58.0673 131.946 56.6823 132.34 55.1661 132.34ZM49.7426 125.006V122.353H60.575V125.006H49.7426ZM71.6773 131.902V110.908H75.1909V131.902H71.6773ZM85.6377 132.34C83.6938 132.34 82.1144 131.902 80.8994 131.028C79.6845 130.153 78.9458 128.923 78.6834 127.339L82.2699 126.785C82.4545 127.563 82.8628 128.175 83.4945 128.622C84.1263 129.069 84.9233 129.293 85.8855 129.293C86.7311 129.293 87.3823 129.127 87.8392 128.797C88.3057 128.457 88.539 127.995 88.539 127.412C88.539 127.052 88.4515 126.766 88.2765 126.552C88.1113 126.328 87.742 126.114 87.1685 125.91C86.5951 125.706 85.7154 125.449 84.5297 125.138C83.2078 124.788 82.1581 124.413 81.3805 124.015C80.603 123.607 80.0441 123.126 79.7039 122.572C79.3637 122.018 79.1936 121.347 79.1936 120.56C79.1936 119.578 79.4512 118.723 79.9663 117.994C80.4815 117.265 81.2007 116.706 82.1241 116.317C83.0474 115.919 84.136 115.719 85.3898 115.719C86.6145 115.719 87.6982 115.909 88.641 116.288C89.5935 116.667 90.3614 117.206 90.9445 117.906C91.5277 118.606 91.8873 119.427 92.0234 120.37L88.4369 121.012C88.3494 120.341 88.0433 119.811 87.5184 119.422C87.0033 119.034 86.3132 118.815 85.4482 118.766C84.622 118.718 83.9562 118.844 83.4508 119.145C82.9454 119.437 82.6927 119.85 82.6927 120.385C82.6927 120.686 82.7947 120.944 82.9988 121.157C83.2029 121.371 83.6112 121.585 84.2235 121.799C84.8455 122.013 85.7689 122.275 86.9936 122.586C88.2474 122.907 89.2485 123.276 89.9969 123.694C90.755 124.102 91.2993 124.593 91.6298 125.167C91.97 125.74 92.14 126.435 92.14 127.252C92.14 128.836 91.5617 130.08 90.4051 130.984C89.2582 131.888 87.6691 132.34 85.6377 132.34ZM95.625 131.902V110.471H99.1386V131.902H95.625ZM107.909 132.34C106.772 132.34 105.809 132.126 105.022 131.698C104.235 131.261 103.637 130.683 103.229 129.963C102.83 129.244 102.631 128.452 102.631 127.587C102.631 126.829 102.757 126.148 103.01 125.546C103.263 124.933 103.652 124.409 104.176 123.971C104.701 123.524 105.382 123.16 106.217 122.878C106.849 122.674 107.588 122.489 108.434 122.324C109.289 122.159 110.212 122.008 111.204 121.872C112.205 121.726 113.25 121.57 114.338 121.405L113.084 122.12C113.094 121.031 112.851 120.229 112.355 119.714C111.86 119.199 111.024 118.941 109.848 118.941C109.138 118.941 108.453 119.107 107.792 119.437C107.131 119.768 106.669 120.336 106.407 121.143L103.2 120.137C103.588 118.805 104.327 117.736 105.416 116.929C106.514 116.123 107.991 115.719 109.848 115.719C111.247 115.719 112.477 115.948 113.536 116.405C114.605 116.861 115.398 117.61 115.913 118.65C116.195 119.204 116.365 119.772 116.423 120.356C116.481 120.929 116.51 121.556 116.51 122.236V131.902H113.434V128.491L113.945 129.045C113.235 130.182 112.404 131.018 111.451 131.552C110.509 132.077 109.328 132.34 107.909 132.34ZM108.608 129.54C109.405 129.54 110.086 129.4 110.65 129.118C111.213 128.836 111.66 128.491 111.991 128.083C112.331 127.674 112.559 127.29 112.676 126.931C112.861 126.484 112.963 125.973 112.982 125.4C113.011 124.817 113.026 124.345 113.026 123.986L114.105 124.307C113.045 124.472 112.137 124.618 111.379 124.744C110.62 124.87 109.969 124.992 109.425 125.108C108.881 125.215 108.4 125.337 107.982 125.473C107.573 125.619 107.228 125.789 106.946 125.983C106.665 126.178 106.446 126.401 106.29 126.654C106.145 126.907 106.072 127.203 106.072 127.543C106.072 127.932 106.169 128.277 106.363 128.578C106.558 128.87 106.84 129.103 107.209 129.278C107.588 129.453 108.054 129.54 108.608 129.54ZM131.197 131.902V124.321C131.197 123.825 131.163 123.276 131.095 122.674C131.027 122.071 130.866 121.493 130.614 120.939C130.371 120.375 130.001 119.913 129.506 119.554C129.02 119.194 128.359 119.014 127.523 119.014C127.076 119.014 126.634 119.087 126.196 119.233C125.759 119.379 125.36 119.631 125.001 119.991C124.651 120.341 124.369 120.827 124.155 121.449C123.941 122.061 123.834 122.849 123.834 123.811L121.749 122.922C121.749 121.58 122.007 120.365 122.522 119.277C123.047 118.188 123.815 117.323 124.826 116.682C125.837 116.03 127.081 115.705 128.558 115.705C129.724 115.705 130.687 115.899 131.445 116.288C132.203 116.677 132.805 117.172 133.253 117.775C133.7 118.378 134.03 119.019 134.244 119.699C134.458 120.38 134.594 121.026 134.652 121.639C134.72 122.241 134.754 122.732 134.754 123.111V131.902H131.197ZM120.277 131.902V116.157H123.411V121.041H123.834V131.902H120.277ZM144.615 132.34C143.167 132.34 141.903 131.975 140.825 131.246C139.746 130.517 138.91 129.526 138.317 128.272C137.724 127.018 137.428 125.604 137.428 124.03C137.428 122.436 137.724 121.016 138.317 119.772C138.92 118.519 139.77 117.532 140.868 116.813C141.967 116.084 143.259 115.719 144.746 115.719C146.243 115.719 147.497 116.084 148.508 116.813C149.528 117.532 150.301 118.519 150.826 119.772C151.351 121.026 151.613 122.445 151.613 124.03C151.613 125.594 151.351 127.009 150.826 128.272C150.301 129.526 149.519 130.517 148.479 131.246C147.439 131.975 146.151 132.34 144.615 132.34ZM145.155 129.191C146.097 129.191 146.856 128.977 147.429 128.549C148.012 128.112 148.435 127.504 148.697 126.727C148.97 125.949 149.106 125.05 149.106 124.03C149.106 122.999 148.97 122.1 148.697 121.332C148.435 120.555 148.022 119.952 147.458 119.525C146.894 119.087 146.166 118.868 145.271 118.868C144.329 118.868 143.551 119.102 142.939 119.568C142.326 120.025 141.874 120.647 141.583 121.434C141.291 122.212 141.145 123.077 141.145 124.03C141.145 124.992 141.286 125.867 141.568 126.654C141.86 127.431 142.302 128.049 142.895 128.505C143.488 128.962 144.241 129.191 145.155 129.191ZM149.106 131.902V120.851H148.668V110.908H152.211V131.902H149.106ZM169.907 132.34C168.371 132.34 166.986 132.072 165.752 131.538C164.527 131.003 163.516 130.24 162.719 129.249C161.932 128.248 161.431 127.062 161.218 125.692L164.862 125.138C165.173 126.382 165.81 127.344 166.772 128.024C167.744 128.705 168.862 129.045 170.126 129.045C170.874 129.045 171.579 128.928 172.24 128.695C172.9 128.462 173.435 128.121 173.843 127.674C174.261 127.227 174.47 126.678 174.47 126.027C174.47 125.735 174.422 125.468 174.324 125.225C174.227 124.972 174.081 124.749 173.887 124.554C173.702 124.36 173.459 124.185 173.158 124.03C172.866 123.864 172.526 123.723 172.138 123.607L166.714 122.003C166.247 121.867 165.742 121.687 165.198 121.464C164.663 121.23 164.153 120.914 163.667 120.516C163.191 120.108 162.797 119.593 162.486 118.971C162.185 118.339 162.034 117.561 162.034 116.638C162.034 115.287 162.374 114.154 163.055 113.241C163.745 112.317 164.668 111.627 165.825 111.171C166.991 110.714 168.284 110.49 169.703 110.5C171.141 110.51 172.424 110.758 173.552 111.243C174.679 111.72 175.622 112.415 176.38 113.328C177.138 114.242 177.673 115.345 177.984 116.638L174.208 117.294C174.052 116.555 173.751 115.928 173.304 115.413C172.866 114.888 172.327 114.49 171.686 114.218C171.054 113.946 170.378 113.8 169.659 113.78C168.959 113.771 168.308 113.877 167.705 114.101C167.113 114.315 166.631 114.626 166.262 115.034C165.902 115.442 165.723 115.919 165.723 116.463C165.723 116.978 165.878 117.401 166.189 117.731C166.5 118.052 166.884 118.31 167.341 118.504C167.807 118.689 168.279 118.844 168.755 118.971L172.517 120.02C173.032 120.156 173.61 120.341 174.252 120.574C174.893 120.808 175.51 121.133 176.103 121.551C176.696 121.969 177.182 122.518 177.561 123.199C177.95 123.879 178.144 124.744 178.144 125.794C178.144 126.882 177.916 127.84 177.459 128.666C177.012 129.482 176.404 130.163 175.637 130.707C174.869 131.251 173.989 131.659 172.998 131.932C172.016 132.204 170.986 132.34 169.907 132.34ZM188.458 132.34C186.864 132.34 185.465 131.995 184.26 131.305C183.054 130.615 182.112 129.657 181.431 128.432C180.76 127.208 180.425 125.798 180.425 124.204C180.425 122.484 180.756 120.992 181.417 119.729C182.077 118.455 182.996 117.469 184.172 116.769C185.348 116.069 186.709 115.719 188.254 115.719C189.887 115.719 191.272 116.103 192.409 116.871C193.556 117.629 194.407 118.703 194.961 120.093C195.515 121.483 195.724 123.121 195.588 125.006H192.103V123.723C192.093 122.013 191.792 120.764 191.199 119.976C190.606 119.189 189.673 118.796 188.4 118.796C186.962 118.796 185.892 119.243 185.193 120.137C184.493 121.021 184.143 122.319 184.143 124.03C184.143 125.624 184.493 126.858 185.193 127.733C185.892 128.607 186.913 129.045 188.254 129.045C189.119 129.045 189.863 128.855 190.485 128.476C191.117 128.087 191.603 127.529 191.943 126.8L195.413 127.849C194.81 129.268 193.877 130.372 192.613 131.159C191.36 131.946 189.975 132.34 188.458 132.34ZM183.035 125.006V122.353H193.867V125.006H183.035ZM205.678 132.34C204.055 132.34 202.67 131.98 201.523 131.261C200.376 130.532 199.497 129.54 198.884 128.287C198.282 127.033 197.976 125.614 197.966 124.03C197.976 122.416 198.291 120.987 198.914 119.743C199.545 118.489 200.439 117.508 201.596 116.798C202.753 116.079 204.128 115.719 205.722 115.719C207.51 115.719 209.022 116.171 210.256 117.075C211.5 117.969 212.312 119.194 212.691 120.749L209.192 121.697C208.92 120.851 208.468 120.195 207.836 119.729C207.204 119.252 206.485 119.014 205.678 119.014C204.765 119.014 204.011 119.233 203.419 119.67C202.826 120.098 202.388 120.691 202.106 121.449C201.825 122.207 201.684 123.067 201.684 124.03C201.684 125.526 202.019 126.736 202.69 127.66C203.36 128.583 204.356 129.045 205.678 129.045C206.611 129.045 207.345 128.831 207.88 128.403C208.424 127.976 208.832 127.358 209.104 126.552L212.691 127.354C212.205 128.957 211.355 130.192 210.14 131.057C208.925 131.912 207.438 132.34 205.678 132.34ZM221.517 132.354C220.351 132.354 219.389 132.16 218.63 131.771C217.872 131.382 217.27 130.887 216.823 130.284C216.375 129.681 216.045 129.04 215.831 128.36C215.617 127.679 215.476 127.038 215.408 126.435C215.35 125.823 215.321 125.327 215.321 124.948V116.157H218.878V123.738C218.878 124.224 218.912 124.773 218.98 125.385C219.048 125.988 219.204 126.571 219.447 127.135C219.7 127.689 220.069 128.146 220.555 128.505C221.051 128.865 221.716 129.045 222.552 129.045C222.999 129.045 223.442 128.972 223.879 128.826C224.316 128.68 224.71 128.432 225.06 128.083C225.419 127.723 225.706 127.232 225.92 126.61C226.134 125.988 226.241 125.201 226.241 124.248L228.326 125.138C228.326 126.479 228.063 127.694 227.538 128.782C227.023 129.871 226.26 130.741 225.249 131.392C224.239 132.034 222.994 132.354 221.517 132.354ZM226.664 131.902V127.018H226.241V116.157H229.769V131.902H226.664ZM233.865 131.902V116.157H236.97V119.991L236.591 119.495C236.786 118.971 237.043 118.494 237.364 118.067C237.695 117.629 238.088 117.27 238.545 116.988C238.934 116.725 239.361 116.521 239.828 116.375C240.304 116.22 240.79 116.128 241.286 116.098C241.782 116.06 242.263 116.079 242.729 116.157V119.437C242.263 119.301 241.723 119.257 241.111 119.306C240.508 119.354 239.964 119.525 239.478 119.816C238.992 120.079 238.594 120.414 238.283 120.822C237.981 121.23 237.758 121.697 237.612 122.222C237.466 122.737 237.393 123.296 237.393 123.898V131.902H233.865ZM245.803 113.766V110.544H249.317V113.766H245.803ZM245.803 131.902V116.157H249.317V131.902H245.803ZM262.912 131.902C261.873 132.097 260.852 132.179 259.851 132.15C258.859 132.131 257.97 131.951 257.183 131.611C256.396 131.261 255.798 130.712 255.39 129.963C255.03 129.283 254.84 128.588 254.821 127.878C254.802 127.169 254.792 126.367 254.792 125.473V111.783H258.291V125.269C258.291 125.901 258.296 126.455 258.305 126.931C258.325 127.407 258.427 127.796 258.612 128.097C258.962 128.68 259.52 129.006 260.288 129.074C261.056 129.142 261.931 129.103 262.912 128.957V131.902ZM251.934 118.912V116.157H262.912V118.912H251.934ZM267.941 138.9L270.974 130.576L271.032 133.025L264.165 116.157H267.825L272.694 128.637H271.761L276.499 116.157H280.013L271.236 138.9H267.941Z" fill="white"/>
<path d="M45.4855 155.902V146.023H46.94L51.8044 153.364V146.023H53.2589V155.902H51.8044L46.94 148.554V155.902H45.4855ZM57.232 155.902L60.4429 146.023H62.508L65.7189 155.902H64.2301L61.2731 146.887H61.6436L58.7208 155.902H57.232ZM58.8992 153.673V152.328H64.0586V153.673H58.8992ZM71.0483 155.902L67.8374 146.023H69.3262L72.0637 154.455L74.8355 146.023H76.3243L73.1134 155.902H71.0483ZM80.2405 155.902V146.023H81.6744V155.902H80.2405ZM90.5201 156.108C89.8569 156.108 89.2463 155.994 88.6883 155.765C88.1302 155.532 87.6454 155.193 87.2338 154.75C86.8221 154.306 86.5019 153.766 86.2732 153.131C86.0445 152.495 85.9302 151.772 85.9302 150.963C85.9302 149.897 86.1246 148.982 86.5134 148.218C86.9022 147.45 87.4419 146.86 88.1325 146.448C88.8232 146.032 89.619 145.824 90.5201 145.824C91.6819 145.824 92.6081 146.094 93.2987 146.633C93.994 147.173 94.4674 147.919 94.7189 148.87L93.2644 149.131C93.0632 148.541 92.7384 148.07 92.2902 147.717C91.842 147.365 91.2794 147.187 90.6024 147.182C89.9026 147.178 89.3195 147.333 88.8529 147.649C88.391 147.964 88.0433 148.408 87.8101 148.98C87.5768 149.547 87.4579 150.208 87.4533 150.963C87.4487 151.717 87.5631 152.378 87.7963 152.945C88.0296 153.508 88.3795 153.947 88.8461 154.263C89.3172 154.578 89.9026 154.738 90.6024 154.743C91.165 154.752 91.6476 154.649 92.0501 154.434C92.4571 154.215 92.7796 153.894 93.0174 153.474C93.2553 153.053 93.4085 152.536 93.4771 151.923H91.5561V150.77H95.0002C95.0094 150.853 95.0162 150.963 95.0208 151.1C95.0254 151.232 95.0277 151.317 95.0277 151.354C95.0277 152.268 94.8516 153.085 94.4994 153.803C94.1472 154.521 93.6349 155.086 92.9626 155.498C92.2902 155.905 91.476 156.108 90.5201 156.108ZM98.1854 155.902L101.396 146.023H103.461L106.672 155.902H105.183L102.226 146.887H102.597L99.6742 155.902H98.1854ZM99.8526 153.673V152.328H105.012V153.673H99.8526ZM112.293 155.902V147.374H109.007V146.023H117.013V147.374H113.727V155.902H112.293ZM120.856 155.902V146.023H127.168V147.374H122.29V150.146H126.344V151.498H122.29V154.551H127.168V155.902H120.856ZM141.174 156.108C140.186 156.108 139.345 155.893 138.65 155.463C137.954 155.029 137.421 154.425 137.051 153.652C136.685 152.879 136.502 151.983 136.502 150.963C136.502 149.943 136.685 149.046 137.051 148.273C137.421 147.5 137.954 146.899 138.65 146.469C139.345 146.034 140.186 145.817 141.174 145.817C142.313 145.817 143.255 146.105 144.001 146.681C144.751 147.258 145.273 148.033 145.565 149.007L144.111 149.398C143.919 148.708 143.576 148.166 143.082 147.772C142.592 147.379 141.956 147.182 141.174 147.182C140.475 147.182 139.891 147.34 139.425 147.656C138.958 147.971 138.606 148.413 138.368 148.98C138.135 149.547 138.018 150.208 138.018 150.963C138.014 151.717 138.128 152.378 138.361 152.945C138.599 153.512 138.951 153.954 139.418 154.269C139.889 154.585 140.475 154.743 141.174 154.743C141.956 154.743 142.592 154.546 143.082 154.153C143.576 153.755 143.919 153.213 144.111 152.527L145.565 152.918C145.273 153.892 144.751 154.667 144.001 155.244C143.255 155.82 142.313 156.108 141.174 156.108ZM151.784 155.902V151.82L148.443 146.023H150.117L152.511 150.174L154.906 146.023H156.58L153.238 151.82V155.902H151.784ZM160.281 155.902V146.023H164.165C164.791 146.023 165.317 146.151 165.743 146.407C166.168 146.663 166.488 146.995 166.703 147.402C166.918 147.804 167.026 148.23 167.026 148.678C167.026 149.222 166.891 149.689 166.621 150.077C166.355 150.466 165.996 150.732 165.544 150.873L165.53 150.537C166.161 150.693 166.646 150.997 166.984 151.45C167.323 151.898 167.492 152.422 167.492 153.021C167.492 153.602 167.375 154.107 167.142 154.537C166.913 154.967 166.577 155.303 166.134 155.546C165.695 155.783 165.162 155.902 164.535 155.902H160.281ZM161.736 154.537H164.316C164.64 154.537 164.931 154.475 165.187 154.352C165.448 154.228 165.651 154.052 165.797 153.824C165.948 153.59 166.024 153.314 166.024 152.993C166.024 152.696 165.958 152.428 165.825 152.191C165.697 151.948 165.509 151.758 165.262 151.621C165.02 151.479 164.734 151.408 164.405 151.408H161.736V154.537ZM161.736 150.057H164.144C164.409 150.057 164.647 150.004 164.858 149.899C165.073 149.789 165.242 149.634 165.365 149.433C165.493 149.227 165.557 148.98 165.557 148.692C165.557 148.307 165.429 147.992 165.173 147.745C164.917 147.498 164.574 147.374 164.144 147.374H161.736V150.057ZM171.602 155.902V146.023H177.914V147.374H173.036V150.146H177.09V151.498H173.036V154.551H177.914V155.902H171.602ZM182.306 155.902V146.023H186.299C186.395 146.023 186.514 146.027 186.656 146.036C186.797 146.041 186.932 146.055 187.06 146.078C187.609 146.165 188.067 146.352 188.432 146.64C188.803 146.928 189.08 147.292 189.263 147.731C189.446 148.17 189.537 148.655 189.537 149.186C189.537 149.972 189.336 150.652 188.933 151.223C188.531 151.79 187.927 152.145 187.122 152.287L186.539 152.355H183.74V155.902H182.306ZM188.083 155.902L186.134 151.882L187.582 151.511L189.722 155.902H188.083ZM183.74 150.997H186.244C186.335 150.997 186.436 150.992 186.546 150.983C186.66 150.974 186.768 150.958 186.868 150.935C187.161 150.866 187.396 150.741 187.575 150.558C187.753 150.37 187.881 150.155 187.959 149.913C188.037 149.67 188.076 149.428 188.076 149.186C188.076 148.943 188.037 148.703 187.959 148.465C187.881 148.223 187.753 148.01 187.575 147.827C187.396 147.64 187.161 147.512 186.868 147.443C186.768 147.415 186.66 147.397 186.546 147.388C186.436 147.379 186.335 147.374 186.244 147.374H183.74V150.997ZM199.466 155.902V146.023H203.459C203.555 146.023 203.674 146.027 203.816 146.036C203.957 146.041 204.092 146.055 204.22 146.078C204.769 146.165 205.227 146.352 205.593 146.64C205.963 146.928 206.24 147.292 206.423 147.731C206.606 148.17 206.697 148.655 206.697 149.186C206.697 149.972 206.496 150.652 206.093 151.223C205.691 151.79 205.087 152.145 204.282 152.287L203.699 152.355H200.9V155.902H199.466ZM205.243 155.902L203.294 151.882L204.742 151.511L206.882 155.902H205.243ZM200.9 150.997H203.404C203.495 150.997 203.596 150.992 203.706 150.983C203.82 150.974 203.928 150.958 204.028 150.935C204.321 150.866 204.557 150.741 204.735 150.558C204.913 150.37 205.041 150.155 205.119 149.913C205.197 149.67 205.236 149.428 205.236 149.186C205.236 148.943 205.197 148.703 205.119 148.465C205.041 148.223 204.913 148.01 204.735 147.827C204.557 147.64 204.321 147.512 204.028 147.443C203.928 147.415 203.82 147.397 203.706 147.388C203.596 147.379 203.495 147.374 203.404 147.374H200.9V150.997ZM211.272 155.902V146.023H212.706V155.902H211.272ZM221.092 156.108C220.383 156.108 219.742 155.987 219.171 155.745C218.604 155.498 218.135 155.148 217.764 154.695C217.398 154.237 217.161 153.695 217.051 153.069L218.546 152.842C218.697 153.446 219.013 153.917 219.493 154.256C219.973 154.59 220.534 154.757 221.174 154.757C221.572 154.757 221.938 154.695 222.272 154.571C222.606 154.443 222.873 154.263 223.075 154.029C223.28 153.791 223.383 153.508 223.383 153.179C223.383 153 223.351 152.842 223.287 152.705C223.228 152.568 223.143 152.449 223.033 152.348C222.928 152.243 222.798 152.154 222.642 152.081C222.491 152.003 222.324 151.937 222.141 151.882L219.61 151.134C219.363 151.061 219.111 150.967 218.855 150.853C218.599 150.734 218.363 150.581 218.148 150.393C217.938 150.201 217.767 149.965 217.634 149.686C217.501 149.403 217.435 149.06 217.435 148.657C217.435 148.049 217.59 147.534 217.901 147.114C218.217 146.688 218.642 146.368 219.178 146.153C219.713 145.934 220.312 145.824 220.975 145.824C221.643 145.833 222.24 145.952 222.766 146.181C223.296 146.409 223.735 146.739 224.083 147.168C224.435 147.594 224.678 148.111 224.81 148.719L223.274 148.98C223.205 148.609 223.059 148.291 222.834 148.026C222.61 147.756 222.336 147.55 222.011 147.409C221.686 147.262 221.334 147.187 220.955 147.182C220.589 147.173 220.252 147.228 219.946 147.347C219.644 147.466 219.402 147.633 219.219 147.848C219.04 148.063 218.951 148.31 218.951 148.589C218.951 148.863 219.031 149.085 219.191 149.254C219.351 149.423 219.548 149.558 219.781 149.659C220.019 149.755 220.255 149.835 220.488 149.899L222.313 150.414C222.542 150.478 222.8 150.565 223.088 150.674C223.381 150.78 223.662 150.928 223.932 151.12C224.207 151.312 224.433 151.569 224.611 151.889C224.79 152.204 224.879 152.602 224.879 153.083C224.879 153.581 224.778 154.02 224.577 154.4C224.376 154.775 224.099 155.09 223.747 155.347C223.399 155.598 222.997 155.788 222.539 155.916C222.082 156.044 221.599 156.108 221.092 156.108ZM229.085 155.902V146.023H230.519V150.633L234.656 146.023H236.44L232.07 150.846L236.763 155.902H234.924L230.519 151.182V155.902H229.085Z" fill="white"/>
<defs>
<linearGradient id="paint0_linear_2242_307" x1="124.204" y1="70.5859" x2="199.549" y2="23.4567" gradientUnits="userSpaceOnUse">
<stop stop-color="#2B98E3"/>
<stop offset="0.463247" stop-color="#31B6CB"/>
<stop offset="1" stop-color="#3CD4C7"/>
</linearGradient>
<linearGradient id="paint1_linear_2242_307" x1="83.8823" y1="43.687" x2="138.826" y2="67.3327" gradientUnits="userSpaceOnUse">
<stop stop-color="#05101F"/>
<stop offset="0.999999" stop-color="#2B98E3" stop-opacity="0"/>
</linearGradient>
<linearGradient id="paint2_linear_2242_307" x1="138.701" y1="25.5947" x2="81.1672" y2="54.3102" gradientUnits="userSpaceOnUse">
<stop stop-color="#2B98E3"/>
<stop offset="0.463247" stop-color="#31B6CB"/>
<stop offset="1" stop-color="#3CD4C7"/>
</linearGradient>
<linearGradient id="paint3_linear_2242_307" x1="202.021" y1="55.596" x2="129.688" y2="27.446" gradientUnits="userSpaceOnUse">
<stop stop-color="#05101F"/>
<stop offset="0.999999" stop-color="#2B98E3" stop-opacity="0"/>
</linearGradient>
<clipPath id="clip0_2242_307">
<rect width="125.21" height="90.6128" fill="white" transform="translate(78.043)"/>
</clipPath>
</defs>
</svg>
