<svg width="282" height="160" viewBox="0 0 282 160" fill="none" xmlns="http://www.w3.org/2000/svg">
<g clip-path="url(#clip0_2242_318)">
<path d="M89.9424 64.3326L87.2031 62.7539C88.0787 63.3518 88.9941 63.8794 89.9424 64.3326Z" fill="#2A97E2"/>
<path d="M203.251 45.2709C203.251 48.387 202.564 51.4659 201.252 54.2745C199.503 58.0227 196.64 61.2895 192.814 63.5183L175.35 73.6896L150.905 87.9276C147.876 89.6911 144.501 90.5875 141.119 90.6136C137.686 90.6407 134.248 89.7715 131.16 88.005L123.902 83.8528L123.855 83.8267C123.305 83.5142 122.732 83.1886 122.14 82.852C119.052 81.0955 115.461 79.0365 111.831 76.9484L111.804 76.9323C109.976 75.8802 108.138 74.8201 106.349 73.7881L105.549 73.3268L89.9417 64.3333L87.2024 62.7546C86.6326 62.3667 86.0798 61.9477 85.5469 61.5006L91.4389 54.8142L108.946 53.0617L116.23 53.7912L121.052 54.2745L124.613 54.6313L125.226 54.2745L132.924 49.7918L141.119 45.0187L142.063 44.469L150.025 39.8316V39.8306L171.95 27.0617C178.031 23.5196 185.146 23.4171 191.08 26.1563C194.883 27.9108 198.201 30.834 200.451 34.766C202.349 38.0811 203.251 41.6996 203.251 45.2709Z" fill="url(#paint0_linear_2242_318)"/>
<path d="M141.119 45.0195V90.6144C137.686 90.6416 134.248 89.7723 131.16 88.0058L123.902 83.8537L123.855 83.8275C123.305 83.515 122.732 83.1894 122.14 82.8528C119.052 81.0963 115.461 79.0373 111.831 76.9492L111.804 76.9331C109.976 75.881 108.138 74.8209 106.349 73.7889L105.549 73.3277L89.9417 64.3341L87.2024 62.7555C86.6326 62.3676 86.0798 61.9485 85.5469 61.5014L91.4389 54.815L108.946 53.0625L124.613 54.6321L141.119 45.0195Z" fill="url(#paint1_linear_2242_318)"/>
<path d="M180.789 20.204C180.608 20.0985 180.424 19.993 180.239 19.8855L178.9 19.1117C175.949 17.4055 172.705 15.5334 169.489 13.6824L169.462 13.6664C165.832 11.5782 162.241 9.51926 159.153 7.76276C158.562 7.42612 157.989 7.10054 157.438 6.78804L157.391 6.76191L150.134 2.60979C144.004 -0.897191 136.492 -0.868059 130.389 2.68717L116.233 10.9321L105.943 16.9251L88.4792 27.0964C81.7854 30.9953 78.043 38.0696 78.043 45.3438C78.043 48.9151 78.9445 52.5337 80.8421 55.8487C82.1081 58.0604 83.7118 59.9536 85.5497 61.4991C86.0826 61.9463 86.6354 62.3653 87.2052 62.7532L89.9445 64.3318C95.6493 67.065 102.491 67.1475 108.464 64.0374C108.76 63.8836 109.053 63.7229 109.344 63.553L124.658 54.6338L125.278 54.2731L131.268 50.7842V50.7832L141.122 45.0444L142.071 44.4917L142.066 44.4676L150.028 39.8301V39.8291L171.952 27.0603C178.034 23.5181 185.149 23.4156 191.083 26.1549L180.789 20.204Z" fill="url(#paint2_linear_2242_318)"/>
<path d="M191.082 26.1549C185.148 23.4156 178.033 23.5181 171.952 27.0602L150.028 39.8291V39.8301L142.066 44.4676L142.071 44.4917L141.121 45.0444L131.268 50.7832V50.7842L125.277 54.2731H116.232V10.9321L130.388 2.68717C136.491 -0.868058 144.003 -0.897191 150.133 2.60979L157.391 6.76191L157.438 6.78804C157.988 7.10054 158.561 7.42611 159.153 7.76276C162.241 9.51926 165.832 11.5782 169.462 13.6664L169.489 13.6824C172.704 15.5334 175.948 17.4055 178.9 19.1117L180.239 19.8855C180.424 19.993 180.607 20.0985 180.788 20.204L191.082 26.1549Z" fill="url(#paint3_linear_2242_318)"/>
</g>
<path d="M13.4103 131.902V110.908H21.7351C23.1541 110.908 24.3156 111.195 25.2195 111.768C26.1332 112.332 26.8087 113.056 27.246 113.941C27.6931 114.825 27.9167 115.739 27.9167 116.682C27.9167 117.838 27.6397 118.82 27.0857 119.627C26.5414 120.433 25.7978 120.978 24.855 121.259V120.53C26.1769 120.832 27.178 121.459 27.8584 122.411C28.5485 123.364 28.8935 124.447 28.8935 125.662C28.8935 126.907 28.6554 127.995 28.1791 128.928C27.7029 129.861 26.9933 130.59 26.0505 131.115C25.1175 131.64 23.9608 131.902 22.5807 131.902H13.4103ZM16.9676 128.593H22.1433C22.7556 128.593 23.3048 128.471 23.7908 128.228C24.2767 127.976 24.6558 127.626 24.9279 127.179C25.2098 126.722 25.3507 126.182 25.3507 125.56C25.3507 124.997 25.2292 124.491 24.9863 124.044C24.7433 123.597 24.3885 123.242 23.922 122.98C23.4554 122.708 22.8966 122.572 22.2454 122.572H16.9676V128.593ZM16.9676 119.291H21.6913C22.1968 119.291 22.6487 119.194 23.0472 119C23.4457 118.805 23.7616 118.519 23.9949 118.139C24.2281 117.76 24.3448 117.294 24.3448 116.74C24.3448 116.011 24.1115 115.403 23.645 114.917C23.1784 114.431 22.5272 114.189 21.6913 114.189H16.9676V119.291ZM32.0969 131.902V110.471H35.6105V131.902H32.0969ZM45.8823 132.354C44.7159 132.354 43.7537 132.16 42.9956 131.771C42.2374 131.382 41.6348 130.887 41.1877 130.284C40.7406 129.681 40.4102 129.04 40.1963 128.36C39.9825 127.679 39.8416 127.038 39.7735 126.435C39.7152 125.823 39.6861 125.327 39.6861 124.948V116.157H43.2434V123.738C43.2434 124.224 43.2774 124.773 43.3455 125.385C43.4135 125.988 43.569 126.571 43.812 127.135C44.0647 127.689 44.434 128.146 44.92 128.505C45.4157 128.865 46.0815 129.045 46.9174 129.045C47.3645 129.045 47.8067 128.972 48.2441 128.826C48.6815 128.68 49.0751 128.432 49.425 128.083C49.7846 127.723 50.0714 127.232 50.2852 126.61C50.499 125.988 50.6059 125.201 50.6059 124.248L52.6908 125.138C52.6908 126.479 52.4284 127.694 51.9035 128.782C51.3884 129.871 50.6254 130.741 49.6145 131.392C48.6037 132.034 47.3596 132.354 45.8823 132.354ZM51.0287 131.902V127.018H50.6059V116.157H54.1341V131.902H51.0287ZM65.3887 132.34C63.7947 132.34 62.395 131.995 61.1898 131.305C59.9846 130.615 59.0418 129.657 58.3614 128.432C57.6908 127.208 57.3555 125.798 57.3555 124.204C57.3555 122.484 57.6859 120.992 58.3469 119.729C59.0078 118.455 59.9263 117.469 61.1023 116.769C62.2784 116.069 63.6391 115.719 65.1845 115.719C66.8174 115.719 68.2025 116.103 69.3396 116.871C70.4865 117.629 71.337 118.703 71.891 120.093C72.445 121.483 72.654 123.121 72.5179 125.006H69.0335V123.723C69.0238 122.013 68.7225 120.764 68.1296 119.976C67.5367 119.189 66.6036 118.796 65.3303 118.796C63.8918 118.796 62.8227 119.243 62.1229 120.137C61.4231 121.021 61.0732 122.319 61.0732 124.03C61.0732 125.624 61.4231 126.858 62.1229 127.733C62.8227 128.607 63.8433 129.045 65.1845 129.045C66.0496 129.045 66.7931 128.855 67.4152 128.476C68.0469 128.087 68.5329 127.529 68.8731 126.8L72.343 127.849C71.7404 129.268 70.8073 130.372 69.5438 131.159C68.2899 131.946 66.9049 132.34 65.3887 132.34ZM59.9652 125.006V122.353H70.7976V125.006H59.9652ZM81.8999 131.902V110.908H85.4135V131.902H81.8999ZM95.8603 132.34C93.9164 132.34 92.337 131.902 91.122 131.028C89.9071 130.153 89.1684 128.923 88.906 127.339L92.4925 126.785C92.6771 127.563 93.0854 128.175 93.7171 128.622C94.3489 129.069 95.1459 129.293 96.1081 129.293C96.9537 129.293 97.6049 129.127 98.0618 128.797C98.5283 128.457 98.7616 127.995 98.7616 127.412C98.7616 127.052 98.6741 126.766 98.4991 126.552C98.3339 126.328 97.9646 126.114 97.3911 125.91C96.8177 125.706 95.938 125.449 94.7523 125.138C93.4304 124.788 92.3807 124.413 91.6031 124.015C90.8256 123.607 90.2667 123.126 89.9265 122.572C89.5863 122.018 89.4162 121.347 89.4162 120.56C89.4162 119.578 89.6738 118.723 90.1889 117.994C90.7041 117.265 91.4233 116.706 92.3467 116.317C93.27 115.919 94.3586 115.719 95.6124 115.719C96.8371 115.719 97.9208 115.909 98.8636 116.288C99.8161 116.667 100.584 117.206 101.167 117.906C101.75 118.606 102.11 119.427 102.246 120.37L98.6595 121.012C98.572 120.341 98.2659 119.811 97.741 119.422C97.2259 119.034 96.5358 118.815 95.6707 118.766C94.8446 118.718 94.1788 118.844 93.6734 119.145C93.168 119.437 92.9153 119.85 92.9153 120.385C92.9153 120.686 93.0173 120.944 93.2214 121.157C93.4255 121.371 93.8338 121.585 94.4461 121.799C95.0681 122.013 95.9915 122.275 97.2162 122.586C98.47 122.907 99.4711 123.276 100.219 123.694C100.978 124.102 101.522 124.593 101.852 125.167C102.193 125.74 102.363 126.435 102.363 127.252C102.363 128.836 101.784 130.08 100.628 130.984C99.4808 131.888 97.8917 132.34 95.8603 132.34ZM105.848 131.902V110.471H109.361V131.902H105.848ZM118.131 132.34C116.994 132.34 116.032 132.126 115.245 131.698C114.457 131.261 113.86 130.683 113.451 129.963C113.053 129.244 112.854 128.452 112.854 127.587C112.854 126.829 112.98 126.148 113.233 125.546C113.485 124.933 113.874 124.409 114.399 123.971C114.924 123.524 115.604 123.16 116.44 122.878C117.072 122.674 117.811 122.489 118.656 122.324C119.511 122.159 120.435 122.008 121.426 121.872C122.427 121.726 123.472 121.57 124.561 121.405L123.307 122.12C123.317 121.031 123.074 120.229 122.578 119.714C122.082 119.199 121.246 118.941 120.07 118.941C119.361 118.941 118.676 119.107 118.015 119.437C117.354 119.768 116.892 120.336 116.63 121.143L113.422 120.137C113.811 118.805 114.55 117.736 115.638 116.929C116.737 116.123 118.214 115.719 120.07 115.719C121.47 115.719 122.699 115.948 123.759 116.405C124.828 116.861 125.62 117.61 126.135 118.65C126.417 119.204 126.587 119.772 126.646 120.356C126.704 120.929 126.733 121.556 126.733 122.236V131.902H123.657V128.491L124.167 129.045C123.458 130.182 122.627 131.018 121.674 131.552C120.731 132.077 119.55 132.34 118.131 132.34ZM118.831 129.54C119.628 129.54 120.308 129.4 120.872 129.118C121.436 128.836 121.883 128.491 122.213 128.083C122.554 127.674 122.782 127.29 122.899 126.931C123.083 126.484 123.185 125.973 123.205 125.4C123.234 124.817 123.249 124.345 123.249 123.986L124.327 124.307C123.268 124.472 122.359 124.618 121.601 124.744C120.843 124.87 120.192 124.992 119.648 125.108C119.103 125.215 118.622 125.337 118.204 125.473C117.796 125.619 117.451 125.789 117.169 125.983C116.887 126.178 116.668 126.401 116.513 126.654C116.367 126.907 116.294 127.203 116.294 127.543C116.294 127.932 116.391 128.277 116.586 128.578C116.78 128.87 117.062 129.103 117.431 129.278C117.811 129.453 118.277 129.54 118.831 129.54ZM141.419 131.902V124.321C141.419 123.825 141.385 123.276 141.317 122.674C141.249 122.071 141.089 121.493 140.836 120.939C140.593 120.375 140.224 119.913 139.728 119.554C139.242 119.194 138.581 119.014 137.745 119.014C137.298 119.014 136.856 119.087 136.419 119.233C135.981 119.379 135.583 119.631 135.223 119.991C134.873 120.341 134.591 120.827 134.378 121.449C134.164 122.061 134.057 122.849 134.057 123.811L131.972 122.922C131.972 121.58 132.23 120.365 132.745 119.277C133.27 118.188 134.037 117.323 135.048 116.682C136.059 116.03 137.303 115.705 138.781 115.705C139.947 115.705 140.909 115.899 141.667 116.288C142.425 116.677 143.028 117.172 143.475 117.775C143.922 118.378 144.253 119.019 144.466 119.699C144.68 120.38 144.816 121.026 144.875 121.639C144.943 122.241 144.977 122.732 144.977 123.111V131.902H141.419ZM130.5 131.902V116.157H133.634V121.041H134.057V131.902H130.5ZM154.838 132.34C153.39 132.34 152.126 131.975 151.047 131.246C149.968 130.517 149.132 129.526 148.54 128.272C147.947 127.018 147.65 125.604 147.65 124.03C147.65 122.436 147.947 121.016 148.54 119.772C149.142 118.519 149.993 117.532 151.091 116.813C152.189 116.084 153.482 115.719 154.969 115.719C156.466 115.719 157.72 116.084 158.731 116.813C159.751 117.532 160.524 118.519 161.049 119.772C161.573 121.026 161.836 122.445 161.836 124.03C161.836 125.594 161.573 127.009 161.049 128.272C160.524 129.526 159.741 130.517 158.701 131.246C157.661 131.975 156.374 132.34 154.838 132.34ZM155.377 129.191C156.32 129.191 157.078 128.977 157.652 128.549C158.235 128.112 158.658 127.504 158.92 126.727C159.192 125.949 159.328 125.05 159.328 124.03C159.328 122.999 159.192 122.1 158.92 121.332C158.658 120.555 158.245 119.952 157.681 119.525C157.117 119.087 156.388 118.868 155.494 118.868C154.551 118.868 153.774 119.102 153.161 119.568C152.549 120.025 152.097 120.647 151.805 121.434C151.514 122.212 151.368 123.077 151.368 124.03C151.368 124.992 151.509 125.867 151.791 126.654C152.082 127.431 152.525 128.049 153.117 128.505C153.71 128.962 154.464 129.191 155.377 129.191ZM159.328 131.902V120.851H158.891V110.908H162.434V131.902H159.328ZM180.129 132.34C178.594 132.34 177.209 132.072 175.974 131.538C174.75 131.003 173.739 130.24 172.942 129.249C172.155 128.248 171.654 127.062 171.44 125.692L175.085 125.138C175.396 126.382 176.033 127.344 176.995 128.024C177.967 128.705 179.085 129.045 180.348 129.045C181.097 129.045 181.801 128.928 182.462 128.695C183.123 128.462 183.658 128.121 184.066 127.674C184.484 127.227 184.693 126.678 184.693 126.027C184.693 125.735 184.644 125.468 184.547 125.225C184.45 124.972 184.304 124.749 184.11 124.554C183.925 124.36 183.682 124.185 183.381 124.03C183.089 123.864 182.749 123.723 182.36 123.607L176.937 122.003C176.47 121.867 175.965 121.687 175.42 121.464C174.886 121.23 174.376 120.914 173.89 120.516C173.413 120.108 173.02 119.593 172.709 118.971C172.407 118.339 172.257 117.561 172.257 116.638C172.257 115.287 172.597 114.154 173.277 113.241C173.967 112.317 174.891 111.627 176.047 111.171C177.214 110.714 178.506 110.49 179.925 110.5C181.364 110.51 182.647 110.758 183.774 111.243C184.902 111.72 185.845 112.415 186.603 113.328C187.361 114.242 187.895 115.345 188.206 116.638L184.43 117.294C184.275 116.555 183.974 115.928 183.526 115.413C183.089 114.888 182.55 114.49 181.908 114.218C181.276 113.946 180.601 113.8 179.882 113.78C179.182 113.771 178.531 113.877 177.928 114.101C177.335 114.315 176.854 114.626 176.485 115.034C176.125 115.442 175.945 115.919 175.945 116.463C175.945 116.978 176.101 117.401 176.412 117.731C176.723 118.052 177.107 118.31 177.564 118.504C178.03 118.689 178.501 118.844 178.978 118.971L182.739 120.02C183.254 120.156 183.833 120.341 184.474 120.574C185.116 120.808 185.733 121.133 186.326 121.551C186.919 121.969 187.405 122.518 187.784 123.199C188.172 123.879 188.367 124.744 188.367 125.794C188.367 126.882 188.138 127.84 187.682 128.666C187.234 129.482 186.627 130.163 185.859 130.707C185.091 131.251 184.212 131.659 183.22 131.932C182.239 132.204 181.208 132.34 180.129 132.34ZM198.681 132.34C197.087 132.34 195.687 131.995 194.482 131.305C193.277 130.615 192.334 129.657 191.654 128.432C190.983 127.208 190.648 125.798 190.648 124.204C190.648 122.484 190.978 120.992 191.639 119.729C192.3 118.455 193.219 117.469 194.395 116.769C195.571 116.069 196.931 115.719 198.477 115.719C200.11 115.719 201.495 116.103 202.632 116.871C203.779 117.629 204.629 118.703 205.183 120.093C205.737 121.483 205.946 123.121 205.81 125.006H202.326V123.723C202.316 122.013 202.015 120.764 201.422 119.976C200.829 119.189 199.896 118.796 198.623 118.796C197.184 118.796 196.115 119.243 195.415 120.137C194.715 121.021 194.365 122.319 194.365 124.03C194.365 125.624 194.715 126.858 195.415 127.733C196.115 128.607 197.136 129.045 198.477 129.045C199.342 129.045 200.085 128.855 200.707 128.476C201.339 128.087 201.825 127.529 202.165 126.8L205.635 127.849C205.033 129.268 204.1 130.372 202.836 131.159C201.582 131.946 200.197 132.34 198.681 132.34ZM193.257 125.006V122.353H204.09V125.006H193.257ZM213.181 132.34C212.044 132.34 211.082 132.126 210.295 131.698C209.507 131.261 208.91 130.683 208.501 129.963C208.103 129.244 207.904 128.452 207.904 127.587C207.904 126.829 208.03 126.148 208.283 125.546C208.535 124.933 208.924 124.409 209.449 123.971C209.974 123.524 210.654 123.16 211.49 122.878C212.122 122.674 212.861 122.489 213.706 122.324C214.562 122.159 215.485 122.008 216.476 121.872C217.477 121.726 218.522 121.57 219.611 121.405L218.357 122.12C218.367 121.031 218.124 120.229 217.628 119.714C217.132 119.199 216.297 118.941 215.12 118.941C214.411 118.941 213.726 119.107 213.065 119.437C212.404 119.768 211.942 120.336 211.68 121.143L208.472 120.137C208.861 118.805 209.6 117.736 210.688 116.929C211.787 116.123 213.264 115.719 215.12 115.719C216.52 115.719 217.75 115.948 218.809 116.405C219.878 116.861 220.67 117.61 221.185 118.65C221.467 119.204 221.637 119.772 221.696 120.356C221.754 120.929 221.783 121.556 221.783 122.236V131.902H218.707V128.491L219.217 129.045C218.508 130.182 217.677 131.018 216.724 131.552C215.781 132.077 214.6 132.34 213.181 132.34ZM213.881 129.54C214.678 129.54 215.359 129.4 215.922 129.118C216.486 128.836 216.933 128.491 217.264 128.083C217.604 127.674 217.832 127.29 217.949 126.931C218.134 126.484 218.236 125.973 218.255 125.4C218.284 124.817 218.299 124.345 218.299 123.986L219.378 124.307C218.318 124.472 217.409 124.618 216.651 124.744C215.893 124.87 215.242 124.992 214.698 125.108C214.153 125.215 213.672 125.337 213.254 125.473C212.846 125.619 212.501 125.789 212.219 125.983C211.937 126.178 211.719 126.401 211.563 126.654C211.417 126.907 211.344 127.203 211.344 127.543C211.344 127.932 211.442 128.277 211.636 128.578C211.83 128.87 212.112 129.103 212.482 129.278C212.861 129.453 213.327 129.54 213.881 129.54ZM225.579 131.902V116.157H228.684V119.991L228.305 119.495C228.5 118.971 228.757 118.494 229.078 118.067C229.408 117.629 229.802 117.27 230.259 116.988C230.648 116.725 231.075 116.521 231.542 116.375C232.018 116.22 232.504 116.128 233 116.098C233.495 116.06 233.976 116.079 234.443 116.157V119.437C233.976 119.301 233.437 119.257 232.825 119.306C232.222 119.354 231.678 119.525 231.192 119.816C230.706 120.079 230.307 120.414 229.996 120.822C229.695 121.23 229.471 121.697 229.326 122.222C229.18 122.737 229.107 123.296 229.107 123.898V131.902H225.579ZM243.778 132.34C242.155 132.34 240.77 131.98 239.623 131.261C238.476 130.532 237.596 129.54 236.984 128.287C236.382 127.033 236.075 125.614 236.066 124.03C236.075 122.416 236.391 120.987 237.013 119.743C237.645 118.489 238.539 117.508 239.696 116.798C240.853 116.079 242.228 115.719 243.822 115.719C245.61 115.719 247.122 116.171 248.356 117.075C249.6 117.969 250.412 119.194 250.791 120.749L247.292 121.697C247.02 120.851 246.568 120.195 245.936 119.729C245.304 119.252 244.585 119.014 243.778 119.014C242.864 119.014 242.111 119.233 241.518 119.67C240.925 120.098 240.488 120.691 240.206 121.449C239.924 122.207 239.783 123.067 239.783 124.03C239.783 125.526 240.119 126.736 240.789 127.66C241.46 128.583 242.456 129.045 243.778 129.045C244.711 129.045 245.445 128.831 245.98 128.403C246.524 127.976 246.932 127.358 247.204 126.552L250.791 127.354C250.305 128.957 249.454 130.192 248.239 131.057C247.024 131.912 245.537 132.34 243.778 132.34ZM264.603 131.902V124.321C264.603 123.825 264.569 123.276 264.501 122.674C264.433 122.071 264.273 121.493 264.02 120.939C263.777 120.375 263.408 119.913 262.912 119.554C262.426 119.194 261.765 119.014 260.929 119.014C260.482 119.014 260.04 119.087 259.602 119.233C259.165 119.379 258.766 119.631 258.407 119.991C258.057 120.341 257.775 120.827 257.561 121.449C257.347 122.061 257.24 122.849 257.24 123.811L255.156 122.922C255.156 121.58 255.413 120.365 255.928 119.277C256.453 118.188 257.221 117.323 258.232 116.682C259.243 116.03 260.487 115.705 261.964 115.705C263.131 115.705 264.093 115.899 264.851 116.288C265.609 116.677 266.212 117.172 266.659 117.775C267.106 118.378 267.436 119.019 267.65 119.699C267.864 120.38 268 121.026 268.058 121.639C268.126 122.241 268.16 122.732 268.16 123.111V131.902H264.603ZM253.683 131.902V110.908H256.818V121.959H257.24V131.902H253.683Z" fill="white"/>
<path d="M24.8576 155.902V147.374H21.5712V146.023H29.5778V147.374H26.2915V155.902H24.8576ZM32.466 155.902L35.6769 146.023H37.742L40.9529 155.902H39.4641L36.5071 146.887H36.8775L33.9548 155.902H32.466ZM34.1332 153.673V152.328H39.2926V153.673H34.1332ZM45.0653 155.902V146.023H46.4992V154.551H50.9725V155.902H45.0653ZM54.8817 155.902V146.023H61.1936V147.374H56.3156V150.146H60.3703V151.498H56.3156V154.551H61.1936V155.902H54.8817ZM65.5857 155.902V146.023H67.0402L71.9045 153.364V146.023H73.359V155.902H71.9045L67.0402 148.554V155.902H65.5857ZM80.4813 155.902V147.374H77.195V146.023H85.2016V147.374H81.9152V155.902H80.4813ZM96.5828 155.902V147.374H93.2965V146.023H101.303V147.374H98.0167V155.902H96.5828ZM105.145 155.902V146.023H106.579V150.283H111.519V146.023H112.96V155.902H111.519V151.635H106.579V155.902H105.145ZM116.945 155.902L120.156 146.023H122.221L125.432 155.902H123.944L120.987 146.887H121.357L118.434 155.902H116.945ZM118.613 153.673V152.328H123.772V153.673H118.613ZM131.053 155.902V147.374H127.767V146.023H135.773V147.374H132.487V155.902H131.053ZM147.155 155.902V147.374H143.868V146.023H151.875V147.374H148.589V155.902H147.155ZM155.717 155.902V146.023H159.71C159.806 146.023 159.925 146.027 160.067 146.036C160.209 146.041 160.344 146.055 160.472 146.078C161.021 146.165 161.478 146.352 161.844 146.64C162.215 146.928 162.491 147.292 162.674 147.731C162.857 148.17 162.949 148.655 162.949 149.186C162.949 149.972 162.747 150.652 162.345 151.223C161.942 151.79 161.339 152.145 160.534 152.287L159.95 152.355H157.151V155.902H155.717ZM161.494 155.902L159.546 151.882L160.993 151.511L163.134 155.902H161.494ZM157.151 150.997H159.655C159.747 150.997 159.848 150.992 159.957 150.983C160.072 150.974 160.179 150.958 160.28 150.935C160.572 150.866 160.808 150.741 160.986 150.558C161.165 150.37 161.293 150.155 161.371 149.913C161.448 149.67 161.487 149.428 161.487 149.186C161.487 148.943 161.448 148.703 161.371 148.465C161.293 148.223 161.165 148.01 160.986 147.827C160.808 147.64 160.572 147.512 160.28 147.443C160.179 147.415 160.072 147.397 159.957 147.388C159.848 147.379 159.747 147.374 159.655 147.374H157.151V150.997ZM166.7 155.902L169.911 146.023H171.976L175.187 155.902H173.698L170.741 146.887H171.112L168.189 155.902H166.7ZM168.367 153.673V152.328H173.527V153.673H168.367ZM179.162 155.902V146.023H180.617L185.481 153.364V146.023H186.935V155.902H185.481L180.617 148.554V155.902H179.162ZM195.176 156.108C194.467 156.108 193.827 155.987 193.255 155.745C192.688 155.498 192.219 155.148 191.849 154.695C191.483 154.237 191.245 153.695 191.135 153.069L192.631 152.842C192.782 153.446 193.097 153.917 193.577 154.256C194.058 154.59 194.618 154.757 195.258 154.757C195.656 154.757 196.022 154.695 196.356 154.571C196.69 154.443 196.958 154.263 197.159 154.029C197.365 153.791 197.468 153.508 197.468 153.179C197.468 153 197.436 152.842 197.372 152.705C197.312 152.568 197.227 152.449 197.118 152.348C197.012 152.243 196.882 152.154 196.727 152.081C196.576 152.003 196.409 151.937 196.226 151.882L193.694 151.134C193.447 151.061 193.196 150.967 192.939 150.853C192.683 150.734 192.448 150.581 192.233 150.393C192.022 150.201 191.851 149.965 191.718 149.686C191.586 149.403 191.519 149.06 191.519 148.657C191.519 148.049 191.675 147.534 191.986 147.114C192.301 146.688 192.727 146.368 193.262 146.153C193.797 145.934 194.396 145.824 195.059 145.824C195.727 145.833 196.324 145.952 196.85 146.181C197.381 146.409 197.82 146.739 198.167 147.168C198.52 147.594 198.762 148.111 198.895 148.719L197.358 148.98C197.289 148.609 197.143 148.291 196.919 148.026C196.695 147.756 196.42 147.55 196.095 147.409C195.771 147.262 195.418 147.187 195.039 147.182C194.673 147.173 194.337 147.228 194.03 147.347C193.728 147.466 193.486 147.633 193.303 147.848C193.125 148.063 193.035 148.31 193.035 148.589C193.035 148.863 193.115 149.085 193.276 149.254C193.436 149.423 193.632 149.558 193.866 149.659C194.103 149.755 194.339 149.835 194.572 149.899L196.397 150.414C196.626 150.478 196.884 150.565 197.173 150.674C197.465 150.78 197.747 150.928 198.016 151.12C198.291 151.312 198.517 151.569 198.696 151.889C198.874 152.204 198.963 152.602 198.963 153.083C198.963 153.581 198.863 154.02 198.661 154.4C198.46 154.775 198.183 155.09 197.831 155.347C197.484 155.598 197.081 155.788 196.624 155.916C196.166 156.044 195.684 156.108 195.176 156.108ZM203.17 155.902V146.023H209.022V147.457H204.604V150.242H208.199V151.683H204.604V155.902H203.17ZM217.126 156.108C216.138 156.108 215.296 155.893 214.601 155.463C213.906 155.029 213.373 154.425 213.003 153.652C212.637 152.879 212.454 151.983 212.454 150.963C212.454 149.943 212.637 149.046 213.003 148.273C213.373 147.5 213.906 146.899 214.601 146.469C215.296 146.034 216.138 145.817 217.126 145.817C218.109 145.817 218.949 146.034 219.644 146.469C220.344 146.899 220.877 147.5 221.243 148.273C221.608 149.046 221.791 149.943 221.791 150.963C221.791 151.983 221.608 152.879 221.243 153.652C220.877 154.425 220.344 155.029 219.644 155.463C218.949 155.893 218.109 156.108 217.126 156.108ZM217.126 154.743C217.826 154.752 218.407 154.599 218.869 154.283C219.335 153.963 219.685 153.519 219.918 152.952C220.152 152.38 220.268 151.717 220.268 150.963C220.268 150.208 220.152 149.549 219.918 148.987C219.685 148.419 219.335 147.978 218.869 147.662C218.407 147.347 217.826 147.187 217.126 147.182C216.426 147.173 215.843 147.326 215.376 147.642C214.915 147.957 214.567 148.401 214.334 148.973C214.1 149.545 213.981 150.208 213.977 150.963C213.972 151.717 214.087 152.378 214.32 152.945C214.553 153.508 214.903 153.947 215.37 154.263C215.841 154.578 216.426 154.738 217.126 154.743ZM225.904 155.902V146.023H229.897C229.993 146.023 230.112 146.027 230.254 146.036C230.396 146.041 230.531 146.055 230.659 146.078C231.208 146.165 231.665 146.352 232.031 146.64C232.401 146.928 232.678 147.292 232.861 147.731C233.044 148.17 233.136 148.655 233.136 149.186C233.136 149.972 232.934 150.652 232.532 151.223C232.129 151.79 231.526 152.145 230.721 152.287L230.137 152.355H227.338V155.902H225.904ZM231.681 155.902L229.733 151.882L231.18 151.511L233.321 155.902H231.681ZM227.338 150.997H229.842C229.934 150.997 230.034 150.992 230.144 150.983C230.259 150.974 230.366 150.958 230.467 150.935C230.759 150.866 230.995 150.741 231.173 150.558C231.352 150.37 231.48 150.155 231.558 149.913C231.635 149.67 231.674 149.428 231.674 149.186C231.674 148.943 231.635 148.703 231.558 148.465C231.48 148.223 231.352 148.01 231.173 147.827C230.995 147.64 230.759 147.512 230.467 147.443C230.366 147.415 230.259 147.397 230.144 147.388C230.034 147.379 229.934 147.374 229.842 147.374H227.338V150.997ZM237.573 155.902V146.023H238.87L242.451 153.453L246.012 146.023H247.322V155.895H245.964V149.138L242.774 155.902H242.122L238.925 149.138V155.902H237.573ZM255.57 156.108C254.861 156.108 254.221 155.987 253.649 155.745C253.082 155.498 252.613 155.148 252.243 154.695C251.877 154.237 251.639 153.695 251.529 153.069L253.025 152.842C253.176 153.446 253.491 153.917 253.972 154.256C254.452 154.59 255.012 154.757 255.653 154.757C256.05 154.757 256.416 154.695 256.75 154.571C257.084 154.443 257.352 154.263 257.553 154.029C257.759 153.791 257.862 153.508 257.862 153.179C257.862 153 257.83 152.842 257.766 152.705C257.706 152.568 257.622 152.449 257.512 152.348C257.407 152.243 257.276 152.154 257.121 152.081C256.97 152.003 256.803 151.937 256.62 151.882L254.088 151.134C253.841 151.061 253.59 150.967 253.334 150.853C253.077 150.734 252.842 150.581 252.627 150.393C252.416 150.201 252.245 149.965 252.112 149.686C251.98 149.403 251.913 149.06 251.913 148.657C251.913 148.049 252.069 147.534 252.38 147.114C252.696 146.688 253.121 146.368 253.656 146.153C254.191 145.934 254.79 145.824 255.454 145.824C256.121 145.833 256.718 145.952 257.244 146.181C257.775 146.409 258.214 146.739 258.562 147.168C258.914 147.594 259.156 148.111 259.289 148.719L257.752 148.98C257.683 148.609 257.537 148.291 257.313 148.026C257.089 147.756 256.814 147.55 256.49 147.409C256.165 147.262 255.813 147.187 255.433 147.182C255.067 147.173 254.731 147.228 254.424 147.347C254.123 147.466 253.88 147.633 253.697 147.848C253.519 148.063 253.43 148.31 253.43 148.589C253.43 148.863 253.51 149.085 253.67 149.254C253.83 149.423 254.027 149.558 254.26 149.659C254.498 149.755 254.733 149.835 254.966 149.899L256.791 150.414C257.02 150.478 257.279 150.565 257.567 150.674C257.859 150.78 258.141 150.928 258.411 151.12C258.685 151.312 258.911 151.569 259.09 151.889C259.268 152.204 259.357 152.602 259.357 153.083C259.357 153.581 259.257 154.02 259.056 154.4C258.854 154.775 258.578 155.09 258.225 155.347C257.878 155.598 257.475 155.788 257.018 155.916C256.56 156.044 256.078 156.108 255.57 156.108Z" fill="white"/>
<defs>
<linearGradient id="paint0_linear_2242_318" x1="124.202" y1="70.5859" x2="199.547" y2="23.4567" gradientUnits="userSpaceOnUse">
<stop stop-color="#2B98E3"/>
<stop offset="0.463247" stop-color="#31B6CB"/>
<stop offset="1" stop-color="#3CD4C7"/>
</linearGradient>
<linearGradient id="paint1_linear_2242_318" x1="83.8804" y1="43.687" x2="138.824" y2="67.3327" gradientUnits="userSpaceOnUse">
<stop stop-color="#05101F"/>
<stop offset="0.999999" stop-color="#2B98E3" stop-opacity="0"/>
</linearGradient>
<linearGradient id="paint2_linear_2242_318" x1="138.701" y1="25.5947" x2="81.1672" y2="54.3102" gradientUnits="userSpaceOnUse">
<stop stop-color="#2B98E3"/>
<stop offset="0.463247" stop-color="#31B6CB"/>
<stop offset="1" stop-color="#3CD4C7"/>
</linearGradient>
<linearGradient id="paint3_linear_2242_318" x1="202.021" y1="55.596" x2="129.688" y2="27.446" gradientUnits="userSpaceOnUse">
<stop stop-color="#05101F"/>
<stop offset="0.999999" stop-color="#2B98E3" stop-opacity="0"/>
</linearGradient>
<clipPath id="clip0_2242_318">
<rect width="125.21" height="90.6128" fill="white" transform="translate(78.043)"/>
</clipPath>
</defs>
</svg>
