<svg width="282" height="170" viewBox="0 0 282 170" fill="none" xmlns="http://www.w3.org/2000/svg">
<g filter="url(#filter0_f_2242_296)">
<g clip-path="url(#clip0_2242_296)">
<path d="M89.9444 74.3326L87.2051 72.7539C88.0807 73.3518 88.9961 73.8794 89.9444 74.3326Z" fill="#2A97E2"/>
<path d="M203.252 55.2709C203.252 58.387 202.566 61.4659 201.254 64.2745C199.505 68.0227 196.642 71.2895 192.816 73.5183L175.352 83.6896L150.907 97.9276C147.878 99.6911 144.503 100.587 141.121 100.614C137.688 100.641 134.25 99.7715 131.162 98.005L123.904 93.8528L123.857 93.8267C123.306 93.5142 122.734 93.1886 122.142 92.852C119.054 91.0955 115.463 89.0365 111.833 86.9484L111.806 86.9323C109.977 85.8802 108.14 84.8201 106.351 83.7881L105.551 83.3268L89.9437 74.3333L87.2044 72.7546C86.6346 72.3667 86.0817 71.9477 85.5488 71.5006L91.4408 64.8142L108.948 63.0617L116.232 63.7912L121.054 64.2745L124.615 64.6313L125.228 64.2745L132.926 59.7918L141.121 55.0187L142.065 54.469L150.027 49.8316V49.8306L171.952 37.0617C178.033 33.5196 185.148 33.4171 191.082 36.1563C194.885 37.9108 198.203 40.834 200.453 44.766C202.351 48.0811 203.252 51.6996 203.252 55.2709Z" fill="url(#paint0_linear_2242_296)"/>
<path d="M141.121 55.0195V100.614C137.688 100.642 134.25 99.7723 131.162 98.0058L123.904 93.8537L123.857 93.8275C123.306 93.515 122.734 93.1894 122.142 92.8528C119.054 91.0963 115.463 89.0373 111.833 86.9492L111.806 86.9331C109.977 85.881 108.14 84.8209 106.351 83.7889L105.551 83.3277L89.9437 74.3341L87.2044 72.7555C86.6346 72.3676 86.0817 71.9485 85.5488 71.5014L91.4408 64.815L108.948 63.0625L124.615 64.6321L141.121 55.0195Z" fill="url(#paint1_linear_2242_296)"/>
<path d="M180.789 30.204C180.608 30.0985 180.424 29.993 180.239 29.8855L178.9 29.1117C175.949 27.4055 172.705 25.5334 169.489 23.6824L169.462 23.6664C165.832 21.5782 162.241 19.5193 159.153 17.7628C158.562 17.4261 157.989 17.1005 157.438 16.788L157.391 16.7619L150.134 12.6098C144.004 9.10281 136.492 9.13194 130.389 12.6872L116.233 20.9321L105.943 26.9251L88.4792 37.0964C81.7854 40.9953 78.043 48.0696 78.043 55.3438C78.043 58.9151 78.9445 62.5337 80.8421 65.8487C82.1081 68.0604 83.7118 69.9536 85.5497 71.4991C86.0826 71.9463 86.6354 72.3653 87.2052 72.7532L89.9445 74.3318C95.6493 77.065 102.491 77.1475 108.464 74.0374C108.76 73.8836 109.053 73.7229 109.344 73.553L124.658 64.6338L125.278 64.2731L131.268 60.7842V60.7832L141.122 55.0444L142.071 54.4917L142.066 54.4676L150.028 49.8301V49.8291L171.952 37.0603C178.034 33.5181 185.149 33.4156 191.083 36.1549L180.789 30.204Z" fill="url(#paint2_linear_2242_296)"/>
<path d="M191.082 36.1549C185.148 33.4156 178.033 33.5181 171.952 37.0602L150.028 49.8291V49.8301L142.066 54.4676L142.071 54.4917L141.121 55.0444L131.268 60.7832V60.7842L125.277 64.2731H116.232V20.9321L130.388 12.6872C136.491 9.13194 144.003 9.10281 150.133 12.6098L157.391 16.7619L157.438 16.788C157.988 17.1005 158.561 17.4261 159.153 17.7628C162.241 19.5193 165.832 21.5782 169.462 23.6664L169.489 23.6824C172.704 25.5334 175.948 27.4055 178.9 29.1117L180.239 29.8855C180.424 29.993 180.607 30.0985 180.788 30.204L191.082 36.1549Z" fill="url(#paint3_linear_2242_296)"/>
</g>
</g>
<path d="M2.06294 141.902V120.908H10.3877C11.8068 120.908 12.9682 121.195 13.8722 121.768C14.7858 122.332 15.4613 123.056 15.8987 123.941C16.3458 124.825 16.5693 125.739 16.5693 126.682C16.5693 127.838 16.2923 128.82 15.7383 129.627C15.194 130.433 14.4505 130.978 13.5077 131.259V130.53C14.8295 130.832 15.8306 131.459 16.511 132.411C17.2011 133.364 17.5461 134.447 17.5461 135.662C17.5461 136.907 17.308 137.995 16.8318 138.928C16.3555 139.861 15.646 140.59 14.7032 141.115C13.7701 141.64 12.6135 141.902 11.2333 141.902H2.06294ZM5.62028 138.593H10.7959C11.4083 138.593 11.9574 138.471 12.4434 138.228C12.9294 137.976 13.3084 137.626 13.5806 137.179C13.8624 136.722 14.0034 136.182 14.0034 135.56C14.0034 134.997 13.8819 134.491 13.6389 134.044C13.3959 133.597 13.0411 133.242 12.5746 132.98C12.1081 132.708 11.5492 132.572 10.898 132.572H5.62028V138.593ZM5.62028 129.291H10.344C10.8494 129.291 11.3013 129.194 11.6998 129C12.0983 128.805 12.4142 128.519 12.6475 128.139C12.8808 127.76 12.9974 127.294 12.9974 126.74C12.9974 126.011 12.7641 125.403 12.2976 124.917C11.8311 124.431 11.1799 124.189 10.344 124.189H5.62028V129.291ZM20.7495 141.902V120.471H24.2631V141.902H20.7495ZM34.5349 142.354C33.3685 142.354 32.4063 142.16 31.6482 141.771C30.8901 141.382 30.2875 140.887 29.8404 140.284C29.3933 139.681 29.0628 139.04 28.849 138.36C28.6351 137.679 28.4942 137.038 28.4262 136.435C28.3678 135.823 28.3387 135.327 28.3387 134.948V126.157H31.896V133.738C31.896 134.224 31.9301 134.773 31.9981 135.385C32.0661 135.988 32.2216 136.571 32.4646 137.135C32.7173 137.689 33.0867 138.146 33.5727 138.505C34.0683 138.865 34.7341 139.045 35.57 139.045C36.0171 139.045 36.4594 138.972 36.8967 138.826C37.3341 138.68 37.7277 138.432 38.0777 138.083C38.4373 137.723 38.724 137.232 38.9378 136.61C39.1517 135.988 39.2586 135.201 39.2586 134.248L41.3434 135.138C41.3434 136.479 41.081 137.694 40.5561 138.782C40.041 139.871 39.278 140.741 38.2672 141.392C37.2564 142.034 36.0123 142.354 34.5349 142.354ZM39.6814 141.902V137.018H39.2586V126.157H42.7868V141.902H39.6814ZM54.0413 142.34C52.4473 142.34 51.0477 141.995 49.8425 141.305C48.6372 140.615 47.6944 139.657 47.0141 138.432C46.3434 137.208 46.0081 135.798 46.0081 134.204C46.0081 132.484 46.3386 130.992 46.9995 129.729C47.6604 128.455 48.5789 127.469 49.755 126.769C50.931 126.069 52.2918 125.719 53.8372 125.719C55.4701 125.719 56.8551 126.103 57.9923 126.871C59.1392 127.629 59.9896 128.703 60.5437 130.093C61.0977 131.483 61.3066 133.121 61.1706 135.006H57.6861V133.723C57.6764 132.013 57.3751 130.764 56.7822 129.976C56.1893 129.189 55.2562 128.796 53.983 128.796C52.5445 128.796 51.4753 129.243 50.7755 130.137C50.0757 131.021 49.7258 132.319 49.7258 134.03C49.7258 135.624 50.0757 136.858 50.7755 137.733C51.4753 138.607 52.4959 139.045 53.8372 139.045C54.7022 139.045 55.4458 138.855 56.0678 138.476C56.6996 138.087 57.1856 137.529 57.5257 136.8L60.9956 137.849C60.393 139.268 59.4599 140.372 58.1964 141.159C56.9426 141.946 55.5575 142.34 54.0413 142.34ZM48.6178 135.006V132.353H59.4502V135.006H48.6178ZM70.5526 141.902V120.908H74.0662V141.902H70.5526ZM84.5129 142.34C82.569 142.34 80.9896 141.902 79.7746 141.028C78.5597 140.153 77.821 138.923 77.5586 137.339L81.1451 136.785C81.3298 137.563 81.738 138.175 82.3698 138.622C83.0015 139.069 83.7985 139.293 84.7608 139.293C85.6064 139.293 86.2576 139.127 86.7144 138.797C87.1809 138.457 87.4142 137.995 87.4142 137.412C87.4142 137.052 87.3267 136.766 87.1518 136.552C86.9865 136.328 86.6172 136.114 86.0437 135.91C85.4703 135.706 84.5907 135.449 83.4049 135.138C82.083 134.788 81.0333 134.413 80.2558 134.015C79.4782 133.607 78.9193 133.126 78.5791 132.572C78.239 132.018 78.0689 131.347 78.0689 130.56C78.0689 129.578 78.3264 128.723 78.8416 127.994C79.3567 127.265 80.076 126.706 80.9993 126.317C81.9227 125.919 83.0112 125.719 84.2651 125.719C85.4897 125.719 86.5735 125.909 87.5162 126.288C88.4688 126.667 89.2366 127.206 89.8198 127.906C90.4029 128.606 90.7626 129.427 90.8986 130.37L87.3121 131.012C87.2247 130.341 86.9185 129.811 86.3936 129.422C85.8785 129.034 85.1884 128.815 84.3234 128.766C83.4972 128.718 82.8314 128.844 82.326 129.145C81.8206 129.437 81.5679 129.85 81.5679 130.385C81.5679 130.686 81.67 130.944 81.8741 131.157C82.0782 131.371 82.4864 131.585 83.0987 131.799C83.7208 132.013 84.6441 132.275 85.8688 132.586C87.1226 132.907 88.1237 133.276 88.8721 133.694C89.6302 134.102 90.1745 134.593 90.505 135.167C90.8452 135.74 91.0153 136.435 91.0153 137.252C91.0153 138.836 90.437 140.08 89.2803 140.984C88.1334 141.888 86.5443 142.34 84.5129 142.34ZM94.5002 141.902V120.471H98.0138V141.902H94.5002ZM106.784 142.34C105.647 142.34 104.685 142.126 103.897 141.698C103.11 141.261 102.512 140.683 102.104 139.963C101.705 139.244 101.506 138.452 101.506 137.587C101.506 136.829 101.633 136.148 101.885 135.546C102.138 134.933 102.527 134.409 103.052 133.971C103.576 133.524 104.257 133.16 105.093 132.878C105.724 132.674 106.463 132.489 107.309 132.324C108.164 132.159 109.087 132.008 110.079 131.872C111.08 131.726 112.125 131.57 113.213 131.405L111.96 132.12C111.969 131.031 111.726 130.229 111.231 129.714C110.735 129.199 109.899 128.941 108.723 128.941C108.013 128.941 107.328 129.107 106.667 129.437C106.006 129.768 105.545 130.336 105.282 131.143L102.075 130.137C102.464 128.805 103.202 127.736 104.291 126.929C105.389 126.123 106.867 125.719 108.723 125.719C110.123 125.719 111.352 125.948 112.412 126.405C113.481 126.861 114.273 127.61 114.788 128.65C115.07 129.204 115.24 129.772 115.298 130.356C115.357 130.929 115.386 131.556 115.386 132.236V141.902H112.309V138.491L112.82 139.045C112.11 140.182 111.279 141.018 110.327 141.552C109.384 142.077 108.203 142.34 106.784 142.34ZM107.484 139.54C108.281 139.54 108.961 139.4 109.525 139.118C110.089 138.836 110.536 138.491 110.866 138.083C111.206 137.674 111.435 137.29 111.551 136.931C111.736 136.484 111.838 135.973 111.858 135.4C111.887 134.817 111.901 134.345 111.901 133.986L112.98 134.307C111.921 134.472 111.012 134.618 110.254 134.744C109.496 134.87 108.844 134.992 108.3 135.108C107.756 135.215 107.275 135.337 106.857 135.473C106.449 135.619 106.104 135.789 105.822 135.983C105.54 136.178 105.321 136.401 105.166 136.654C105.02 136.907 104.947 137.203 104.947 137.543C104.947 137.932 105.044 138.277 105.239 138.578C105.433 138.87 105.715 139.103 106.084 139.278C106.463 139.453 106.93 139.54 107.484 139.54ZM130.072 141.902V134.321C130.072 133.825 130.038 133.276 129.97 132.674C129.902 132.071 129.742 131.493 129.489 130.939C129.246 130.375 128.877 129.913 128.381 129.554C127.895 129.194 127.234 129.014 126.398 129.014C125.951 129.014 125.509 129.087 125.071 129.233C124.634 129.379 124.235 129.631 123.876 129.991C123.526 130.341 123.244 130.827 123.03 131.449C122.816 132.061 122.71 132.849 122.71 133.811L120.625 132.922C120.625 131.58 120.882 130.365 121.397 129.277C121.922 128.188 122.69 127.323 123.701 126.682C124.712 126.03 125.956 125.705 127.433 125.705C128.6 125.705 129.562 125.899 130.32 126.288C131.078 126.677 131.681 127.172 132.128 127.775C132.575 128.378 132.905 129.019 133.119 129.699C133.333 130.38 133.469 131.026 133.527 131.639C133.595 132.241 133.629 132.732 133.629 133.111V141.902H130.072ZM119.152 141.902V126.157H122.287V131.041H122.71V141.902H119.152ZM143.49 142.34C142.042 142.34 140.779 141.975 139.7 141.246C138.621 140.517 137.785 139.526 137.192 138.272C136.599 137.018 136.303 135.604 136.303 134.03C136.303 132.436 136.599 131.016 137.192 129.772C137.795 128.519 138.645 127.532 139.744 126.813C140.842 126.084 142.135 125.719 143.622 125.719C145.118 125.719 146.372 126.084 147.383 126.813C148.404 127.532 149.176 128.519 149.701 129.772C150.226 131.026 150.489 132.445 150.489 134.03C150.489 135.594 150.226 137.009 149.701 138.272C149.176 139.526 148.394 140.517 147.354 141.246C146.314 141.975 145.026 142.34 143.49 142.34ZM144.03 139.191C144.973 139.191 145.731 138.977 146.304 138.549C146.887 138.112 147.31 137.504 147.573 136.727C147.845 135.949 147.981 135.05 147.981 134.03C147.981 132.999 147.845 132.1 147.573 131.332C147.31 130.555 146.897 129.952 146.333 129.525C145.77 129.087 145.041 128.868 144.147 128.868C143.204 128.868 142.426 129.102 141.814 129.568C141.202 130.025 140.75 130.647 140.458 131.434C140.166 132.212 140.021 133.077 140.021 134.03C140.021 134.992 140.162 135.867 140.443 136.654C140.735 137.431 141.177 138.049 141.77 138.505C142.363 138.962 143.116 139.191 144.03 139.191ZM147.981 141.902V130.851H147.544V120.908H151.086V141.902H147.981ZM168.782 142.34C167.246 142.34 165.861 142.072 164.627 141.538C163.402 141.003 162.392 140.24 161.595 139.249C160.807 138.248 160.307 137.062 160.093 135.692L163.738 135.138C164.049 136.382 164.685 137.344 165.648 138.024C166.62 138.705 167.737 139.045 169.001 139.045C169.749 139.045 170.454 138.928 171.115 138.695C171.776 138.462 172.31 138.121 172.719 137.674C173.136 137.227 173.345 136.678 173.345 136.027C173.345 135.735 173.297 135.468 173.2 135.225C173.102 134.972 172.957 134.749 172.762 134.554C172.578 134.36 172.335 134.185 172.033 134.03C171.742 133.864 171.402 133.723 171.013 133.607L165.589 132.003C165.123 131.867 164.617 131.687 164.073 131.464C163.538 131.23 163.028 130.914 162.542 130.516C162.066 130.108 161.672 129.593 161.361 128.971C161.06 128.339 160.909 127.561 160.909 126.638C160.909 125.287 161.249 124.154 161.93 123.241C162.62 122.317 163.543 121.627 164.7 121.171C165.866 120.714 167.159 120.49 168.578 120.5C170.016 120.51 171.299 120.758 172.427 121.243C173.554 121.72 174.497 122.415 175.255 123.328C176.013 124.242 176.548 125.345 176.859 126.638L173.083 127.294C172.927 126.555 172.626 125.928 172.179 125.413C171.742 124.888 171.202 124.49 170.561 124.218C169.929 123.946 169.254 123.8 168.534 123.78C167.834 123.771 167.183 123.877 166.581 124.101C165.988 124.315 165.507 124.626 165.137 125.034C164.778 125.442 164.598 125.919 164.598 126.463C164.598 126.978 164.753 127.401 165.064 127.731C165.375 128.052 165.759 128.31 166.216 128.504C166.683 128.689 167.154 128.844 167.63 128.971L171.392 130.02C171.907 130.156 172.485 130.341 173.127 130.574C173.768 130.808 174.385 131.133 174.978 131.551C175.571 131.969 176.057 132.518 176.436 133.199C176.825 133.879 177.019 134.744 177.019 135.794C177.019 136.882 176.791 137.84 176.334 138.666C175.887 139.482 175.28 140.163 174.512 140.707C173.744 141.251 172.864 141.659 171.873 141.932C170.891 142.204 169.861 142.34 168.782 142.34ZM187.334 142.34C185.74 142.34 184.34 141.995 183.135 141.305C181.93 140.615 180.987 139.657 180.306 138.432C179.636 137.208 179.3 135.798 179.3 134.204C179.3 132.484 179.631 130.992 180.292 129.729C180.953 128.455 181.871 127.469 183.047 126.769C184.223 126.069 185.584 125.719 187.129 125.719C188.762 125.719 190.147 126.103 191.285 126.871C192.431 127.629 193.282 128.703 193.836 130.093C194.39 131.483 194.599 133.121 194.463 135.006H190.978V133.723C190.969 132.013 190.667 130.764 190.074 129.976C189.482 129.189 188.549 128.796 187.275 128.796C185.837 128.796 184.768 129.243 184.068 130.137C183.368 131.021 183.018 132.319 183.018 134.03C183.018 135.624 183.368 136.858 184.068 137.733C184.768 138.607 185.788 139.045 187.129 139.045C187.995 139.045 188.738 138.855 189.36 138.476C189.992 138.087 190.478 137.529 190.818 136.8L194.288 137.849C193.685 139.268 192.752 140.372 191.489 141.159C190.235 141.946 188.85 142.34 187.334 142.34ZM181.91 135.006V132.353H192.742V135.006H181.91ZM197.716 141.902V126.157H200.821V129.991L200.442 129.495C200.637 128.971 200.894 128.494 201.215 128.067C201.545 127.629 201.939 127.27 202.396 126.988C202.785 126.725 203.212 126.521 203.679 126.375C204.155 126.22 204.641 126.128 205.137 126.098C205.632 126.06 206.114 126.079 206.58 126.157V129.437C206.114 129.301 205.574 129.257 204.962 129.306C204.359 129.354 203.815 129.525 203.329 129.816C202.843 130.079 202.444 130.414 202.133 130.822C201.832 131.23 201.609 131.697 201.463 132.222C201.317 132.737 201.244 133.296 201.244 133.898V141.902H197.716ZM213.619 141.902L207.904 126.157H211.418L215.383 137.572L219.334 126.157H222.863L217.148 141.902H213.619ZM225.771 123.766V120.544H229.284V123.766H225.771ZM225.771 141.902V126.157H229.284V141.902H225.771ZM240.489 142.34C238.866 142.34 237.481 141.98 236.334 141.261C235.187 140.532 234.308 139.54 233.695 138.287C233.093 137.033 232.786 135.614 232.777 134.03C232.786 132.416 233.102 130.987 233.724 129.743C234.356 128.489 235.25 127.508 236.407 126.798C237.564 126.079 238.939 125.719 240.533 125.719C242.321 125.719 243.833 126.171 245.067 127.075C246.311 127.969 247.123 129.194 247.502 130.749L244.003 131.697C243.731 130.851 243.279 130.195 242.647 129.729C242.015 129.252 241.296 129.014 240.489 129.014C239.576 129.014 238.822 129.233 238.229 129.67C237.637 130.098 237.199 130.691 236.917 131.449C236.635 132.207 236.494 133.067 236.494 134.03C236.494 135.526 236.83 136.736 237.5 137.66C238.171 138.583 239.167 139.045 240.489 139.045C241.422 139.045 242.156 138.831 242.691 138.403C243.235 137.976 243.643 137.358 243.915 136.552L247.502 137.354C247.016 138.957 246.165 140.192 244.95 141.057C243.736 141.912 242.248 142.34 240.489 142.34ZM257.155 142.34C255.561 142.34 254.161 141.995 252.956 141.305C251.751 140.615 250.808 139.657 250.127 138.432C249.457 137.208 249.122 135.798 249.122 134.204C249.122 132.484 249.452 130.992 250.113 129.729C250.774 128.455 251.692 127.469 252.868 126.769C254.044 126.069 255.405 125.719 256.951 125.719C258.583 125.719 259.969 126.103 261.106 126.871C262.253 127.629 263.103 128.703 263.657 130.093C264.211 131.483 264.42 133.121 264.284 135.006H260.8V133.723C260.79 132.013 260.488 130.764 259.896 129.976C259.303 129.189 258.37 128.796 257.096 128.796C255.658 128.796 254.589 129.243 253.889 130.137C253.189 131.021 252.839 132.319 252.839 134.03C252.839 135.624 253.189 136.858 253.889 137.733C254.589 138.607 255.609 139.045 256.951 139.045C257.816 139.045 258.559 138.855 259.181 138.476C259.813 138.087 260.299 137.529 260.639 136.8L264.109 137.849C263.506 139.268 262.573 140.372 261.31 141.159C260.056 141.946 258.671 142.34 257.155 142.34ZM251.731 135.006V132.353H262.564V135.006H251.731ZM273.617 142.34C271.673 142.34 270.093 141.902 268.878 141.028C267.663 140.153 266.925 138.923 266.662 137.339L270.249 136.785C270.433 137.563 270.842 138.175 271.473 138.622C272.105 139.069 272.902 139.293 273.864 139.293C274.71 139.293 275.361 139.127 275.818 138.797C276.285 138.457 276.518 137.995 276.518 137.412C276.518 137.052 276.43 136.766 276.255 136.552C276.09 136.328 275.721 136.114 275.147 135.91C274.574 135.706 273.694 135.449 272.508 135.138C271.187 134.788 270.137 134.413 269.359 134.015C268.582 133.607 268.023 133.126 267.683 132.572C267.343 132.018 267.172 131.347 267.172 130.56C267.172 129.578 267.43 128.723 267.945 127.994C268.46 127.265 269.18 126.706 270.103 126.317C271.026 125.919 272.115 125.719 273.369 125.719C274.593 125.719 275.677 125.909 276.62 126.288C277.572 126.667 278.34 127.206 278.923 127.906C279.507 128.606 279.866 129.427 280.002 130.37L276.416 131.012C276.328 130.341 276.022 129.811 275.497 129.422C274.982 129.034 274.292 128.815 273.427 128.766C272.601 128.718 271.935 128.844 271.43 129.145C270.924 129.437 270.671 129.85 270.671 130.385C270.671 130.686 270.774 130.944 270.978 131.157C271.182 131.371 271.59 131.585 272.202 131.799C272.824 132.013 273.748 132.275 274.972 132.586C276.226 132.907 277.227 133.276 277.976 133.694C278.734 134.102 279.278 134.593 279.609 135.167C279.949 135.74 280.119 136.435 280.119 137.252C280.119 138.836 279.541 140.08 278.384 140.984C277.237 141.888 275.648 142.34 273.617 142.34Z" fill="white"/>
<path d="M27.4424 165.902V157.374H24.1561V156.023H32.1627V157.374H28.8764V165.902H27.4424ZM36.005 165.902V156.023H42.317V157.374H37.4389V160.146H41.4937V161.498H37.4389V164.551H42.317V165.902H36.005ZM50.4839 166.108C49.496 166.108 48.6544 165.893 47.9591 165.463C47.2639 165.029 46.731 164.425 46.3606 163.652C45.9946 162.879 45.8117 161.983 45.8117 160.963C45.8117 159.943 45.9946 159.046 46.3606 158.273C46.731 157.5 47.2639 156.899 47.9591 156.469C48.6544 156.034 49.496 155.817 50.4839 155.817C51.6228 155.817 52.565 156.105 53.3106 156.681C54.0607 157.258 54.5821 158.033 54.8749 159.007L53.4204 159.398C53.2283 158.708 52.8852 158.166 52.3912 157.772C51.9018 157.379 51.2661 157.182 50.4839 157.182C49.7841 157.182 49.2009 157.34 48.7344 157.656C48.2679 157.971 47.9157 158.413 47.6778 158.98C47.4446 159.547 47.3279 160.208 47.3279 160.963C47.3234 161.717 47.4377 162.378 47.671 162.945C47.9088 163.512 48.261 163.954 48.7276 164.269C49.1987 164.585 49.7841 164.743 50.4839 164.743C51.2661 164.743 51.9018 164.546 52.3912 164.153C52.8852 163.755 53.2283 163.213 53.4204 162.527L54.8749 162.918C54.5821 163.892 54.0607 164.667 53.3106 165.244C52.565 165.82 51.6228 166.108 50.4839 166.108ZM59.1282 165.902V156.023H60.5621V160.283H65.5019V156.023H66.9427V165.902H65.5019V161.635H60.5621V165.902H59.1282ZM71.6144 165.902V156.023H73.0689L77.9332 163.364V156.023H79.3877V165.902H77.9332L73.0689 158.554V165.902H71.6144ZM88.1703 166.108C87.1824 166.108 86.3408 165.893 85.6455 165.463C84.9503 165.029 84.4174 164.425 84.047 163.652C83.681 162.879 83.4981 161.983 83.4981 160.963C83.4981 159.943 83.681 159.046 84.047 158.273C84.4174 157.5 84.9503 156.899 85.6455 156.469C86.3408 156.034 87.1824 155.817 88.1703 155.817C89.1537 155.817 89.993 156.034 90.6882 156.469C91.3881 156.899 91.9209 157.5 92.2868 158.273C92.6527 159.046 92.8357 159.943 92.8357 160.963C92.8357 161.983 92.6527 162.879 92.2868 163.652C91.9209 164.425 91.3881 165.029 90.6882 165.463C89.993 165.893 89.1537 166.108 88.1703 166.108ZM88.1703 164.743C88.8701 164.752 89.451 164.599 89.913 164.283C90.3795 163.963 90.7294 163.519 90.9627 162.952C91.1959 162.38 91.3126 161.717 91.3126 160.963C91.3126 160.208 91.1959 159.549 90.9627 158.987C90.7294 158.419 90.3795 157.978 89.913 157.662C89.451 157.347 88.8701 157.187 88.1703 157.182C87.4705 157.173 86.8873 157.326 86.4208 157.642C85.9588 157.957 85.6112 158.401 85.378 158.973C85.1447 159.545 85.0258 160.208 85.0212 160.963C85.0166 161.717 85.131 162.378 85.3642 162.945C85.5975 163.508 85.9474 163.947 86.4139 164.263C86.8851 164.578 87.4705 164.738 88.1703 164.743ZM97.0858 165.902V156.023H98.5197V164.551H102.993V165.902H97.0858ZM110.757 166.108C109.77 166.108 108.928 165.893 108.233 165.463C107.537 165.029 107.005 164.425 106.634 163.652C106.268 162.879 106.085 161.983 106.085 160.963C106.085 159.943 106.268 159.046 106.634 158.273C107.005 157.5 107.537 156.899 108.233 156.469C108.928 156.034 109.77 155.817 110.757 155.817C111.741 155.817 112.58 156.034 113.275 156.469C113.975 156.899 114.508 157.5 114.874 158.273C115.24 159.046 115.423 159.943 115.423 160.963C115.423 161.983 115.24 162.879 114.874 163.652C114.508 164.425 113.975 165.029 113.275 165.463C112.58 165.893 111.741 166.108 110.757 166.108ZM110.757 164.743C111.457 164.752 112.038 164.599 112.5 164.283C112.967 163.963 113.317 163.519 113.55 162.952C113.783 162.38 113.9 161.717 113.9 160.963C113.9 160.208 113.783 159.549 113.55 158.987C113.317 158.419 112.967 157.978 112.5 157.662C112.038 157.347 111.457 157.187 110.757 157.182C110.058 157.173 109.475 157.326 109.008 157.642C108.546 157.957 108.198 158.401 107.965 158.973C107.732 159.545 107.613 160.208 107.608 160.963C107.604 161.717 107.718 162.378 107.951 162.945C108.185 163.508 108.535 163.947 109.001 164.263C109.472 164.578 110.058 164.738 110.757 164.743ZM123.577 166.108C122.914 166.108 122.303 165.994 121.745 165.765C121.187 165.532 120.702 165.193 120.29 164.75C119.879 164.306 119.559 163.766 119.33 163.131C119.101 162.495 118.987 161.772 118.987 160.963C118.987 159.897 119.181 158.982 119.57 158.218C119.959 157.45 120.499 156.86 121.189 156.448C121.88 156.032 122.676 155.824 123.577 155.824C124.739 155.824 125.665 156.094 126.355 156.633C127.051 157.173 127.524 157.919 127.776 158.87L126.321 159.131C126.12 158.541 125.795 158.07 125.347 157.717C124.899 157.365 124.336 157.187 123.659 157.182C122.959 157.178 122.376 157.333 121.91 157.649C121.448 157.964 121.1 158.408 120.867 158.98C120.633 159.547 120.515 160.208 120.51 160.963C120.505 161.717 120.62 162.378 120.853 162.945C121.086 163.508 121.436 163.947 121.903 164.263C122.374 164.578 122.959 164.738 123.659 164.743C124.222 164.752 124.704 164.649 125.107 164.434C125.514 164.215 125.836 163.894 126.074 163.474C126.312 163.053 126.465 162.536 126.534 161.923H124.613V160.77H128.057C128.066 160.853 128.073 160.963 128.077 161.1C128.082 161.232 128.084 161.317 128.084 161.354C128.084 162.268 127.908 163.085 127.556 163.803C127.204 164.521 126.692 165.086 126.019 165.498C125.347 165.905 124.533 166.108 123.577 166.108ZM134.161 165.902V161.82L130.82 156.023H132.494L134.889 160.174L137.283 156.023H138.957L135.616 161.82V165.902H134.161ZM150.064 165.902V157.374H146.778V156.023H154.784V157.374H151.498V165.902H150.064ZM158.626 165.902V156.023H160.06V160.283H165V156.023H166.441V165.902H165V161.635H160.06V165.902H158.626ZM170.427 165.902L173.637 156.023H175.703L178.913 165.902H177.425L174.468 156.887H174.838L171.915 165.902H170.427ZM172.094 163.673V162.328H177.253V163.673H172.094ZM184.534 165.902V157.374H181.248V156.023H189.255V157.374H185.968V165.902H184.534ZM200.265 165.902L197.397 156.023H198.9L200.979 163.494L203.058 156.03L204.567 156.023L206.646 163.494L208.725 156.023H210.234L207.359 165.902H205.932L203.812 158.513L201.692 165.902H200.265ZM217.985 166.108C216.997 166.108 216.155 165.893 215.46 165.463C214.765 165.029 214.232 164.425 213.862 163.652C213.496 162.879 213.313 161.983 213.313 160.963C213.313 159.943 213.496 159.046 213.862 158.273C214.232 157.5 214.765 156.899 215.46 156.469C216.155 156.034 216.997 155.817 217.985 155.817C218.968 155.817 219.808 156.034 220.503 156.469C221.203 156.899 221.736 157.5 222.101 158.273C222.467 159.046 222.65 159.943 222.65 160.963C222.65 161.983 222.467 162.879 222.101 163.652C221.736 164.425 221.203 165.029 220.503 165.463C219.808 165.893 218.968 166.108 217.985 166.108ZM217.985 164.743C218.685 164.752 219.266 164.599 219.728 164.283C220.194 163.963 220.544 163.519 220.777 162.952C221.011 162.38 221.127 161.717 221.127 160.963C221.127 160.208 221.011 159.549 220.777 158.987C220.544 158.419 220.194 157.978 219.728 157.662C219.266 157.347 218.685 157.187 217.985 157.182C217.285 157.173 216.702 157.326 216.235 157.642C215.773 157.957 215.426 158.401 215.193 158.973C214.959 159.545 214.84 160.208 214.836 160.963C214.831 161.717 214.946 162.378 215.179 162.945C215.412 163.508 215.762 163.947 216.229 164.263C216.7 164.578 217.285 164.738 217.985 164.743ZM226.763 165.902V156.023H230.756C230.852 156.023 230.971 156.027 231.113 156.036C231.255 156.041 231.39 156.055 231.518 156.078C232.067 156.165 232.524 156.352 232.89 156.64C233.26 156.928 233.537 157.292 233.72 157.731C233.903 158.17 233.995 158.655 233.995 159.186C233.995 159.972 233.793 160.652 233.391 161.223C232.988 161.79 232.384 162.145 231.579 162.287L230.996 162.355H228.197V165.902H226.763ZM232.54 165.902L230.592 161.882L232.039 161.511L234.18 165.902H232.54ZM228.197 160.997H230.701C230.793 160.997 230.893 160.992 231.003 160.983C231.118 160.974 231.225 160.958 231.326 160.935C231.618 160.866 231.854 160.741 232.032 160.558C232.211 160.37 232.339 160.155 232.417 159.913C232.494 159.67 232.533 159.428 232.533 159.186C232.533 158.943 232.494 158.703 232.417 158.465C232.339 158.223 232.211 158.01 232.032 157.827C231.854 157.64 231.618 157.512 231.326 157.443C231.225 157.415 231.118 157.397 231.003 157.388C230.893 157.379 230.793 157.374 230.701 157.374H228.197V160.997ZM238.432 165.902V156.023H239.866V160.633L244.003 156.023H245.787L241.416 160.846L246.109 165.902H244.271L239.866 161.182V165.902H238.432ZM252.985 166.108C252.276 166.108 251.636 165.987 251.064 165.745C250.497 165.498 250.028 165.148 249.658 164.695C249.292 164.237 249.054 163.695 248.944 163.069L250.44 162.842C250.591 163.446 250.906 163.917 251.387 164.256C251.867 164.59 252.427 164.757 253.068 164.757C253.466 164.757 253.831 164.695 254.165 164.571C254.499 164.443 254.767 164.263 254.968 164.029C255.174 163.791 255.277 163.508 255.277 163.179C255.277 163 255.245 162.842 255.181 162.705C255.121 162.568 255.037 162.449 254.927 162.348C254.822 162.243 254.691 162.154 254.536 162.081C254.385 162.003 254.218 161.937 254.035 161.882L251.503 161.134C251.256 161.061 251.005 160.967 250.749 160.853C250.493 160.734 250.257 160.581 250.042 160.393C249.832 160.201 249.66 159.965 249.527 159.686C249.395 159.403 249.328 159.06 249.328 158.657C249.328 158.049 249.484 157.534 249.795 157.114C250.111 156.688 250.536 156.368 251.071 156.153C251.606 155.934 252.205 155.824 252.869 155.824C253.536 155.833 254.133 155.952 254.659 156.181C255.19 156.409 255.629 156.739 255.977 157.168C256.329 157.594 256.571 158.111 256.704 158.719L255.167 158.98C255.098 158.609 254.952 158.291 254.728 158.026C254.504 157.756 254.229 157.55 253.905 157.409C253.58 157.262 253.228 157.187 252.848 157.182C252.482 157.173 252.146 157.228 251.84 157.347C251.538 157.466 251.295 157.633 251.112 157.848C250.934 158.063 250.845 158.31 250.845 158.589C250.845 158.863 250.925 159.085 251.085 159.254C251.245 159.423 251.442 159.558 251.675 159.659C251.913 159.755 252.148 159.835 252.382 159.899L254.207 160.414C254.435 160.478 254.694 160.565 254.982 160.674C255.275 160.78 255.556 160.928 255.826 161.12C256.1 161.312 256.327 161.569 256.505 161.889C256.683 162.204 256.772 162.602 256.772 163.083C256.772 163.581 256.672 164.02 256.471 164.4C256.269 164.775 255.993 165.09 255.64 165.347C255.293 165.598 254.89 165.788 254.433 165.916C253.976 166.044 253.493 166.108 252.985 166.108Z" fill="white"/>
<defs>
<filter id="filter0_f_2242_296" x="68.043" y="0" width="145.211" height="110.613" filterUnits="userSpaceOnUse" color-interpolation-filters="sRGB">
<feFlood flood-opacity="0" result="BackgroundImageFix"/>
<feBlend mode="normal" in="SourceGraphic" in2="BackgroundImageFix" result="shape"/>
<feGaussianBlur stdDeviation="5" result="effect1_foregroundBlur_2242_296"/>
</filter>
<linearGradient id="paint0_linear_2242_296" x1="124.204" y1="80.5859" x2="199.549" y2="33.4567" gradientUnits="userSpaceOnUse">
<stop stop-color="#2B98E3"/>
<stop offset="0.463247" stop-color="#31B6CB"/>
<stop offset="1" stop-color="#3CD4C7"/>
</linearGradient>
<linearGradient id="paint1_linear_2242_296" x1="83.8823" y1="53.687" x2="138.826" y2="77.3327" gradientUnits="userSpaceOnUse">
<stop stop-color="#05101F"/>
<stop offset="0.999999" stop-color="#2B98E3" stop-opacity="0"/>
</linearGradient>
<linearGradient id="paint2_linear_2242_296" x1="138.701" y1="35.5947" x2="81.1672" y2="64.3102" gradientUnits="userSpaceOnUse">
<stop stop-color="#2B98E3"/>
<stop offset="0.463247" stop-color="#31B6CB"/>
<stop offset="1" stop-color="#3CD4C7"/>
</linearGradient>
<linearGradient id="paint3_linear_2242_296" x1="202.021" y1="65.596" x2="129.688" y2="37.446" gradientUnits="userSpaceOnUse">
<stop stop-color="#05101F"/>
<stop offset="0.999999" stop-color="#2B98E3" stop-opacity="0"/>
</linearGradient>
<clipPath id="clip0_2242_296">
<rect width="125.21" height="90.6128" fill="white" transform="translate(78.043 10)"/>
</clipPath>
</defs>
</svg>
