<svg width="282" height="170" viewBox="0 0 282 170" fill="none" xmlns="http://www.w3.org/2000/svg">
<g filter="url(#filter0_f_2242_307)">
<g clip-path="url(#clip0_2242_307)">
<path d="M89.9444 74.3326L87.2051 72.7539C88.0807 73.3518 88.9961 73.8794 89.9444 74.3326Z" fill="#2A97E2"/>
<path d="M203.252 55.2709C203.252 58.387 202.566 61.4659 201.254 64.2745C199.505 68.0227 196.642 71.2895 192.816 73.5183L175.352 83.6896L150.907 97.9276C147.878 99.6911 144.503 100.587 141.121 100.614C137.688 100.641 134.25 99.7715 131.162 98.005L123.904 93.8528L123.857 93.8267C123.306 93.5142 122.734 93.1886 122.142 92.852C119.054 91.0955 115.463 89.0365 111.833 86.9484L111.806 86.9323C109.977 85.8802 108.14 84.8201 106.351 83.7881L105.551 83.3268L89.9437 74.3333L87.2044 72.7546C86.6346 72.3667 86.0817 71.9477 85.5488 71.5006L91.4408 64.8142L108.948 63.0617L116.232 63.7912L121.054 64.2745L124.615 64.6313L125.228 64.2745L132.926 59.7918L141.121 55.0187L142.065 54.469L150.027 49.8316V49.8306L171.952 37.0617C178.033 33.5196 185.148 33.4171 191.082 36.1563C194.885 37.9108 198.203 40.834 200.453 44.766C202.351 48.0811 203.252 51.6996 203.252 55.2709Z" fill="url(#paint0_linear_2242_307)"/>
<path d="M141.121 55.0195V100.614C137.688 100.642 134.25 99.7723 131.162 98.0058L123.904 93.8537L123.857 93.8275C123.306 93.515 122.734 93.1894 122.142 92.8528C119.054 91.0963 115.463 89.0373 111.833 86.9492L111.806 86.9331C109.977 85.881 108.14 84.8209 106.351 83.7889L105.551 83.3277L89.9437 74.3341L87.2044 72.7555C86.6346 72.3676 86.0817 71.9485 85.5488 71.5014L91.4408 64.815L108.948 63.0625L124.615 64.6321L141.121 55.0195Z" fill="url(#paint1_linear_2242_307)"/>
<path d="M180.789 30.204C180.608 30.0985 180.424 29.993 180.239 29.8855L178.9 29.1117C175.949 27.4055 172.705 25.5334 169.489 23.6824L169.462 23.6664C165.832 21.5782 162.241 19.5193 159.153 17.7628C158.562 17.4261 157.989 17.1005 157.438 16.788L157.391 16.7619L150.134 12.6098C144.004 9.10281 136.492 9.13194 130.389 12.6872L116.233 20.9321L105.943 26.9251L88.4792 37.0964C81.7854 40.9953 78.043 48.0696 78.043 55.3438C78.043 58.9151 78.9445 62.5337 80.8421 65.8487C82.1081 68.0604 83.7118 69.9536 85.5497 71.4991C86.0826 71.9463 86.6354 72.3653 87.2052 72.7532L89.9445 74.3318C95.6493 77.065 102.491 77.1475 108.464 74.0374C108.76 73.8836 109.053 73.7229 109.344 73.553L124.658 64.6338L125.278 64.2731L131.268 60.7842V60.7832L141.122 55.0444L142.071 54.4917L142.066 54.4676L150.028 49.8301V49.8291L171.952 37.0603C178.034 33.5181 185.149 33.4156 191.083 36.1549L180.789 30.204Z" fill="url(#paint2_linear_2242_307)"/>
<path d="M191.082 36.1549C185.148 33.4156 178.033 33.5181 171.952 37.0602L150.028 49.8291V49.8301L142.066 54.4676L142.071 54.4917L141.121 55.0444L131.268 60.7832V60.7842L125.277 64.2731H116.232V20.9321L130.388 12.6872C136.491 9.13194 144.003 9.10281 150.133 12.6098L157.391 16.7619L157.438 16.788C157.988 17.1005 158.561 17.4261 159.153 17.7628C162.241 19.5193 165.832 21.5782 169.462 23.6664L169.489 23.6824C172.704 25.5334 175.948 27.4055 178.9 29.1117L180.239 29.8855C180.424 29.993 180.607 30.0985 180.788 30.204L191.082 36.1549Z" fill="url(#paint3_linear_2242_307)"/>
</g>
</g>
<path d="M3.18771 141.902V120.908H11.5125C12.9315 120.908 14.093 121.195 14.9969 121.768C15.9106 122.332 16.5861 123.056 17.0235 123.941C17.4706 124.825 17.6941 125.739 17.6941 126.682C17.6941 127.838 17.4171 128.82 16.8631 129.627C16.3188 130.433 15.5752 130.978 14.6324 131.259V130.53C15.9543 130.832 16.9554 131.459 17.6358 132.411C18.3259 133.364 18.6709 134.447 18.6709 135.662C18.6709 136.907 18.4328 137.995 17.9565 138.928C17.4803 139.861 16.7707 140.59 15.828 141.115C14.8949 141.64 13.7383 141.902 12.3581 141.902H3.18771ZM6.74505 138.593H11.9207C12.533 138.593 13.0822 138.471 13.5682 138.228C14.0541 137.976 14.4332 137.626 14.7053 137.179C14.9872 136.722 15.1281 136.182 15.1281 135.56C15.1281 134.997 15.0067 134.491 14.7637 134.044C14.5207 133.597 14.1659 133.242 13.6994 132.98C13.2328 132.708 12.674 132.572 12.0228 132.572H6.74505V138.593ZM6.74505 129.291H11.4687C11.9742 129.291 12.4261 129.194 12.8246 129C13.2231 128.805 13.539 128.519 13.7723 128.139C14.0055 127.76 14.1222 127.294 14.1222 126.74C14.1222 126.011 13.8889 125.403 13.4224 124.917C12.9558 124.431 12.3046 124.189 11.4687 124.189H6.74505V129.291ZM21.8743 141.902V120.471H25.3879V141.902H21.8743ZM35.6597 142.354C34.4933 142.354 33.5311 142.16 32.773 141.771C32.0148 141.382 31.4122 140.887 30.9651 140.284C30.518 139.681 30.1876 139.04 29.9737 138.36C29.7599 137.679 29.619 137.038 29.5509 136.435C29.4926 135.823 29.4635 135.327 29.4635 134.948V126.157H33.0208V133.738C33.0208 134.224 33.0548 134.773 33.1229 135.385C33.1909 135.988 33.3464 136.571 33.5894 137.135C33.8421 137.689 34.2114 138.146 34.6974 138.505C35.1931 138.865 35.8589 139.045 36.6948 139.045C37.1419 139.045 37.5841 138.972 38.0215 138.826C38.4589 138.68 38.8525 138.432 39.2024 138.083C39.562 137.723 39.8488 137.232 40.0626 136.61C40.2764 135.988 40.3833 135.201 40.3833 134.248L42.4682 135.138C42.4682 136.479 42.2058 137.694 41.6809 138.782C41.1658 139.871 40.4028 140.741 39.392 141.392C38.3811 142.034 37.137 142.354 35.6597 142.354ZM40.8061 141.902V137.018H40.3833V126.157H43.9115V141.902H40.8061ZM55.1661 142.34C53.5721 142.34 52.1724 141.995 50.9672 141.305C49.762 140.615 48.8192 139.657 48.1388 138.432C47.4682 137.208 47.1329 135.798 47.1329 134.204C47.1329 132.484 47.4633 130.992 48.1243 129.729C48.7852 128.455 49.7037 127.469 50.8798 126.769C52.0558 126.069 53.4165 125.719 54.962 125.719C56.5948 125.719 57.9799 126.103 59.117 126.871C60.264 127.629 61.1144 128.703 61.6684 130.093C62.2224 131.483 62.4314 133.121 62.2953 135.006H58.8109V133.723C58.8012 132.013 58.4999 130.764 57.907 129.976C57.3141 129.189 56.381 128.796 55.1077 128.796C53.6693 128.796 52.6001 129.243 51.9003 130.137C51.2005 131.021 50.8506 132.319 50.8506 134.03C50.8506 135.624 51.2005 136.858 51.9003 137.733C52.6001 138.607 53.6207 139.045 54.962 139.045C55.827 139.045 56.5705 138.855 57.1926 138.476C57.8244 138.087 58.3103 137.529 58.6505 136.8L62.1204 137.849C61.5178 139.268 60.5847 140.372 59.3212 141.159C58.0673 141.946 56.6823 142.34 55.1661 142.34ZM49.7426 135.006V132.353H60.575V135.006H49.7426ZM71.6773 141.902V120.908H75.1909V141.902H71.6773ZM85.6377 142.34C83.6938 142.34 82.1144 141.902 80.8994 141.028C79.6845 140.153 78.9458 138.923 78.6834 137.339L82.2699 136.785C82.4545 137.563 82.8628 138.175 83.4945 138.622C84.1263 139.069 84.9233 139.293 85.8855 139.293C86.7311 139.293 87.3823 139.127 87.8392 138.797C88.3057 138.457 88.539 137.995 88.539 137.412C88.539 137.052 88.4515 136.766 88.2765 136.552C88.1113 136.328 87.742 136.114 87.1685 135.91C86.5951 135.706 85.7154 135.449 84.5297 135.138C83.2078 134.788 82.1581 134.413 81.3805 134.015C80.603 133.607 80.0441 133.126 79.7039 132.572C79.3637 132.018 79.1936 131.347 79.1936 130.56C79.1936 129.578 79.4512 128.723 79.9663 127.994C80.4815 127.265 81.2007 126.706 82.1241 126.317C83.0474 125.919 84.136 125.719 85.3898 125.719C86.6145 125.719 87.6982 125.909 88.641 126.288C89.5935 126.667 90.3614 127.206 90.9445 127.906C91.5277 128.606 91.8873 129.427 92.0234 130.37L88.4369 131.012C88.3494 130.341 88.0433 129.811 87.5184 129.422C87.0033 129.034 86.3132 128.815 85.4482 128.766C84.622 128.718 83.9562 128.844 83.4508 129.145C82.9454 129.437 82.6927 129.85 82.6927 130.385C82.6927 130.686 82.7947 130.944 82.9988 131.157C83.2029 131.371 83.6112 131.585 84.2235 131.799C84.8455 132.013 85.7689 132.275 86.9936 132.586C88.2474 132.907 89.2485 133.276 89.9969 133.694C90.755 134.102 91.2993 134.593 91.6298 135.167C91.97 135.74 92.14 136.435 92.14 137.252C92.14 138.836 91.5617 140.08 90.4051 140.984C89.2582 141.888 87.6691 142.34 85.6377 142.34ZM95.625 141.902V120.471H99.1386V141.902H95.625ZM107.909 142.34C106.772 142.34 105.809 142.126 105.022 141.698C104.235 141.261 103.637 140.683 103.229 139.963C102.83 139.244 102.631 138.452 102.631 137.587C102.631 136.829 102.757 136.148 103.01 135.546C103.263 134.933 103.652 134.409 104.176 133.971C104.701 133.524 105.382 133.16 106.217 132.878C106.849 132.674 107.588 132.489 108.434 132.324C109.289 132.159 110.212 132.008 111.204 131.872C112.205 131.726 113.25 131.57 114.338 131.405L113.084 132.12C113.094 131.031 112.851 130.229 112.355 129.714C111.86 129.199 111.024 128.941 109.848 128.941C109.138 128.941 108.453 129.107 107.792 129.437C107.131 129.768 106.669 130.336 106.407 131.143L103.2 130.137C103.588 128.805 104.327 127.736 105.416 126.929C106.514 126.123 107.991 125.719 109.848 125.719C111.247 125.719 112.477 125.948 113.536 126.405C114.605 126.861 115.398 127.61 115.913 128.65C116.195 129.204 116.365 129.772 116.423 130.356C116.481 130.929 116.51 131.556 116.51 132.236V141.902H113.434V138.491L113.945 139.045C113.235 140.182 112.404 141.018 111.451 141.552C110.509 142.077 109.328 142.34 107.909 142.34ZM108.608 139.54C109.405 139.54 110.086 139.4 110.65 139.118C111.213 138.836 111.66 138.491 111.991 138.083C112.331 137.674 112.559 137.29 112.676 136.931C112.861 136.484 112.963 135.973 112.982 135.4C113.011 134.817 113.026 134.345 113.026 133.986L114.105 134.307C113.045 134.472 112.137 134.618 111.379 134.744C110.62 134.87 109.969 134.992 109.425 135.108C108.881 135.215 108.4 135.337 107.982 135.473C107.573 135.619 107.228 135.789 106.946 135.983C106.665 136.178 106.446 136.401 106.29 136.654C106.145 136.907 106.072 137.203 106.072 137.543C106.072 137.932 106.169 138.277 106.363 138.578C106.558 138.87 106.84 139.103 107.209 139.278C107.588 139.453 108.054 139.54 108.608 139.54ZM131.197 141.902V134.321C131.197 133.825 131.163 133.276 131.095 132.674C131.027 132.071 130.866 131.493 130.614 130.939C130.371 130.375 130.001 129.913 129.506 129.554C129.02 129.194 128.359 129.014 127.523 129.014C127.076 129.014 126.634 129.087 126.196 129.233C125.759 129.379 125.36 129.631 125.001 129.991C124.651 130.341 124.369 130.827 124.155 131.449C123.941 132.061 123.834 132.849 123.834 133.811L121.749 132.922C121.749 131.58 122.007 130.365 122.522 129.277C123.047 128.188 123.815 127.323 124.826 126.682C125.837 126.03 127.081 125.705 128.558 125.705C129.724 125.705 130.687 125.899 131.445 126.288C132.203 126.677 132.805 127.172 133.253 127.775C133.7 128.378 134.03 129.019 134.244 129.699C134.458 130.38 134.594 131.026 134.652 131.639C134.72 132.241 134.754 132.732 134.754 133.111V141.902H131.197ZM120.277 141.902V126.157H123.411V131.041H123.834V141.902H120.277ZM144.615 142.34C143.167 142.34 141.903 141.975 140.825 141.246C139.746 140.517 138.91 139.526 138.317 138.272C137.724 137.018 137.428 135.604 137.428 134.03C137.428 132.436 137.724 131.016 138.317 129.772C138.92 128.519 139.77 127.532 140.868 126.813C141.967 126.084 143.259 125.719 144.746 125.719C146.243 125.719 147.497 126.084 148.508 126.813C149.528 127.532 150.301 128.519 150.826 129.772C151.351 131.026 151.613 132.445 151.613 134.03C151.613 135.594 151.351 137.009 150.826 138.272C150.301 139.526 149.519 140.517 148.479 141.246C147.439 141.975 146.151 142.34 144.615 142.34ZM145.155 139.191C146.097 139.191 146.856 138.977 147.429 138.549C148.012 138.112 148.435 137.504 148.697 136.727C148.97 135.949 149.106 135.05 149.106 134.03C149.106 132.999 148.97 132.1 148.697 131.332C148.435 130.555 148.022 129.952 147.458 129.525C146.894 129.087 146.166 128.868 145.271 128.868C144.329 128.868 143.551 129.102 142.939 129.568C142.326 130.025 141.874 130.647 141.583 131.434C141.291 132.212 141.145 133.077 141.145 134.03C141.145 134.992 141.286 135.867 141.568 136.654C141.86 137.431 142.302 138.049 142.895 138.505C143.488 138.962 144.241 139.191 145.155 139.191ZM149.106 141.902V130.851H148.668V120.908H152.211V141.902H149.106ZM169.907 142.34C168.371 142.34 166.986 142.072 165.752 141.538C164.527 141.003 163.516 140.24 162.719 139.249C161.932 138.248 161.431 137.062 161.218 135.692L164.862 135.138C165.173 136.382 165.81 137.344 166.772 138.024C167.744 138.705 168.862 139.045 170.126 139.045C170.874 139.045 171.579 138.928 172.24 138.695C172.9 138.462 173.435 138.121 173.843 137.674C174.261 137.227 174.47 136.678 174.47 136.027C174.47 135.735 174.422 135.468 174.324 135.225C174.227 134.972 174.081 134.749 173.887 134.554C173.702 134.36 173.459 134.185 173.158 134.03C172.866 133.864 172.526 133.723 172.138 133.607L166.714 132.003C166.247 131.867 165.742 131.687 165.198 131.464C164.663 131.23 164.153 130.914 163.667 130.516C163.191 130.108 162.797 129.593 162.486 128.971C162.185 128.339 162.034 127.561 162.034 126.638C162.034 125.287 162.374 124.154 163.055 123.241C163.745 122.317 164.668 121.627 165.825 121.171C166.991 120.714 168.284 120.49 169.703 120.5C171.141 120.51 172.424 120.758 173.552 121.243C174.679 121.72 175.622 122.415 176.38 123.328C177.138 124.242 177.673 125.345 177.984 126.638L174.208 127.294C174.052 126.555 173.751 125.928 173.304 125.413C172.866 124.888 172.327 124.49 171.686 124.218C171.054 123.946 170.378 123.8 169.659 123.78C168.959 123.771 168.308 123.877 167.705 124.101C167.113 124.315 166.631 124.626 166.262 125.034C165.902 125.442 165.723 125.919 165.723 126.463C165.723 126.978 165.878 127.401 166.189 127.731C166.5 128.052 166.884 128.31 167.341 128.504C167.807 128.689 168.279 128.844 168.755 128.971L172.517 130.02C173.032 130.156 173.61 130.341 174.252 130.574C174.893 130.808 175.51 131.133 176.103 131.551C176.696 131.969 177.182 132.518 177.561 133.199C177.95 133.879 178.144 134.744 178.144 135.794C178.144 136.882 177.916 137.84 177.459 138.666C177.012 139.482 176.404 140.163 175.637 140.707C174.869 141.251 173.989 141.659 172.998 141.932C172.016 142.204 170.986 142.34 169.907 142.34ZM188.458 142.34C186.864 142.34 185.465 141.995 184.26 141.305C183.054 140.615 182.112 139.657 181.431 138.432C180.76 137.208 180.425 135.798 180.425 134.204C180.425 132.484 180.756 130.992 181.417 129.729C182.077 128.455 182.996 127.469 184.172 126.769C185.348 126.069 186.709 125.719 188.254 125.719C189.887 125.719 191.272 126.103 192.409 126.871C193.556 127.629 194.407 128.703 194.961 130.093C195.515 131.483 195.724 133.121 195.588 135.006H192.103V133.723C192.093 132.013 191.792 130.764 191.199 129.976C190.606 129.189 189.673 128.796 188.4 128.796C186.962 128.796 185.892 129.243 185.193 130.137C184.493 131.021 184.143 132.319 184.143 134.03C184.143 135.624 184.493 136.858 185.193 137.733C185.892 138.607 186.913 139.045 188.254 139.045C189.119 139.045 189.863 138.855 190.485 138.476C191.117 138.087 191.603 137.529 191.943 136.8L195.413 137.849C194.81 139.268 193.877 140.372 192.613 141.159C191.36 141.946 189.975 142.34 188.458 142.34ZM183.035 135.006V132.353H193.867V135.006H183.035ZM205.678 142.34C204.055 142.34 202.67 141.98 201.523 141.261C200.376 140.532 199.497 139.54 198.884 138.287C198.282 137.033 197.976 135.614 197.966 134.03C197.976 132.416 198.291 130.987 198.914 129.743C199.545 128.489 200.439 127.508 201.596 126.798C202.753 126.079 204.128 125.719 205.722 125.719C207.51 125.719 209.022 126.171 210.256 127.075C211.5 127.969 212.312 129.194 212.691 130.749L209.192 131.697C208.92 130.851 208.468 130.195 207.836 129.729C207.204 129.252 206.485 129.014 205.678 129.014C204.765 129.014 204.011 129.233 203.419 129.67C202.826 130.098 202.388 130.691 202.106 131.449C201.825 132.207 201.684 133.067 201.684 134.03C201.684 135.526 202.019 136.736 202.69 137.66C203.36 138.583 204.356 139.045 205.678 139.045C206.611 139.045 207.345 138.831 207.88 138.403C208.424 137.976 208.832 137.358 209.104 136.552L212.691 137.354C212.205 138.957 211.355 140.192 210.14 141.057C208.925 141.912 207.438 142.34 205.678 142.34ZM221.517 142.354C220.351 142.354 219.389 142.16 218.63 141.771C217.872 141.382 217.27 140.887 216.823 140.284C216.375 139.681 216.045 139.04 215.831 138.36C215.617 137.679 215.476 137.038 215.408 136.435C215.35 135.823 215.321 135.327 215.321 134.948V126.157H218.878V133.738C218.878 134.224 218.912 134.773 218.98 135.385C219.048 135.988 219.204 136.571 219.447 137.135C219.7 137.689 220.069 138.146 220.555 138.505C221.051 138.865 221.716 139.045 222.552 139.045C222.999 139.045 223.442 138.972 223.879 138.826C224.316 138.68 224.71 138.432 225.06 138.083C225.419 137.723 225.706 137.232 225.92 136.61C226.134 135.988 226.241 135.201 226.241 134.248L228.326 135.138C228.326 136.479 228.063 137.694 227.538 138.782C227.023 139.871 226.26 140.741 225.249 141.392C224.239 142.034 222.994 142.354 221.517 142.354ZM226.664 141.902V137.018H226.241V126.157H229.769V141.902H226.664ZM233.865 141.902V126.157H236.97V129.991L236.591 129.495C236.786 128.971 237.043 128.494 237.364 128.067C237.695 127.629 238.088 127.27 238.545 126.988C238.934 126.725 239.361 126.521 239.828 126.375C240.304 126.22 240.79 126.128 241.286 126.098C241.782 126.06 242.263 126.079 242.729 126.157V129.437C242.263 129.301 241.723 129.257 241.111 129.306C240.508 129.354 239.964 129.525 239.478 129.816C238.992 130.079 238.594 130.414 238.283 130.822C237.981 131.23 237.758 131.697 237.612 132.222C237.466 132.737 237.393 133.296 237.393 133.898V141.902H233.865ZM245.803 123.766V120.544H249.317V123.766H245.803ZM245.803 141.902V126.157H249.317V141.902H245.803ZM262.912 141.902C261.873 142.097 260.852 142.179 259.851 142.15C258.859 142.131 257.97 141.951 257.183 141.611C256.396 141.261 255.798 140.712 255.39 139.963C255.03 139.283 254.84 138.588 254.821 137.878C254.802 137.169 254.792 136.367 254.792 135.473V121.783H258.291V135.269C258.291 135.901 258.296 136.455 258.305 136.931C258.325 137.407 258.427 137.796 258.612 138.097C258.962 138.68 259.52 139.006 260.288 139.074C261.056 139.142 261.931 139.103 262.912 138.957V141.902ZM251.934 128.912V126.157H262.912V128.912H251.934ZM267.941 148.9L270.974 140.576L271.032 143.025L264.165 126.157H267.825L272.694 138.637H271.761L276.499 126.157H280.013L271.236 148.9H267.941Z" fill="white"/>
<path d="M45.4855 165.902V156.023H46.94L51.8044 163.364V156.023H53.2589V165.902H51.8044L46.94 158.554V165.902H45.4855ZM57.232 165.902L60.4429 156.023H62.508L65.7189 165.902H64.2301L61.2731 156.887H61.6436L58.7208 165.902H57.232ZM58.8992 163.673V162.328H64.0586V163.673H58.8992ZM71.0483 165.902L67.8374 156.023H69.3262L72.0637 164.455L74.8355 156.023H76.3243L73.1134 165.902H71.0483ZM80.2405 165.902V156.023H81.6744V165.902H80.2405ZM90.5201 166.108C89.8569 166.108 89.2463 165.994 88.6883 165.765C88.1302 165.532 87.6454 165.193 87.2338 164.75C86.8221 164.306 86.5019 163.766 86.2732 163.131C86.0445 162.495 85.9302 161.772 85.9302 160.963C85.9302 159.897 86.1246 158.982 86.5134 158.218C86.9022 157.45 87.4419 156.86 88.1325 156.448C88.8232 156.032 89.619 155.824 90.5201 155.824C91.6819 155.824 92.6081 156.094 93.2987 156.633C93.994 157.173 94.4674 157.919 94.7189 158.87L93.2644 159.131C93.0632 158.541 92.7384 158.07 92.2902 157.717C91.842 157.365 91.2794 157.187 90.6024 157.182C89.9026 157.178 89.3195 157.333 88.8529 157.649C88.391 157.964 88.0433 158.408 87.8101 158.98C87.5768 159.547 87.4579 160.208 87.4533 160.963C87.4487 161.717 87.5631 162.378 87.7963 162.945C88.0296 163.508 88.3795 163.947 88.8461 164.263C89.3172 164.578 89.9026 164.738 90.6024 164.743C91.165 164.752 91.6476 164.649 92.0501 164.434C92.4571 164.215 92.7796 163.894 93.0174 163.474C93.2553 163.053 93.4085 162.536 93.4771 161.923H91.5561V160.77H95.0002C95.0094 160.853 95.0162 160.963 95.0208 161.1C95.0254 161.232 95.0277 161.317 95.0277 161.354C95.0277 162.268 94.8516 163.085 94.4994 163.803C94.1472 164.521 93.6349 165.086 92.9626 165.498C92.2902 165.905 91.476 166.108 90.5201 166.108ZM98.1854 165.902L101.396 156.023H103.461L106.672 165.902H105.183L102.226 156.887H102.597L99.6742 165.902H98.1854ZM99.8526 163.673V162.328H105.012V163.673H99.8526ZM112.293 165.902V157.374H109.007V156.023H117.013V157.374H113.727V165.902H112.293ZM120.856 165.902V156.023H127.168V157.374H122.29V160.146H126.344V161.498H122.29V164.551H127.168V165.902H120.856ZM141.174 166.108C140.186 166.108 139.345 165.893 138.65 165.463C137.954 165.029 137.421 164.425 137.051 163.652C136.685 162.879 136.502 161.983 136.502 160.963C136.502 159.943 136.685 159.046 137.051 158.273C137.421 157.5 137.954 156.899 138.65 156.469C139.345 156.034 140.186 155.817 141.174 155.817C142.313 155.817 143.255 156.105 144.001 156.681C144.751 157.258 145.273 158.033 145.565 159.007L144.111 159.398C143.919 158.708 143.576 158.166 143.082 157.772C142.592 157.379 141.956 157.182 141.174 157.182C140.475 157.182 139.891 157.34 139.425 157.656C138.958 157.971 138.606 158.413 138.368 158.98C138.135 159.547 138.018 160.208 138.018 160.963C138.014 161.717 138.128 162.378 138.361 162.945C138.599 163.512 138.951 163.954 139.418 164.269C139.889 164.585 140.475 164.743 141.174 164.743C141.956 164.743 142.592 164.546 143.082 164.153C143.576 163.755 143.919 163.213 144.111 162.527L145.565 162.918C145.273 163.892 144.751 164.667 144.001 165.244C143.255 165.82 142.313 166.108 141.174 166.108ZM151.784 165.902V161.82L148.443 156.023H150.117L152.511 160.174L154.906 156.023H156.58L153.238 161.82V165.902H151.784ZM160.281 165.902V156.023H164.165C164.791 156.023 165.317 156.151 165.743 156.407C166.168 156.663 166.488 156.995 166.703 157.402C166.918 157.804 167.026 158.23 167.026 158.678C167.026 159.222 166.891 159.689 166.621 160.077C166.355 160.466 165.996 160.732 165.544 160.873L165.53 160.537C166.161 160.693 166.646 160.997 166.984 161.45C167.323 161.898 167.492 162.422 167.492 163.021C167.492 163.602 167.375 164.107 167.142 164.537C166.913 164.967 166.577 165.303 166.134 165.546C165.695 165.783 165.162 165.902 164.535 165.902H160.281ZM161.736 164.537H164.316C164.64 164.537 164.931 164.475 165.187 164.352C165.448 164.228 165.651 164.052 165.797 163.824C165.948 163.59 166.024 163.314 166.024 162.993C166.024 162.696 165.958 162.428 165.825 162.191C165.697 161.948 165.509 161.758 165.262 161.621C165.02 161.479 164.734 161.408 164.405 161.408H161.736V164.537ZM161.736 160.057H164.144C164.409 160.057 164.647 160.004 164.858 159.899C165.073 159.789 165.242 159.634 165.365 159.433C165.493 159.227 165.557 158.98 165.557 158.692C165.557 158.307 165.429 157.992 165.173 157.745C164.917 157.498 164.574 157.374 164.144 157.374H161.736V160.057ZM171.602 165.902V156.023H177.914V157.374H173.036V160.146H177.09V161.498H173.036V164.551H177.914V165.902H171.602ZM182.306 165.902V156.023H186.299C186.395 156.023 186.514 156.027 186.656 156.036C186.797 156.041 186.932 156.055 187.06 156.078C187.609 156.165 188.067 156.352 188.432 156.64C188.803 156.928 189.08 157.292 189.263 157.731C189.446 158.17 189.537 158.655 189.537 159.186C189.537 159.972 189.336 160.652 188.933 161.223C188.531 161.79 187.927 162.145 187.122 162.287L186.539 162.355H183.74V165.902H182.306ZM188.083 165.902L186.134 161.882L187.582 161.511L189.722 165.902H188.083ZM183.74 160.997H186.244C186.335 160.997 186.436 160.992 186.546 160.983C186.66 160.974 186.768 160.958 186.868 160.935C187.161 160.866 187.396 160.741 187.575 160.558C187.753 160.37 187.881 160.155 187.959 159.913C188.037 159.67 188.076 159.428 188.076 159.186C188.076 158.943 188.037 158.703 187.959 158.465C187.881 158.223 187.753 158.01 187.575 157.827C187.396 157.64 187.161 157.512 186.868 157.443C186.768 157.415 186.66 157.397 186.546 157.388C186.436 157.379 186.335 157.374 186.244 157.374H183.74V160.997ZM199.466 165.902V156.023H203.459C203.555 156.023 203.674 156.027 203.816 156.036C203.957 156.041 204.092 156.055 204.22 156.078C204.769 156.165 205.227 156.352 205.593 156.64C205.963 156.928 206.24 157.292 206.423 157.731C206.606 158.17 206.697 158.655 206.697 159.186C206.697 159.972 206.496 160.652 206.093 161.223C205.691 161.79 205.087 162.145 204.282 162.287L203.699 162.355H200.9V165.902H199.466ZM205.243 165.902L203.294 161.882L204.742 161.511L206.882 165.902H205.243ZM200.9 160.997H203.404C203.495 160.997 203.596 160.992 203.706 160.983C203.82 160.974 203.928 160.958 204.028 160.935C204.321 160.866 204.557 160.741 204.735 160.558C204.913 160.37 205.041 160.155 205.119 159.913C205.197 159.67 205.236 159.428 205.236 159.186C205.236 158.943 205.197 158.703 205.119 158.465C205.041 158.223 204.913 158.01 204.735 157.827C204.557 157.64 204.321 157.512 204.028 157.443C203.928 157.415 203.82 157.397 203.706 157.388C203.596 157.379 203.495 157.374 203.404 157.374H200.9V160.997ZM211.272 165.902V156.023H212.706V165.902H211.272ZM221.092 166.108C220.383 166.108 219.742 165.987 219.171 165.745C218.604 165.498 218.135 165.148 217.764 164.695C217.398 164.237 217.161 163.695 217.051 163.069L218.546 162.842C218.697 163.446 219.013 163.917 219.493 164.256C219.973 164.59 220.534 164.757 221.174 164.757C221.572 164.757 221.938 164.695 222.272 164.571C222.606 164.443 222.873 164.263 223.075 164.029C223.28 163.791 223.383 163.508 223.383 163.179C223.383 163 223.351 162.842 223.287 162.705C223.228 162.568 223.143 162.449 223.033 162.348C222.928 162.243 222.798 162.154 222.642 162.081C222.491 162.003 222.324 161.937 222.141 161.882L219.61 161.134C219.363 161.061 219.111 160.967 218.855 160.853C218.599 160.734 218.363 160.581 218.148 160.393C217.938 160.201 217.767 159.965 217.634 159.686C217.501 159.403 217.435 159.06 217.435 158.657C217.435 158.049 217.59 157.534 217.901 157.114C218.217 156.688 218.642 156.368 219.178 156.153C219.713 155.934 220.312 155.824 220.975 155.824C221.643 155.833 222.24 155.952 222.766 156.181C223.296 156.409 223.735 156.739 224.083 157.168C224.435 157.594 224.678 158.111 224.81 158.719L223.274 158.98C223.205 158.609 223.059 158.291 222.834 158.026C222.61 157.756 222.336 157.55 222.011 157.409C221.686 157.262 221.334 157.187 220.955 157.182C220.589 157.173 220.252 157.228 219.946 157.347C219.644 157.466 219.402 157.633 219.219 157.848C219.04 158.063 218.951 158.31 218.951 158.589C218.951 158.863 219.031 159.085 219.191 159.254C219.351 159.423 219.548 159.558 219.781 159.659C220.019 159.755 220.255 159.835 220.488 159.899L222.313 160.414C222.542 160.478 222.8 160.565 223.088 160.674C223.381 160.78 223.662 160.928 223.932 161.12C224.207 161.312 224.433 161.569 224.611 161.889C224.79 162.204 224.879 162.602 224.879 163.083C224.879 163.581 224.778 164.02 224.577 164.4C224.376 164.775 224.099 165.09 223.747 165.347C223.399 165.598 222.997 165.788 222.539 165.916C222.082 166.044 221.599 166.108 221.092 166.108ZM229.085 165.902V156.023H230.519V160.633L234.656 156.023H236.44L232.07 160.846L236.763 165.902H234.924L230.519 161.182V165.902H229.085Z" fill="white"/>
<defs>
<filter id="filter0_f_2242_307" x="68.043" y="0" width="145.211" height="110.613" filterUnits="userSpaceOnUse" color-interpolation-filters="sRGB">
<feFlood flood-opacity="0" result="BackgroundImageFix"/>
<feBlend mode="normal" in="SourceGraphic" in2="BackgroundImageFix" result="shape"/>
<feGaussianBlur stdDeviation="5" result="effect1_foregroundBlur_2242_307"/>
</filter>
<linearGradient id="paint0_linear_2242_307" x1="124.204" y1="80.5859" x2="199.549" y2="33.4567" gradientUnits="userSpaceOnUse">
<stop stop-color="#2B98E3"/>
<stop offset="0.463247" stop-color="#31B6CB"/>
<stop offset="1" stop-color="#3CD4C7"/>
</linearGradient>
<linearGradient id="paint1_linear_2242_307" x1="83.8823" y1="53.687" x2="138.826" y2="77.3327" gradientUnits="userSpaceOnUse">
<stop stop-color="#05101F"/>
<stop offset="0.999999" stop-color="#2B98E3" stop-opacity="0"/>
</linearGradient>
<linearGradient id="paint2_linear_2242_307" x1="138.701" y1="35.5947" x2="81.1672" y2="64.3102" gradientUnits="userSpaceOnUse">
<stop stop-color="#2B98E3"/>
<stop offset="0.463247" stop-color="#31B6CB"/>
<stop offset="1" stop-color="#3CD4C7"/>
</linearGradient>
<linearGradient id="paint3_linear_2242_307" x1="202.021" y1="65.596" x2="129.688" y2="37.446" gradientUnits="userSpaceOnUse">
<stop stop-color="#05101F"/>
<stop offset="0.999999" stop-color="#2B98E3" stop-opacity="0"/>
</linearGradient>
<clipPath id="clip0_2242_307">
<rect width="125.21" height="90.6128" fill="white" transform="translate(78.043 10)"/>
</clipPath>
</defs>
</svg>
