<svg width="60" height="44" viewBox="0 0 60 44" fill="none" xmlns="http://www.w3.org/2000/svg">
<g clip-path="url(#clip0_2036_2)">
<path d="M5.70328 30.8278L4.39062 30.0713C4.8102 30.3578 5.24886 30.6106 5.70328 30.8278Z" fill="#2A97E2"/>
<path d="M60.0005 21.693C60.0005 23.1862 59.6716 24.6616 59.043 26.0074C58.2048 27.8035 56.8329 29.369 54.9995 30.437L46.6309 35.311L34.9168 42.1338C33.4652 42.9788 31.848 43.4084 30.2275 43.4209C28.5826 43.4339 26.9348 43.0174 25.4551 42.1708L21.9773 40.1812L21.9548 40.1687C21.6909 40.0189 21.4164 39.8629 21.1329 39.7016C19.6531 38.8599 17.9324 37.8732 16.193 36.8726L16.1801 36.8649C15.3037 36.3607 14.423 35.8527 13.5658 35.3582L13.1824 35.1372L5.70363 30.8275L4.39097 30.071C4.11794 29.8852 3.85302 29.6844 3.59766 29.4701L6.42106 26.266L14.8102 25.4262L18.3009 25.7758L20.6116 26.0074L22.3181 26.1784L22.6116 26.0074L26.3005 23.8594L30.2275 21.5721L30.68 21.3087L34.4953 19.0865V19.086L45.0013 12.9672C47.9154 11.2698 51.325 11.2207 54.1685 12.5334C55.9909 13.3741 57.5809 14.7749 58.6592 16.6591C59.5685 18.2476 60.0005 19.9816 60.0005 21.693Z" fill="url(#paint0_linear_2036_2)"/>
<path d="M30.2275 21.5723V43.421C28.5826 43.434 26.9348 43.0175 25.4551 42.171L21.9773 40.1813L21.9548 40.1688C21.6909 40.0191 21.4164 39.863 21.1329 39.7017C19.6531 38.86 17.9324 37.8734 16.193 36.8728L16.1801 36.8651C15.3037 36.3609 14.423 35.8529 13.5658 35.3584L13.1825 35.1373L5.70363 30.8277L4.39097 30.0712C4.11794 29.8853 3.85302 29.6845 3.59766 29.4703L6.42106 26.2662L14.8102 25.4264L22.3181 26.1785L30.2275 21.5723Z" fill="url(#paint1_linear_2036_2)"/>
<path d="M49.2352 9.68165C49.1484 9.63108 49.0605 9.58052 48.9717 9.529L48.3302 9.15822C46.9159 8.34059 45.3612 7.44351 43.8204 6.55653L43.8075 6.54883C42.0681 5.54822 40.3473 4.56157 38.8676 3.71986C38.5841 3.55855 38.3096 3.40253 38.0457 3.25278L38.0232 3.24026L34.5454 1.25059C31.6079 -0.429928 28.0083 -0.415968 25.0837 1.28767L18.3004 5.2386L13.3696 8.11042L5.001 12.9844C1.79333 14.8528 0 18.2427 0 21.7285C0 23.4398 0.431987 25.1738 1.3413 26.7624C1.94799 27.8222 2.71649 28.7294 3.59717 29.47C3.85253 29.6842 4.11746 29.885 4.39049 30.0709L5.70315 30.8274C8.43682 32.1371 11.7151 32.1766 14.5777 30.6863C14.7195 30.6126 14.8598 30.5356 14.9992 30.4542L22.3376 26.1802L22.6346 26.0073L25.5052 24.3355V24.335L30.227 21.585L30.6819 21.3201L30.6795 21.3086L34.4948 19.0863V19.0859L45.0008 12.9671C47.9149 11.2697 51.3245 11.2206 54.168 12.5332L49.2352 9.68165Z" fill="url(#paint2_linear_2036_2)"/>
<path d="M54.1684 12.5332C51.3249 11.2206 47.9153 11.2697 45.0012 12.9671L34.4952 19.0859V19.0863L30.6799 21.3086L30.6823 21.3201L30.2274 21.585L25.5056 24.335V24.3355L22.6349 26.0073H18.3008V5.2386L25.0841 1.28767C28.0087 -0.415968 31.6083 -0.429928 34.5458 1.25059L38.0236 3.24026L38.046 3.25278C38.31 3.40253 38.5845 3.55855 38.868 3.71986C40.3477 4.56157 42.0685 5.54822 43.8079 6.54883L43.8208 6.55653C45.3616 7.44351 46.9163 8.34059 48.3306 9.15822L48.9721 9.529C49.0609 9.58052 49.1488 9.63108 49.2356 9.68164L54.1684 12.5332Z" fill="url(#paint3_linear_2036_2)"/>
</g>
<defs>
<linearGradient id="paint0_linear_2036_2" x1="22.1211" y1="33.8238" x2="58.2256" y2="11.2397" gradientUnits="userSpaceOnUse">
<stop stop-color="#2B98E3"/>
<stop offset="0.463247" stop-color="#31B6CB"/>
<stop offset="1" stop-color="#3CD4C7"/>
</linearGradient>
<linearGradient id="paint1_linear_2036_2" x1="2.79909" y1="20.9337" x2="29.1277" y2="32.2646" gradientUnits="userSpaceOnUse">
<stop stop-color="#05101F"/>
<stop offset="0.999999" stop-color="#2B98E3" stop-opacity="0"/>
</linearGradient>
<linearGradient id="paint2_linear_2036_2" x1="29.0668" y1="12.2648" x2="1.49712" y2="26.0251" gradientUnits="userSpaceOnUse">
<stop stop-color="#2B98E3"/>
<stop offset="0.463247" stop-color="#31B6CB"/>
<stop offset="1" stop-color="#3CD4C7"/>
</linearGradient>
<linearGradient id="paint3_linear_2036_2" x1="59.41" y1="26.6412" x2="24.7484" y2="13.1519" gradientUnits="userSpaceOnUse">
<stop stop-color="#05101F"/>
<stop offset="0.999999" stop-color="#2B98E3" stop-opacity="0"/>
</linearGradient>
<clipPath id="clip0_2036_2">
<rect width="60" height="43.4211" fill="white"/>
</clipPath>
</defs>
</svg>
